<svg width="11" height="8" viewBox="0 0 11 8" fill="none" xmlns="http://www.w3.org/2000/svg">
<path fill-rule="evenodd" clip-rule="evenodd" d="M10.5449 4.08211C10.5449 4.19814 10.4988 4.30942 10.4168 4.39147C10.3347 4.47352 10.2235 4.51961 10.1074 4.51961L2.36745 4.43756L5.12107 7.19031C5.20322 7.27247 5.24937 7.38389 5.24937 7.50006C5.24937 7.61624 5.20322 7.72766 5.12107 7.80981C5.03892 7.89197 4.9275 7.93812 4.81132 7.93812C4.69514 7.93812 4.58372 7.89197 4.50157 7.80981L1.00157 4.30981C0.960829 4.26917 0.928504 4.2209 0.906448 4.16774C0.884393 4.11459 0.87304 4.05761 0.87304 4.00006C0.87304 3.94252 0.884393 3.88554 0.906448 3.83238C0.928504 3.77923 0.960829 3.73095 1.00157 3.69031L4.50157 0.190314C4.58372 0.108163 4.69514 0.0620115 4.81132 0.0620115C4.9275 0.0620115 5.03892 0.108163 5.12107 0.190314C5.20322 0.272465 5.24937 0.383885 5.24937 0.500064C5.24937 0.616243 5.20322 0.727663 5.12107 0.809814L2.36745 3.56256L10.1074 3.64461C10.2235 3.64461 10.3347 3.69071 10.4168 3.77275C10.4988 3.8548 10.5449 3.96608 10.5449 4.08211Z" fill="black" fill-opacity="0.8"/>
</svg>
