<svg width="689" height="259" viewBox="0 0 689 259" fill="none" xmlns="http://www.w3.org/2000/svg">
<path d="M674 1H15C7.26801 1 1 7.26801 1 15V244C1 251.732 7.26801 258 15 258H674C681.732 258 688 251.732 688 244V15C688 7.26801 681.732 1 674 1Z" fill="white" fill-opacity="0.5"/>
<path d="M259.451 34.9997V30.9957H260.655C261.775 30.9957 261.999 31.4857 262.265 32.2977C262.615 33.3477 262.867 34.5097 263.175 34.9997H264.645C264.029 33.9917 263.609 32.4097 263.371 31.7657C263.063 30.9117 262.685 30.6037 261.789 30.4637V30.3237C262.643 30.1977 263.035 29.8617 263.357 29.0637C263.581 28.4897 263.903 27.2717 264.603 25.9277H263.203C262.867 26.4877 262.573 27.8317 262.237 28.7697C261.957 29.5397 261.649 29.8617 260.711 29.8617H259.451V25.9277H258.219V34.9997H259.451ZM268.993 35.1397C269.301 35.1397 269.637 35.0837 270.001 34.9017C270.631 34.5797 271.191 33.9077 271.443 32.9417C271.555 32.5077 271.625 32.0317 271.625 31.4997C271.625 30.9677 271.555 30.4917 271.443 30.0577C271.149 28.9097 270.337 27.9297 268.993 27.9297C267.831 27.9297 267.187 28.5457 266.907 29.6237L266.781 29.6097C266.865 29.1057 266.991 28.4617 266.991 28.1117V27.9997H265.787V37.4917H266.991V34.9577C266.991 34.6077 266.865 33.9637 266.781 33.4597L266.907 33.4457C267.187 34.5237 267.831 35.1397 268.993 35.1397ZM268.699 34.1457C267.705 34.1457 267.047 33.1657 267.047 31.4997C267.047 29.8617 267.705 28.8537 268.699 28.8537C269.679 28.8537 270.435 29.8617 270.435 31.4997C270.435 33.1657 269.679 34.1457 268.699 34.1457ZM278.267 32.6757L277.105 32.6617C277.105 33.7817 276.405 34.1737 275.677 34.1737C274.697 34.1737 273.927 33.4177 273.913 31.5697H278.183C278.225 31.3177 278.239 31.0517 278.239 30.8137C278.239 29.2037 277.413 27.8597 275.635 27.8597C273.647 27.8597 272.695 29.4837 272.695 31.5557C272.695 33.5437 273.577 35.1397 275.607 35.1397C277.217 35.1397 278.225 34.2157 278.267 32.6757ZM275.579 28.8117C276.503 28.8117 277.063 29.4417 277.063 30.6877V30.8137H273.927C273.997 29.6237 274.571 28.8117 275.579 28.8117ZM284.713 34.0617V27.9997H280.485C280.443 29.8057 280.387 31.8497 280.275 32.4237C280.079 33.4457 279.771 34.0617 279.099 34.0617H278.973V36.8757H279.981V34.9997H284.671V36.8757H285.679V34.0617H284.713ZM280.331 34.0617V33.9637C280.863 33.6557 281.171 33.0677 281.283 32.1577C281.339 31.6957 281.409 30.4637 281.465 29.0917H283.551V34.0617H280.331ZM290.945 29.3857L291.057 29.4137C290.903 30.1137 290.833 31.0797 290.819 32.0877L290.805 34.9997H291.967V27.9997H290.805L289.041 31.1077C288.257 32.4797 288.089 33.1377 287.823 33.7257L287.697 33.6697C287.879 33.0257 287.935 31.6817 287.935 30.6877V27.9997H286.773V34.9997H287.977L289.657 32.0457C290.511 30.5337 290.679 29.9877 290.945 29.3857ZM296.501 34.9997V29.0637H298.741V27.9997H293.057V29.0637H295.297V34.9997H296.501ZM303.686 34.9997V28.9657H306.416V34.9997H307.606V27.9997H302.496V34.9997H303.686ZM311.907 35.1397C313.769 35.1397 314.875 33.8237 314.875 31.4997C314.875 29.1757 313.769 27.8597 311.907 27.8597C310.045 27.8597 308.939 29.1757 308.939 31.4997C308.939 33.8237 310.045 35.1397 311.907 35.1397ZM311.907 34.1737C310.941 34.1737 310.227 33.3057 310.227 31.4997C310.227 29.7217 310.941 28.8117 311.907 28.8117C312.859 28.8117 313.587 29.7217 313.587 31.4997C313.587 33.3057 312.859 34.1737 311.907 34.1737ZM321.217 34.0617V27.9997H316.989C316.947 29.8057 316.891 31.8497 316.779 32.4237C316.583 33.4457 316.275 34.0617 315.603 34.0617H315.477V36.8757H316.485V34.9997H321.175V36.8757H322.183V34.0617H321.217ZM316.835 34.0617V33.9637C317.367 33.6557 317.675 33.0677 317.787 32.1577C317.843 31.6957 317.913 30.4637 317.969 29.0917H320.055V34.0617H316.835ZM326.615 33.0117H325.523C325.383 34.4817 326.251 35.1397 328.071 35.1257C329.597 35.1117 330.801 34.5657 330.801 33.0397C330.801 32.2977 330.227 31.4717 329.219 31.4577V31.2617C330.031 31.1777 330.521 30.5337 330.521 29.7497C330.521 28.4197 329.415 27.8457 328.015 27.8597C326.587 27.8737 325.453 28.4617 325.565 30.1417H326.657C326.545 28.9797 327.147 28.7137 328.001 28.7137C328.939 28.7137 329.387 29.0637 329.387 29.8477C329.387 30.5617 328.939 30.9397 328.211 30.9397H327.063V31.9337H328.309C329.121 31.9337 329.597 32.3117 329.597 33.1097C329.597 33.8517 329.065 34.2437 328.155 34.2577C327.315 34.2717 326.503 33.9777 326.615 33.0117ZM332.135 30.0717H333.269C333.129 29.3017 333.591 28.7837 334.501 28.7837C335.355 28.7837 335.803 29.2737 335.803 30.2957V30.5617C334.081 30.7157 331.785 30.8417 331.785 33.1517C331.785 34.1457 332.401 35.1397 333.843 35.1397C335.033 35.1397 335.607 34.4677 335.887 33.6137H336.013C335.929 34.0897 335.789 34.7057 335.789 34.8877V34.9997H336.979V30.3797C336.979 28.7977 336.377 27.8597 334.627 27.8597C332.961 27.8597 332.051 28.7697 332.135 30.0717ZM334.277 34.2437C333.493 34.2437 332.933 33.7257 332.933 32.9697C332.933 32.0597 333.465 31.4017 335.803 31.2337C335.831 31.6537 335.831 32.0877 335.803 32.5077C335.733 33.5017 335.145 34.2437 334.277 34.2437ZM338.079 34.0337L338.093 35.0977C339.759 35.0977 340.151 34.5237 340.263 33.5577C340.347 32.8997 340.445 30.7717 340.543 29.0357H342.559V34.9997H343.721V27.9997H339.507C339.423 29.8477 339.353 32.0037 339.241 33.1237C339.143 34.0757 338.583 34.0337 338.079 34.0337ZM348.028 35.1397C349.89 35.1397 350.996 33.8237 350.996 31.4997C350.996 29.1757 349.89 27.8597 348.028 27.8597C346.166 27.8597 345.06 29.1757 345.06 31.4997C345.06 33.8237 346.166 35.1397 348.028 35.1397ZM348.028 34.1737C347.062 34.1737 346.348 33.3057 346.348 31.4997C346.348 29.7217 347.062 28.8117 348.028 28.8117C348.98 28.8117 349.708 29.7217 349.708 31.4997C349.708 33.3057 348.98 34.1737 348.028 34.1737ZM353.492 34.9997V29.0917H356.418V27.9997H352.33V34.9997H353.492ZM361.299 34.9997V31.9617H364.239V34.9997H365.429V27.9997H364.239V30.8837H361.299V27.9997H360.109V34.9997H361.299ZM372.33 32.6757L371.168 32.6617C371.168 33.7817 370.468 34.1737 369.74 34.1737C368.76 34.1737 367.99 33.4177 367.976 31.5697H372.246C372.288 31.3177 372.302 31.0517 372.302 30.8137C372.302 29.2037 371.476 27.8597 369.698 27.8597C367.71 27.8597 366.758 29.4837 366.758 31.5557C366.758 33.5437 367.64 35.1397 369.67 35.1397C371.28 35.1397 372.288 34.2157 372.33 32.6757ZM369.642 28.8117C370.566 28.8117 371.126 29.4417 371.126 30.6877V30.8137H367.99C368.06 29.6237 368.634 28.8117 369.642 28.8117ZM378.776 34.0617V27.9997H374.548C374.506 29.8057 374.45 31.8497 374.338 32.4237C374.142 33.4457 373.834 34.0617 373.162 34.0617H373.036V36.8757H374.044V34.9997H378.734V36.8757H379.742V34.0617H378.776ZM374.394 34.0617V33.9637C374.926 33.6557 375.234 33.0677 375.346 32.1577C375.402 31.6957 375.472 30.4637 375.528 29.0917H377.614V34.0617H374.394ZM381.003 34.9997H382.151H383.705C384.209 34.9997 384.601 34.9717 384.979 34.8457C385.861 34.5657 386.323 33.8937 386.323 33.0397C386.323 32.3677 385.889 31.5137 384.615 31.4297V31.3317C385.623 31.1077 386.057 30.3657 386.057 29.7357C386.057 28.4757 385.077 27.9997 384.013 27.9997H382.151H381.003V34.9997ZM382.151 34.0757V31.8917H383.845C384.489 31.8917 385.147 32.1997 385.147 32.9697C385.147 33.7397 384.587 34.0757 383.803 34.0757H382.151ZM382.151 31.0097V28.8957H383.761C384.363 28.8957 384.895 29.1897 384.895 29.9037C384.895 30.6317 384.279 31.0097 383.593 31.0097H382.151ZM392.021 29.3857L392.133 29.4137C391.979 30.1137 391.909 31.0797 391.895 32.0877L391.881 34.9997H393.043V27.9997H391.881L390.117 31.1077C389.333 32.4797 389.165 33.1377 388.899 33.7257L388.773 33.6697C388.955 33.0257 389.011 31.6817 389.011 30.6877V27.9997H387.849V34.9997H389.053L390.733 32.0457C391.587 30.5337 391.755 29.9877 392.021 29.3857ZM395.38 27.9997H394.036C394.246 28.2657 394.358 28.5317 394.456 28.7697C394.764 29.4977 394.946 30.1277 395.128 30.5197C395.352 31.0377 395.618 31.2197 396.108 31.3177V31.4997C395.604 31.6117 395.31 31.8917 395.1 32.4377C394.96 32.8297 394.75 33.4877 394.47 34.1457C394.344 34.4397 394.204 34.7337 393.966 34.9997H395.38C395.632 34.6217 395.856 33.7257 396.122 32.9137C396.332 32.2837 396.584 31.9057 397.284 31.9057H397.802V34.9997H398.964V31.9057H399.482C400.182 31.9057 400.434 32.2837 400.644 32.9137C400.91 33.7257 401.134 34.6217 401.386 34.9997H402.786C402.548 34.7477 402.45 34.4957 402.324 34.2017C402.03 33.5297 401.82 32.8437 401.666 32.4377C401.456 31.8917 401.162 31.6117 400.658 31.4997V31.3177C401.148 31.2197 401.414 31.0377 401.638 30.5197C401.792 30.1837 401.96 29.6657 402.184 29.0637C402.324 28.7277 402.45 28.3777 402.716 27.9997H401.386C401.106 28.4337 400.868 29.4697 400.588 30.1977C400.364 30.7857 400.084 31.0377 399.482 31.0377H398.964V27.9997H397.802V31.0377H397.186C396.654 31.0237 396.388 30.7577 396.178 30.1977C395.898 29.4697 395.66 28.4337 395.38 27.9997ZM407.894 29.3857L408.006 29.4137C407.852 30.1137 407.782 31.0797 407.768 32.0877L407.754 34.9997H408.916V27.9997H407.754L405.99 31.1077C405.206 32.4797 405.038 33.1377 404.772 33.7257L404.646 33.6697C404.828 33.0257 404.884 31.6817 404.884 30.6877V27.9997H403.722V34.9997H404.926L406.606 32.0457C407.46 30.5337 407.628 29.9877 407.894 29.3857ZM418.001 27.9997H416.223L415.033 31.7797C414.795 32.5357 414.557 33.4877 414.417 34.1037H414.403C414.221 33.1937 413.927 32.2557 413.773 31.7377L412.667 27.9997H410.931L410.609 34.9997H411.687L411.813 30.7157C411.827 30.2257 411.827 29.7357 411.785 28.9937H411.925C412.065 29.7217 412.205 30.1697 412.429 30.9117L413.605 34.9437H415.075L416.167 31.3877C416.517 30.2257 416.699 29.6657 416.797 28.9937H416.937C416.951 29.6797 416.923 30.2817 416.937 30.8277L417.091 34.9997H418.281L418.001 27.9997ZM422.54 35.1397C424.402 35.1397 425.508 33.8237 425.508 31.4997C425.508 29.1757 424.402 27.8597 422.54 27.8597C420.678 27.8597 419.572 29.1757 419.572 31.4997C419.572 33.8237 420.678 35.1397 422.54 35.1397ZM422.54 34.1737C421.574 34.1737 420.86 33.3057 420.86 31.4997C420.86 29.7217 421.574 28.8117 422.54 28.8117C423.492 28.8117 424.22 29.7217 424.22 31.4997C424.22 33.3057 423.492 34.1737 422.54 34.1737ZM432.074 32.3117L430.912 32.2977C430.982 33.7817 430.212 34.2017 429.554 34.2017C428.49 34.2017 427.846 33.2917 427.846 31.4997C427.846 29.8057 428.448 28.8257 429.526 28.8257C430.366 28.8257 430.898 29.4137 430.884 30.6037L432.06 30.6177C432.144 28.8817 431.108 27.8597 429.526 27.8597C427.426 27.8597 426.572 29.5957 426.572 31.5557C426.572 33.6417 427.426 35.1397 429.526 35.1397C431.192 35.1397 432.102 33.9777 432.074 32.3117ZM436.078 34.9997V29.0637H438.318V27.9997H432.634V29.0637H434.874V34.9997H436.078ZM443.578 29.3857L443.69 29.4137C443.536 30.1137 443.466 31.0797 443.452 32.0877L443.438 34.9997H444.6V27.9997H443.438L441.674 31.1077C440.89 32.4797 440.722 33.1377 440.456 33.7257L440.33 33.6697C440.512 33.0257 440.568 31.6817 440.568 30.6877V27.9997H439.406V34.9997H440.61L442.29 32.0457C443.144 30.5337 443.312 29.9877 443.578 29.3857Z" fill="black" fill-opacity="0.8"/>
<path d="M519.603 25.9276H513.219V34.9996H514.451V27.0196H518.371V34.9996H519.603V25.9276ZM524.183 35.1396C526.045 35.1396 527.151 33.8236 527.151 31.4996C527.151 29.1756 526.045 27.8596 524.183 27.8596C522.321 27.8596 521.215 29.1756 521.215 31.4996C521.215 33.8236 522.321 35.1396 524.183 35.1396ZM524.183 34.1736C523.217 34.1736 522.503 33.3056 522.503 31.4996C522.503 29.7216 523.217 28.8116 524.183 28.8116C525.135 28.8116 525.863 29.7216 525.863 31.4996C525.863 33.3056 525.135 34.1736 524.183 34.1736ZM531.144 34.9996V29.0636H533.384V27.9996H527.7V29.0636H529.94V34.9996H531.144ZM537.678 35.1396C537.986 35.1396 538.322 35.0836 538.686 34.9016C539.316 34.5796 539.876 33.9076 540.128 32.9416C540.24 32.5076 540.31 32.0316 540.31 31.4996C540.31 30.9676 540.24 30.4916 540.128 30.0576C539.834 28.9096 539.022 27.9296 537.678 27.9296C536.516 27.9296 535.872 28.5456 535.592 29.6236L535.466 29.6096C535.55 29.1056 535.676 28.4616 535.676 28.1116V27.9996H534.472V37.4916H535.676V34.9576C535.676 34.6076 535.55 33.9636 535.466 33.4596L535.592 33.4456C535.872 34.5236 536.516 35.1396 537.678 35.1396ZM537.384 34.1456C536.39 34.1456 535.732 33.1656 535.732 31.4996C535.732 29.8616 536.39 28.8536 537.384 28.8536C538.364 28.8536 539.12 29.8616 539.12 31.4996C539.12 33.1656 538.364 34.1456 537.384 34.1456ZM546.953 32.6756L545.791 32.6616C545.791 33.7816 545.091 34.1736 544.363 34.1736C543.383 34.1736 542.613 33.4176 542.599 31.5696H546.869C546.911 31.3176 546.925 31.0516 546.925 30.8136C546.925 29.2036 546.099 27.8596 544.321 27.8596C542.333 27.8596 541.381 29.4836 541.381 31.5556C541.381 33.5436 542.263 35.1396 544.293 35.1396C545.903 35.1396 546.911 34.2156 546.953 32.6756ZM544.265 28.8116C545.189 28.8116 545.749 29.4416 545.749 30.6876V30.8136H542.613C542.683 29.6236 543.257 28.8116 544.265 28.8116ZM554.001 29.9036C553.707 28.7836 552.839 27.9996 551.565 27.9996C550.501 27.9996 549.493 28.6436 549.269 30.1276H549.059C549.003 28.3496 549.815 27.2856 551.313 26.8096C552.419 26.4596 552.993 26.3756 553.455 25.9276L553.329 24.8076C552.573 25.2976 551.915 25.3816 550.725 25.8436C548.247 26.8236 548.345 29.0776 548.261 30.7156C548.261 32.9136 548.583 34.2436 549.857 34.8736C550.333 35.1116 550.837 35.1396 551.229 35.1396C551.621 35.1396 552.013 35.0836 552.405 34.9016C553.105 34.5796 553.721 33.9076 554.001 32.9416C554.127 32.5076 554.197 32.0316 554.197 31.4996C554.197 30.9676 554.155 30.4636 554.001 29.9036ZM551.243 34.1736C550.249 34.1736 549.549 33.3056 549.549 31.4856C549.549 29.7216 550.263 28.8116 551.229 28.8116C552.181 28.8116 552.909 29.7216 552.909 31.4996C552.909 33.3056 552.167 34.1736 551.243 34.1736ZM559.699 29.3856L559.811 29.4136C559.657 30.1136 559.587 31.0796 559.573 32.0876L559.559 34.9996H560.721V27.9996H559.559L557.795 31.1076C557.011 32.4796 556.843 33.1376 556.577 33.7256L556.451 33.6696C556.633 33.0256 556.689 31.6816 556.689 30.6876V27.9996H555.527V34.9996H556.731L558.411 32.0456C559.265 30.5336 559.433 29.9876 559.699 29.3856ZM565.255 34.9996V29.0636H567.495V27.9996H561.811V29.0636H564.051V34.9996H565.255ZM573.613 32.6756L572.451 32.6616C572.451 33.7816 571.751 34.1736 571.023 34.1736C570.043 34.1736 569.273 33.4176 569.259 31.5696H573.529C573.571 31.3176 573.585 31.0516 573.585 30.8136C573.585 29.2036 572.759 27.8596 570.981 27.8596C568.993 27.8596 568.041 29.4836 568.041 31.5556C568.041 33.5436 568.923 35.1396 570.953 35.1396C572.563 35.1396 573.571 34.2156 573.613 32.6756ZM570.925 28.8116C571.849 28.8116 572.409 29.4416 572.409 30.6876V30.8136H569.273C569.343 29.6236 569.917 28.8116 570.925 28.8116ZM574.417 34.0336L574.431 35.0976C576.097 35.0976 576.489 34.5236 576.601 33.5576C576.685 32.8996 576.783 30.7716 576.881 29.0356H578.897V34.9996H580.059V27.9996H575.845C575.761 29.8476 575.691 32.0036 575.579 33.1236C575.481 34.0756 574.921 34.0336 574.417 34.0336ZM583.089 27.9996H581.941V34.9996H584.321C586.477 34.9996 586.967 33.5576 586.967 32.7596C586.967 31.7516 586.463 31.0516 585.735 30.7856C585.231 30.6036 584.895 30.5896 583.943 30.5896H583.089V27.9996ZM585.749 32.7596C585.749 33.6276 585.077 34.0056 584.223 34.0056H583.089V31.5136H584.293C585.217 31.5136 585.749 31.9476 585.749 32.7596ZM593.476 32.3116L592.314 32.2976C592.384 33.7816 591.614 34.2016 590.956 34.2016C589.892 34.2016 589.248 33.2916 589.248 31.4996C589.248 29.8056 589.85 28.8256 590.928 28.8256C591.768 28.8256 592.3 29.4136 592.286 30.6036L593.462 30.6176C593.546 28.8816 592.51 27.8596 590.928 27.8596C588.828 27.8596 587.974 29.5956 587.974 31.5556C587.974 33.6416 588.828 35.1396 590.928 35.1396C592.594 35.1396 593.504 33.9776 593.476 32.3116ZM596.01 34.9996V31.9056H596.654C597.354 31.9056 597.606 32.2836 597.816 32.9136C598.082 33.7256 598.292 34.6216 598.586 34.9996H599.986C599.678 34.6496 599.51 34.2716 599.314 33.7816C599.132 33.3196 598.964 32.7736 598.866 32.5216C598.628 31.8916 598.32 31.6256 597.606 31.4996V31.3736C598.208 31.2476 598.558 31.0096 598.838 30.4496C599.006 30.1136 599.132 29.7356 599.328 29.1616C599.454 28.7976 599.65 28.2796 599.93 27.9996H598.586C598.264 28.4336 598.04 29.4696 597.76 30.1976C597.536 30.7856 597.256 31.0376 596.654 31.0376H596.01V27.9996H594.82V34.9996H596.01ZM605.24 29.3856L605.352 29.4136C605.198 30.1136 605.128 31.0796 605.114 32.0876L605.1 34.9996H606.262V27.9996H605.1L603.336 31.1076C602.552 32.4796 602.384 33.1376 602.118 33.7256L601.992 33.6696C602.174 33.0256 602.23 31.6816 602.23 30.6876V27.9996H601.068V34.9996H602.272L603.952 32.0456C604.806 30.5336 604.974 29.9876 605.24 29.3856ZM612.308 29.3856L612.42 29.4136C612.266 30.1136 612.196 31.0796 612.182 32.0876L612.168 34.9996H613.33V27.9996H612.168L610.404 31.1076C609.62 32.4796 609.452 33.1376 609.186 33.7256L609.06 33.6696C609.242 33.0256 609.298 31.6816 609.298 30.6876V27.9996H608.136V34.9996H609.34L611.02 32.0456C611.874 30.5336 612.042 29.9876 612.308 29.3856ZM608.976 26.3336V27.1036C609.578 27.2436 610.194 27.3136 610.796 27.3136C611.398 27.3136 612 27.2436 612.616 27.1036V26.3336C612 26.4736 611.398 26.5436 610.796 26.5436C610.194 26.5436 609.578 26.4736 608.976 26.3336ZM619.061 34.9996V31.9056H619.705C620.405 31.9056 620.657 32.2836 620.867 32.9136C621.133 33.7256 621.343 34.6216 621.637 34.9996H623.037C622.729 34.6496 622.561 34.2716 622.365 33.7816C622.183 33.3196 622.015 32.7736 621.917 32.5216C621.679 31.8916 621.371 31.6256 620.657 31.4996V31.3736C621.259 31.2476 621.609 31.0096 621.889 30.4496C622.057 30.1136 622.183 29.7356 622.379 29.1616C622.505 28.7976 622.701 28.2796 622.981 27.9996H621.637C621.315 28.4336 621.091 29.4696 620.811 30.1976C620.587 30.7856 620.307 31.0376 619.705 31.0376H619.061V27.9996H617.871V34.9996H619.061ZM627.325 35.1396C627.633 35.1396 627.969 35.0836 628.333 34.9016C628.963 34.5796 629.523 33.9076 629.775 32.9416C629.887 32.5076 629.957 32.0316 629.957 31.4996C629.957 30.9676 629.887 30.4916 629.775 30.0576C629.481 28.9096 628.669 27.9296 627.325 27.9296C626.163 27.9296 625.519 28.5456 625.239 29.6236L625.113 29.6096C625.197 29.1056 625.323 28.4616 625.323 28.1116V27.9996H624.119V37.4916H625.323V34.9576C625.323 34.6076 625.197 33.9636 625.113 33.4596L625.239 33.4456C625.519 34.5236 626.163 35.1396 627.325 35.1396ZM627.031 34.1456C626.037 34.1456 625.379 33.1656 625.379 31.4996C625.379 29.8616 626.037 28.8536 627.031 28.8536C628.011 28.8536 628.767 29.8616 628.767 31.4996C628.767 33.1656 628.011 34.1456 627.031 34.1456ZM636.599 32.6756L635.437 32.6616C635.437 33.7816 634.737 34.1736 634.009 34.1736C633.029 34.1736 632.259 33.4176 632.245 31.5696H636.515C636.557 31.3176 636.571 31.0516 636.571 30.8136C636.571 29.2036 635.745 27.8596 633.967 27.8596C631.979 27.8596 631.027 29.4836 631.027 31.5556C631.027 33.5436 631.909 35.1396 633.939 35.1396C635.549 35.1396 636.557 34.2156 636.599 32.6756ZM633.911 28.8116C634.835 28.8116 635.395 29.4416 635.395 30.6876V30.8136H632.259C632.329 29.6236 632.903 28.8116 633.911 28.8116ZM643.045 34.0616V27.9996H638.817C638.775 29.8056 638.719 31.8496 638.607 32.4236C638.411 33.4456 638.103 34.0616 637.431 34.0616H637.305V36.8756H638.313V34.9996H643.003V36.8756H644.011V34.0616H643.045ZM638.663 34.0616V33.9636C639.195 33.6556 639.503 33.0676 639.615 32.1576C639.671 31.6956 639.741 30.4636 639.797 29.0916H641.883V34.0616H638.663ZM649.277 29.3856L649.389 29.4136C649.235 30.1136 649.165 31.0796 649.151 32.0876L649.137 34.9996H650.299V27.9996H649.137L647.373 31.1076C646.589 32.4796 646.421 33.1376 646.155 33.7256L646.029 33.6696C646.211 33.0256 646.267 31.6816 646.267 30.6876V27.9996H645.105V34.9996H646.309L647.989 32.0456C648.843 30.5336 649.011 29.9876 649.277 29.3856ZM654.833 34.9996V29.0636H657.073V27.9996H651.389V29.0636H653.629V34.9996H654.833Z" fill="black" fill-opacity="0.8"/>
<path d="M38.2305 82.9844H30.4785V94.0004H31.9745V84.3104H36.7345V94.0004H38.2305V82.9844ZM44.5735 94.1704C44.9475 94.1704 45.3555 94.1024 45.7975 93.8814C46.5625 93.4904 47.2425 92.6744 47.5485 91.5014C47.6845 90.9744 47.7695 90.3964 47.7695 89.7504C47.7695 89.1044 47.6845 88.5264 47.5485 87.9994C47.1915 86.6054 46.2055 85.4154 44.5735 85.4154C43.1625 85.4154 42.3805 86.1634 42.0405 87.4724L41.8875 87.4554C41.9895 86.8434 42.1425 86.0614 42.1425 85.6364V85.5004H40.6805V97.0264H42.1425V93.9494C42.1425 93.5244 41.9895 92.7424 41.8875 92.1304L42.0405 92.1134C42.3805 93.4224 43.1625 94.1704 44.5735 94.1704ZM44.2165 92.9634C43.0095 92.9634 42.2105 91.7734 42.2105 89.7504C42.2105 87.7614 43.0095 86.5374 44.2165 86.5374C45.4065 86.5374 46.3245 87.7614 46.3245 89.7504C46.3245 91.7734 45.4065 92.9634 44.2165 92.9634ZM52.6733 94.1704C54.9343 94.1704 56.2773 92.5724 56.2773 89.7504C56.2773 86.9284 54.9343 85.3304 52.6733 85.3304C50.4123 85.3304 49.0693 86.9284 49.0693 89.7504C49.0693 92.5724 50.4123 94.1704 52.6733 94.1704ZM52.6733 92.9974C51.5003 92.9974 50.6333 91.9434 50.6333 89.7504C50.6333 87.5914 51.5003 86.4864 52.6733 86.4864C53.8293 86.4864 54.7133 87.5914 54.7133 89.7504C54.7133 91.9434 53.8293 92.9974 52.6733 92.9974ZM57.8963 85.5004V94.0004H64.0843V96.4484H65.2233V92.8614H64.2373V85.5004H62.8263V92.8614H59.3073V85.5004H57.8963ZM73.0345 91.1784L71.6235 91.1614C71.6235 92.5214 70.7735 92.9974 69.8895 92.9974C68.6995 92.9974 67.7645 92.0794 67.7475 89.8354H72.9325C72.9835 89.5294 73.0005 89.2064 73.0005 88.9174C73.0005 86.9624 71.9975 85.3304 69.8385 85.3304C67.4245 85.3304 66.2685 87.3024 66.2685 89.8184C66.2685 92.2324 67.3395 94.1704 69.8045 94.1704C71.7595 94.1704 72.9835 93.0484 73.0345 91.1784ZM69.7705 86.4864C70.8925 86.4864 71.5725 87.2514 71.5725 88.7644V88.9174H67.7645C67.8495 87.4724 68.5465 86.4864 69.7705 86.4864ZM76.2251 94.0004V90.3114H79.7951V94.0004H81.2401V85.5004H79.7951V89.0024H76.2251V85.5004H74.7801V94.0004H76.2251ZM86.7425 94.0004V86.7924H89.4625V85.5004H82.5605V86.7924H85.2805V94.0004H86.7425ZM92.229 94.0004V90.3114H95.799V94.0004H97.244V85.5004H95.799V89.0024H92.229V85.5004H90.784V94.0004H92.229ZM99.4484 88.0164H100.826C100.656 87.0814 101.217 86.4524 102.322 86.4524C103.359 86.4524 103.903 87.0474 103.903 88.2884V88.6114C101.812 88.7984 99.0234 88.9514 99.0234 91.7564C99.0234 92.9634 99.7714 94.1704 101.523 94.1704C102.968 94.1704 103.665 93.3544 104.005 92.3174H104.158C104.056 92.8954 103.886 93.6434 103.886 93.8644V94.0004H105.331V88.3904C105.331 86.4694 104.6 85.3304 102.475 85.3304C100.452 85.3304 99.3464 86.4354 99.4484 88.0164ZM102.05 93.0824C101.098 93.0824 100.418 92.4534 100.418 91.5354C100.418 90.4304 101.064 89.6314 103.903 89.4274C103.937 89.9374 103.937 90.4644 103.903 90.9744C103.818 92.1814 103.104 93.0824 102.05 93.0824ZM108.537 88.0844C108.537 87.0304 109.285 86.6224 110.407 86.6224H111.869V89.6144H110.594C109.387 89.6144 108.537 89.0874 108.537 88.0844ZM106.769 94.0004H108.486C108.724 93.3034 108.894 92.4194 109.081 91.8074C109.353 90.9064 109.693 90.8214 110.56 90.8214H111.869V94.0004H113.263V85.5004H110.781C109.625 85.5004 109.166 85.5174 108.571 85.7554C107.721 86.0954 107.109 86.8604 107.109 88.0164C107.109 89.0194 107.653 90.0904 109.421 90.0734V90.3114C108.469 90.3624 107.959 90.8044 107.653 91.6374C107.381 92.3854 107.075 93.6944 106.769 94.0004ZM124.963 90.7364L123.552 90.7194C123.637 92.5214 122.702 93.0314 121.903 93.0314C120.611 93.0314 119.829 91.9264 119.829 89.7504C119.829 87.6934 120.56 86.5034 121.869 86.5034C122.889 86.5034 123.535 87.2174 123.518 88.6624L124.946 88.6794C125.048 86.5714 123.79 85.3304 121.869 85.3304C119.319 85.3304 118.282 87.4384 118.282 89.8184C118.282 92.3514 119.319 94.1704 121.869 94.1704C123.892 94.1704 124.997 92.7594 124.963 90.7364ZM129.824 94.0004V86.7924H132.544V85.5004H125.642V86.7924H128.362V94.0004H129.824ZM133.648 88.0164H135.025C134.855 87.0814 135.416 86.4524 136.521 86.4524C137.558 86.4524 138.102 87.0474 138.102 88.2884V88.6114C136.011 88.7984 133.223 88.9514 133.223 91.7564C133.223 92.9634 133.971 94.1704 135.722 94.1704C137.167 94.1704 137.864 93.3544 138.204 92.3174H138.357C138.255 92.8954 138.085 93.6434 138.085 93.8644V94.0004H139.53V88.3904C139.53 86.4694 138.799 85.3304 136.674 85.3304C134.651 85.3304 133.546 86.4354 133.648 88.0164ZM136.249 93.0824C135.297 93.0824 134.617 92.4534 134.617 91.5354C134.617 90.4304 135.263 89.6314 138.102 89.4274C138.136 89.9374 138.136 90.4644 138.102 90.9744C138.017 92.1814 137.303 93.0824 136.249 93.0824ZM142.005 94.0004H143.399H145.286C145.898 94.0004 146.374 93.9664 146.833 93.8134C147.904 93.4734 148.465 92.6574 148.465 91.6204C148.465 90.8044 147.938 89.7674 146.391 89.6654V89.5464C147.615 89.2744 148.142 88.3734 148.142 87.6084C148.142 86.0784 146.952 85.5004 145.66 85.5004H143.399H142.005V94.0004ZM143.399 92.8784V90.2264H145.456C146.238 90.2264 147.037 90.6004 147.037 91.5354C147.037 92.4704 146.357 92.8784 145.405 92.8784H143.399ZM143.399 89.1554V86.5884H145.354C146.085 86.5884 146.731 86.9454 146.731 87.8124C146.731 88.6964 145.983 89.1554 145.15 89.1554H143.399ZM151.763 94.0004V90.2434H152.545C153.395 90.2434 153.701 90.7024 153.956 91.4674C154.279 92.4534 154.534 93.5414 154.891 94.0004H156.591C156.217 93.5754 156.013 93.1164 155.775 92.5214C155.554 91.9604 155.35 91.2974 155.231 90.9914C154.942 90.2264 154.568 89.9034 153.701 89.7504V89.5974C154.432 89.4444 154.857 89.1554 155.197 88.4754C155.401 88.0674 155.554 87.6084 155.792 86.9114C155.945 86.4694 156.183 85.8404 156.523 85.5004H154.891C154.5 86.0274 154.228 87.2854 153.888 88.1694C153.616 88.8834 153.276 89.1894 152.545 89.1894H151.763V85.5004H150.318V94.0004H151.763ZM157.671 88.0164H159.048C158.878 87.0814 159.439 86.4524 160.544 86.4524C161.581 86.4524 162.125 87.0474 162.125 88.2884V88.6114C160.034 88.7984 157.246 88.9514 157.246 91.7564C157.246 92.9634 157.994 94.1704 159.745 94.1704C161.19 94.1704 161.887 93.3544 162.227 92.3174H162.38C162.278 92.8954 162.108 93.6434 162.108 93.8644V94.0004H163.553V88.3904C163.553 86.4694 162.822 85.3304 160.697 85.3304C158.674 85.3304 157.569 86.4354 157.671 88.0164ZM160.272 93.0824C159.32 93.0824 158.64 92.4534 158.64 91.5354C158.64 90.4304 159.286 89.6314 162.125 89.4274C162.159 89.9374 162.159 90.4644 162.125 90.9744C162.04 92.1814 161.326 93.0824 160.272 93.0824Z" fill="black"/>
<path d="M517.389 94.1873C517.984 94.1873 518.579 94.1023 519.208 93.8133C520.296 93.3033 521.231 92.2833 521.639 90.7703C521.826 90.0903 521.945 89.3423 521.945 88.5093C521.945 87.7103 521.843 86.9283 521.639 86.2483C521.197 84.7523 520.279 83.6983 519.225 83.1883C518.596 82.8823 518.001 82.8313 517.423 82.8313C516.794 82.8313 516.182 82.9503 515.57 83.2223C514.465 83.7153 513.581 84.7353 513.122 86.2483C512.918 86.9283 512.816 87.7103 512.816 88.5093C512.816 89.3423 512.918 90.0903 513.122 90.7703C513.564 92.2663 514.465 93.3203 515.502 93.7963C516.165 94.1023 516.743 94.1873 517.389 94.1873ZM517.372 92.8613C515.621 92.8613 514.431 91.2463 514.431 88.5093C514.431 85.8063 515.621 84.1743 517.372 84.1743C519.089 84.1743 520.296 85.8063 520.313 88.5093C520.33 91.2463 519.089 92.8613 517.372 92.8613ZM527.127 94.0003V86.7923H529.847V85.5003H522.945V86.7923H525.665V94.0003H527.127ZM539.268 88.3733V88.2203C540.373 87.7613 541.138 87.0983 541.138 85.6873C541.138 83.8003 539.625 82.7803 537.687 82.7803C535.749 82.7803 534.236 83.8003 534.236 85.6873C534.236 87.0983 535.001 87.7613 536.106 88.2203V88.3733C534.865 88.7813 534.015 89.7503 534.015 91.1953C534.015 93.1673 535.715 94.1703 537.636 94.1703C539.489 94.1703 541.359 93.1673 541.359 91.1953C541.359 89.7503 540.509 88.7813 539.268 88.3733ZM537.687 84.0043C538.656 84.0043 539.642 84.5483 539.642 85.8743C539.642 87.2003 538.639 87.7103 537.925 87.7273H537.449C536.735 87.7273 535.732 87.2003 535.732 85.8743C535.732 84.5483 536.718 84.0043 537.687 84.0043ZM537.721 92.9463C536.633 92.9463 535.562 92.4023 535.562 91.0083C535.562 89.5973 536.701 89.0023 537.364 89.0023H538.01C538.673 89.0023 539.812 89.5973 539.812 91.0083C539.812 92.4023 538.741 92.9463 537.721 92.9463ZM544.36 91.6373C543.833 91.6373 543.374 92.0793 543.374 92.8613C543.374 93.6943 543.816 94.1193 544.343 94.1193C544.343 94.4933 543.918 95.4453 543.578 95.9213L544.139 96.0743C544.598 95.6493 545.329 94.1873 545.329 92.9633C545.329 91.9773 544.87 91.6373 544.36 91.6373ZM550.44 90.1923C551.545 90.1923 552.429 89.7163 552.973 88.6453L553.109 88.6623C553.092 90.3793 552.582 92.9463 550.661 92.9463C549.845 92.9463 549.267 92.4363 549.301 91.5353H547.771C547.635 93.0993 548.74 94.2043 550.525 94.2043C553.296 94.2043 554.452 91.6203 554.452 88.0333C554.452 84.2933 552.99 82.8993 550.899 82.8993C549.029 82.8993 547.414 84.1573 547.414 86.6733C547.414 89.1723 549.046 90.1923 550.44 90.1923ZM550.865 84.1743C551.97 84.1743 552.837 85.1433 552.837 86.5883C552.837 88.1863 551.987 89.0533 550.848 89.0533C549.828 89.0533 548.927 88.3393 548.927 86.5713C548.927 84.8883 549.828 84.1743 550.865 84.1743ZM566.759 82.9843L560.469 94.0003H561.642L567.932 82.9843H566.759ZM561.676 87.7783C561.982 87.7783 562.288 87.7273 562.611 87.6083C563.172 87.3873 563.665 86.9283 563.886 86.2823C563.988 85.9933 564.039 85.6533 564.039 85.2963C564.039 84.9393 563.988 84.6163 563.886 84.3273C563.665 83.6643 563.172 83.2053 562.611 82.9843C562.288 82.8653 561.982 82.8313 561.676 82.8313C561.37 82.8313 561.047 82.8823 560.724 83.0183C560.163 83.2223 559.704 83.6643 559.449 84.3273C559.347 84.6163 559.296 84.9393 559.296 85.2963C559.296 85.6533 559.347 85.9933 559.449 86.2823C559.67 86.9283 560.163 87.3873 560.724 87.6083C561.047 87.7273 561.353 87.7783 561.676 87.7783ZM561.676 86.8943C560.996 86.8943 560.486 86.3843 560.486 85.2963C560.486 84.2423 560.996 83.6983 561.676 83.6983C562.339 83.6983 562.849 84.2423 562.849 85.2963C562.849 86.3843 562.339 86.8943 561.676 86.8943ZM566.776 94.1363C567.082 94.1363 567.388 94.0853 567.711 93.9663C568.272 93.7623 568.765 93.2863 568.986 92.6403C569.088 92.3513 569.139 92.0113 569.139 91.6543C569.139 91.2973 569.088 90.9743 568.986 90.6853C568.748 90.0223 568.272 89.5463 567.711 89.3423C567.388 89.2233 567.082 89.1893 566.776 89.1893C566.47 89.1893 566.147 89.2403 565.824 89.3763C565.28 89.6143 564.787 90.0223 564.549 90.6853C564.447 90.9743 564.396 91.2973 564.396 91.6543C564.396 92.0113 564.447 92.3513 564.549 92.6403C564.77 93.2863 565.263 93.7623 565.824 93.9663C566.147 94.0853 566.453 94.1363 566.776 94.1363ZM566.776 93.2523C566.096 93.2523 565.586 92.7423 565.586 91.6543C565.586 90.6003 566.096 90.0563 566.776 90.0563C567.439 90.0563 567.949 90.6003 567.949 91.6543C567.949 92.7423 567.439 93.2523 566.776 93.2523Z" fill="black"/>
<path d="M262.573 94.1873C263.168 94.1873 263.763 94.1023 264.392 93.8133C265.48 93.3033 266.415 92.2833 266.823 90.7703C267.01 90.0903 267.129 89.3423 267.129 88.5093C267.129 87.7103 267.027 86.9283 266.823 86.2483C266.381 84.7523 265.463 83.6983 264.409 83.1883C263.78 82.8823 263.185 82.8313 262.607 82.8313C261.978 82.8313 261.366 82.9503 260.754 83.2223C259.649 83.7153 258.765 84.7353 258.306 86.2483C258.102 86.9283 258 87.7103 258 88.5093C258 89.3423 258.102 90.0903 258.306 90.7703C258.748 92.2663 259.649 93.3203 260.686 93.7963C261.349 94.1023 261.927 94.1873 262.573 94.1873ZM262.556 92.8613C260.805 92.8613 259.615 91.2463 259.615 88.5093C259.615 85.8063 260.805 84.1743 262.556 84.1743C264.273 84.1743 265.48 85.8063 265.497 88.5093C265.514 91.2463 264.273 92.8613 262.556 92.8613ZM272.311 94.0003V86.7923H275.031V85.5003H268.129V86.7923H270.849V94.0003H272.311ZM284.452 88.3733V88.2203C285.557 87.7613 286.322 87.0983 286.322 85.6873C286.322 83.8003 284.809 82.7803 282.871 82.7803C280.933 82.7803 279.42 83.8003 279.42 85.6873C279.42 87.0983 280.185 87.7613 281.29 88.2203V88.3733C280.049 88.7813 279.199 89.7503 279.199 91.1953C279.199 93.1673 280.899 94.1703 282.82 94.1703C284.673 94.1703 286.543 93.1673 286.543 91.1953C286.543 89.7503 285.693 88.7813 284.452 88.3733ZM282.871 84.0043C283.84 84.0043 284.826 84.5483 284.826 85.8743C284.826 87.2003 283.823 87.7103 283.109 87.7273H282.633C281.919 87.7273 280.916 87.2003 280.916 85.8743C280.916 84.5483 281.902 84.0043 282.871 84.0043ZM282.905 92.9463C281.817 92.9463 280.746 92.4023 280.746 91.0083C280.746 89.5973 281.885 89.0023 282.548 89.0023H283.194C283.857 89.0023 284.996 89.5973 284.996 91.0083C284.996 92.4023 283.925 92.9463 282.905 92.9463ZM289.544 91.6373C289.017 91.6373 288.558 92.0793 288.558 92.8613C288.558 93.6943 289 94.1193 289.527 94.1193C289.527 94.4933 289.102 95.4453 288.762 95.9213L289.323 96.0743C289.782 95.6493 290.513 94.1873 290.513 92.9633C290.513 91.9773 290.054 91.6373 289.544 91.6373ZM295.624 90.1923C296.729 90.1923 297.613 89.7163 298.157 88.6453L298.293 88.6623C298.276 90.3793 297.766 92.9463 295.845 92.9463C295.029 92.9463 294.451 92.4363 294.485 91.5353H292.955C292.819 93.0993 293.924 94.2043 295.709 94.2043C298.48 94.2043 299.636 91.6203 299.636 88.0333C299.636 84.2933 298.174 82.8993 296.083 82.8993C294.213 82.8993 292.598 84.1573 292.598 86.6733C292.598 89.1723 294.23 90.1923 295.624 90.1923ZM296.049 84.1743C297.154 84.1743 298.021 85.1433 298.021 86.5883C298.021 88.1863 297.171 89.0533 296.032 89.0533C295.012 89.0533 294.111 88.3393 294.111 86.5713C294.111 84.8883 295.012 84.1743 296.049 84.1743ZM311.943 82.9843L305.653 94.0003H306.826L313.116 82.9843H311.943ZM306.86 87.7783C307.166 87.7783 307.472 87.7273 307.795 87.6083C308.356 87.3873 308.849 86.9283 309.07 86.2823C309.172 85.9933 309.223 85.6533 309.223 85.2963C309.223 84.9393 309.172 84.6163 309.07 84.3273C308.849 83.6643 308.356 83.2053 307.795 82.9843C307.472 82.8653 307.166 82.8313 306.86 82.8313C306.554 82.8313 306.231 82.8823 305.908 83.0183C305.347 83.2223 304.888 83.6643 304.633 84.3273C304.531 84.6163 304.48 84.9393 304.48 85.2963C304.48 85.6533 304.531 85.9933 304.633 86.2823C304.854 86.9283 305.347 87.3873 305.908 87.6083C306.231 87.7273 306.537 87.7783 306.86 87.7783ZM306.86 86.8943C306.18 86.8943 305.67 86.3843 305.67 85.2963C305.67 84.2423 306.18 83.6983 306.86 83.6983C307.523 83.6983 308.033 84.2423 308.033 85.2963C308.033 86.3843 307.523 86.8943 306.86 86.8943ZM311.96 94.1363C312.266 94.1363 312.572 94.0853 312.895 93.9663C313.456 93.7623 313.949 93.2863 314.17 92.6403C314.272 92.3513 314.323 92.0113 314.323 91.6543C314.323 91.2973 314.272 90.9743 314.17 90.6853C313.932 90.0223 313.456 89.5463 312.895 89.3423C312.572 89.2233 312.266 89.1893 311.96 89.1893C311.654 89.1893 311.331 89.2403 311.008 89.3763C310.464 89.6143 309.971 90.0223 309.733 90.6853C309.631 90.9743 309.58 91.2973 309.58 91.6543C309.58 92.0113 309.631 92.3513 309.733 92.6403C309.954 93.2863 310.447 93.7623 311.008 93.9663C311.331 94.0853 311.637 94.1363 311.96 94.1363ZM311.96 93.2523C311.28 93.2523 310.77 92.7423 310.77 91.6543C310.77 90.6003 311.28 90.0563 311.96 90.0563C312.623 90.0563 313.133 90.6003 313.133 91.6543C313.133 92.7423 312.623 93.2523 311.96 93.2523Z" fill="black"/>
<path d="M517.389 94.1873C517.984 94.1873 518.579 94.1023 519.208 93.8133C520.296 93.3033 521.231 92.2833 521.639 90.7703C521.826 90.0903 521.945 89.3423 521.945 88.5093C521.945 87.7103 521.843 86.9283 521.639 86.2483C521.197 84.7523 520.279 83.6983 519.225 83.1883C518.596 82.8823 518.001 82.8313 517.423 82.8313C516.794 82.8313 516.182 82.9503 515.57 83.2223C514.465 83.7153 513.581 84.7353 513.122 86.2483C512.918 86.9283 512.816 87.7103 512.816 88.5093C512.816 89.3423 512.918 90.0903 513.122 90.7703C513.564 92.2663 514.465 93.3203 515.502 93.7963C516.165 94.1023 516.743 94.1873 517.389 94.1873ZM517.372 92.8613C515.621 92.8613 514.431 91.2463 514.431 88.5093C514.431 85.8063 515.621 84.1743 517.372 84.1743C519.089 84.1743 520.296 85.8063 520.313 88.5093C520.33 91.2463 519.089 92.8613 517.372 92.8613ZM527.127 94.0003V86.7923H529.847V85.5003H522.945V86.7923H525.665V94.0003H527.127ZM539.268 88.3733V88.2203C540.373 87.7613 541.138 87.0983 541.138 85.6873C541.138 83.8003 539.625 82.7803 537.687 82.7803C535.749 82.7803 534.236 83.8003 534.236 85.6873C534.236 87.0983 535.001 87.7613 536.106 88.2203V88.3733C534.865 88.7813 534.015 89.7503 534.015 91.1953C534.015 93.1673 535.715 94.1703 537.636 94.1703C539.489 94.1703 541.359 93.1673 541.359 91.1953C541.359 89.7503 540.509 88.7813 539.268 88.3733ZM537.687 84.0043C538.656 84.0043 539.642 84.5483 539.642 85.8743C539.642 87.2003 538.639 87.7103 537.925 87.7273H537.449C536.735 87.7273 535.732 87.2003 535.732 85.8743C535.732 84.5483 536.718 84.0043 537.687 84.0043ZM537.721 92.9463C536.633 92.9463 535.562 92.4023 535.562 91.0083C535.562 89.5973 536.701 89.0023 537.364 89.0023H538.01C538.673 89.0023 539.812 89.5973 539.812 91.0083C539.812 92.4023 538.741 92.9463 537.721 92.9463ZM544.36 91.6373C543.833 91.6373 543.374 92.0793 543.374 92.8613C543.374 93.6943 543.816 94.1193 544.343 94.1193C544.343 94.4933 543.918 95.4453 543.578 95.9213L544.139 96.0743C544.598 95.6493 545.329 94.1873 545.329 92.9633C545.329 91.9773 544.87 91.6373 544.36 91.6373ZM550.44 90.1923C551.545 90.1923 552.429 89.7163 552.973 88.6453L553.109 88.6623C553.092 90.3793 552.582 92.9463 550.661 92.9463C549.845 92.9463 549.267 92.4363 549.301 91.5353H547.771C547.635 93.0993 548.74 94.2043 550.525 94.2043C553.296 94.2043 554.452 91.6203 554.452 88.0333C554.452 84.2933 552.99 82.8993 550.899 82.8993C549.029 82.8993 547.414 84.1573 547.414 86.6733C547.414 89.1723 549.046 90.1923 550.44 90.1923ZM550.865 84.1743C551.97 84.1743 552.837 85.1433 552.837 86.5883C552.837 88.1863 551.987 89.0533 550.848 89.0533C549.828 89.0533 548.927 88.3393 548.927 86.5713C548.927 84.8883 549.828 84.1743 550.865 84.1743ZM566.759 82.9843L560.469 94.0003H561.642L567.932 82.9843H566.759ZM561.676 87.7783C561.982 87.7783 562.288 87.7273 562.611 87.6083C563.172 87.3873 563.665 86.9283 563.886 86.2823C563.988 85.9933 564.039 85.6533 564.039 85.2963C564.039 84.9393 563.988 84.6163 563.886 84.3273C563.665 83.6643 563.172 83.2053 562.611 82.9843C562.288 82.8653 561.982 82.8313 561.676 82.8313C561.37 82.8313 561.047 82.8823 560.724 83.0183C560.163 83.2223 559.704 83.6643 559.449 84.3273C559.347 84.6163 559.296 84.9393 559.296 85.2963C559.296 85.6533 559.347 85.9933 559.449 86.2823C559.67 86.9283 560.163 87.3873 560.724 87.6083C561.047 87.7273 561.353 87.7783 561.676 87.7783ZM561.676 86.8943C560.996 86.8943 560.486 86.3843 560.486 85.2963C560.486 84.2423 560.996 83.6983 561.676 83.6983C562.339 83.6983 562.849 84.2423 562.849 85.2963C562.849 86.3843 562.339 86.8943 561.676 86.8943ZM566.776 94.1363C567.082 94.1363 567.388 94.0853 567.711 93.9663C568.272 93.7623 568.765 93.2863 568.986 92.6403C569.088 92.3513 569.139 92.0113 569.139 91.6543C569.139 91.2973 569.088 90.9743 568.986 90.6853C568.748 90.0223 568.272 89.5463 567.711 89.3423C567.388 89.2233 567.082 89.1893 566.776 89.1893C566.47 89.1893 566.147 89.2403 565.824 89.3763C565.28 89.6143 564.787 90.0223 564.549 90.6853C564.447 90.9743 564.396 91.2973 564.396 91.6543C564.396 92.0113 564.447 92.3513 564.549 92.6403C564.77 93.2863 565.263 93.7623 565.824 93.9663C566.147 94.0853 566.453 94.1363 566.776 94.1363ZM566.776 93.2523C566.096 93.2523 565.586 92.7423 565.586 91.6543C565.586 90.6003 566.096 90.0563 566.776 90.0563C567.439 90.0563 567.949 90.6003 567.949 91.6543C567.949 92.7423 567.439 93.2523 566.776 93.2523Z" fill="black"/>
<path d="M41.6647 156L40.4917 144.984H38.5537L35.7147 154.436L32.7737 144.984H30.8187L29.6797 156H31.1077L31.7027 150.067C31.8387 148.758 31.8047 147.517 31.7197 146.65H31.9237C31.9917 147.143 32.1617 148.146 32.5527 149.353L34.7457 156H36.4457L38.6047 149.353C38.9787 148.18 39.1657 147.194 39.2337 146.65H39.4377C39.3697 147.551 39.3867 148.775 39.5057 150.067L40.0667 156H41.6647ZM43.4184 150.016H44.7954C44.6254 149.081 45.1864 148.452 46.2914 148.452C47.3284 148.452 47.8724 149.047 47.8724 150.288V150.611C45.7814 150.798 42.9934 150.951 42.9934 153.756C42.9934 154.963 43.7414 156.17 45.4924 156.17C46.9374 156.17 47.6344 155.354 47.9744 154.317H48.1274C48.0254 154.895 47.8554 155.643 47.8554 155.864V156H49.3004V150.39C49.3004 148.469 48.5694 147.33 46.4444 147.33C44.4214 147.33 43.3164 148.435 43.4184 150.016ZM46.0194 155.082C45.0674 155.082 44.3874 154.453 44.3874 153.535C44.3874 152.43 45.0334 151.631 47.8724 151.427C47.9064 151.937 47.9064 152.464 47.8724 152.974C47.7874 154.181 47.0734 155.082 46.0194 155.082ZM53.0163 156V152.243H53.7983C54.6483 152.243 54.9543 152.702 55.2093 153.467C55.5323 154.453 55.7873 155.541 56.1443 156H57.8443C57.4703 155.575 57.2663 155.116 57.0283 154.521C56.8073 153.96 56.6033 153.297 56.4843 152.991C56.1953 152.226 55.8213 151.903 54.9543 151.75V151.597C55.6853 151.444 56.1103 151.155 56.4503 150.475C56.6543 150.067 56.8073 149.608 57.0453 148.911C57.1983 148.469 57.4363 147.84 57.7763 147.5H56.1443C55.7533 148.027 55.4813 149.285 55.1413 150.169C54.8693 150.883 54.5293 151.189 53.7983 151.189H53.0163V147.5H51.5713V156H53.0163ZM65.1802 152.736L63.7692 152.719C63.8542 154.521 62.9192 155.031 62.1202 155.031C60.8282 155.031 60.0462 153.926 60.0462 151.75C60.0462 149.693 60.7772 148.503 62.0862 148.503C63.1062 148.503 63.7522 149.217 63.7352 150.662L65.1632 150.679C65.2652 148.571 64.0072 147.33 62.0862 147.33C59.5362 147.33 58.4992 149.438 58.4992 151.818C58.4992 154.351 59.5362 156.17 62.0862 156.17C64.1092 156.17 65.2142 154.759 65.1802 152.736ZM71.8776 149.183L72.0136 149.217C71.8266 150.067 71.7416 151.24 71.7246 152.464L71.7076 156H73.1186V147.5H71.7076L69.5656 151.274C68.6136 152.94 68.4096 153.739 68.0866 154.453L67.9336 154.385C68.1546 153.603 68.2226 151.971 68.2226 150.764V147.5H66.8116V156H68.2736L70.3136 152.413C71.3506 150.577 71.5546 149.914 71.8776 149.183ZM84.1496 147.5H81.9906L80.5456 152.09C80.2566 153.008 79.9676 154.164 79.7976 154.912H79.7806C79.5596 153.807 79.2026 152.668 79.0156 152.039L77.6726 147.5H75.5646L75.1736 156H76.4826L76.6356 150.798C76.6526 150.203 76.6526 149.608 76.6016 148.707H76.7716C76.9416 149.591 77.1116 150.135 77.3836 151.036L78.8116 155.932H80.5966L81.9226 151.614C82.3476 150.203 82.5686 149.523 82.6876 148.707H82.8576C82.8746 149.54 82.8406 150.271 82.8576 150.934L83.0446 156H84.4896L84.1496 147.5ZM86.4828 150.016H87.8598C87.6898 149.081 88.2508 148.452 89.3558 148.452C90.3928 148.452 90.9368 149.047 90.9368 150.288V150.611C88.8458 150.798 86.0578 150.951 86.0578 153.756C86.0578 154.963 86.8058 156.17 88.5568 156.17C90.0018 156.17 90.6988 155.354 91.0388 154.317H91.1918C91.0898 154.895 90.9198 155.643 90.9198 155.864V156H92.3648V150.39C92.3648 148.469 91.6338 147.33 89.5088 147.33C87.4858 147.33 86.3808 148.435 86.4828 150.016ZM89.0838 155.082C88.1318 155.082 87.4518 154.453 87.4518 153.535C87.4518 152.43 88.0978 151.631 90.9368 151.427C90.9708 151.937 90.9708 152.464 90.9368 152.974C90.8518 154.181 90.1378 155.082 89.0838 155.082ZM93.7008 154.827L93.7178 156.119C95.7408 156.119 96.2168 155.422 96.3528 154.249C96.4548 153.45 96.5738 150.866 96.6928 148.758H99.1408V156H100.552V147.5H95.4348C95.3328 149.744 95.2478 152.362 95.1118 153.722C94.9928 154.878 94.3128 154.827 93.7008 154.827ZM104.231 147.5H102.837V156H105.727C108.345 156 108.94 154.249 108.94 153.28C108.94 152.056 108.328 151.206 107.444 150.883C106.832 150.662 106.424 150.645 105.268 150.645H104.231V147.5ZM107.461 153.28C107.461 154.334 106.645 154.793 105.608 154.793H104.231V151.767H105.693C106.815 151.767 107.461 152.294 107.461 153.28ZM112.102 156V152.311H115.672V156H117.117V147.5H115.672V151.002H112.102V147.5H110.657V156H112.102ZM119.321 150.016H120.698C120.528 149.081 121.089 148.452 122.194 148.452C123.231 148.452 123.775 149.047 123.775 150.288V150.611C121.684 150.798 118.896 150.951 118.896 153.756C118.896 154.963 119.644 156.17 121.395 156.17C122.84 156.17 123.537 155.354 123.877 154.317H124.03C123.928 154.895 123.758 155.643 123.758 155.864V156H125.203V150.39C125.203 148.469 124.472 147.33 122.347 147.33C120.324 147.33 119.219 148.435 119.321 150.016ZM121.922 155.082C120.97 155.082 120.29 154.453 120.29 153.535C120.29 152.43 120.936 151.631 123.775 151.427C123.809 151.937 123.809 152.464 123.775 152.974C123.69 154.181 122.976 155.082 121.922 155.082ZM128.409 150.084C128.409 149.03 129.157 148.622 130.279 148.622H131.741V151.614H130.466C129.259 151.614 128.409 151.087 128.409 150.084ZM126.641 156H128.358C128.596 155.303 128.766 154.419 128.953 153.807C129.225 152.906 129.565 152.821 130.432 152.821H131.741V156H133.135V147.5H130.653C129.497 147.5 129.038 147.517 128.443 147.755C127.593 148.095 126.981 148.86 126.981 150.016C126.981 151.019 127.525 152.09 129.293 152.073V152.311C128.341 152.362 127.831 152.804 127.525 153.637C127.253 154.385 126.947 155.694 126.641 156ZM144.835 152.736L143.424 152.719C143.509 154.521 142.574 155.031 141.775 155.031C140.483 155.031 139.701 153.926 139.701 151.75C139.701 149.693 140.432 148.503 141.741 148.503C142.761 148.503 143.407 149.217 143.39 150.662L144.818 150.679C144.92 148.571 143.662 147.33 141.741 147.33C139.191 147.33 138.154 149.438 138.154 151.818C138.154 154.351 139.191 156.17 141.741 156.17C143.764 156.17 144.869 154.759 144.835 152.736ZM152.436 147.5H150.923L149.784 151.444C149.308 153.076 149.087 154.181 149.036 154.47H148.917C148.815 153.892 148.747 153.433 148.169 151.597L146.894 147.5H145.364L148.169 155.847L147.217 158.975H148.645L149.614 155.813L152.436 147.5ZM162.26 147.5H160.101L158.656 152.09C158.367 153.008 158.078 154.164 157.908 154.912H157.891C157.67 153.807 157.313 152.668 157.126 152.039L155.783 147.5H153.675L153.284 156H154.593L154.746 150.798C154.763 150.203 154.763 149.608 154.712 148.707H154.882C155.052 149.591 155.222 150.135 155.494 151.036L156.922 155.932H158.707L160.033 151.614C160.458 150.203 160.679 149.523 160.798 148.707H160.968C160.985 149.54 160.951 150.271 160.968 150.934L161.155 156H162.6L162.26 147.5ZM173.416 147.5H171.257L169.812 152.09C169.523 153.008 169.234 154.164 169.064 154.912H169.047C168.826 153.807 168.469 152.668 168.282 152.039L166.939 147.5H164.831L164.44 156H165.749L165.902 150.798C165.919 150.203 165.919 149.608 165.868 148.707H166.038C166.208 149.591 166.378 150.135 166.65 151.036L168.078 155.932H169.863L171.189 151.614C171.614 150.203 171.835 149.523 171.954 148.707H172.124C172.141 149.54 172.107 150.271 172.124 150.934L172.311 156H173.756L173.416 147.5ZM175.75 150.016H177.127C176.957 149.081 177.518 148.452 178.623 148.452C179.66 148.452 180.204 149.047 180.204 150.288V150.611C178.113 150.798 175.325 150.951 175.325 153.756C175.325 154.963 176.073 156.17 177.824 156.17C179.269 156.17 179.966 155.354 180.306 154.317H180.459C180.357 154.895 180.187 155.643 180.187 155.864V156H181.632V150.39C181.632 148.469 180.901 147.33 178.776 147.33C176.753 147.33 175.648 148.435 175.75 150.016ZM178.351 155.082C177.399 155.082 176.719 154.453 176.719 153.535C176.719 152.43 177.365 151.631 180.204 151.427C180.238 151.937 180.238 152.464 180.204 152.974C180.119 154.181 179.405 155.082 178.351 155.082Z" fill="black"/>
<path d="M258.377 154.674V156H265.024V154.674H262.457V144.984H261.284C260.91 145.97 259.941 146.786 258.513 146.871V148.282C259.533 148.282 260.468 147.67 260.91 146.684L260.978 146.701V154.674H258.377ZM268.688 149.982L268.535 149.863C268.671 149.098 268.739 148.503 268.79 147.908L268.926 146.276H272.938V144.984H267.685L267.209 150.883L268.654 151.172C268.909 150.577 269.436 150.118 270.201 150.118C271.102 150.118 272.088 150.798 272.088 152.498C272.088 154.232 271.221 154.98 270.116 154.997C269.011 155.014 268.246 154.334 268.518 152.838H267.022C266.546 154.997 267.94 156.204 269.997 156.204C271.969 156.204 273.601 155.014 273.601 152.447C273.601 149.982 272.173 148.945 270.762 148.945C269.827 148.945 269.266 149.217 268.688 149.982ZM282.1 156.187C284.293 156.187 285.636 153.994 285.602 150.509C285.619 147.024 284.276 144.831 282.117 144.831C279.924 144.831 278.564 147.024 278.581 150.509C278.564 153.994 279.924 156.187 282.1 156.187ZM282.083 154.929C280.859 154.929 280.094 153.297 280.094 150.509C280.094 147.755 280.859 146.106 282.083 146.106C283.307 146.106 284.072 147.755 284.072 150.509C284.089 153.297 283.307 154.929 282.083 154.929ZM290.932 156.187C293.125 156.187 294.468 153.994 294.434 150.509C294.451 147.024 293.108 144.831 290.949 144.831C288.756 144.831 287.396 147.024 287.413 150.509C287.396 153.994 288.756 156.187 290.932 156.187ZM290.915 154.929C289.691 154.929 288.926 153.297 288.926 150.509C288.926 147.755 289.691 146.106 290.915 146.106C292.139 146.106 292.904 147.755 292.904 150.509C292.921 153.297 292.139 154.929 290.915 154.929ZM299.764 156.187C301.957 156.187 303.3 153.994 303.266 150.509C303.283 147.024 301.94 144.831 299.781 144.831C297.588 144.831 296.228 147.024 296.245 150.509C296.228 153.994 297.588 156.187 299.764 156.187ZM299.747 154.929C298.523 154.929 297.758 153.297 297.758 150.509C297.758 147.755 298.523 146.106 299.747 146.106C300.971 146.106 301.736 147.755 301.736 150.509C301.753 153.297 300.971 154.929 299.747 154.929ZM311.834 156.187C314.027 156.187 315.37 153.994 315.336 150.509C315.353 147.024 314.01 144.831 311.851 144.831C309.658 144.831 308.298 147.024 308.315 150.509C308.298 153.994 309.658 156.187 311.834 156.187ZM311.817 154.929C310.593 154.929 309.828 153.297 309.828 150.509C309.828 147.755 310.593 146.106 311.817 146.106C313.041 146.106 313.806 147.755 313.806 150.509C313.823 153.297 313.041 154.929 311.817 154.929ZM320.666 156.187C322.859 156.187 324.202 153.994 324.168 150.509C324.185 147.024 322.842 144.831 320.683 144.831C318.49 144.831 317.13 147.024 317.147 150.509C317.13 153.994 318.49 156.187 320.666 156.187ZM320.649 154.929C319.425 154.929 318.66 153.297 318.66 150.509C318.66 147.755 319.425 146.106 320.649 146.106C321.873 146.106 322.638 147.755 322.638 150.509C322.655 153.297 321.873 154.929 320.649 154.929ZM329.498 156.187C331.691 156.187 333.034 153.994 333 150.509C333.017 147.024 331.674 144.831 329.515 144.831C327.322 144.831 325.962 147.024 325.979 150.509C325.962 153.994 327.322 156.187 329.498 156.187ZM329.481 154.929C328.257 154.929 327.492 153.297 327.492 150.509C327.492 147.755 328.257 146.106 329.481 146.106C330.705 146.106 331.47 147.755 331.47 150.509C331.487 153.297 330.705 154.929 329.481 154.929ZM342.4 156.17C342.774 156.17 343.182 156.102 343.624 155.881C344.389 155.49 345.069 154.674 345.375 153.501C345.511 152.974 345.596 152.396 345.596 151.75C345.596 151.104 345.511 150.526 345.375 149.999C345.018 148.605 344.032 147.415 342.4 147.415C340.989 147.415 340.207 148.163 339.867 149.472L339.714 149.455C339.816 148.843 339.969 148.061 339.969 147.636V147.5H338.507V159.026H339.969V155.949C339.969 155.524 339.816 154.742 339.714 154.13L339.867 154.113C340.207 155.422 340.989 156.17 342.4 156.17ZM342.043 154.963C340.836 154.963 340.037 153.773 340.037 151.75C340.037 149.761 340.836 148.537 342.043 148.537C343.233 148.537 344.151 149.761 344.151 151.75C344.151 153.773 343.233 154.963 342.043 154.963ZM353.192 147.5H351.679L350.54 151.444C350.064 153.076 349.843 154.181 349.792 154.47H349.673C349.571 153.892 349.503 153.433 348.925 151.597L347.65 147.5H346.12L348.925 155.847L347.973 158.975H349.401L350.37 155.813L353.192 147.5ZM361.108 149.812C360.751 148.452 359.697 147.5 358.15 147.5C356.858 147.5 355.634 148.282 355.362 150.084H355.107C355.039 147.925 356.025 146.633 357.844 146.055C359.187 145.63 359.884 145.528 360.445 144.984L360.292 143.624C359.374 144.219 358.575 144.321 357.13 144.882C354.121 146.072 354.24 148.809 354.138 150.798C354.138 153.467 354.529 155.082 356.076 155.847C356.654 156.136 357.266 156.17 357.742 156.17C358.218 156.17 358.694 156.102 359.17 155.881C360.02 155.49 360.768 154.674 361.108 153.501C361.261 152.974 361.346 152.396 361.346 151.75C361.346 151.104 361.295 150.492 361.108 149.812ZM357.759 154.997C356.552 154.997 355.702 153.943 355.702 151.733C355.702 149.591 356.569 148.486 357.742 148.486C358.898 148.486 359.782 149.591 359.782 151.75C359.782 153.943 358.881 154.997 357.759 154.997ZM362.192 154.827L362.209 156.119C364.232 156.119 364.708 155.422 364.844 154.249C364.946 153.45 365.065 150.866 365.184 148.758H367.632V156H369.043V147.5H363.926C363.824 149.744 363.739 152.362 363.603 153.722C363.484 154.878 362.804 154.827 362.192 154.827ZM377.435 153.178L376.024 153.161C376.024 154.521 375.174 154.997 374.29 154.997C373.1 154.997 372.165 154.079 372.148 151.835H377.333C377.384 151.529 377.401 151.206 377.401 150.917C377.401 148.962 376.398 147.33 374.239 147.33C371.825 147.33 370.669 149.302 370.669 151.818C370.669 154.232 371.74 156.17 374.205 156.17C376.16 156.17 377.384 155.048 377.435 153.178ZM374.171 148.486C375.293 148.486 375.973 149.251 375.973 150.764V150.917H372.165C372.25 149.472 372.947 148.486 374.171 148.486ZM384.247 149.183L384.383 149.217C384.196 150.067 384.111 151.24 384.094 152.464L384.077 156H385.488V147.5H384.077L381.935 151.274C380.983 152.94 380.779 153.739 380.456 154.453L380.303 154.385C380.524 153.603 380.592 151.971 380.592 150.764V147.5H379.181V156H380.643L382.683 152.413C383.72 150.577 383.924 149.914 384.247 149.183ZM380.201 145.477V146.412C380.932 146.582 381.68 146.667 382.411 146.667C383.142 146.667 383.873 146.582 384.621 146.412V145.477C383.873 145.647 383.142 145.732 382.411 145.732C381.68 145.732 380.932 145.647 380.201 145.477Z" fill="black"/>
<path d="M519.056 154.861V147.5H513.922C513.871 149.693 513.803 152.175 513.667 152.872C513.429 154.113 513.055 154.861 512.239 154.861H512.086V158.278H513.31V156H519.005V158.278H520.229V154.861H519.056ZM513.735 154.861V154.742C514.381 154.368 514.755 153.654 514.891 152.549C514.959 151.988 515.044 150.492 515.112 148.826H517.645V154.861H513.735ZM524.668 156.17C526.929 156.17 528.272 154.572 528.272 151.75C528.272 148.928 526.929 147.33 524.668 147.33C522.407 147.33 521.064 148.928 521.064 151.75C521.064 154.572 522.407 156.17 524.668 156.17ZM524.668 154.997C523.495 154.997 522.628 153.943 522.628 151.75C522.628 149.591 523.495 148.486 524.668 148.486C525.824 148.486 526.708 149.591 526.708 151.75C526.708 153.943 525.824 154.997 524.668 154.997ZM534.484 154.691V154.606C536.592 153.756 539.907 151.359 539.907 148.214C539.907 145.902 538.496 144.78 536.541 144.78C534.705 144.78 533.226 145.885 533.226 147.721C533.226 148.078 533.294 148.367 533.413 148.639H534.841C534.773 148.316 534.739 148.044 534.739 147.772C534.739 146.548 535.487 146.14 536.456 146.14C537.493 146.14 538.326 146.718 538.326 148.35C538.326 150.458 536.541 152.821 533.481 154.385V156H539.856V154.691H534.484ZM548.424 156.187C550.617 156.187 551.96 153.994 551.926 150.509C551.943 147.024 550.6 144.831 548.441 144.831C546.248 144.831 544.888 147.024 544.905 150.509C544.888 153.994 546.248 156.187 548.424 156.187ZM548.407 154.929C547.183 154.929 546.418 153.297 546.418 150.509C546.418 147.755 547.183 146.106 548.407 146.106C549.631 146.106 550.396 147.755 550.396 150.509C550.413 153.297 549.631 154.929 548.407 154.929ZM557.256 156.187C559.449 156.187 560.792 153.994 560.758 150.509C560.775 147.024 559.432 144.831 557.273 144.831C555.08 144.831 553.72 147.024 553.737 150.509C553.72 153.994 555.08 156.187 557.256 156.187ZM557.239 154.929C556.015 154.929 555.25 153.297 555.25 150.509C555.25 147.755 556.015 146.106 557.239 146.106C558.463 146.106 559.228 147.755 559.228 150.509C559.245 153.297 558.463 154.929 557.239 154.929ZM566.088 156.187C568.281 156.187 569.624 153.994 569.59 150.509C569.607 147.024 568.264 144.831 566.105 144.831C563.912 144.831 562.552 147.024 562.569 150.509C562.552 153.994 563.912 156.187 566.088 156.187ZM566.071 154.929C564.847 154.929 564.082 153.297 564.082 150.509C564.082 147.755 564.847 146.106 566.071 146.106C567.295 146.106 568.06 147.755 568.06 150.509C568.077 153.297 567.295 154.929 566.071 154.929ZM578.157 156.187C580.35 156.187 581.693 153.994 581.659 150.509C581.676 147.024 580.333 144.831 578.174 144.831C575.981 144.831 574.621 147.024 574.638 150.509C574.621 153.994 575.981 156.187 578.157 156.187ZM578.14 154.929C576.916 154.929 576.151 153.297 576.151 150.509C576.151 147.755 576.916 146.106 578.14 146.106C579.364 146.106 580.129 147.755 580.129 150.509C580.146 153.297 579.364 154.929 578.14 154.929ZM586.989 156.187C589.182 156.187 590.525 153.994 590.491 150.509C590.508 147.024 589.165 144.831 587.006 144.831C584.813 144.831 583.453 147.024 583.47 150.509C583.453 153.994 584.813 156.187 586.989 156.187ZM586.972 154.929C585.748 154.929 584.983 153.297 584.983 150.509C584.983 147.755 585.748 146.106 586.972 146.106C588.196 146.106 588.961 147.755 588.961 150.509C588.978 153.297 588.196 154.929 586.972 154.929ZM595.821 156.187C598.014 156.187 599.357 153.994 599.323 150.509C599.34 147.024 597.997 144.831 595.838 144.831C593.645 144.831 592.285 147.024 592.302 150.509C592.285 153.994 593.645 156.187 595.821 156.187ZM595.804 154.929C594.58 154.929 593.815 153.297 593.815 150.509C593.815 147.755 594.58 146.106 595.804 146.106C597.028 146.106 597.793 147.755 597.793 150.509C597.81 153.297 597.028 154.929 595.804 154.929ZM608.723 156.17C609.097 156.17 609.505 156.102 609.947 155.881C610.712 155.49 611.392 154.674 611.698 153.501C611.834 152.974 611.919 152.396 611.919 151.75C611.919 151.104 611.834 150.526 611.698 149.999C611.341 148.605 610.355 147.415 608.723 147.415C607.312 147.415 606.53 148.163 606.19 149.472L606.037 149.455C606.139 148.843 606.292 148.061 606.292 147.636V147.5H604.83V159.026H606.292V155.949C606.292 155.524 606.139 154.742 606.037 154.13L606.19 154.113C606.53 155.422 607.312 156.17 608.723 156.17ZM608.366 154.963C607.159 154.963 606.36 153.773 606.36 151.75C606.36 149.761 607.159 148.537 608.366 148.537C609.556 148.537 610.474 149.761 610.474 151.75C610.474 153.773 609.556 154.963 608.366 154.963ZM619.516 147.5H618.003L616.864 151.444C616.388 153.076 616.167 154.181 616.116 154.47H615.997C615.895 153.892 615.827 153.433 615.249 151.597L613.974 147.5H612.444L615.249 155.847L614.297 158.975H615.725L616.694 155.813L619.516 147.5ZM627.432 149.812C627.075 148.452 626.021 147.5 624.474 147.5C623.182 147.5 621.958 148.282 621.686 150.084H621.431C621.363 147.925 622.349 146.633 624.168 146.055C625.511 145.63 626.208 145.528 626.769 144.984L626.616 143.624C625.698 144.219 624.899 144.321 623.454 144.882C620.445 146.072 620.564 148.809 620.462 150.798C620.462 153.467 620.853 155.082 622.4 155.847C622.978 156.136 623.59 156.17 624.066 156.17C624.542 156.17 625.018 156.102 625.494 155.881C626.344 155.49 627.092 154.674 627.432 153.501C627.585 152.974 627.67 152.396 627.67 151.75C627.67 151.104 627.619 150.492 627.432 149.812ZM624.083 154.997C622.876 154.997 622.026 153.943 622.026 151.733C622.026 149.591 622.893 148.486 624.066 148.486C625.222 148.486 626.106 149.591 626.106 151.75C626.106 153.943 625.205 154.997 624.083 154.997ZM628.516 154.827L628.533 156.119C630.556 156.119 631.032 155.422 631.168 154.249C631.27 153.45 631.389 150.866 631.508 148.758H633.956V156H635.367V147.5H630.25C630.148 149.744 630.063 152.362 629.927 153.722C629.808 154.878 629.128 154.827 628.516 154.827ZM643.759 153.178L642.348 153.161C642.348 154.521 641.498 154.997 640.614 154.997C639.424 154.997 638.489 154.079 638.472 151.835H643.657C643.708 151.529 643.725 151.206 643.725 150.917C643.725 148.962 642.722 147.33 640.563 147.33C638.149 147.33 636.993 149.302 636.993 151.818C636.993 154.232 638.064 156.17 640.529 156.17C642.484 156.17 643.708 155.048 643.759 153.178ZM640.495 148.486C641.617 148.486 642.297 149.251 642.297 150.764V150.917H638.489C638.574 149.472 639.271 148.486 640.495 148.486ZM650.57 149.183L650.706 149.217C650.519 150.067 650.434 151.24 650.417 152.464L650.4 156H651.811V147.5H650.4L648.258 151.274C647.306 152.94 647.102 153.739 646.779 154.453L646.626 154.385C646.847 153.603 646.915 151.971 646.915 150.764V147.5H645.504V156H646.966L649.006 152.413C650.043 150.577 650.247 149.914 650.57 149.183ZM646.524 145.477V146.412C647.255 146.582 648.003 146.667 648.734 146.667C649.465 146.667 650.196 146.582 650.944 146.412V145.477C650.196 145.647 649.465 145.732 648.734 145.732C648.003 145.732 647.255 145.647 646.524 145.477Z" fill="black"/>
<path d="M30.0368 214.925H31.5328C31.3968 213.565 32.1278 213.055 33.3858 213.055C34.7798 213.055 35.3068 213.854 35.3068 214.908C35.3068 216.098 34.6268 216.727 33.6238 216.727H32.4508V218.172H33.6748C34.7798 218.172 35.6468 218.784 35.6468 220.042C35.6468 221.317 34.8138 221.929 33.5898 221.929C32.2978 221.929 31.2268 221.521 31.4818 220.025H29.9688C29.7308 222.201 31.0568 223.153 33.3858 223.153C35.6638 223.153 37.1938 222.184 37.1938 220.076C37.1938 218.75 36.5308 217.764 35.3238 217.424V217.186C36.2588 216.778 36.8708 215.894 36.8708 214.789C36.8708 212.715 35.4258 211.797 33.3178 211.814C31.3628 211.831 29.8668 212.885 30.0368 214.925ZM39.3345 217.016H40.7115C40.5415 216.081 41.1025 215.452 42.2075 215.452C43.2445 215.452 43.7885 216.047 43.7885 217.288V217.611C41.6975 217.798 38.9095 217.951 38.9095 220.756C38.9095 221.963 39.6575 223.17 41.4085 223.17C42.8535 223.17 43.5505 222.354 43.8905 221.317H44.0435C43.9415 221.895 43.7715 222.643 43.7715 222.864V223H45.2165V217.39C45.2165 215.469 44.4855 214.33 42.3605 214.33C40.3375 214.33 39.2325 215.435 39.3345 217.016ZM41.9355 222.082C40.9835 222.082 40.3035 221.453 40.3035 220.535C40.3035 219.43 40.9495 218.631 43.7885 218.427C43.8225 218.937 43.8225 219.464 43.7885 219.974C43.7035 221.181 42.9895 222.082 41.9355 222.082ZM46.5524 221.827L46.5694 223.119C48.5924 223.119 49.0684 222.422 49.2044 221.249C49.3064 220.45 49.4254 217.866 49.5444 215.758H51.9924V223H53.4034V214.5H48.2864C48.1844 216.744 48.0994 219.362 47.9634 220.722C47.8444 221.878 47.1644 221.827 46.5524 221.827ZM58.6336 223.17C60.8946 223.17 62.2376 221.572 62.2376 218.75C62.2376 215.928 60.8946 214.33 58.6336 214.33C56.3726 214.33 55.0296 215.928 55.0296 218.75C55.0296 221.572 56.3726 223.17 58.6336 223.17ZM58.6336 221.997C57.4606 221.997 56.5936 220.943 56.5936 218.75C56.5936 216.591 57.4606 215.486 58.6336 215.486C59.7896 215.486 60.6736 216.591 60.6736 218.75C60.6736 220.943 59.7896 221.997 58.6336 221.997ZM65.2676 223V215.826H68.8206V214.5H63.8566V223H65.2676Z" fill="black"/>
<path d="M259.975 223V218.138H261.437C262.797 218.138 263.069 218.733 263.392 219.719C263.817 220.994 264.123 222.405 264.497 223H266.282C265.534 221.776 265.023 219.855 264.734 219.073C264.36 218.036 263.902 217.662 262.814 217.492V217.322C263.851 217.169 264.326 216.761 264.717 215.792C264.989 215.095 265.38 213.616 266.23 211.984H264.531C264.123 212.664 263.766 214.296 263.358 215.435C263.018 216.37 262.644 216.761 261.505 216.761H259.975V211.984H258.479V223H259.975ZM267.872 223H269.266H271.153C271.765 223 272.241 222.966 272.7 222.813C273.771 222.473 274.332 221.657 274.332 220.62C274.332 219.804 273.805 218.767 272.258 218.665V218.546C273.482 218.274 274.009 217.373 274.009 216.608C274.009 215.078 272.819 214.5 271.527 214.5H269.266H267.872V223ZM269.266 221.878V219.226H271.323C272.105 219.226 272.904 219.6 272.904 220.535C272.904 221.47 272.224 221.878 271.272 221.878H269.266ZM269.266 218.155V215.588H271.221C271.952 215.588 272.598 215.945 272.598 216.812C272.598 217.696 271.85 218.155 271.017 218.155H269.266ZM276.117 217.016H277.493C277.323 216.081 277.885 215.452 278.99 215.452C280.027 215.452 280.571 216.047 280.571 217.288V217.611C278.48 217.798 275.691 217.951 275.691 220.756C275.691 221.963 276.44 223.17 278.191 223.17C279.636 223.17 280.333 222.354 280.673 221.317H280.826C280.724 221.895 280.553 222.643 280.553 222.864V223H281.999V217.39C281.999 215.469 281.268 214.33 279.143 214.33C277.12 214.33 276.015 215.435 276.117 217.016ZM278.717 222.082C277.765 222.082 277.086 221.453 277.086 220.535C277.086 219.43 277.732 218.631 280.571 218.427C280.605 218.937 280.605 219.464 280.571 219.974C280.486 221.181 279.771 222.082 278.717 222.082ZM288.163 223.17C288.537 223.17 288.945 223.102 289.387 222.881C290.152 222.49 290.832 221.674 291.138 220.501C291.274 219.974 291.359 219.396 291.359 218.75C291.359 218.104 291.274 217.526 291.138 216.999C290.781 215.605 289.795 214.415 288.163 214.415C286.752 214.415 285.97 215.163 285.63 216.472L285.477 216.455C285.579 215.843 285.732 215.061 285.732 214.636V214.5H284.27V226.026H285.732V222.949C285.732 222.524 285.579 221.742 285.477 221.13L285.63 221.113C285.97 222.422 286.752 223.17 288.163 223.17ZM287.806 221.963C286.599 221.963 285.799 220.773 285.799 218.75C285.799 216.761 286.599 215.537 287.806 215.537C288.996 215.537 289.914 216.761 289.914 218.75C289.914 220.773 288.996 221.963 287.806 221.963ZM296.216 223V215.792H298.936V214.5H292.034V215.792H294.754V223H296.216ZM305.323 216.183L305.459 216.217C305.272 217.067 305.187 218.24 305.17 219.464L305.153 223H306.564V214.5H305.153L303.01 218.274C302.058 219.94 301.855 220.739 301.532 221.453L301.379 221.385C301.6 220.603 301.668 218.971 301.668 217.764V214.5H300.257V223H301.719L303.759 219.413C304.796 217.577 305 216.914 305.323 216.183ZM312.733 223.17C313.107 223.17 313.515 223.102 313.957 222.881C314.722 222.49 315.402 221.674 315.708 220.501C315.844 219.974 315.928 219.396 315.928 218.75C315.928 218.104 315.844 217.526 315.708 216.999C315.351 215.605 314.365 214.415 312.733 214.415C311.322 214.415 310.54 215.163 310.2 216.472L310.047 216.455C310.149 215.843 310.302 215.061 310.302 214.636V214.5H308.84V226.026H310.302V222.949C310.302 222.524 310.149 221.742 310.047 221.13L310.2 221.113C310.54 222.422 311.322 223.17 312.733 223.17ZM312.376 221.963C311.169 221.963 310.37 220.773 310.37 218.75C310.37 216.761 311.169 215.537 312.376 215.537C313.566 215.537 314.484 216.761 314.484 218.75C314.484 220.773 313.566 221.963 312.376 221.963ZM317.654 217.016H319.031C318.861 216.081 319.422 215.452 320.527 215.452C321.564 215.452 322.108 216.047 322.108 217.288V217.611C320.017 217.798 317.229 217.951 317.229 220.756C317.229 221.963 317.977 223.17 319.728 223.17C321.173 223.17 321.87 222.354 322.21 221.317H322.363C322.261 221.895 322.091 222.643 322.091 222.864V223H323.536V217.39C323.536 215.469 322.805 214.33 320.68 214.33C318.657 214.33 317.552 215.435 317.654 217.016ZM320.255 222.082C319.303 222.082 318.622 221.453 318.622 220.535C318.622 219.43 319.269 218.631 322.108 218.427C322.142 218.937 322.142 219.464 322.108 219.974C322.023 221.181 321.309 222.082 320.255 222.082ZM334.109 216.183L334.246 216.217C334.059 217.067 333.974 218.24 333.957 219.464L333.94 223H335.351V214.5H333.94L331.798 218.274C330.846 219.94 330.642 220.739 330.319 221.453L330.165 221.385C330.386 220.603 330.454 218.971 330.454 217.764V214.5H329.044V223H330.506L332.546 219.413C333.583 217.577 333.786 216.914 334.109 216.183ZM336.691 221.827L336.709 223.119C338.732 223.119 339.208 222.422 339.344 221.249C339.446 220.45 339.565 217.866 339.684 215.758H342.132V223H343.543V214.5H338.426C338.324 216.744 338.239 219.362 338.103 220.722C337.984 221.878 337.303 221.827 336.691 221.827ZM350.894 216.183L351.03 216.217C350.843 217.067 350.758 218.24 350.741 219.464L350.724 223H352.135V214.5H350.724L348.582 218.274C347.63 219.94 347.426 220.739 347.103 221.453L346.95 221.385C347.171 220.603 347.239 218.971 347.239 217.764V214.5H345.828V223H347.29L349.329 219.413C350.366 217.577 350.571 216.914 350.894 216.183ZM363.565 221.861V214.5H358.431C358.38 216.693 358.312 219.175 358.176 219.872C357.938 221.113 357.563 221.861 356.747 221.861H356.595V225.278H357.819V223H363.514V225.278H364.738V221.861H363.565ZM358.243 221.861V221.742C358.889 221.368 359.264 220.654 359.4 219.549C359.468 218.988 359.553 217.492 359.621 215.826H362.154V221.861H358.243ZM369.177 223.17C371.438 223.17 372.781 221.572 372.781 218.75C372.781 215.928 371.438 214.33 369.177 214.33C366.916 214.33 365.573 215.928 365.573 218.75C365.573 221.572 366.916 223.17 369.177 223.17ZM369.177 221.997C368.004 221.997 367.137 220.943 367.137 218.75C367.137 216.591 368.004 215.486 369.177 215.486C370.333 215.486 371.217 216.591 371.217 218.75C371.217 220.943 370.333 221.997 369.177 221.997ZM383.321 214.5H381.161L379.717 219.09C379.428 220.008 379.139 221.164 378.969 221.912H378.952C378.731 220.807 378.374 219.668 378.187 219.039L376.844 214.5H374.736L374.345 223H375.654L375.807 217.798C375.824 217.203 375.824 216.608 375.773 215.707H375.943C376.113 216.591 376.283 217.135 376.555 218.036L377.983 222.932H379.768L381.094 218.614C381.519 217.203 381.74 216.523 381.859 215.707H382.029C382.046 216.54 382.012 217.271 382.029 217.934L382.216 223H383.661L383.321 214.5Z" fill="black"/>
<path d="M520.057 211.984V216.829H514.974V211.984H513.479V223H514.974V218.24H520.057V223H521.554V211.984H520.057ZM530.286 220.178L528.875 220.161C528.875 221.521 528.025 221.997 527.141 221.997C525.951 221.997 525.016 221.079 524.999 218.835H530.184C530.235 218.529 530.252 218.206 530.252 217.917C530.252 215.962 529.249 214.33 527.09 214.33C524.676 214.33 523.52 216.302 523.52 218.818C523.52 221.232 524.591 223.17 527.056 223.17C529.011 223.17 530.235 222.048 530.286 220.178ZM527.021 215.486C528.143 215.486 528.823 216.251 528.823 217.764V217.917H525.016C525.101 216.472 525.797 215.486 527.021 215.486ZM535.262 223V215.792H537.982V214.5H531.08V215.792H533.799V223H535.262Z" fill="black"/>
<path d="M29 57.5001L655 57.5" stroke="black" stroke-opacity="0.08"/>
<path d="M29 118.5H655" stroke="black" stroke-opacity="0.08"/>
<path d="M29 183.5H655" stroke="black" stroke-opacity="0.08"/>
<path d="M674 1H15C7.26801 1 1 7.26801 1 15V244C1 251.732 7.26801 258 15 258H674C681.732 258 688 251.732 688 244V15C688 7.26801 681.732 1 674 1Z" stroke="white" stroke-width="2"/>
</svg>
