<svg width="61" height="56" viewBox="0 0 61 56" fill="none" xmlns="http://www.w3.org/2000/svg">
<path fill-rule="evenodd" clip-rule="evenodd" d="M59.94 26.0274L60.721 23.4852L58.1373 23.5684C57.9188 23.5684 56.3323 23.5215 54.7926 22.3865C54.9085 22.397 55.0222 22.4137 55.1403 22.4137C56.7246 22.4137 58.2591 21.4441 58.8729 20.0551L59.9839 17.5477C58.5898 17.5666 57.3154 17.3875 57.3154 17.3875C57.305 17.386 56.3011 17.2538 55.1396 16.0477C54.3066 15.1824 53.2759 14.7245 52.1598 14.7245C51.6708 14.7245 51.2339 14.8152 50.8578 14.9361C50.9166 14.7328 50.9715 14.5272 51.005 14.3141C51.3594 11.9669 49.8755 10.1782 49.8747 10.1797L47.9308 7.73202L46.7255 10.6067C46.7218 10.6158 46.4171 11.2906 45.8739 11.6193C45.7096 10.7737 45.3054 9.82303 44.4441 8.91544C42.8175 7.20454 40.8386 6.94836 39.8035 6.94836C39.3234 6.94836 38.9809 7.00126 38.8976 7.01562L36.5524 7.48415C36.6884 6.95214 36.9767 6.02264 37.5036 5.18759L38.7973 3.13663L35.5411 3.51373L34.5029 1.27309L32.4943 2.32653L30.6366 0.459961L28.784 2.32653L26.7702 1.27309L25.7344 3.51373L22.4788 3.13588L23.7748 5.18759C24.3024 6.02264 24.59 6.94912 24.7237 7.48037L22.4855 7.03224L22.409 7.0194C22.2968 7.00126 21.9564 6.94836 21.4742 6.94836C20.439 6.94836 18.4609 7.20454 16.8387 8.91468C15.9745 9.82227 15.5702 10.7737 15.4053 11.6193C14.865 11.2929 14.5626 10.6301 14.5626 10.6301L13.355 7.73806L11.3814 10.2001C11.1399 10.5175 9.9509 12.2004 10.2741 14.3164C10.3076 14.528 10.3618 14.7328 10.4198 14.9361C10.0453 14.8136 9.60907 14.7245 9.12011 14.7245C8.00323 14.7245 6.97255 15.1824 6.13805 16.0477C4.9803 17.2492 3.98157 17.3853 3.99049 17.3853C3.99049 17.3853 2.9338 17.5787 1.29972 17.5477L2.40471 20.0551C3.02 21.4441 4.55525 22.4137 6.13656 22.4137C6.2562 22.4137 6.3699 22.397 6.48656 22.3865C4.95058 23.5215 3.36406 23.5684 3.17234 23.5691L0.541016 23.4852L1.33836 26.0267C1.73964 27.3363 3.08019 29.5066 5.64612 29.7394C5.36671 30.9296 4.74845 32.2634 3.38932 32.8377L1.42828 33.6592L2.4976 35.5522C3.10025 36.5731 4.51809 37.7671 6.53338 37.7671C6.96958 37.7664 7.39092 37.7218 7.79665 37.6341C7.90068 38.1004 8.02998 38.5674 8.18306 39.0314C8.78349 40.8489 8.26555 42.1162 8.26109 42.1305L7.29209 44.1921L9.45302 44.7717C9.47977 44.78 10.1322 44.9629 10.9489 44.9629C11.3197 44.9629 11.6749 44.9228 12.0063 44.8427C12.2575 44.783 12.499 44.7037 12.7308 44.6077C13.011 45.1178 13.3498 45.5833 13.7467 46.0004C15.1303 47.4453 17.0928 48.1768 19.5778 48.1768H19.5852L21.359 48.1534L17.6948 49.7033L20.4769 51.0712C21.4883 51.5722 22.6862 52.1646 23.9071 52.6181L23.56 53.5846L24.5186 54.0289C24.6041 54.069 26.4492 54.9071 29.5145 55.0862C29.5145 55.0862 30.2539 55.1209 30.6619 55.1209C31.0691 55.1209 31.8003 55.0839 31.8003 55.0839C34.8463 54.9003 36.6758 54.069 36.762 54.0289L37.7228 53.5831L37.3721 52.6158C38.6272 52.1488 39.8704 51.5321 40.8401 51.0515L43.5703 49.7018L39.9179 48.1534L41.6991 48.1768C44.187 48.1768 46.1496 47.4446 47.5317 45.9982C47.9263 45.5848 48.2652 45.1201 48.5461 44.6077C48.7794 44.7037 49.0224 44.783 49.2736 44.8442C49.6042 44.9228 49.9587 44.9629 50.3295 44.9629C51.1321 44.9629 51.7919 44.7823 51.8098 44.7762L53.9796 44.1921L53.0344 42.1691C53.0114 42.1162 52.4942 40.8489 53.0946 39.0299C53.2477 38.5659 53.3762 38.0989 53.481 37.6341C53.8882 37.7218 54.3125 37.7664 54.7524 37.7671C57.3213 37.7671 58.5527 35.9308 58.7919 35.5303L59.8501 33.6577L57.8898 32.8392C56.5277 32.2634 55.9102 30.9304 55.6338 29.7417C58.1655 29.5172 59.5246 27.3453 59.94 26.0274V26.0274Z" fill="white"/>
<path fill-rule="evenodd" clip-rule="evenodd" d="M35.3412 33.5946H21.4527V25.4429C21.4527 24.6532 21.2253 23.8598 20.957 23.126H27.2162C27.8114 23.7268 28.394 24.1016 28.9483 24.3071C28.8763 24.5981 28.7819 25.1966 29.0487 25.7943C29.2664 26.2757 29.6617 26.6468 30.2332 26.8946C30.2948 27.4894 30.6664 28.3849 31.6896 28.7801C31.2401 29.2396 30.8046 29.6733 30.6285 29.8479L26.4738 29.7806C26.3794 29.7338 26.2189 29.6257 26.1476 29.4738C26.143 29.4626 26.1375 29.4539 26.132 29.4453C26.1267 29.4371 26.1215 29.429 26.1171 29.4187L26.7948 29.5297C26.8089 29.532 26.8238 29.532 26.8379 29.532C26.9687 29.532 27.0832 29.4398 27.1047 29.3038C27.127 29.1504 27.0267 29.0098 26.8795 28.9872L26.0458 28.8526L26.9709 25.6031L26.0941 23.7268L24.6911 25.2374L24.6049 28.6161L23.6612 28.4642C23.5155 28.4355 23.3758 28.5428 23.3506 28.6939C23.3275 28.8428 23.4271 28.9826 23.575 29.0098L23.971 29.0718C23.8306 29.1526 23.7362 29.2184 23.7251 29.2267L23.6448 29.2849L23.6233 29.3846C23.3929 30.3323 23.9123 31.2331 24.4741 31.6351L24.4533 31.7553C24.4303 31.9011 24.4637 32.0424 24.5492 32.1618C24.6317 32.2843 24.7558 32.3568 24.897 32.3817C24.9259 32.3878 24.9571 32.39 24.9846 32.39C25.2276 32.39 25.4402 32.22 25.4989 31.9691C25.7077 31.9948 25.8994 32.0001 26.0302 32.0001H26.1409L31.5915 33.0014L31.6844 32.9387C32.1177 32.6304 33.774 31.4031 34.3172 30.9965C34.4651 31.1273 34.6323 31.2452 34.8344 31.3434C34.6576 31.9427 34.6479 32.8654 35.3412 33.5946ZM21.4522 34.1439H39.3089L39.3126 40.9747C39.3126 43.2387 38.0047 44.8197 35.9456 45.335L36.2904 43.507C36.2956 43.4756 36.3012 43.4426 36.3069 43.4092C36.3209 43.3277 36.3354 43.2429 36.3454 43.1685C36.4435 43.21 36.546 43.244 36.6575 43.2659C36.786 43.2901 36.9049 43.303 37.0134 43.303C37.5403 43.303 37.8472 43.0211 38.0508 42.78L38.3161 42.4664L38.0998 42.1226C38.0798 42.0893 37.6005 41.3193 37.2341 40.7918C37.1606 40.6883 37.0915 40.5855 37.0216 40.4744L37.0197 40.4715C36.6009 39.8349 36.077 39.0386 35.0279 39.0386L34.9335 39.0409C34.7611 39.0529 34.6117 39.0862 34.4913 39.133C34.1614 38.9766 33.8203 38.8942 33.4659 38.8942C33.0312 38.8942 32.6655 39.0167 32.4211 39.1013C32.3988 39.1078 32.3775 39.1146 32.3571 39.1211C32.3135 39.135 32.2742 39.1475 32.2397 39.1527L30.2757 38.9562C30.2512 38.9524 30.171 38.9041 30.0729 38.7869V38.7764L30.4979 38.6033C30.3783 37.1637 29.0192 36.278 28.2612 35.9773C28.2277 35.8337 28.1601 35.6893 28.0405 35.573L27.6191 35.1656L27.2483 35.6176L27.0648 35.8473L24.3131 34.6986L26.104 36.9831L25.398 38.0721C25.1387 38.3517 25.424 38.6313 25.424 38.6313L26.1545 39.1429L26.9102 38.8557C26.9275 38.8557 26.9437 38.8584 26.9601 38.861C26.9684 38.8624 26.9768 38.8638 26.9853 38.8648C26.9646 38.9295 26.9408 39.0999 26.9183 39.2604C26.9003 39.3888 26.8832 39.5108 26.8694 39.5676L25.557 39.3061L24.1778 40.0973C23.4689 40.6271 23.3723 41.5029 23.6354 42.1029L23.7877 42.443L24.0047 42.9236L24.4885 42.7203C24.4952 42.7188 24.5011 42.7158 24.5056 42.712C24.3317 43.2758 24.403 43.8116 24.7114 44.163L25.0049 44.537L25.395 45.0381L25.8231 44.571C25.9479 44.4433 26.3566 43.9778 26.4829 43.5803L26.5758 43.2758L26.3678 43.0423L26.3321 42.9999L26.5669 42.6055L28.2813 43.0158L28.6669 43.1065L28.8713 42.7627L28.9827 42.5752C29.0035 42.5352 29.0087 42.5284 29.089 42.5284C29.1492 42.5284 29.2101 42.5352 29.2748 42.5495C29.9228 42.6742 30.5187 42.737 31.0471 42.737C31.5613 42.737 31.8682 42.7158 32.2331 42.5926C32.2331 42.5926 33.1538 43.6551 33.185 43.6952L32.6224 45.4643L32.5972 45.5708C31.5293 45.6592 31.0107 45.8965 30.382 46.5343C29.471 45.6146 28.8245 45.5172 26.3737 45.5172C23.44 45.5172 21.4522 43.7685 21.4522 40.9747V34.1439Z" fill="#FFE52B"/>
<path fill-rule="evenodd" clip-rule="evenodd" d="M26.0852 5.51827L26.5526 5.56739L26.754 5.13438L27.3432 3.85272L28.4371 4.4278L28.8606 4.64771L29.198 4.3084L30.3781 3.11818L31.5611 4.3084L31.8999 4.64771L32.3235 4.4278L33.4106 3.85272L34.0081 5.13438L34.2058 5.56739L34.6739 5.51827L35.1205 5.46311C34.9162 5.93164 34.7653 6.3775 34.6576 6.74628C33.4768 6.07749 31.943 5.69662 30.3781 5.69662C28.8205 5.69662 27.2875 6.07749 26.1037 6.74628C25.9938 6.3775 25.8444 5.93164 25.64 5.46311L26.0852 5.51827ZM30.3772 6.36473C32.4713 6.36473 34.147 7.07055 35.0722 7.82247C35.0722 7.82247 35.3471 6.13953 36.2856 4.65459L34.5995 4.84956L33.7167 2.94294L32.0217 3.83164L30.3772 2.17969L28.738 3.83164L27.0392 2.94294L26.1579 4.84956L24.4726 4.65459C25.4111 6.13953 25.6853 7.82247 25.6853 7.82247C26.6172 7.07055 28.2869 6.36473 30.3772 6.36473ZM26.4065 9.84441L30.3769 11.4397L34.3488 9.84441C34.0129 9.03128 32.4553 8.33982 30.3769 8.33755C28.3014 8.33982 26.7446 9.03128 26.4065 9.84441ZM30.668 17.8669L33.3372 16.4371L34.2906 10.8254L30.668 12.076V17.8669ZM36.2107 18.6945L34.9898 17.9743L33.7362 17.2436L30.3863 19.0988L30.3766 19.0905L30.3707 19.0988L27.02 17.2436L25.7657 17.9743L24.5433 18.6945H24.5299L24.22 18.8766C24.9104 19.0708 25.4343 19.4177 25.8786 19.8779C25.8863 19.8851 25.8931 19.8929 25.8999 19.9007L25.8999 19.9008C25.9096 19.912 25.9195 19.9233 25.9321 19.9331C26.0302 20.0411 26.1268 20.1575 26.2212 20.2754C26.2284 20.2847 26.2355 20.2936 26.2426 20.3025C26.2568 20.3203 26.271 20.3381 26.2859 20.3593C26.3721 20.4757 26.459 20.5996 26.5437 20.7266C26.557 20.7451 26.5707 20.7663 26.5848 20.788L26.5849 20.7882L26.5994 20.8104C26.7005 20.9646 26.7956 21.1248 26.89 21.2903C27.7579 22.8123 29.1446 23.7221 30.3766 23.7244C31.6094 23.7221 32.9961 22.8123 33.8655 21.2903C33.9613 21.1203 34.0594 20.9563 34.1597 20.8036C34.1655 20.7949 34.1713 20.7863 34.1772 20.7777C34.1864 20.764 34.1957 20.7503 34.2043 20.7364C34.2905 20.6049 34.3797 20.4772 34.4733 20.354C34.4934 20.3276 34.5127 20.3034 34.5306 20.2799C34.6272 20.1575 34.7267 20.0396 34.8285 19.9293C34.8357 19.9223 34.8423 19.9154 34.8487 19.9087L34.8488 19.9087C34.8582 19.8988 34.8671 19.8895 34.8768 19.8809C35.319 19.4215 35.8451 19.0708 36.5347 18.8766L36.2278 18.6945H36.2107ZM39.3052 25.4423C39.3052 24.6526 39.5312 23.8591 39.8046 23.1261H33.5432C32.5839 24.0934 31.6639 24.4523 30.8413 24.5347C30.692 24.5506 30.5419 24.5604 30.3888 24.5604H30.368C30.2149 24.5604 30.0626 24.5506 29.9139 24.5347C29.7705 24.5226 29.6204 24.4992 29.4688 24.4637C29.4153 24.6813 29.347 25.1355 29.5417 25.5677C29.717 25.9584 30.07 26.2501 30.585 26.4436L30.7588 26.5124L30.7618 26.702C30.7618 26.7587 30.8027 27.9913 32.1224 28.3328L32.1523 28.3015L32.1526 28.3013L32.1526 28.3012C32.3555 28.0884 32.5402 27.8948 32.679 27.732C32.4093 27.0859 32.5505 26.4277 32.9428 26.1043C32.9257 26.1723 32.7533 27.7895 34.027 28.3903L34.2366 28.4915L34.1749 28.7197C34.1541 28.787 33.729 30.3528 35.2724 30.9339L35.5452 31.039L35.424 31.308C35.3965 31.3685 34.7931 32.7884 36.2177 33.594H39.3075V31.0994C38.2092 30.9626 37.7433 30.0649 37.6229 29.4286C37.1124 29.3402 36.7178 29.115 36.4451 28.75C35.8664 27.973 36.2506 27.2552 36.3438 27.0811L36.3438 27.081C36.3548 27.0604 36.3618 27.0474 36.3626 27.0429C36.3618 27.0504 36.3626 27.8968 36.8768 28.419C37.1309 28.6706 37.4326 28.8656 37.8874 28.9109L38.1133 28.9306L38.1326 29.1641C38.1364 29.214 38.2597 30.3604 39.3075 30.5395L39.3052 25.4423ZM36.289 43.507L35.9442 45.335C38.0033 44.8196 39.3104 43.2387 39.3104 40.9746L39.3075 34.1439H21.4507V40.9746C21.4507 43.7684 23.4385 45.5171 26.3723 45.5171C28.823 45.5171 29.4688 45.6146 30.3806 46.5343C31.0092 45.8965 31.5279 45.6592 32.595 45.5708L32.6203 45.4642L33.1836 43.6959C33.1516 43.6551 32.2324 42.5926 32.2324 42.5926C31.8668 42.7158 31.5599 42.7362 31.0464 42.7362C30.5166 42.7362 29.9213 42.6742 29.2741 42.5495C29.2087 42.5351 29.1478 42.5283 29.0868 42.5283C29.0081 42.5283 29.0029 42.5351 28.9821 42.5752L28.8706 42.7619L28.6655 43.1064L28.2791 43.0165L26.5663 42.6062L26.3307 42.9999L26.3656 43.0422L26.5737 43.2757L26.4815 43.5803C26.356 43.9778 25.9465 44.4433 25.8217 44.571L25.3929 45.038L25.0035 44.537L24.71 44.1629C24.4023 43.8115 24.331 43.2757 24.5041 42.712C24.5004 42.7158 24.493 42.7188 24.4871 42.7203L24.004 42.9236L23.7863 42.443L23.6332 42.1029C23.3702 41.5029 23.4675 40.6278 24.1757 40.0973L25.5549 39.3061L26.8679 39.5675C26.8824 39.5098 26.8998 39.3848 26.9181 39.2542L26.9181 39.2541C26.9402 39.0956 26.9635 38.929 26.9839 38.8647C26.9748 38.8637 26.9661 38.8623 26.9576 38.8609L26.9575 38.8609L26.9574 38.8608C26.9414 38.8582 26.9257 38.8557 26.9088 38.8557L26.1523 39.1428L25.4226 38.6312C25.4226 38.6312 25.138 38.3509 25.3959 38.072L26.1026 36.9838L24.3124 34.6993L27.0634 35.848L27.2462 35.6175L27.6177 35.1648L28.0398 35.5722C28.1587 35.6901 28.2271 35.8336 28.2598 35.9772C29.0177 36.278 30.3769 37.1637 30.4973 38.6033L30.0715 38.7763V38.7861C30.1695 38.9033 30.2498 38.9524 30.2743 38.9569L32.2391 39.1534C32.271 39.1475 32.3087 39.1355 32.3503 39.1222C32.3726 39.1151 32.3961 39.1076 32.4204 39.1005C32.6649 39.0166 33.0297 38.8942 33.4652 38.8942C33.8189 38.8942 34.16 38.9758 34.4899 39.133C34.6111 39.0861 34.7589 39.0521 34.9321 39.0408L35.0264 39.0385C36.075 39.0385 36.5981 39.8328 37.0166 40.4682L37.0202 40.4736C37.09 40.5854 37.1591 40.6882 37.232 40.7918C37.5991 41.3192 38.0784 42.0885 38.0977 42.1225L38.3139 42.4664L38.0494 42.7807C37.8458 43.0211 37.5381 43.3029 37.012 43.3029C36.9035 43.3029 36.7854 43.2901 36.6561 43.2651C36.5446 43.2432 36.4421 43.21 36.344 43.1684C36.3332 43.2445 36.3186 43.3312 36.3045 43.4143L36.289 43.507ZM25.0374 41.7092L24.9445 41.4734C24.8784 41.3192 24.8873 41.1522 25.0151 41.0623L25.7657 40.5341L27.0208 40.7797C27.0208 40.7797 26.7941 40.4902 26.8164 40.1033L25.6178 39.8449L24.489 40.5446C24.0038 40.9127 23.9688 41.5157 24.1286 41.8731L24.2795 42.2079C24.2795 42.2079 24.9757 41.9162 25.0374 41.7092ZM35.3694 45.4462L35.7544 43.4035C35.7975 43.1806 35.8376 42.8821 35.8376 42.8821C35.8157 42.8595 35.7894 42.8333 35.7596 42.8037C35.5867 42.6319 35.2995 42.3465 35.1264 42.01C34.9825 41.7296 34.9557 41.5195 34.9255 41.2821C34.8984 41.0698 34.8686 40.8357 34.7497 40.51C34.7497 40.51 34.827 40.349 35.0053 40.349C35.0328 40.349 35.0633 40.3528 35.093 40.3611C35.3271 40.4288 35.487 40.8326 35.6676 41.2887C35.9124 41.9068 36.1952 42.621 36.7523 42.7249C36.8475 42.7446 36.9344 42.7506 37.0117 42.7506C37.2918 42.7506 37.4583 42.6304 37.6381 42.4136C37.6381 42.4136 37.1506 41.6352 36.7873 41.11C36.7104 41.0007 36.6362 40.8879 36.5623 40.7754C36.1704 40.1791 35.7845 39.5918 35.0261 39.5918C35.0053 39.5918 34.9786 39.5918 34.957 39.5948C34.6598 39.6099 34.477 39.7573 34.477 39.7573C34.1121 39.5238 33.771 39.4452 33.4649 39.4452C33.1177 39.4452 32.8178 39.5451 32.5872 39.622C32.4432 39.67 32.3263 39.7089 32.2417 39.7089H32.2335L30.222 39.5056C29.9069 39.4754 29.658 39.1535 29.5688 39.0273C29.5458 38.9925 29.5339 38.9721 29.5339 38.9721C29.5339 38.9177 29.5339 38.8603 29.5309 38.8089C29.4633 37.1358 28.1888 36.4201 27.7348 36.4088C27.7348 36.4088 27.7883 36.0907 27.6657 35.969L27.2213 36.5169L25.7656 35.7733L26.8052 37.0081L25.9261 38.0116C25.8146 38.1273 25.8288 38.2807 25.8748 38.3464L26.2546 38.688L26.7368 38.3902C26.7606 38.3721 26.8052 38.3668 26.858 38.3668C26.9195 38.3668 26.9953 38.3742 27.0768 38.3822C27.1715 38.3915 27.274 38.4016 27.3707 38.4016C27.5676 38.4016 27.737 38.36 27.7579 38.1726C27.7397 38.3599 27.6753 38.589 27.6045 38.8407C27.4409 39.4228 27.2431 40.1264 27.503 40.7178L27.7787 41.3571L25.9997 41.0971L25.1674 42.5262C24.9103 43.0022 24.8694 43.5169 25.1161 43.798L25.4282 44.194C25.4282 44.194 25.8652 43.7232 25.9633 43.4126L25.8213 43.2554C25.7017 43.1216 25.7076 43.0022 25.7812 42.8594L26.3036 41.979L28.4029 42.4831L28.5151 42.2904C28.657 42.0486 28.8621 41.9783 29.0865 41.9783C29.1801 41.9783 29.2745 41.9881 29.3734 42.0047C29.7635 42.0826 30.4048 42.1869 31.0461 42.1869C31.7498 42.1869 32.449 42.0599 32.8206 41.6352C33.2105 42.2229 33.8052 42.5574 34.2762 42.8222C34.7244 43.0743 35.0607 43.2634 35.0016 43.5479L34.5959 45.5104C34.8641 45.5006 35.1227 45.4817 35.3694 45.4462ZM33.159 45.5377C33.3819 45.5286 33.6323 45.5249 33.9036 45.5249C33.9036 45.5249 34.5501 43.6031 34.5865 43.5427C34.2246 43.3802 33.4726 42.9744 33.182 42.7885C33.2447 42.8838 33.3366 42.9834 33.4286 43.0831C33.6189 43.2895 33.8104 43.497 33.7482 43.6711L33.159 45.5377ZM25.2256 25.4617L25.1416 28.7066L25.5043 28.7633L26.3915 25.6491L25.9412 24.6916L25.2256 25.4617ZM26.1321 30.2225C25.9843 30.1273 25.7732 29.961 25.6558 29.7109C25.5228 29.4237 25.3303 29.2892 25.0502 29.2892C24.6846 29.2892 24.2937 29.5129 24.1258 29.6164C23.9927 30.4174 24.5731 31.1437 24.9618 31.2895C25.314 31.4195 25.7428 31.4467 25.962 31.4467L25.9695 31.4227C25.9766 31.4001 25.9849 31.3738 25.9924 31.3432C26.0118 31.2782 26.0303 31.2124 26.0445 31.1406C26.1054 30.8195 26.1269 30.4575 26.1321 30.2225ZM31.4645 32.415C31.9795 32.05 33.3981 30.9958 33.9487 30.5839C33.5482 29.9884 33.5103 29.2834 33.6002 28.7869C33.3371 28.6161 33.138 28.4226 32.9782 28.2178C32.3904 28.8692 31.3085 29.9414 31.0033 30.244L31.0017 30.2456C30.9587 30.2882 30.9314 30.3152 30.9236 30.3232L30.844 30.4056L26.6812 30.3376C26.6775 30.7577 26.6113 31.1144 26.5467 31.3751L26.5296 31.4424L26.5125 31.5097L31.4645 32.415ZM28.9454 24.3072C28.3918 24.1017 27.8092 23.7276 27.2132 23.1261H20.9541C21.2231 23.8591 21.4505 24.6526 21.4505 25.4423V33.594H35.3398C34.6457 32.8655 34.6561 31.9428 34.8322 31.3435C34.6309 31.2453 34.4637 31.1274 34.3143 30.9967C33.7711 31.4032 32.1155 32.6305 31.6822 32.9388L31.5893 33.0015L26.1387 32.0002H26.028C25.8972 32.0002 25.7055 31.9949 25.4967 31.9692C25.438 32.2186 25.2254 32.3902 24.9824 32.3902C24.9549 32.3902 24.9237 32.3879 24.8948 32.3818C24.7536 32.3569 24.6295 32.2844 24.547 32.1619C24.4615 32.0433 24.4288 31.902 24.4519 31.7554L24.4719 31.636C23.9101 31.2332 23.3915 30.3332 23.6203 29.384L23.6426 29.2842L23.7229 29.2268C23.734 29.2185 23.8277 29.1528 23.9689 29.0719L23.5735 29.0099C23.4249 28.9835 23.3253 28.8422 23.3484 28.6941C23.3736 28.5429 23.5133 28.4348 23.6582 28.4643L24.6027 28.6162L24.6889 25.2375L26.0926 23.7276L26.9695 25.6033L26.0443 28.8527L26.8781 28.9865C27.0245 29.0099 27.1248 29.1505 27.1025 29.3031C27.081 29.4399 26.9673 29.5321 26.8357 29.5321C26.8216 29.5321 26.8068 29.5321 26.7926 29.5306L26.1149 29.4188C26.1189 29.4291 26.1244 29.4371 26.1298 29.4452L26.1298 29.4452C26.1355 29.4536 26.1412 29.462 26.1454 29.4732C26.2167 29.6251 26.378 29.7339 26.4716 29.7807L30.6255 29.848C30.8024 29.6734 31.2386 29.2389 31.6874 28.7794C30.6642 28.385 30.2934 27.4902 30.231 26.894C29.6595 26.6469 29.2642 26.2758 29.0457 25.7944C28.7797 25.1974 28.8741 24.5982 28.9454 24.3072ZM30.087 12.076L26.4629 10.8254L27.4185 16.4371L30.087 17.8669V12.076ZM30.386 7.44309C32.9668 7.44309 35.3061 8.71417 35.3061 10.1273L35.2555 10.4749L34.2249 16.4925L37.9389 18.6946H37.93C37.93 18.6946 38.5334 19.0098 38.8076 19.2032C39.8338 19.9234 40.0485 20.9753 39.4555 21.4091C39.3077 20.5521 38.6426 19.6566 37.3957 19.6566C36.4965 19.6566 35.8129 20.1259 35.2555 20.8355C35.1166 21.0131 34.9821 21.2043 34.8543 21.4091C34.699 21.6683 34.5436 21.8958 34.3898 22.1134H41.2932C40.7835 23.151 40.3019 24.249 40.3019 25.4422V40.9748C40.3019 44.7351 37.4625 46.5284 34.3861 46.5284C34.2072 46.5284 34.04 46.5278 33.8831 46.5272C31.953 46.5201 31.5883 46.5187 30.3808 47.7474C29.1685 46.5187 28.8034 46.5201 26.8751 46.5272C26.7183 46.5278 26.5512 46.5284 26.3725 46.5284C23.2976 46.5284 20.4545 44.7351 20.4545 40.9748V25.4422C20.4545 24.249 19.9722 23.151 19.4654 22.1134H26.3658C26.2113 21.8958 26.0559 21.6683 25.9006 21.4091C25.7751 21.2043 25.6398 21.0131 25.4971 20.8355C24.945 20.1282 24.2599 19.6566 23.3615 19.6566C22.1138 19.6566 21.4472 20.5521 21.3016 21.4091C20.7086 20.9753 20.9256 19.9234 21.9459 19.2032C22.2253 19.0098 22.8279 18.6946 22.8279 18.6946H22.8183L25.4971 17.1039L26.533 16.4925L25.5016 10.4749L25.4503 10.1273C25.4503 8.71417 27.7896 7.44309 30.3711 7.44309H30.386ZM19.2682 46.3756C13.2551 46.3756 13.4089 41.1311 13.4089 41.1311C13.4089 41.1311 12.989 42.6841 11.3134 43.0891C11.1127 43.1435 10.8987 43.1639 10.6884 43.1639C10.1489 43.1639 9.68225 43.0347 9.68225 43.0347C9.68225 43.0347 10.5569 41.1515 9.68522 38.5157C8.96441 36.3294 9.08108 34.7077 9.08108 34.7077C9.08108 34.7077 8.27258 35.9538 6.26324 35.9659H6.24318C4.5712 35.9659 3.84148 34.676 3.84148 34.676C7.84827 32.9832 7.45592 27.5225 7.45592 27.5225C7.45592 27.5225 6.935 27.917 5.91844 27.9541C5.88203 27.9563 5.84859 27.9563 5.81366 27.9563C3.60368 27.9563 2.85464 25.5509 2.85464 25.5509H2.89922C3.30793 25.5509 6.58797 25.4535 8.90794 22.4533L9.10617 22.1971C10.5486 20.3312 11.7976 18.7154 14.1602 18.0628L14.4084 18.0189L14.4611 17.7665C14.5295 17.3826 14.2716 17.0222 13.6846 16.6337C10.2723 14.3614 12.5893 11.4625 12.5893 11.4625C12.5893 11.4625 13.559 13.7802 15.7452 13.7802C15.7712 13.7802 15.7967 13.7797 15.8225 13.7791C15.8491 13.7785 15.876 13.778 15.9042 13.778L15.9826 13.7735L15.9827 13.7735C16.2013 13.7612 16.4181 13.749 16.6325 13.7024L17.0345 13.623C17.0345 13.623 16.4103 11.9023 17.9143 10.3237C19.0453 9.13195 20.4193 8.92942 21.2129 8.92942C21.6157 8.92942 21.8654 8.98156 21.8654 8.98156C21.1141 9.98361 20.5687 11.6469 21.4388 12.6731C21.73 13.0146 22.1835 13.2301 22.6301 13.4424C23.3369 13.7784 24.0263 14.1061 24.0263 14.9115C24.0263 15.4692 23.5151 16.1184 22.5973 16.7017C19.8345 18.4708 17.0932 20.8188 15.9525 23.9632C14.5295 27.8868 16.1353 30.4909 18.4285 31.9849C18.4285 31.9849 17.7077 32.6575 16.6652 32.7429C16.4526 32.7641 16.2475 32.7739 16.0506 32.7739C13.854 32.7739 12.7163 31.725 12.7163 31.725C12.7163 31.725 12.9051 33.1744 14.0428 34.5195C15.1054 35.7619 16.4898 36.4942 18.6047 36.5244C18.6047 36.5244 18.6723 37.5219 17.7367 38.3864C17.1363 38.9313 15.7526 39.1089 15.7526 39.1089C15.7526 39.1089 18.3453 39.6424 18.6307 43.5335C18.7852 45.6426 19.3113 46.3756 19.3113 46.3756H19.2682ZM19.9084 45.9561L19.9052 45.9503C19.8663 45.8812 19.4797 45.1952 19.3525 43.4819C19.195 41.3237 18.3924 40.0639 17.6003 39.34C17.8292 39.2296 18.0409 39.0944 18.22 38.9289C19.3837 37.8656 19.3347 36.6134 19.3265 36.4774L19.2812 35.8026L18.6146 35.7912C16.8394 35.7625 15.5984 35.2222 14.5922 34.0373C14.3589 33.7584 14.1701 33.4803 14.0163 33.209C14.5707 33.3821 15.2491 33.5098 16.0517 33.5098C16.2664 33.5098 16.4908 33.4962 16.7271 33.4803C17.9702 33.3721 18.8142 32.6226 18.9155 32.5326L18.9171 32.5312L19.6096 31.8843L18.8197 31.3681C17.0526 30.2195 15.2461 28.0401 16.6335 24.22C17.5327 21.7361 19.6096 19.4856 22.9863 17.3296C24.1247 16.5973 24.7489 15.7351 24.7489 14.9121C24.7489 13.6395 23.7034 13.1385 22.9372 12.7796L22.876 12.7499L22.876 12.7499C22.5217 12.5784 22.1645 12.4055 21.9853 12.1954C21.3916 11.4956 21.8917 10.1565 22.4431 9.43031L23.1498 8.48871L22.0061 8.25898C22.0017 8.2585 21.9929 8.25712 21.9799 8.25509C21.8922 8.24136 21.6134 8.19777 21.214 8.19777C20.3594 8.19777 18.7283 8.40861 17.3967 9.81194C16.2857 10.9795 16.1401 12.2218 16.1966 13.0244C16.1119 13.0316 16.0268 13.0359 15.9387 13.0404L15.8681 13.044H15.7462C14.075 13.044 13.2851 11.244 13.2546 11.1729L12.785 10.0485L12.0241 10.9969L12.0185 11.0042C11.9242 11.1287 10.8771 12.5101 11.1398 14.2305C11.3196 15.4041 12.0456 16.4167 13.2903 17.2487C13.4263 17.3372 13.5199 17.4135 13.5883 17.4762C11.2454 18.2498 9.93541 19.944 8.55663 21.7272L8.54337 21.7444L8.34348 21.999C6.22787 24.7362 3.23392 24.817 2.87649 24.817L1.85547 24.7853L2.16608 25.7722C2.20175 25.8924 3.10462 28.6937 5.81471 28.6937L5.94549 28.69C6.23233 28.6817 6.48944 28.6408 6.71758 28.597C6.60537 30.1243 6.05324 32.9468 3.56311 33.9987L2.80218 34.3184L3.21386 35.0469L3.21513 35.049C3.27048 35.1422 4.19624 36.7003 6.27023 36.7003C7.18499 36.6981 7.89613 36.4653 8.42819 36.185C8.50919 36.8757 8.67565 37.7628 9.00261 38.7551C9.74886 41.0146 9.07548 42.6092 9.0302 42.7164L9.02862 42.7202L8.6541 43.5212L9.49975 43.7487C9.55548 43.7631 10.0749 43.8961 10.6894 43.8961C10.977 43.8961 11.2431 43.8651 11.4831 43.8077C12.1244 43.6535 12.62 43.3641 12.996 43.0353C13.2257 43.7532 13.6188 44.5641 14.3024 45.2835C15.4646 46.4972 17.1344 47.11 19.3176 47.11L20.6403 47.0919L19.9084 45.9561ZM56.9161 34.6774C56.9161 34.6774 56.1871 35.9666 54.5144 35.9666H54.4936C52.4857 35.9545 51.6765 34.7084 51.6765 34.7084C51.6765 34.7084 51.7924 36.3293 51.0694 38.5163C50.1977 41.1529 51.0768 43.0354 51.0768 43.0354C51.0768 43.0354 50.6079 43.1646 50.0677 43.1646C49.8619 43.1646 49.6456 43.1442 49.4428 43.0898C47.7656 42.6847 47.3472 41.1318 47.3472 41.1318C47.3472 41.1318 47.5018 46.3763 41.4893 46.3763H41.4425C41.4425 46.3763 41.9724 45.6433 42.1277 43.5341C42.4138 39.6438 45.0042 39.1095 45.0042 39.1095C45.0042 39.1095 43.622 38.932 43.0224 38.3871C42.0853 37.5226 42.1522 36.5251 42.1522 36.5251C44.2671 36.4948 45.6537 35.7626 46.7096 34.5202C47.8533 33.1751 48.0413 31.7256 48.0413 31.7256C48.0413 31.7256 46.9036 32.7746 44.7047 32.7746C44.5108 32.7746 44.3042 32.7647 44.0924 32.7436C43.0506 32.6582 42.332 31.9856 42.332 31.9856C44.6215 30.4916 46.2281 27.8875 44.8036 23.9639C43.6622 20.8202 40.9201 18.4715 38.1588 16.7024C37.241 16.119 36.7283 15.4699 36.7283 14.9122C36.7283 14.1072 37.4182 13.7797 38.1256 13.4439C38.573 13.2315 39.0274 13.0158 39.3187 12.6738C40.1889 11.6476 39.6435 9.98429 38.89 8.98299C38.89 8.98299 39.1434 8.9301 39.5439 8.9301C40.3383 8.9301 41.7138 9.13262 42.8433 10.3251C44.3443 11.9038 43.7224 13.6237 43.7224 13.6237L44.1244 13.7038C44.343 13.7506 44.5617 13.7623 44.7859 13.7743L44.8519 13.7779C44.8792 13.7779 44.9066 13.7786 44.9339 13.7794H44.934H44.934H44.934H44.9341C44.961 13.7802 44.9877 13.7809 45.0139 13.7809C47.1949 13.7809 48.1691 11.4624 48.1691 11.4624C48.1691 11.4624 50.4868 14.362 47.0745 16.6344C46.4874 17.0228 46.2281 17.3833 46.2957 17.7672L46.3492 18.0196L46.5922 18.0634C48.9577 18.7161 50.2061 20.332 51.6479 22.198L51.8459 22.454C54.1681 25.4541 57.4511 25.5516 57.8561 25.5516H57.9C57.9 25.5516 57.1509 27.957 54.9424 27.957C54.9053 27.957 54.8741 27.957 54.8377 27.9547C53.8233 27.9177 53.3024 27.5232 53.3024 27.5232C53.3024 27.5232 52.9071 32.9839 56.9161 34.6774ZM54.9426 28.6937C57.6505 28.6937 58.5563 25.8924 58.5935 25.7722L58.8959 24.7853L57.8816 24.8178H57.8772C57.5197 24.8178 54.5317 24.7362 52.4139 21.999L52.214 21.7444L52.2025 21.7296C50.8223 19.9455 49.5108 18.2502 47.1706 17.4762C47.2382 17.4135 47.3355 17.3372 47.4693 17.2487C48.714 16.4167 49.4385 15.4048 49.6206 14.2305C49.8866 12.4637 48.7779 11.0543 48.7288 10.9969L47.9753 10.0485L47.5042 11.1729C47.473 11.244 46.6809 13.0448 45.0141 13.0448H44.89C44.8555 13.0427 44.8213 13.0409 44.7874 13.039C44.7098 13.0348 44.634 13.0307 44.56 13.0244C44.6187 12.2218 44.4746 10.9787 43.3659 9.81194C42.0328 8.40861 40.3987 8.19777 39.5441 8.19777C39.1445 8.19777 38.8618 8.24182 38.7752 8.2553C38.763 8.25721 38.7546 8.25851 38.7505 8.25898L37.6121 8.48871L38.315 9.43031C38.8657 10.1565 39.365 11.4956 38.7728 12.1954C38.5942 12.4039 38.2403 12.5758 37.8896 12.7461L37.8209 12.7796C37.054 13.1385 36.0062 13.6395 36.0062 14.9121C36.0062 15.7351 36.6356 16.5973 37.7748 17.3296C41.1462 19.4856 43.2262 21.7361 44.1246 24.22C45.5149 28.0408 43.7003 30.2195 41.9399 31.3681L41.15 31.8843L41.8418 32.5312L41.8423 32.5316C41.9377 32.617 42.7818 33.3724 44.0295 33.4803C44.2665 33.4962 44.4924 33.5098 44.7049 33.5098C45.5045 33.5098 46.1874 33.3821 46.7418 33.209C46.5895 33.4803 46.4007 33.7584 46.1659 34.0373C45.1597 35.2222 43.921 35.7625 42.1405 35.7912L41.4784 35.8026L41.4279 36.4774C41.4212 36.6134 41.3714 37.8656 42.5366 38.9289C42.7142 39.0944 42.9297 39.2304 43.1563 39.34C42.3657 40.0639 41.5631 41.3237 41.4078 43.4819C41.2763 45.2835 40.8542 45.9493 40.849 45.9561L40.1178 47.0919L41.4398 47.11C43.6237 47.11 45.2957 46.4979 46.4542 45.2835C47.1393 44.5641 47.531 43.7532 47.7621 43.0353C48.1425 43.3641 48.6322 43.6535 49.2728 43.8077C49.515 43.8651 49.7803 43.8961 50.0679 43.8961C50.6739 43.8961 51.1838 43.7677 51.2557 43.7496L51.2591 43.7487L52.1025 43.5212L51.7295 42.7202L51.7279 42.7164C51.6826 42.6092 51.0093 41.0146 51.7562 38.7551C52.0817 37.7628 52.2489 36.8757 52.3299 36.1842C52.8612 36.4653 53.5731 36.6981 54.4931 36.7011C56.5362 36.7011 57.4625 35.1828 57.541 35.0541L57.545 35.0476L57.9559 34.3184L57.1935 33.9987C54.7034 32.9476 54.1527 30.1243 54.042 28.597C54.2672 28.6408 54.5243 28.6817 54.8148 28.69L54.9426 28.6937ZM50.6592 27.5074V27.5451C50.0521 22.5583 46.4911 18.9567 42.5282 16.7682C42.1618 16.5679 41.8222 16.3986 41.4945 16.2369C42.7006 16.4274 44.6438 16.4493 46.1434 15.1268C46.1434 15.1268 43.8487 16.8437 39.1493 15.284C39.5279 15.5343 40.0109 15.8145 40.5623 16.1345C41.9037 16.9127 43.6504 17.9261 45.2866 19.3164C51.056 24.4725 46.9281 29.5016 46.9281 29.5016C49.0013 27.3011 49.0883 24.944 48.4774 23.0185C49.5698 24.867 50.2676 27.1091 50.1591 29.8765C50 33.8393 47.8577 37.2664 45.6046 40.0209C44.5212 41.3562 44.2789 42.9984 44.2789 42.9984C44.2789 42.9984 44.7166 41.5497 45.9695 40.0587C48.3853 37.1833 50.4511 34.1968 50.7216 29.8916C50.9705 30.6737 52.0005 32.8448 53.6316 33.6625C53.6316 33.6625 51.5806 32.4058 50.6592 27.5074ZM53.5495 17.4684C52.9929 16.8843 52.4051 16.7089 51.9006 16.7089C51.1174 16.7089 50.5288 17.1299 50.5288 17.1299C51.6677 17.7461 52.3168 18.5633 52.862 19.2497C53.3264 19.8344 53.7154 20.3241 54.2674 20.5139C54.471 20.5857 54.6768 20.6174 54.8819 20.6174C55.7669 20.6174 56.6222 20.0347 56.9173 19.3705C56.9173 19.3705 55.2943 19.2692 53.5495 17.4684ZM52.299 19.7113C51.7833 19.0614 51.1941 18.3284 50.1849 17.7813L49.1483 17.2138L50.1106 16.5246L50.1221 16.5171C50.2448 16.4371 50.9545 15.9744 51.9 15.9744C52.7033 15.9744 53.4494 16.3092 54.0661 16.9485C55.565 18.5052 56.9122 18.6314 56.9613 18.6329L58.009 18.6957L57.5758 19.672C57.1455 20.6454 56.0108 21.3489 54.8813 21.3489C54.5915 21.3489 54.3076 21.3043 54.0401 21.2106C53.2959 20.9598 52.8185 20.3619 52.3178 19.7349L52.299 19.7113ZM34.6317 49.1493L35.4469 51.4307C36.948 51.0128 38.1867 50.5261 39.2092 50.0047L37.5194 49.4334L38.0181 47.7731C37.2705 48.2024 35.6015 48.8485 34.6317 49.1493ZM25.5124 52.782C26.1737 53.0223 28.4172 53.4817 30.3827 53.4817C32.3437 53.4817 34.5871 53.0223 35.2485 52.782L34.246 50.0191C33.4086 50.267 31.6771 50.5292 30.4198 50.5209H30.3403C29.083 50.5292 27.3493 50.267 26.5163 50.0191L25.5124 52.782ZM23.2429 49.4334L21.5508 50.0047C22.5719 50.5261 23.8166 51.0128 25.3124 51.4307L26.1283 49.1493C25.1608 48.8485 23.4889 48.2024 22.7428 47.7731L23.2429 49.4334ZM38.2558 49.0966L39.2842 49.4979L40.4256 49.9324C40.3166 49.9863 40.204 50.0422 40.0882 50.0997C38.8175 50.7303 37.1604 51.5527 35.6356 51.9766L36.0295 53.0671C36.0295 53.0671 33.922 54.0442 30.4027 54.054V54.0555H30.3551V54.054C26.8403 54.0442 24.7306 53.0671 24.7306 53.0671L25.123 51.9766C23.6184 51.5584 21.9881 50.7521 20.7199 50.1249L20.7191 50.1245C20.5852 50.0583 20.4553 49.994 20.33 49.9324L21.4743 49.4979L22.5065 49.0966L22.2167 48.0152L21.9091 46.8371C21.9091 46.8371 23.7297 47.8429 26.2978 48.5979C27.0253 48.8102 27.5782 48.9077 27.5782 48.9077V49.7095C27.5782 49.7095 28.9499 49.9521 30.3395 49.9521H30.4191C31.8072 49.9521 33.1812 49.7095 33.1812 49.7095V48.9077C33.1812 48.9077 33.7325 48.8102 34.4615 48.5979C37.0304 47.8429 38.8525 46.8371 38.8525 46.8371L38.5397 48.0152L38.2558 49.0966ZM8.86128 16.7091C8.35374 16.7091 7.76669 16.8836 7.20862 17.4678C5.46531 19.2694 3.84312 19.3699 3.84312 19.3699C4.1359 20.0349 4.99195 20.6168 5.87699 20.6168C6.08208 20.6168 6.28867 20.5858 6.48707 20.514C7.04158 20.3242 7.43286 19.8329 7.89977 19.2466C8.4459 18.5608 9.09551 17.7452 10.2308 17.13C10.2308 17.13 9.64079 16.7091 8.86128 16.7091ZM6.71862 21.2123C6.45036 21.3052 6.1665 21.3491 5.87669 21.3491C4.74866 21.3491 3.61469 20.6463 3.18295 19.6729L2.75344 18.6958L3.79972 18.6338C3.84802 18.6323 5.19229 18.5069 6.69187 16.9502C7.30864 16.3101 8.05546 15.9753 8.86098 15.9753C9.8065 15.9753 10.5131 16.438 10.6354 16.5181L10.6467 16.5255L11.6119 17.2154L10.5723 17.7822C9.56701 18.3257 8.98524 19.0547 8.4686 19.702L8.46045 19.7122L8.44358 19.7334C7.94296 20.3613 7.46523 20.9604 6.71862 21.2123ZM10.6022 29.8765C10.4892 27.1099 11.1877 24.8677 12.2816 23.0185C11.6722 24.944 11.7547 27.3011 13.8309 29.5024C13.8309 29.5024 9.70227 24.4725 15.4747 19.3164C17.1137 17.9233 18.8625 16.9082 20.2044 16.1293C20.7521 15.8114 21.232 15.5328 21.609 15.284C16.9104 16.8437 14.6157 15.1268 14.6157 15.1268C16.1152 16.45 18.0584 16.4274 19.2638 16.2362L19.2182 16.2588L19.2182 16.2589L19.2182 16.2589L19.2182 16.2589L19.2181 16.2589L19.2181 16.2589C18.9057 16.4145 18.5788 16.5772 18.2316 16.7682C14.2671 18.9567 10.7084 22.5583 10.0976 27.5459V27.5074C9.17765 32.4058 7.12817 33.6625 7.12817 33.6625C8.75854 32.8441 9.7855 30.6737 10.0352 29.8916C10.3079 34.1968 12.373 37.1825 14.7881 40.0587C16.0409 41.5497 16.4831 42.9984 16.4831 42.9984C16.4831 42.9984 16.2378 41.3562 15.1499 40.0202C12.8998 37.2672 10.7597 33.8393 10.6022 29.8765ZM33.0976 12.7949C33.0976 12.7949 33.0834 13.3345 32.3389 13.9201C31.9389 14.2432 31.6899 14.3255 31.6347 14.3437L31.6347 14.3437L31.6346 14.3438L31.6345 14.3438C31.628 14.346 31.6242 14.3472 31.6233 14.3479L31.4486 14.4302V13.4992L33.0976 12.7949ZM28.4183 13.9202C28.8189 14.2432 29.0679 14.3255 29.1232 14.3438C29.1298 14.346 29.1337 14.3472 29.1346 14.3479L29.3093 14.4303V13.4992L27.6618 12.7949C27.6618 12.7949 27.6759 13.3345 28.4183 13.9202ZM29.0217 19.7851V20.7743C29.3576 20.3594 30.0048 20.4441 30.0048 20.4441V21.8693C30.0048 21.8693 29.9825 22.5713 29.7373 22.8744H31.1396C30.898 22.5713 30.8735 21.8693 30.8735 21.8693V20.4441C30.8735 20.4441 31.523 20.3594 31.8559 20.7743V19.7851H29.0217ZM26.9746 37.2796C26.9835 37.179 27.0676 37.0989 27.1695 37.1079C27.2728 37.1125 27.3465 37.2047 27.3428 37.3046C27.3338 37.4082 27.2468 37.4853 27.1472 37.4778C27.0445 37.4747 26.9679 37.3855 26.9746 37.2796Z" fill="black"/>
</svg>
