<svg width="41" height="41" viewBox="0 0 41 41" fill="none" xmlns="http://www.w3.org/2000/svg">
<path d="M25.6934 10.8809H14.4293C12.4727 10.8809 10.8809 12.4723 10.8809 14.429V18.1771V25.6937C10.8809 27.6504 12.4727 29.2418 14.4293 29.2418H25.6938C27.6504 29.2418 29.2418 27.6504 29.2418 25.6937V18.1767V14.4286C29.2414 12.472 27.65 10.8809 25.6934 10.8809ZM26.7112 12.9968L27.1171 12.9953V13.3994V16.1075L24.0153 16.1175L24.0046 13.0057L26.7112 12.9968ZM17.4407 18.1767C18.0288 17.363 18.9829 16.8293 20.0613 16.8293C21.1398 16.8293 22.0939 17.363 22.6813 18.1767C23.0638 18.7078 23.2931 19.3575 23.2931 20.0612C23.2931 21.843 21.842 23.2926 20.061 23.2926C18.2788 23.2926 16.8292 21.843 16.8292 20.0612C16.8296 19.3575 17.0581 18.7078 17.4407 18.1767ZM27.4526 25.6933C27.4526 26.6641 26.6634 27.4526 25.6934 27.4526H14.4293C13.4589 27.4526 12.6697 26.6641 12.6697 25.6933V18.1767H15.4104C15.1737 18.7589 15.0407 19.3949 15.0407 20.0612C15.0407 22.8289 17.2925 25.0822 20.0613 25.0822C22.8298 25.0822 25.0816 22.8289 25.0816 20.0612C25.0816 19.3949 24.9479 18.7589 24.7112 18.1767H27.4526V25.6933Z" fill="black"/>
</svg>
