<svg width="41" height="41" viewBox="0 0 41 41" fill="none" xmlns="http://www.w3.org/2000/svg">
<path d="M31.8742 15.248H27.9015C27.7393 15.248 27.5802 15.2932 27.4411 15.3788C27.3019 15.4643 27.1879 15.5871 27.1113 15.734C27.1113 15.734 25.5268 18.7339 25.0179 19.7444C23.6487 22.4625 22.762 21.6092 22.762 20.3477V15.9979C22.762 15.6344 22.6216 15.2858 22.3716 15.0288C22.1216 14.7718 21.7825 14.6274 21.4289 14.6274H18.442C18.0353 14.5963 17.6275 14.6726 17.2575 14.8491C16.8875 15.0256 16.5675 15.2965 16.328 15.6359C16.328 15.6359 17.8447 15.3837 17.8447 17.4848C17.8447 18.0057 17.8708 19.5045 17.8946 20.7616C17.8991 20.9468 17.8482 21.129 17.7487 21.2836C17.6493 21.4381 17.5061 21.5576 17.3386 21.6258C17.171 21.6941 16.9871 21.7078 16.8117 21.6652C16.6363 21.6226 16.4778 21.5257 16.3577 21.3875C15.1351 19.6394 14.1224 17.7458 13.3415 15.7479C13.2745 15.5985 13.1671 15.472 13.0322 15.3833C12.8973 15.2947 12.7405 15.2477 12.5804 15.248C11.7189 15.248 9.99484 15.248 8.97099 15.248C8.87171 15.2473 8.77375 15.2714 8.68552 15.3182C8.59729 15.365 8.52144 15.4332 8.46448 15.5168C8.40752 15.6004 8.37115 15.6969 8.3585 15.7982C8.34585 15.8994 8.35729 16.0023 8.39185 16.098C9.48785 19.1887 14.2091 28.9014 19.5978 28.9014H21.866C22.1036 28.9014 22.3316 28.8043 22.4996 28.6315C22.6676 28.4588 22.762 28.2245 22.762 27.9801V26.5721C22.762 26.3955 22.8123 26.2227 22.9066 26.0751C23.001 25.9275 23.1353 25.8114 23.293 25.7413C23.4507 25.6712 23.6249 25.65 23.7941 25.6804C23.9633 25.7108 24.1202 25.7915 24.2455 25.9124L26.9603 28.5347C27.2041 28.7702 27.526 28.9013 27.8606 28.9014H31.4256C33.145 28.9014 33.145 27.6747 32.2075 26.7256C31.5478 26.0576 29.1671 23.4778 29.1671 23.4778C28.9632 23.2606 28.8416 22.9757 28.8243 22.6744C28.8069 22.3732 28.895 22.0755 29.0725 21.8351C29.842 20.794 31.1007 19.0899 31.6344 18.3598C32.3641 17.3619 33.6846 15.248 31.8742 15.248Z" fill="black"/>
</svg>
