<svg width="41" height="41" viewBox="0 0 41 41" fill="none" xmlns="http://www.w3.org/2000/svg">
<path fill-rule="evenodd" clip-rule="evenodd" d="M12.4271 28.3549C14.8975 28.4895 17.3727 28.522 19.8478 28.5081C20.1773 28.5081 20.5074 28.5091 20.8376 28.5102C21.4986 28.5122 22.1602 28.5143 22.8198 28.5081C24.5055 28.4849 26.1912 28.4245 27.8723 28.3131C29.4465 28.2063 30.5192 27.5329 30.9697 25.8147C31.1693 25.0671 31.2204 24.3055 31.2715 23.5439C31.4201 21.287 31.4155 19.0301 31.2344 16.7733C31.1693 15.942 31.0486 15.134 30.7375 14.3539C30.4171 13.5412 29.8226 13.0397 29.0239 12.7425C28.4932 12.5461 27.9363 12.5189 27.38 12.4917C27.3181 12.4887 27.2562 12.4857 27.1943 12.4824C25.1928 12.3803 23.1867 12.3292 21.1852 12.306C18.5847 12.2781 15.9842 12.3338 13.3883 12.4406C13.2388 12.447 13.0891 12.4519 12.9394 12.4568C12.3219 12.4772 11.7044 12.4975 11.0989 12.6171C10.2027 12.7935 9.45968 13.2161 9.03245 14.0659C8.85134 14.4282 8.71667 14.8089 8.6238 15.199C8.39294 16.1535 8.35308 17.1335 8.3135 18.1065C8.31168 18.1512 8.30986 18.196 8.30802 18.2407C8.22443 20.1539 8.23372 22.0718 8.39161 23.9897C8.46591 24.9185 8.59129 25.8286 8.99065 26.6924C9.22749 27.2125 9.60363 27.5793 10.0912 27.844C10.8203 28.2388 11.6237 28.3084 12.4271 28.3549ZM17.823 23.5313C17.6853 23.6067 17.5476 23.6821 17.4098 23.7575V23.7575C17.4098 23.7575 17.4098 23.7575 17.4098 23.7575V16.3971C17.4098 16.3971 17.4098 16.3971 17.4098 16.3971V16.3925C18.6219 17.0575 19.8272 17.7171 21.036 18.3786C22.0641 18.9412 23.0946 19.5051 24.134 20.075C24.1326 20.0758 24.1312 20.0765 24.1298 20.0773C24.1312 20.0781 24.1326 20.0789 24.134 20.0796C23.0838 20.6544 22.0418 21.2241 21.0012 21.793C19.9425 22.3718 18.8854 22.9498 17.823 23.5313Z" fill="black"/>
</svg>
