<svg width="84" height="84" viewBox="0 0 84 84" fill="none" xmlns="http://www.w3.org/2000/svg">
<path d="M34.9827 12.1652C38.1001 6.7609 45.8999 6.7609 49.0173 12.1652C50.8505 15.3433 54.5908 16.8926 58.1344 15.9417C64.1602 14.3245 69.6755 19.8398 68.0583 25.8656C67.1074 29.4092 68.6567 33.1495 71.8348 34.9827C77.2391 38.1001 77.2391 45.8999 71.8348 49.0173C68.6567 50.8505 67.1074 54.5908 68.0583 58.1344C69.6755 64.1602 64.1602 69.6755 58.1344 68.0583C54.5908 67.1074 50.8505 68.6567 49.0173 71.8348C45.8999 77.2391 38.1001 77.2391 34.9827 71.8348C33.1495 68.6567 29.4092 67.1074 25.8656 68.0583C19.8398 69.6755 14.3245 64.1602 15.9417 58.1344C16.8926 54.5908 15.3433 50.8505 12.1652 49.0173C6.7609 45.8999 6.76089 38.1001 12.1652 34.9827C15.3433 33.1495 16.8926 29.4092 15.9417 25.8656C14.3245 19.8398 19.8398 14.3245 25.8656 15.9417C29.4092 16.8926 33.1495 15.3433 34.9827 12.1652Z" fill="#5D31FF"/>
<path fill-rule="evenodd" clip-rule="evenodd" d="M44.0172 29.8874C44.363 30.0347 44.5875 30.3742 44.5875 30.75V39.4978H49.5C49.8334 39.4978 50.1417 39.6748 50.3097 39.9627C50.4777 40.2507 50.4802 40.6062 50.3162 40.8965L49.7011 41.985C47.3685 46.1133 44.3936 49.8441 40.8882 53.0373L39.8938 53.9431C39.6194 54.1931 39.2233 54.2576 38.8837 54.1076C38.5441 53.9576 38.325 53.6213 38.325 53.25V44.5764H33.25C32.7322 44.5764 32.3125 44.1567 32.3125 43.6389C32.3125 43.4713 32.3565 43.3138 32.4337 43.1776C34.6322 39.1133 37.4469 35.414 40.7778 32.2112L43.0002 30.0742C43.2711 29.8137 43.6714 29.7402 44.0172 29.8874ZM34.8557 42.7014H39.2625C39.7803 42.7014 40.2 43.1212 40.2 43.6389V51.1182C43.2233 48.2612 45.8146 44.9784 47.8918 41.3728H43.65C43.1322 41.3728 42.7125 40.953 42.7125 40.4353V32.952L42.0773 33.5628C39.2639 36.268 36.8348 39.343 34.8557 42.7014Z" fill="white"/>
</svg>
