<svg width="354" height="72" viewBox="0 0 354 72" fill="none" xmlns="http://www.w3.org/2000/svg">
<mask id="mask0_672_8446" style="mask-type:alpha" maskUnits="userSpaceOnUse" x="0" y="0" width="354" height="72">
<rect width="354" height="72" fill="#C4C4C4"/>
</mask>
<g mask="url(#mask0_672_8446)">
<mask id="mask1_672_8446" style="mask-type:alpha" maskUnits="userSpaceOnUse" x="3" y="5" width="61" height="62">
<rect x="3.54102" y="5.3999" width="60.18" height="61.2" fill="#C4C4C4"/>
</mask>
<g mask="url(#mask1_672_8446)">
<path fill-rule="evenodd" clip-rule="evenodd" d="M62.94 34.0274L63.721 31.4852L61.1373 31.5684C60.9188 31.5684 59.3323 31.5215 57.7926 30.3865C57.9085 30.397 58.0222 30.4137 58.1403 30.4137C59.7246 30.4137 61.2591 29.4441 61.8729 28.0551L62.9839 25.5477C61.5898 25.5666 60.3154 25.3875 60.3154 25.3875C60.305 25.386 59.3011 25.2538 58.1396 24.0477C57.3066 23.1824 56.2759 22.7245 55.1598 22.7245C54.6708 22.7245 54.2339 22.8152 53.8578 22.9361C53.9166 22.7328 53.9715 22.5272 54.005 22.3141C54.3594 19.9669 52.8755 18.1782 52.8747 18.1797L50.9308 15.732L49.7255 18.6067C49.7218 18.6158 49.4171 19.2906 48.8739 19.6193C48.7096 18.7737 48.3054 17.823 47.4441 16.9154C45.8175 15.2045 43.8386 14.9484 42.8035 14.9484C42.3234 14.9484 41.9809 15.0013 41.8976 15.0156L39.5524 15.4842C39.6884 14.9521 39.9767 14.0226 40.5036 13.1876L41.7973 11.1366L38.5411 11.5137L37.5029 9.27309L35.4943 10.3265L33.6366 8.45996L31.784 10.3265L29.7702 9.27309L28.7344 11.5137L25.4788 11.1359L26.7748 13.1876C27.3024 14.0226 27.59 14.9491 27.7237 15.4804L25.4855 15.0322L25.409 15.0194C25.2968 15.0013 24.9564 14.9484 24.4742 14.9484C23.439 14.9484 21.4609 15.2045 19.8387 16.9147C18.9745 17.8223 18.5702 18.7737 18.4053 19.6193C17.865 19.2929 17.5626 18.6301 17.5626 18.6301L16.355 15.7381L14.3814 18.2001C14.1399 18.5175 12.9509 20.2004 13.2741 22.3164C13.3076 22.528 13.3618 22.7328 13.4198 22.9361C13.0453 22.8136 12.6091 22.7245 12.1201 22.7245C11.0032 22.7245 9.97255 23.1824 9.13805 24.0477C7.9803 25.2492 6.98157 25.3853 6.99049 25.3853C6.99049 25.3853 5.9338 25.5787 4.29972 25.5477L5.40471 28.0551C6.02 29.4441 7.55525 30.4137 9.13656 30.4137C9.2562 30.4137 9.3699 30.397 9.48656 30.3865C7.95058 31.5215 6.36406 31.5684 6.17234 31.5691L3.54102 31.4852L4.33836 34.0267C4.73964 35.3363 6.08019 37.5066 8.64612 37.7394C8.36671 38.9296 7.74845 40.2634 6.38932 40.8377L4.42828 41.6592L5.4976 43.5522C6.10025 44.5731 7.51809 45.7671 9.53338 45.7671C9.96958 45.7664 10.3909 45.7218 10.7967 45.6341C10.9007 46.1004 11.03 46.5674 11.1831 47.0314C11.7835 48.8489 11.2655 50.1162 11.2611 50.1305L10.2921 52.1921L12.453 52.7717C12.4798 52.78 13.1322 52.9629 13.9489 52.9629C14.3197 52.9629 14.6749 52.9228 15.0063 52.8427C15.2575 52.783 15.499 52.7037 15.7308 52.6077C16.011 53.1178 16.3498 53.5833 16.7467 54.0004C18.1303 55.4453 20.0928 56.1768 22.5778 56.1768H22.5852L24.359 56.1534L20.6948 57.7033L23.4769 59.0712C24.4883 59.5722 25.6862 60.1646 26.9071 60.6181L26.56 61.5846L27.5186 62.0289C27.6041 62.069 29.4492 62.9071 32.5145 63.0862C32.5145 63.0862 33.2539 63.1209 33.6619 63.1209C34.0691 63.1209 34.8003 63.0839 34.8003 63.0839C37.8463 62.9003 39.6758 62.069 39.762 62.0289L40.7228 61.5831L40.3721 60.6158C41.6272 60.1488 42.8704 59.5321 43.8401 59.0515L46.5703 57.7018L42.9179 56.1534L44.6991 56.1768C47.187 56.1768 49.1496 55.4446 50.5317 53.9982C50.9263 53.5848 51.2652 53.1201 51.5461 52.6077C51.7794 52.7037 52.0224 52.783 52.2736 52.8442C52.6042 52.9228 52.9587 52.9629 53.3295 52.9629C54.1321 52.9629 54.7919 52.7823 54.8098 52.7762L56.9796 52.1921L56.0344 50.1691C56.0114 50.1162 55.4942 48.8489 56.0946 47.0299C56.2477 46.5659 56.3762 46.0989 56.481 45.6341C56.8882 45.7218 57.3125 45.7664 57.7524 45.7671C60.3213 45.7671 61.5527 43.9308 61.7919 43.5303L62.8501 41.6577L60.8898 40.8392C59.5277 40.2634 58.9102 38.9304 58.6338 37.7417C61.1655 37.5172 62.5246 35.3453 62.94 34.0274V34.0274Z" fill="white"/>
<path fill-rule="evenodd" clip-rule="evenodd" d="M38.3412 41.5946H24.4527V33.4429C24.4527 32.6532 24.2253 31.8598 23.957 31.126H30.2162C30.8114 31.7268 31.394 32.1016 31.9483 32.3071C31.8763 32.5981 31.7819 33.1966 32.0487 33.7943C32.2664 34.2757 32.6617 34.6468 33.2332 34.8946C33.2948 35.4894 33.6664 36.3849 34.6896 36.7801C34.2401 37.2396 33.8046 37.6733 33.6285 37.8479L29.4738 37.7806C29.3794 37.7338 29.2189 37.6257 29.1476 37.4738C29.143 37.4626 29.1375 37.4539 29.132 37.4453C29.1267 37.4371 29.1215 37.429 29.1171 37.4187L29.7948 37.5297C29.8089 37.532 29.8238 37.532 29.8379 37.532C29.9687 37.532 30.0832 37.4398 30.1047 37.3038C30.127 37.1504 30.0267 37.0098 29.8795 36.9872L29.0458 36.8526L29.9709 33.6031L29.0941 31.7268L27.6911 33.2374L27.6049 36.6161L26.6612 36.4642C26.5155 36.4355 26.3758 36.5428 26.3506 36.6939C26.3275 36.8428 26.4271 36.9826 26.575 37.0098L26.971 37.0718C26.8306 37.1526 26.7362 37.2184 26.7251 37.2267L26.6448 37.2849L26.6233 37.3846C26.3929 38.3323 26.9123 39.2331 27.4741 39.6351L27.4533 39.7553C27.4303 39.9011 27.4637 40.0424 27.5492 40.1618C27.6317 40.2843 27.7558 40.3568 27.897 40.3817C27.9259 40.3878 27.9571 40.39 27.9846 40.39C28.2276 40.39 28.4402 40.22 28.4989 39.9691C28.7077 39.9948 28.8994 40.0001 29.0302 40.0001H29.1409L34.5915 41.0014L34.6844 40.9387C35.1177 40.6304 36.774 39.4031 37.3172 38.9965C37.4651 39.1273 37.6323 39.2452 37.8344 39.3434C37.6576 39.9427 37.6479 40.8654 38.3412 41.5946ZM24.4522 42.1438H42.3089L42.3126 48.9746C42.3126 51.2386 41.0047 52.8195 38.9456 53.3349L39.2904 51.5069C39.2956 51.4754 39.3012 51.4425 39.3069 51.4091C39.3209 51.3275 39.3354 51.2428 39.3454 51.1684C39.4435 51.2099 39.546 51.2439 39.6575 51.2658C39.786 51.29 39.9049 51.3029 40.0134 51.3029C40.5403 51.3029 40.8472 51.021 41.0508 50.7799L41.3161 50.4663L41.0998 50.1225C41.0798 50.0892 40.6005 49.3192 40.2341 48.7917C40.1606 48.6882 40.0915 48.5854 40.0216 48.4743L40.0197 48.4714C39.6009 47.8348 39.077 47.0385 38.0279 47.0385L37.9335 47.0407C37.7611 47.0528 37.6117 47.0861 37.4913 47.1329C37.1614 46.9765 36.8203 46.8941 36.4659 46.8941C36.0312 46.8941 35.6655 47.0166 35.4211 47.1012C35.3988 47.1077 35.3775 47.1145 35.3571 47.121C35.3135 47.1349 35.2742 47.1474 35.2397 47.1526L33.2757 46.9561C33.2512 46.9523 33.171 46.904 33.0729 46.7868V46.7762L33.4979 46.6032C33.3783 45.1636 32.0192 44.2779 31.2612 43.9772C31.2277 43.8336 31.1601 43.6892 31.0405 43.5729L30.6191 43.1655L30.2483 43.6174L30.0648 43.8472L27.3131 42.6985L29.104 44.983L28.398 46.0719C28.1387 46.3515 28.424 46.6312 28.424 46.6312L29.1545 47.1428L29.9102 46.8556C29.9275 46.8556 29.9437 46.8583 29.9601 46.8609C29.9684 46.8623 29.9768 46.8636 29.9853 46.8647C29.9646 46.9293 29.9408 47.0998 29.9183 47.2603C29.9003 47.3887 29.8832 47.5107 29.8694 47.5675L28.557 47.306L27.1778 48.0972C26.4689 48.6269 26.3723 49.5028 26.6354 50.1028L26.7877 50.4429L27.0047 50.9235L27.4885 50.7202C27.4952 50.7187 27.5011 50.7157 27.5056 50.7119C27.3317 51.2757 27.403 51.8114 27.7114 52.1628L28.0049 52.5369L28.395 53.0379L28.8231 52.5709C28.9479 52.4432 29.3566 51.9777 29.4829 51.5802L29.5758 51.2757L29.3678 51.0421L29.3321 50.9998L29.5669 50.6054L31.2813 51.0157L31.6669 51.1064L31.8713 50.7625L31.9827 50.5751C32.0035 50.5351 32.0087 50.5283 32.089 50.5283C32.1492 50.5283 32.2101 50.5351 32.2748 50.5494C32.9228 50.6741 33.5187 50.7368 34.0471 50.7368C34.5613 50.7368 34.8682 50.7157 35.2331 50.5925C35.2331 50.5925 36.1538 51.655 36.185 51.6951L35.6224 53.4642L35.5972 53.5707C34.5293 53.6591 34.0107 53.8964 33.382 54.5342C32.471 53.6145 31.8245 53.5171 29.3737 53.5171C26.44 53.5171 24.4522 51.7684 24.4522 48.9746V42.1438Z" fill="#FFE52B"/>
<path fill-rule="evenodd" clip-rule="evenodd" d="M29.0852 13.5174L29.5526 13.5666L29.754 13.1336L30.3432 11.8519L31.4371 12.427L31.8606 12.6469L32.198 12.3076L33.3781 11.1174L34.5611 12.3076L34.8999 12.6469L35.3235 12.427L36.4106 11.8519L37.0081 13.1336L37.2058 13.5666L37.6739 13.5174L38.1205 13.4623C37.9162 13.9308 37.7653 14.3767 37.6576 14.7455C36.4768 14.0767 34.943 13.6958 33.3781 13.6958C31.8205 13.6958 30.2875 14.0767 29.1037 14.7455C28.9938 14.3767 28.8444 13.9308 28.64 13.4623L29.0852 13.5174ZM33.3772 14.3642C35.4713 14.3642 37.147 15.0701 38.0722 15.822C38.0722 15.822 38.3471 14.139 39.2856 12.6541L37.5995 12.8491L36.7167 10.9425L35.0217 11.8311L33.3772 10.1792L31.738 11.8311L30.0392 10.9425L29.1579 12.8491L27.4726 12.6541C28.4111 14.139 28.6853 15.822 28.6853 15.822C29.6172 15.0701 31.2869 14.3642 33.3772 14.3642ZM29.4065 17.8444L33.3769 19.4397L37.3488 17.8444C37.0129 17.0313 35.4553 16.3398 33.3769 16.3376C31.3014 16.3398 29.7446 17.0313 29.4065 17.8444ZM33.668 25.8669L36.3372 24.4371L37.2906 18.8254L33.668 20.076V25.8669ZM39.2107 26.6945L37.9898 25.9743L36.7362 25.2436L33.3863 27.0988L33.3766 27.0905L33.3707 27.0988L30.02 25.2436L28.7657 25.9743L27.5433 26.6945H27.5299L27.22 26.8766C27.9104 27.0708 28.4343 27.4177 28.8786 27.8779C28.8863 27.8851 28.8931 27.8929 28.8999 27.9007L28.8999 27.9008C28.9096 27.912 28.9195 27.9233 28.9321 27.9331C29.0302 28.0411 29.1268 28.1575 29.2212 28.2754C29.2284 28.2847 29.2355 28.2936 29.2426 28.3025C29.2568 28.3203 29.271 28.3381 29.2859 28.3593C29.3721 28.4757 29.459 28.5996 29.5437 28.7266C29.557 28.7452 29.5708 28.7664 29.5849 28.7882L29.5994 28.8104C29.7005 28.9646 29.7956 29.1248 29.89 29.2903C30.7579 30.8123 32.1446 31.7221 33.3766 31.7244C34.6094 31.7221 35.9961 30.8123 36.8655 29.2903C36.9613 29.1203 37.0594 28.9563 37.1597 28.8036C37.1655 28.7949 37.1713 28.7864 37.1771 28.7778L37.1772 28.7777C37.1864 28.764 37.1957 28.7503 37.2043 28.7364C37.2905 28.6049 37.3797 28.4772 37.4733 28.354C37.484 28.3399 37.4945 28.3265 37.5046 28.3135L37.5049 28.3132C37.5137 28.3018 37.5223 28.2908 37.5306 28.2799C37.6272 28.1575 37.7267 28.0396 37.8285 27.9293C37.8358 27.9223 37.8424 27.9153 37.8488 27.9087C37.8582 27.8988 37.8671 27.8895 37.8768 27.8809C38.319 27.4215 38.8451 27.0708 39.5347 26.8766L39.2278 26.6945H39.2107ZM42.3052 33.4422C42.3052 32.6525 42.5312 31.859 42.8046 31.126H36.5432C35.5839 32.0933 34.6639 32.4522 33.8413 32.5346C33.692 32.5505 33.5419 32.5603 33.3888 32.5603H33.368C33.2149 32.5603 33.0626 32.5505 32.9139 32.5346C32.7705 32.5225 32.6204 32.4991 32.4688 32.4636C32.4153 32.6812 32.347 33.1354 32.5417 33.5676C32.717 33.9583 33.07 34.25 33.585 34.4435L33.7588 34.5122L33.7618 34.7019C33.7618 34.7586 33.8027 35.9911 35.1224 36.3327L35.1524 36.3013C35.3554 36.0885 35.5402 35.8948 35.679 35.7319C35.4093 35.0858 35.5505 34.4276 35.9428 34.1042C35.9257 34.1722 35.7533 35.7894 37.027 36.3901L37.2366 36.4914L37.1749 36.7196C37.1541 36.7869 36.729 38.3527 38.2724 38.9338L38.5452 39.0389L38.424 39.3079C38.3965 39.3683 37.7931 40.7883 39.2177 41.5939H42.3075V39.0993C41.2092 38.9625 40.7433 38.0648 40.6229 37.4285C40.1124 37.3401 39.7178 37.1149 39.4451 36.7499C38.8664 35.9729 39.2506 35.2551 39.3438 35.081L39.3438 35.0809L39.3438 35.0808C39.3549 35.0603 39.3618 35.0473 39.3626 35.0427C39.3618 35.0503 39.3626 35.8967 39.8768 36.4189C40.1309 36.6705 40.4326 36.8655 40.8874 36.9108L41.1133 36.9305L41.1326 37.164C41.1364 37.2139 41.2597 38.3602 42.3075 38.5393L42.3052 33.4422ZM39.289 51.5069L38.9442 53.3349C41.0033 52.8195 42.3104 51.2386 42.3104 48.9745L42.3075 42.1438H24.4507V48.9745C24.4507 51.7683 26.4385 53.517 29.3723 53.517C31.823 53.517 32.4688 53.6145 33.3806 54.5342C34.0092 53.8964 34.5279 53.6591 35.595 53.5707L35.6203 53.4641L36.1836 51.6958C36.1516 51.655 35.2324 50.5925 35.2324 50.5925C34.8668 50.7156 34.5599 50.736 34.0464 50.736C33.5166 50.736 32.9213 50.6741 32.2741 50.5494C32.2087 50.535 32.1478 50.5282 32.0868 50.5282C32.0081 50.5282 32.0029 50.535 31.9821 50.5751L31.8706 50.7617L31.6655 51.1063L31.2791 51.0164L29.5663 50.6061L29.3307 50.9998L29.3656 51.0421L29.5737 51.2756L29.4815 51.5802C29.356 51.9777 28.9465 52.4432 28.8217 52.5709L28.3929 53.0379L28.0035 52.5369L27.71 52.1628C27.4023 51.8114 27.331 51.2756 27.5041 50.7119C27.5004 50.7156 27.493 50.7187 27.4871 50.7202L27.004 50.9235L26.7863 50.4428L26.6332 50.1028C26.3702 49.5027 26.4675 48.6277 27.1757 48.0972L28.5549 47.3059L29.8679 47.5674C29.8824 47.5097 29.8998 47.3847 29.9181 47.2541L29.9181 47.254C29.9402 47.0955 29.9635 46.9288 29.9839 46.8646L29.9776 46.8638C29.9708 46.8629 29.9641 46.8618 29.9575 46.8607C29.9414 46.8581 29.9257 46.8556 29.9088 46.8556L29.1523 47.1427L28.4226 46.6311C28.4226 46.6311 28.138 46.3507 28.3959 46.0719L29.1026 44.9837L27.3124 42.6992L30.0634 43.8479L30.2462 43.6174L30.6177 43.1647L31.0398 43.5721C31.1587 43.6899 31.2271 43.8335 31.2598 43.9771C32.0177 44.2779 33.3769 45.1635 33.4973 46.6031L33.0715 46.7762V46.786C33.1695 46.9032 33.2498 46.9523 33.2743 46.9568L35.2391 47.1533C35.2709 47.1474 35.3085 47.1354 35.35 47.1222L35.3503 47.1221L35.3504 47.1221C35.3727 47.115 35.3961 47.1075 35.4204 47.1004C35.6649 47.0165 36.0297 46.8941 36.4652 46.8941C36.8189 46.8941 37.16 46.9757 37.4899 47.1329C37.6111 47.086 37.7589 47.052 37.9321 47.0407L38.0264 47.0384C39.075 47.0384 39.5981 47.8327 40.0166 48.4681L40.0202 48.4735C40.09 48.5853 40.1591 48.6881 40.232 48.7916C40.5991 49.3191 41.0784 50.0884 41.0977 50.1224L41.3139 50.4663L41.0494 50.7806C40.8458 51.0209 40.5381 51.3028 40.012 51.3028C39.9035 51.3028 39.7854 51.29 39.6561 51.265C39.5446 51.2431 39.4421 51.2099 39.344 51.1683C39.3332 51.2443 39.3186 51.3309 39.3045 51.414L39.3045 51.4142L39.289 51.5069ZM28.0374 49.7092L27.9445 49.4734C27.8784 49.3192 27.8873 49.1522 28.0151 49.0623L28.7657 48.5341L30.0208 48.7797C30.0208 48.7797 29.7941 48.4902 29.8164 48.1033L28.6178 47.8449L27.489 48.5446C27.0038 48.9127 26.9688 49.5157 27.1286 49.8731L27.2795 50.2079C27.2795 50.2079 27.9757 49.9162 28.0374 49.7092ZM38.3694 53.4462L38.7544 51.4035C38.7975 51.1806 38.8376 50.8821 38.8376 50.8821C38.8157 50.8595 38.7894 50.8333 38.7596 50.8037C38.5867 50.6319 38.2995 50.3465 38.1264 50.01C37.9825 49.7296 37.9557 49.5195 37.9255 49.2821C37.8984 49.0698 37.8686 48.8357 37.7497 48.51C37.7497 48.51 37.827 48.349 38.0053 48.349C38.0328 48.349 38.0633 48.3528 38.093 48.3611C38.3271 48.4288 38.487 48.8326 38.6676 49.2887C38.9124 49.9068 39.1952 50.621 39.7523 50.7249C39.8475 50.7446 39.9344 50.7506 40.0117 50.7506C40.2918 50.7506 40.4583 50.6304 40.6381 50.4136C40.6381 50.4136 40.1506 49.6352 39.7873 49.11C39.7104 49.0007 39.6362 48.8879 39.5623 48.7754C39.1704 48.1791 38.7845 47.5918 38.0261 47.5918C38.0053 47.5918 37.9786 47.5918 37.957 47.5948C37.6598 47.6099 37.477 47.7573 37.477 47.7573C37.1121 47.5238 36.771 47.4452 36.4649 47.4452C36.1177 47.4452 35.8178 47.5451 35.5872 47.622C35.4432 47.67 35.3263 47.7089 35.2417 47.7089H35.2335L33.222 47.5056C32.9069 47.4754 32.658 47.1535 32.5688 47.0273C32.5458 46.9925 32.5339 46.9721 32.5339 46.9721C32.5339 46.9177 32.5339 46.8603 32.5309 46.8089C32.4633 45.1358 31.1888 44.4201 30.7348 44.4088C30.7348 44.4088 30.7883 44.0907 30.6657 43.969L30.2213 44.5169L28.7656 43.7733L29.8052 45.0081L28.9261 46.0116C28.8146 46.1273 28.8288 46.2807 28.8748 46.3464L29.2546 46.688L29.7368 46.3902C29.7606 46.3721 29.8052 46.3668 29.858 46.3668C29.9195 46.3668 29.9953 46.3742 30.0768 46.3822C30.1715 46.3915 30.274 46.4016 30.3707 46.4016C30.5676 46.4016 30.737 46.36 30.7579 46.1726C30.7397 46.3599 30.6753 46.589 30.6045 46.8407C30.4409 47.4228 30.2431 48.1264 30.503 48.7178L30.7787 49.3571L28.9997 49.0971L28.1674 50.5262C27.9103 51.0022 27.8694 51.5169 28.1161 51.798L28.4282 52.194C28.4282 52.194 28.8652 51.7232 28.9633 51.4126L28.8213 51.2554C28.7017 51.1216 28.7076 51.0022 28.7812 50.8594L29.3036 49.979L31.4029 50.4831L31.5151 50.2904C31.657 50.0486 31.8621 49.9783 32.0865 49.9783C32.1801 49.9783 32.2745 49.9881 32.3734 50.0047C32.7635 50.0826 33.4048 50.1869 34.0461 50.1869C34.7498 50.1869 35.449 50.0599 35.8206 49.6352C36.2105 50.2229 36.8052 50.5574 37.2762 50.8222C37.7244 51.0743 38.0607 51.2634 38.0016 51.5479L37.5959 53.5104C37.8641 53.5006 38.1227 53.4817 38.3694 53.4462ZM36.159 53.5377C36.3819 53.5286 36.6323 53.5249 36.9036 53.5249C36.9036 53.5249 37.5501 51.6031 37.5865 51.5427C37.2246 51.3802 36.4726 50.9744 36.182 50.7885C36.2447 50.8838 36.3365 50.9833 36.4286 51.0831C36.6189 51.2895 36.8104 51.497 36.7482 51.6711L36.159 53.5377ZM28.2256 33.4617L28.1416 36.7066L28.5043 36.7633L29.3915 33.6491L28.9412 32.6916L28.2256 33.4617ZM29.1321 38.2225C28.9843 38.1273 28.7732 37.961 28.6558 37.7109C28.5228 37.4237 28.3303 37.2892 28.0502 37.2892C27.6846 37.2892 27.2937 37.5129 27.1258 37.6164C26.9927 38.4174 27.5731 39.1437 27.9618 39.2895C28.314 39.4195 28.7428 39.4467 28.962 39.4467L28.9695 39.4227C28.9766 39.4001 28.9849 39.3738 28.9924 39.3432C29.0118 39.2782 29.0303 39.2124 29.0445 39.1406C29.1054 38.8195 29.1269 38.4575 29.1321 38.2225ZM34.4645 40.415C34.9795 40.05 36.3981 38.9958 36.9487 38.5839C36.5482 37.9884 36.5103 37.2834 36.6002 36.7869C36.3371 36.6161 36.138 36.4226 35.9782 36.2178C35.3904 36.8692 34.3085 37.9414 34.0033 38.244L34.0017 38.2456C33.9587 38.2882 33.9314 38.3152 33.9236 38.3232L33.844 38.4056L29.6812 38.3376C29.6775 38.7577 29.6113 39.1144 29.5467 39.3751L29.5296 39.4424L29.5125 39.5097L34.4645 40.415ZM31.9454 32.3071C31.3918 32.1016 30.8092 31.7275 30.2132 31.126H23.9541C24.2231 31.859 24.4505 32.6525 24.4505 33.4422V41.5939H38.3398C37.6457 40.8654 37.6561 39.9427 37.8322 39.3434C37.6309 39.2452 37.4637 39.1273 37.3143 38.9965C36.7711 39.4031 35.1155 40.6304 34.6822 40.9387L34.5893 41.0014L29.1387 40.0001H29.028C28.8972 40.0001 28.7055 39.9948 28.4967 39.9691C28.438 40.2185 28.2254 40.39 27.9824 40.39C27.9549 40.39 27.9237 40.3878 27.8948 40.3817C27.7536 40.3568 27.6295 40.2842 27.547 40.1618C27.4615 40.0432 27.4288 39.9019 27.4519 39.7553L27.4719 39.6359C26.9101 39.2331 26.3915 38.333 26.6203 37.3839L26.6426 37.2841L26.7229 37.2267C26.734 37.2184 26.8277 37.1526 26.9689 37.0718L26.5735 37.0098C26.4249 36.9834 26.3253 36.8421 26.3484 36.6939C26.3736 36.5428 26.5133 36.4347 26.6582 36.4642L27.6027 36.6161L27.6889 33.2374L29.0926 31.7275L29.9695 33.6031L29.0443 36.8526L29.8781 36.9864C30.0245 37.0098 30.1248 37.1504 30.1025 37.303C30.081 37.4398 29.9673 37.532 29.8357 37.532C29.8216 37.532 29.8068 37.532 29.7926 37.5305L29.1149 37.4186C29.1189 37.429 29.1244 37.437 29.1298 37.4451C29.1355 37.4535 29.1412 37.4619 29.1454 37.4731C29.2167 37.625 29.378 37.7338 29.4716 37.7806L33.6255 37.8479C33.8024 37.6733 34.2386 37.2388 34.6874 36.7793C33.6642 36.3849 33.2934 35.4901 33.231 34.8939C32.6595 34.6468 32.2642 34.2757 32.0457 33.7943C31.7797 33.1973 31.8741 32.5981 31.9454 32.3071ZM33.087 20.076L29.4629 18.8254L30.4185 24.4371L33.087 25.8669V20.076ZM33.386 15.4427C35.9668 15.4427 38.3061 16.7138 38.3061 18.1269L38.2555 18.4746L37.2249 24.4922L40.9389 26.6943H40.93C40.93 26.6943 41.5334 27.0094 41.8076 27.2028C42.8338 27.923 43.0485 28.975 42.4555 29.4087C42.3077 28.5518 41.6426 27.6563 40.3957 27.6563C39.4965 27.6563 38.8129 28.1255 38.2555 28.8351C38.1166 29.0127 37.9821 29.2039 37.8543 29.4087C37.699 29.6679 37.5436 29.8954 37.3898 30.113H44.2932C43.7835 31.1506 43.3019 32.2486 43.3019 33.4419V48.9744C43.3019 52.7348 40.4625 54.528 37.3861 54.528C37.2072 54.528 37.04 54.5274 36.8831 54.5268C34.953 54.5197 34.5883 54.5183 33.3808 55.747C32.1685 54.5183 31.8034 54.5197 29.8751 54.5268C29.7183 54.5274 29.5512 54.528 29.3725 54.528C26.2976 54.528 23.4545 52.7348 23.4545 48.9744V33.4419C23.4545 32.2486 22.9722 31.1506 22.4654 30.113H29.3658C29.2113 29.8954 29.0559 29.6679 28.9006 29.4087C28.7751 29.2039 28.6398 29.0127 28.4971 28.8351C27.945 28.1278 27.2599 27.6563 26.3615 27.6563C25.1138 27.6563 24.4472 28.5518 24.3016 29.4087C23.7086 28.975 23.9256 27.923 24.9459 27.2028C25.2253 27.0094 25.8279 26.6943 25.8279 26.6943H25.8183L28.4971 25.1035L29.533 24.4922L28.5016 18.4746L28.4503 18.1269C28.4503 16.7138 30.7896 15.4427 33.3711 15.4427H33.386ZM22.2682 54.3756C16.2551 54.3756 16.4089 49.1311 16.4089 49.1311C16.4089 49.1311 15.989 50.6841 14.3134 51.0891C14.1127 51.1435 13.8987 51.1639 13.6884 51.1639C13.1489 51.1639 12.6822 51.0347 12.6822 51.0347C12.6822 51.0347 13.5569 49.1515 12.6852 46.5157C11.9644 44.3294 12.0811 42.7077 12.0811 42.7077C12.0811 42.7077 11.2726 43.9538 9.26324 43.9659H9.24318C7.5712 43.9659 6.84148 42.676 6.84148 42.676C10.8483 40.9832 10.4559 35.5225 10.4559 35.5225C10.4559 35.5225 9.935 35.917 8.91844 35.9541C8.88203 35.9563 8.84859 35.9563 8.81366 35.9563C6.60368 35.9563 5.85464 33.5509 5.85464 33.5509H5.89922C6.30793 33.5509 9.58797 33.4535 11.9079 30.4533L12.1062 30.1971C13.5486 28.3312 14.7976 26.7154 17.1602 26.0628L17.4084 26.0189L17.4611 25.7665C17.5295 25.3826 17.2716 25.0222 16.6846 24.6337C13.2723 22.3614 15.5893 19.4625 15.5893 19.4625C15.5893 19.4625 16.559 21.7802 18.7452 21.7802C18.7712 21.7802 18.7967 21.7797 18.8225 21.7791L18.8226 21.7791C18.8491 21.7785 18.876 21.778 18.9042 21.778L18.9826 21.7735C19.2013 21.7612 19.418 21.749 19.6325 21.7024L20.0345 21.623C20.0345 21.623 19.4103 19.9023 20.9143 18.3237C22.0453 17.1319 23.4193 16.9294 24.2129 16.9294C24.6157 16.9294 24.8654 16.9816 24.8654 16.9816C24.1141 17.9836 23.5687 19.6469 24.4388 20.6731C24.73 21.0146 25.1835 21.2301 25.6301 21.4424C26.3369 21.7784 27.0263 22.1061 27.0263 22.9115C27.0263 23.4692 26.5151 24.1184 25.5973 24.7017C22.8345 26.4708 20.0932 28.8188 18.9525 31.9632C17.5295 35.8868 19.1353 38.4909 21.4285 39.9849C21.4285 39.9849 20.7077 40.6575 19.6652 40.7429C19.4526 40.7641 19.2475 40.7739 19.0506 40.7739C16.854 40.7739 15.7163 39.725 15.7163 39.725C15.7163 39.725 15.9051 41.1744 17.0428 42.5195C18.1054 43.7619 19.4898 44.4942 21.6047 44.5244C21.6047 44.5244 21.6723 45.5219 20.7367 46.3864C20.1363 46.9313 18.7526 47.1089 18.7526 47.1089C18.7526 47.1089 21.3453 47.6424 21.6307 51.5335C21.7852 53.6426 22.3113 54.3756 22.3113 54.3756H22.2682ZM22.9084 53.9557L22.9052 53.9499C22.8663 53.8809 22.4797 53.1948 22.3525 51.4816C22.195 49.3233 21.3924 48.0636 20.6003 47.3396C20.8292 47.2293 21.0409 47.094 21.22 46.9285C22.3837 45.8652 22.3347 44.6131 22.3265 44.477L22.2812 43.8022L21.6146 43.7909C19.8394 43.7621 18.5984 43.2218 17.5922 42.0369C17.3589 41.758 17.1701 41.4799 17.0163 41.2086C17.5707 41.3817 18.2491 41.5094 19.0517 41.5094C19.2664 41.5094 19.4908 41.4958 19.7271 41.4799C20.9702 41.3717 21.8142 40.6222 21.9155 40.5322L21.9171 40.5308L22.6096 39.8839L21.8197 39.3678C20.0526 38.2191 18.2461 36.0397 19.6335 32.2196C20.5327 29.7357 22.6096 27.4852 25.9863 25.3292C27.1247 24.5969 27.7489 23.7347 27.7489 22.9117C27.7489 21.6392 26.7034 21.1381 25.9372 20.7792L25.876 20.7495C25.5217 20.578 25.1645 20.4051 24.9853 20.195C24.3916 19.4953 24.8917 18.1562 25.4431 17.4299L26.1498 16.4883L25.0061 16.2586C25.0017 16.2581 24.9929 16.2567 24.9799 16.2547C24.8922 16.241 24.6134 16.1974 24.214 16.1974C23.3594 16.1974 21.7283 16.4082 20.3967 17.8116C19.2857 18.9791 19.1401 20.2215 19.1966 21.024C19.1119 21.0312 19.0268 21.0355 18.9387 21.04L18.8681 21.0437H18.7462C17.075 21.0437 16.2851 19.2436 16.2546 19.1726L15.785 18.0481L15.0241 18.9965L15.0185 19.0038C14.9242 19.1283 13.8771 20.5098 14.1398 22.2301C14.3196 23.4037 15.0456 24.4163 16.2903 25.2484C16.4263 25.3368 16.5199 25.4131 16.5883 25.4758C14.2454 26.2494 12.9354 27.9436 11.5566 29.7268L11.5434 29.744L11.3435 29.9987C9.22787 32.7358 6.23392 32.8166 5.87649 32.8166L4.85547 32.7849L5.16608 33.7718C5.20175 33.892 6.10462 36.6934 8.81471 36.6934L8.94549 36.6896C9.23233 36.6813 9.48944 36.6405 9.71758 36.5966C9.60537 38.1239 9.05324 40.9464 6.56311 41.9983L5.80218 42.318L6.21386 43.0465L6.21513 43.0486C6.27048 43.1418 7.19624 44.7 9.27023 44.7C10.185 44.6977 10.8961 44.4649 11.4282 44.1846C11.5092 44.8753 11.6756 45.7625 12.0026 46.7547C12.7488 49.0142 12.0755 50.6088 12.0302 50.7161L12.0286 50.7198L11.6541 51.5209L12.4997 51.7483C12.5555 51.7627 13.0749 51.8957 13.6894 51.8957C13.977 51.8957 14.2431 51.8647 14.4831 51.8073C15.1244 51.6531 15.62 51.3637 15.996 51.0349C16.2257 51.7529 16.6188 52.5637 17.3024 53.2831C18.4646 54.4968 20.1344 55.1097 22.3176 55.1097L23.6403 55.0915L22.9084 53.9557ZM59.9161 42.6773C59.9161 42.6773 59.1871 43.9665 57.5144 43.9665H57.4936C55.4857 43.9544 54.6765 42.7083 54.6765 42.7083C54.6765 42.7083 54.7924 44.3292 54.0694 46.5162C53.1977 49.1528 54.0768 51.0353 54.0768 51.0353C54.0768 51.0353 53.6079 51.1645 53.0677 51.1645C52.8619 51.1645 52.6456 51.1441 52.4428 51.0897C50.7656 50.6846 50.3472 49.1317 50.3472 49.1317C50.3472 49.1317 50.5018 54.3762 44.4893 54.3762H44.4425C44.4425 54.3762 44.9724 53.6432 45.1277 51.534C45.4138 47.6437 48.0042 47.1094 48.0042 47.1094C48.0042 47.1094 46.622 46.9318 46.0224 46.387C45.0853 45.5225 45.1522 44.525 45.1522 44.525C47.2671 44.4947 48.6537 43.7625 49.7096 42.5201C50.8533 41.175 51.0413 39.7255 51.0413 39.7255C51.0413 39.7255 49.9036 40.7744 47.7047 40.7744C47.5108 40.7744 47.3042 40.7646 47.0924 40.7435C46.0506 40.6581 45.332 39.9855 45.332 39.9855C47.6215 38.4915 49.2281 35.8874 47.8036 31.9638C46.6622 28.8201 43.9201 26.4714 41.1588 24.7023C40.241 24.1189 39.7283 23.4698 39.7283 22.9121C39.7283 22.1071 40.4182 21.7796 41.1256 21.4438C41.573 21.2314 42.0274 21.0157 42.3187 20.6737C43.1889 19.6475 42.6435 17.9842 41.89 16.9829C41.89 16.9829 42.1434 16.93 42.5439 16.93C43.3383 16.93 44.7138 17.1325 45.8433 18.325C47.3443 19.9036 46.7224 21.6236 46.7224 21.6236L47.1244 21.7037C47.343 21.7505 47.5617 21.7622 47.7859 21.7742L47.8519 21.7778C47.8792 21.7778 47.9067 21.7785 47.934 21.7793H47.934H47.9341H47.9341H47.9341C47.961 21.78 47.9877 21.7808 48.0139 21.7808C50.1949 21.7808 51.1691 19.4623 51.1691 19.4623C51.1691 19.4623 53.4868 22.3619 50.0745 24.6343C49.4874 25.0227 49.2281 25.3832 49.2957 25.7671L49.3492 26.0195L49.5922 26.0633C51.9577 26.716 53.2061 28.3318 54.6479 30.1979L54.8459 30.4539C57.1681 33.454 60.4511 33.5515 60.8561 33.5515H60.9C60.9 33.5515 60.1509 35.9569 57.9424 35.9569C57.9053 35.9569 57.8741 35.9569 57.8377 35.9546C56.8233 35.9176 56.3024 35.5231 56.3024 35.5231C56.3024 35.5231 55.9071 40.9838 59.9161 42.6773ZM57.9426 36.6934C60.6505 36.6934 61.5563 33.892 61.5935 33.7718L61.8959 32.7849L60.8816 32.8174H60.8772C60.5197 32.8174 57.5317 32.7358 55.4139 29.9987L55.214 29.744L55.2025 29.7292C53.8223 27.9451 52.5108 26.2498 50.1706 25.4758C50.2382 25.4131 50.3355 25.3368 50.4693 25.2484C51.714 24.4163 52.4385 23.4045 52.6206 22.2301C52.8866 20.4633 51.7779 19.0539 51.7288 18.9965L50.9753 18.0481L50.5042 19.1726C50.473 19.2436 49.6809 21.0444 48.0141 21.0444H47.89C47.8554 21.0424 47.8213 21.0405 47.7874 21.0387L47.7873 21.0387L47.7872 21.0387L47.7872 21.0387L47.7871 21.0386L47.7871 21.0386C47.7096 21.0344 47.6339 21.0303 47.56 21.024C47.6187 20.2215 47.4746 18.9784 46.3659 17.8116C45.0328 16.4082 43.3987 16.1974 42.5441 16.1974C42.1445 16.1974 41.8618 16.2414 41.7752 16.2549L41.7593 16.2574L41.7505 16.2586L40.6121 16.4883L41.315 17.4299C41.8657 18.1562 42.365 19.4953 41.7728 20.195C41.5942 20.4035 41.2403 20.5755 40.8896 20.7457L40.8209 20.7792C40.054 21.1381 39.0062 21.6392 39.0062 22.9117C39.0062 23.7347 39.6356 24.5969 40.7748 25.3292C44.1462 27.4852 46.2262 29.7357 47.1246 32.2196C48.5149 36.0404 46.7003 38.2191 44.9399 39.3678L44.15 39.8839L44.8418 40.5308L44.8423 40.5312C44.9377 40.6166 45.7818 41.3721 47.0295 41.4799C47.2665 41.4958 47.4924 41.5094 47.7049 41.5094C48.5045 41.5094 49.1874 41.3817 49.7418 41.2086C49.5895 41.4799 49.4007 41.758 49.1659 42.0369C48.1597 43.2218 46.921 43.7621 45.1405 43.7909L44.4784 43.8022L44.4279 44.477C44.4212 44.6131 44.3714 45.8652 45.5366 46.9285C45.7142 47.094 45.9297 47.23 46.1563 47.3396C45.3657 48.0636 44.5631 49.3233 44.4078 51.4816C44.2763 53.2831 43.8542 53.9489 43.849 53.9557L43.1178 55.0915L44.4398 55.1097C46.6237 55.1097 48.2957 54.4976 49.4542 53.2831C50.1393 52.5637 50.531 51.7529 50.7621 51.0349C51.1425 51.3637 51.6322 51.6531 52.2728 51.8073C52.515 51.8647 52.7803 51.8957 53.0679 51.8957C53.6737 51.8957 54.1835 51.7674 54.2556 51.7492L54.2557 51.7492L54.2591 51.7483L55.1025 51.5209L54.7295 50.7198L54.7279 50.7161C54.6826 50.6087 54.0093 49.0142 54.7562 46.7547C55.0817 45.7625 55.2489 44.8753 55.3299 44.1838C55.8612 44.4649 56.5731 44.6977 57.4931 44.7007C59.5362 44.7007 60.4625 43.1824 60.541 43.0538L60.545 43.0473L60.9559 42.318L60.1935 41.9983C57.7034 40.9472 57.1527 38.1239 57.042 36.5966C57.2672 36.6405 57.5243 36.6813 57.8148 36.6896L57.9426 36.6934ZM53.6592 35.5064V35.5442C53.0521 30.5574 49.4911 26.9557 45.5282 24.7672C45.1618 24.567 44.8222 24.3977 44.4945 24.236C45.7006 24.4264 47.6438 24.4483 49.1434 23.1259C49.1434 23.1259 46.8487 24.8428 42.1493 23.283C42.5279 23.5334 43.0109 23.8136 43.5623 24.1335C44.9037 24.9118 46.6504 25.9252 48.2866 27.3154C54.056 32.4715 49.9281 37.5007 49.9281 37.5007C52.0013 35.3001 52.0883 32.9431 51.4774 31.0176C52.5698 32.866 53.2676 35.1082 53.1591 37.8755C53 41.8384 50.8577 45.2655 48.6046 48.02C47.5212 49.3553 47.2789 50.9974 47.2789 50.9974C47.2789 50.9974 47.7166 49.5488 48.9695 48.0578C51.3853 45.1823 53.4511 42.1958 53.7216 37.8906C53.9705 38.6728 55.0005 40.8439 56.6316 41.6616C56.6316 41.6616 54.5806 40.4048 53.6592 35.5064ZM56.5495 25.4675C55.9929 24.8833 55.4051 24.708 54.9006 24.708C54.1174 24.708 53.5288 25.1289 53.5288 25.1289C54.6677 25.7452 55.3168 26.5624 55.862 27.2488C56.3264 27.8334 56.7154 28.3231 57.2674 28.5129C57.471 28.5847 57.6768 28.6165 57.8819 28.6165C58.7669 28.6165 59.6222 28.0338 59.9173 27.3696C59.9173 27.3696 58.2943 27.2683 56.5495 25.4675ZM55.299 27.7105C54.7833 27.0606 54.1941 26.3276 53.1849 25.7805L52.1483 25.2129L53.1106 24.5237L53.1221 24.5163C53.2448 24.4363 53.9545 23.9736 54.9 23.9736C55.7033 23.9736 56.4494 24.3084 57.0661 24.9477C58.565 26.5044 59.9122 26.6306 59.9613 26.6321L61.009 26.6948L60.5758 27.6712C60.1455 28.6445 59.0108 29.3481 57.8813 29.3481C57.5915 29.3481 57.3076 29.3035 57.0401 29.2098C56.2959 28.959 55.8185 28.3611 55.3178 27.734L55.299 27.7105ZM37.6317 57.1483L38.4469 59.4298C39.948 59.0119 41.1867 58.5252 42.2092 58.0038L40.5194 57.4325L41.0181 55.7722C40.2705 56.2015 38.6015 56.8476 37.6317 57.1483ZM28.5124 60.781C29.1737 61.0213 31.4172 61.4807 33.3827 61.4807C35.3437 61.4807 37.5871 61.0213 38.2485 60.781L37.246 58.0181C36.4086 58.266 34.6771 58.5282 33.4198 58.5199H33.3403C32.083 58.5282 30.3493 58.266 29.5163 58.0181L28.5124 60.781ZM26.2429 57.4325L24.5508 58.0038C25.5719 58.5252 26.8166 59.0119 28.3124 59.4298L29.1283 57.1483C28.1608 56.8476 26.4889 56.2015 25.7428 55.7722L26.2429 57.4325ZM41.2558 57.0956L42.2842 57.4969L43.4256 57.9314C43.3166 57.9852 43.204 58.0411 43.0882 58.0986C41.8175 58.7292 40.1604 59.5517 38.6356 59.9755L39.0295 61.066C39.0295 61.066 36.922 62.0431 33.4027 62.0529V62.0545H33.3551V62.0529C29.8403 62.0431 27.7306 61.066 27.7306 61.066L28.123 59.9755C26.6184 59.5573 24.9881 58.751 23.7199 58.1239L23.7191 58.1235C23.5852 58.0572 23.4553 57.993 23.33 57.9314L24.4743 57.4969L25.5065 57.0956L25.2167 56.0142L24.9091 54.8361C24.9091 54.8361 26.7297 55.8419 29.2978 56.5968C30.0253 56.8092 30.5782 56.9067 30.5782 56.9067V57.7085C30.5782 57.7085 31.9499 57.951 33.3395 57.951H33.4191C34.8072 57.951 36.1812 57.7085 36.1812 57.7085V56.9067C36.1812 56.9067 36.7325 56.8092 37.4615 56.5968C40.0304 55.8419 41.8525 54.8361 41.8525 54.8361L41.5397 56.0142L41.2558 57.0956ZM11.8613 24.7077C11.3537 24.7077 10.7667 24.8823 10.2086 25.4664C8.46531 27.268 6.84312 27.3685 6.84312 27.3685C7.1359 28.0335 7.99195 28.6154 8.87699 28.6154C9.08208 28.6154 9.28867 28.5844 9.48707 28.5126C10.0416 28.3228 10.4329 27.8315 10.8998 27.2452C11.4459 26.5595 12.0955 25.7438 13.2308 25.1286C13.2308 25.1286 12.6408 24.7077 11.8613 24.7077ZM9.71862 29.2112C9.45036 29.3042 9.1665 29.348 8.87669 29.348C7.74866 29.348 6.61469 28.6452 6.18295 27.6719L5.75344 26.6948L6.79972 26.6328C6.84802 26.6313 8.19229 26.5058 9.69187 24.9491C10.3086 24.309 11.0555 23.9743 11.861 23.9743C12.8065 23.9743 13.5131 24.437 13.6354 24.5171L13.6467 24.5244L14.6119 25.2144L13.5723 25.7811C12.567 26.3246 11.9852 27.0536 11.4686 27.701L11.4605 27.7112L11.4436 27.7323C10.943 28.3602 10.4652 28.9594 9.71862 29.2112ZM13.6022 37.8755C13.4892 35.1089 14.1877 32.8668 15.2816 31.0176C14.6722 32.9431 14.7547 35.3001 16.8309 37.5015C16.8309 37.5015 12.7023 32.4715 18.4747 27.3154C20.1137 25.9223 21.8625 24.9072 23.2044 24.1284C23.7521 23.8104 24.232 23.5319 24.609 23.283C19.9104 24.8428 17.6157 23.1259 17.6157 23.1259C19.1152 24.4491 21.0584 24.4264 22.2638 24.2352L22.2182 24.2579L22.2182 24.2579L22.2182 24.2579L22.2182 24.2579L22.2181 24.2579L22.2181 24.2579C21.9057 24.4135 21.5788 24.5763 21.2316 24.7672C17.2671 26.9557 13.7084 30.5574 13.0976 35.545V35.5064C12.1776 40.4048 10.1282 41.6616 10.1282 41.6616C11.7585 40.8431 12.7855 38.6728 13.0352 37.8906C13.3079 42.1958 15.373 45.1816 17.7881 48.0578C19.0409 49.5488 19.4831 50.9974 19.4831 50.9974C19.4831 50.9974 19.2378 49.3553 18.1499 48.0192C15.8998 45.2662 13.7597 41.8384 13.6022 37.8755ZM36.0976 20.7944C36.0976 20.7944 36.0834 21.3339 35.3389 21.9196C34.9389 22.2427 34.6899 22.325 34.6347 22.3432L34.6261 22.3461L34.6233 22.3473L34.4486 22.4297V21.4987L36.0976 20.7944ZM31.4183 21.9198C31.8189 22.2428 32.0679 22.3251 32.1232 22.3434C32.1298 22.3456 32.1337 22.3468 32.1346 22.3475L32.3093 22.4298V21.4988L30.6618 20.7945C30.6618 20.7945 30.6759 21.3341 31.4183 21.9198ZM32.0217 27.7846V28.7738C32.3576 28.3589 33.0048 28.4435 33.0048 28.4435V29.8688C33.0048 29.8688 32.9825 30.5708 32.7373 30.8739H34.1396C33.898 30.5708 33.8735 29.8688 33.8735 29.8688V28.4435C33.8735 28.4435 34.523 28.3589 34.8559 28.7738V27.7846H32.0217ZM29.9746 45.2792C29.9835 45.1787 30.0676 45.0985 30.1695 45.1076C30.2728 45.1121 30.3465 45.2044 30.3428 45.3042C30.3338 45.4078 30.2468 45.485 30.1472 45.4774C30.0445 45.4744 29.9679 45.3851 29.9746 45.2792Z" fill="black"/>
</g>
<path d="M81.6322 45.108H86.9422V32.544H94.2346V27.972H74.3398V32.544H81.6322V45.108Z" fill="black"/>
<path d="M110.166 27.972L101.316 37.944V27.972H96.1827V45.108H100.714L109.564 35.136V45.108H114.697V27.972H110.166Z" fill="black"/>
<path d="M123.54 38.736H131.789V45.108H136.922V27.972H131.789V34.236H123.54V27.972H118.407V45.108H123.54V38.736Z" fill="black"/>
<path d="M151.039 45.108C152.208 45.108 153.27 45 154.261 44.712C156.916 43.956 158.65 41.76 158.65 38.772C158.65 35.928 157.164 33.948 154.792 33.048C153.659 32.616 152.314 32.58 151.039 32.58H145.765V27.972H140.632V45.108H151.039ZM145.765 36.612H150.154C150.862 36.612 151.535 36.612 152.137 36.828C152.986 37.116 153.482 37.836 153.482 38.7C153.482 39.6 152.986 40.356 152.172 40.716C151.606 40.968 151.039 40.968 150.154 40.968H145.765V36.612Z" fill="black"/>
<path d="M166.261 38.628H167.677L173.801 45.108H180.633L172.102 36.18L180.315 27.972H173.872L167.677 34.416H166.261V27.972H161.128V45.108H166.261V38.628Z" fill="black"/>
<path d="M191.018 27.504C184.115 27.504 179.973 31.464 179.973 36.576C179.973 41.688 184.115 45.648 191.018 45.648C197.886 45.648 202.028 41.688 202.028 36.576C202.028 31.464 197.886 27.504 191.018 27.504ZM191.018 41.472C187.584 41.472 185.39 39.384 185.39 36.576C185.39 33.768 187.584 31.716 191.018 31.716C194.417 31.716 196.647 33.768 196.647 36.576C196.647 39.384 194.417 41.472 191.018 41.472Z" fill="black"/>
<path d="M218.945 28.728V27H213.812V28.728C207.369 28.872 203.511 31.644 203.511 36.54C203.511 41.436 207.369 43.992 213.812 44.136V45.864H218.945V44.136C225.423 43.992 229.282 41.436 229.282 36.54C229.282 31.644 225.423 28.872 218.945 28.728ZM213.812 40.464C210.272 40.32 208.715 38.844 208.715 36.54C208.715 34.236 210.272 32.58 213.812 32.436V40.464ZM218.945 40.464V32.436C222.521 32.58 224.043 34.236 224.043 36.54C224.043 38.844 222.521 40.32 218.945 40.464Z" fill="black"/>
<path d="M246.183 28.728V27H241.05V28.728C234.607 28.872 230.748 31.644 230.748 36.54C230.748 41.436 234.607 43.992 241.05 44.136V45.864H246.183V44.136C252.661 43.992 256.519 41.436 256.519 36.54C256.519 31.644 252.661 28.872 246.183 28.728ZM241.05 40.464C237.51 40.32 235.952 38.844 235.952 36.54C235.952 34.236 237.51 32.58 241.05 32.436V40.464ZM246.183 40.464V32.436C249.758 32.58 251.28 34.236 251.28 36.54C251.28 38.844 249.758 40.32 246.183 40.464Z" fill="black"/>
</g>
</svg>
