<svg width="689" height="401" viewBox="0 0 689 401" fill="none" xmlns="http://www.w3.org/2000/svg">
<rect x="1" y="1" width="687" height="399" rx="14" fill="white" fill-opacity="0.5"/>
<path d="M259.45 35V30.996H260.654C261.774 30.996 261.998 31.486 262.264 32.298C262.614 33.348 262.866 34.51 263.174 35H264.644C264.028 33.992 263.608 32.41 263.37 31.766C263.062 30.912 262.684 30.604 261.788 30.464V30.324C262.642 30.198 263.034 29.862 263.356 29.064C263.58 28.49 263.902 27.272 264.602 25.928H263.202C262.866 26.488 262.572 27.832 262.236 28.77C261.956 29.54 261.648 29.862 260.71 29.862H259.45V25.928H258.218V35H259.45ZM268.992 35.14C269.3 35.14 269.636 35.084 270 34.902C270.63 34.58 271.19 33.908 271.442 32.942C271.554 32.508 271.624 32.032 271.624 31.5C271.624 30.968 271.554 30.492 271.442 30.058C271.148 28.91 270.336 27.93 268.992 27.93C267.83 27.93 267.186 28.546 266.906 29.624L266.78 29.61C266.864 29.106 266.99 28.462 266.99 28.112V28H265.786V37.492H266.99V34.958C266.99 34.608 266.864 33.964 266.78 33.46L266.906 33.446C267.186 34.524 267.83 35.14 268.992 35.14ZM268.698 34.146C267.704 34.146 267.046 33.166 267.046 31.5C267.046 29.862 267.704 28.854 268.698 28.854C269.678 28.854 270.434 29.862 270.434 31.5C270.434 33.166 269.678 34.146 268.698 34.146ZM278.266 32.676L277.104 32.662C277.104 33.782 276.404 34.174 275.676 34.174C274.696 34.174 273.926 33.418 273.912 31.57H278.182C278.224 31.318 278.238 31.052 278.238 30.814C278.238 29.204 277.412 27.86 275.634 27.86C273.646 27.86 272.694 29.484 272.694 31.556C272.694 33.544 273.576 35.14 275.606 35.14C277.216 35.14 278.224 34.216 278.266 32.676ZM275.578 28.812C276.502 28.812 277.062 29.442 277.062 30.688V30.814H273.926C273.996 29.624 274.57 28.812 275.578 28.812ZM284.712 34.062V28H280.484C280.442 29.806 280.386 31.85 280.274 32.424C280.078 33.446 279.77 34.062 279.098 34.062H278.972V36.876H279.98V35H284.67V36.876H285.678V34.062H284.712ZM280.33 34.062V33.964C280.862 33.656 281.17 33.068 281.282 32.158C281.338 31.696 281.408 30.464 281.464 29.092H283.55V34.062H280.33ZM290.944 29.386L291.056 29.414C290.902 30.114 290.832 31.08 290.818 32.088L290.804 35H291.966V28H290.804L289.04 31.108C288.256 32.48 288.088 33.138 287.822 33.726L287.696 33.67C287.878 33.026 287.934 31.682 287.934 30.688V28H286.772V35H287.976L289.656 32.046C290.51 30.534 290.678 29.988 290.944 29.386ZM296.5 35V29.064H298.74V28H293.056V29.064H295.296V35H296.5ZM303.685 35V28.966H306.415V35H307.605V28H302.495V35H303.685ZM311.906 35.14C313.768 35.14 314.874 33.824 314.874 31.5C314.874 29.176 313.768 27.86 311.906 27.86C310.044 27.86 308.938 29.176 308.938 31.5C308.938 33.824 310.044 35.14 311.906 35.14ZM311.906 34.174C310.94 34.174 310.226 33.306 310.226 31.5C310.226 29.722 310.94 28.812 311.906 28.812C312.858 28.812 313.586 29.722 313.586 31.5C313.586 33.306 312.858 34.174 311.906 34.174ZM321.216 34.062V28H316.988C316.946 29.806 316.89 31.85 316.778 32.424C316.582 33.446 316.274 34.062 315.602 34.062H315.476V36.876H316.484V35H321.174V36.876H322.182V34.062H321.216ZM316.834 34.062V33.964C317.366 33.656 317.674 33.068 317.786 32.158C317.842 31.696 317.912 30.464 317.968 29.092H320.054V34.062H316.834ZM326.614 33.012H325.522C325.382 34.482 326.25 35.14 328.07 35.126C329.596 35.112 330.8 34.566 330.8 33.04C330.8 32.298 330.226 31.472 329.218 31.458V31.262C330.03 31.178 330.52 30.534 330.52 29.75C330.52 28.42 329.414 27.846 328.014 27.86C326.586 27.874 325.452 28.462 325.564 30.142H326.656C326.544 28.98 327.146 28.714 328 28.714C328.938 28.714 329.386 29.064 329.386 29.848C329.386 30.562 328.938 30.94 328.21 30.94H327.062V31.934H328.308C329.12 31.934 329.596 32.312 329.596 33.11C329.596 33.852 329.064 34.244 328.154 34.258C327.314 34.272 326.502 33.978 326.614 33.012ZM332.134 30.072H333.268C333.128 29.302 333.59 28.784 334.5 28.784C335.354 28.784 335.802 29.274 335.802 30.296V30.562C334.08 30.716 331.784 30.842 331.784 33.152C331.784 34.146 332.4 35.14 333.842 35.14C335.032 35.14 335.606 34.468 335.886 33.614H336.012C335.928 34.09 335.788 34.706 335.788 34.888V35H336.978V30.38C336.978 28.798 336.376 27.86 334.626 27.86C332.96 27.86 332.05 28.77 332.134 30.072ZM334.276 34.244C333.492 34.244 332.932 33.726 332.932 32.97C332.932 32.06 333.464 31.402 335.802 31.234C335.83 31.654 335.83 32.088 335.802 32.508C335.732 33.502 335.144 34.244 334.276 34.244ZM338.078 34.034L338.092 35.098C339.758 35.098 340.15 34.524 340.262 33.558C340.346 32.9 340.444 30.772 340.542 29.036H342.558V35H343.72V28H339.506C339.422 29.848 339.352 32.004 339.24 33.124C339.142 34.076 338.582 34.034 338.078 34.034ZM348.027 35.14C349.889 35.14 350.995 33.824 350.995 31.5C350.995 29.176 349.889 27.86 348.027 27.86C346.165 27.86 345.059 29.176 345.059 31.5C345.059 33.824 346.165 35.14 348.027 35.14ZM348.027 34.174C347.061 34.174 346.347 33.306 346.347 31.5C346.347 29.722 347.061 28.812 348.027 28.812C348.979 28.812 349.707 29.722 349.707 31.5C349.707 33.306 348.979 34.174 348.027 34.174ZM353.491 35V29.092H356.417V28H352.329V35H353.491ZM361.298 35V31.962H364.238V35H365.428V28H364.238V30.884H361.298V28H360.108V35H361.298ZM372.329 32.676L371.167 32.662C371.167 33.782 370.467 34.174 369.739 34.174C368.759 34.174 367.989 33.418 367.975 31.57H372.245C372.287 31.318 372.301 31.052 372.301 30.814C372.301 29.204 371.475 27.86 369.697 27.86C367.709 27.86 366.757 29.484 366.757 31.556C366.757 33.544 367.639 35.14 369.669 35.14C371.279 35.14 372.287 34.216 372.329 32.676ZM369.641 28.812C370.565 28.812 371.125 29.442 371.125 30.688V30.814H367.989C368.059 29.624 368.633 28.812 369.641 28.812ZM378.775 34.062V28H374.547C374.505 29.806 374.449 31.85 374.337 32.424C374.141 33.446 373.833 34.062 373.161 34.062H373.035V36.876H374.043V35H378.733V36.876H379.741V34.062H378.775ZM374.393 34.062V33.964C374.925 33.656 375.233 33.068 375.345 32.158C375.401 31.696 375.471 30.464 375.527 29.092H377.613V34.062H374.393ZM381.002 35H382.15H383.704C384.208 35 384.6 34.972 384.978 34.846C385.86 34.566 386.322 33.894 386.322 33.04C386.322 32.368 385.888 31.514 384.614 31.43V31.332C385.622 31.108 386.056 30.366 386.056 29.736C386.056 28.476 385.076 28 384.012 28H382.15H381.002V35ZM382.15 34.076V31.892H383.844C384.488 31.892 385.146 32.2 385.146 32.97C385.146 33.74 384.586 34.076 383.802 34.076H382.15ZM382.15 31.01V28.896H383.76C384.362 28.896 384.894 29.19 384.894 29.904C384.894 30.632 384.278 31.01 383.592 31.01H382.15ZM392.02 29.386L392.132 29.414C391.978 30.114 391.908 31.08 391.894 32.088L391.88 35H393.042V28H391.88L390.116 31.108C389.332 32.48 389.164 33.138 388.898 33.726L388.772 33.67C388.954 33.026 389.01 31.682 389.01 30.688V28H387.848V35H389.052L390.732 32.046C391.586 30.534 391.754 29.988 392.02 29.386ZM395.379 28H394.035C394.245 28.266 394.357 28.532 394.455 28.77C394.763 29.498 394.945 30.128 395.127 30.52C395.351 31.038 395.617 31.22 396.107 31.318V31.5C395.603 31.612 395.309 31.892 395.099 32.438C394.959 32.83 394.749 33.488 394.469 34.146C394.343 34.44 394.203 34.734 393.965 35H395.379C395.631 34.622 395.855 33.726 396.121 32.914C396.331 32.284 396.583 31.906 397.283 31.906H397.801V35H398.963V31.906H399.481C400.181 31.906 400.433 32.284 400.643 32.914C400.909 33.726 401.133 34.622 401.385 35H402.785C402.547 34.748 402.449 34.496 402.323 34.202C402.029 33.53 401.819 32.844 401.665 32.438C401.455 31.892 401.161 31.612 400.657 31.5V31.318C401.147 31.22 401.413 31.038 401.637 30.52C401.791 30.184 401.959 29.666 402.183 29.064C402.323 28.728 402.449 28.378 402.715 28H401.385C401.105 28.434 400.867 29.47 400.587 30.198C400.363 30.786 400.083 31.038 399.481 31.038H398.963V28H397.801V31.038H397.185C396.653 31.024 396.387 30.758 396.177 30.198C395.897 29.47 395.659 28.434 395.379 28ZM407.893 29.386L408.005 29.414C407.851 30.114 407.781 31.08 407.767 32.088L407.753 35H408.915V28H407.753L405.989 31.108C405.205 32.48 405.037 33.138 404.771 33.726L404.645 33.67C404.827 33.026 404.883 31.682 404.883 30.688V28H403.721V35H404.925L406.605 32.046C407.459 30.534 407.627 29.988 407.893 29.386ZM418 28H416.222L415.032 31.78C414.794 32.536 414.556 33.488 414.416 34.104H414.402C414.22 33.194 413.926 32.256 413.772 31.738L412.666 28H410.93L410.608 35H411.686L411.812 30.716C411.826 30.226 411.826 29.736 411.784 28.994H411.924C412.064 29.722 412.204 30.17 412.428 30.912L413.604 34.944H415.074L416.166 31.388C416.516 30.226 416.698 29.666 416.796 28.994H416.936C416.95 29.68 416.922 30.282 416.936 30.828L417.09 35H418.28L418 28ZM422.539 35.14C424.401 35.14 425.507 33.824 425.507 31.5C425.507 29.176 424.401 27.86 422.539 27.86C420.677 27.86 419.571 29.176 419.571 31.5C419.571 33.824 420.677 35.14 422.539 35.14ZM422.539 34.174C421.573 34.174 420.859 33.306 420.859 31.5C420.859 29.722 421.573 28.812 422.539 28.812C423.491 28.812 424.219 29.722 424.219 31.5C424.219 33.306 423.491 34.174 422.539 34.174ZM432.073 32.312L430.911 32.298C430.981 33.782 430.211 34.202 429.553 34.202C428.489 34.202 427.845 33.292 427.845 31.5C427.845 29.806 428.447 28.826 429.525 28.826C430.365 28.826 430.897 29.414 430.883 30.604L432.059 30.618C432.143 28.882 431.107 27.86 429.525 27.86C427.425 27.86 426.571 29.596 426.571 31.556C426.571 33.642 427.425 35.14 429.525 35.14C431.191 35.14 432.101 33.978 432.073 32.312ZM436.077 35V29.064H438.317V28H432.633V29.064H434.873V35H436.077ZM443.577 29.386L443.689 29.414C443.535 30.114 443.465 31.08 443.451 32.088L443.437 35H444.599V28H443.437L441.673 31.108C440.889 32.48 440.721 33.138 440.455 33.726L440.329 33.67C440.511 33.026 440.567 31.682 440.567 30.688V28H439.405V35H440.609L442.289 32.046C443.143 30.534 443.311 29.988 443.577 29.386Z" fill="black" fill-opacity="0.8"/>
<path d="M519.602 25.928H513.218V35H514.45V27.02H518.37V35H519.602V25.928ZM524.182 35.14C526.044 35.14 527.15 33.824 527.15 31.5C527.15 29.176 526.044 27.86 524.182 27.86C522.32 27.86 521.214 29.176 521.214 31.5C521.214 33.824 522.32 35.14 524.182 35.14ZM524.182 34.174C523.216 34.174 522.502 33.306 522.502 31.5C522.502 29.722 523.216 28.812 524.182 28.812C525.134 28.812 525.862 29.722 525.862 31.5C525.862 33.306 525.134 34.174 524.182 34.174ZM531.143 35V29.064H533.383V28H527.699V29.064H529.939V35H531.143ZM537.677 35.14C537.985 35.14 538.321 35.084 538.685 34.902C539.315 34.58 539.875 33.908 540.127 32.942C540.239 32.508 540.309 32.032 540.309 31.5C540.309 30.968 540.239 30.492 540.127 30.058C539.833 28.91 539.021 27.93 537.677 27.93C536.515 27.93 535.871 28.546 535.591 29.624L535.465 29.61C535.549 29.106 535.675 28.462 535.675 28.112V28H534.471V37.492H535.675V34.958C535.675 34.608 535.549 33.964 535.465 33.46L535.591 33.446C535.871 34.524 536.515 35.14 537.677 35.14ZM537.383 34.146C536.389 34.146 535.731 33.166 535.731 31.5C535.731 29.862 536.389 28.854 537.383 28.854C538.363 28.854 539.119 29.862 539.119 31.5C539.119 33.166 538.363 34.146 537.383 34.146ZM546.952 32.676L545.79 32.662C545.79 33.782 545.09 34.174 544.362 34.174C543.382 34.174 542.612 33.418 542.598 31.57H546.868C546.91 31.318 546.924 31.052 546.924 30.814C546.924 29.204 546.098 27.86 544.32 27.86C542.332 27.86 541.38 29.484 541.38 31.556C541.38 33.544 542.262 35.14 544.292 35.14C545.902 35.14 546.91 34.216 546.952 32.676ZM544.264 28.812C545.188 28.812 545.748 29.442 545.748 30.688V30.814H542.612C542.682 29.624 543.256 28.812 544.264 28.812ZM554 29.904C553.706 28.784 552.838 28 551.564 28C550.5 28 549.492 28.644 549.268 30.128H549.058C549.002 28.35 549.814 27.286 551.312 26.81C552.418 26.46 552.992 26.376 553.454 25.928L553.328 24.808C552.572 25.298 551.914 25.382 550.724 25.844C548.246 26.824 548.344 29.078 548.26 30.716C548.26 32.914 548.582 34.244 549.856 34.874C550.332 35.112 550.836 35.14 551.228 35.14C551.62 35.14 552.012 35.084 552.404 34.902C553.104 34.58 553.72 33.908 554 32.942C554.126 32.508 554.196 32.032 554.196 31.5C554.196 30.968 554.154 30.464 554 29.904ZM551.242 34.174C550.248 34.174 549.548 33.306 549.548 31.486C549.548 29.722 550.262 28.812 551.228 28.812C552.18 28.812 552.908 29.722 552.908 31.5C552.908 33.306 552.166 34.174 551.242 34.174ZM559.698 29.386L559.81 29.414C559.656 30.114 559.586 31.08 559.572 32.088L559.558 35H560.72V28H559.558L557.794 31.108C557.01 32.48 556.842 33.138 556.576 33.726L556.45 33.67C556.632 33.026 556.688 31.682 556.688 30.688V28H555.526V35H556.73L558.41 32.046C559.264 30.534 559.432 29.988 559.698 29.386ZM565.254 35V29.064H567.494V28H561.81V29.064H564.05V35H565.254ZM573.612 32.676L572.45 32.662C572.45 33.782 571.75 34.174 571.022 34.174C570.042 34.174 569.272 33.418 569.258 31.57H573.528C573.57 31.318 573.584 31.052 573.584 30.814C573.584 29.204 572.758 27.86 570.98 27.86C568.992 27.86 568.04 29.484 568.04 31.556C568.04 33.544 568.922 35.14 570.952 35.14C572.562 35.14 573.57 34.216 573.612 32.676ZM570.924 28.812C571.848 28.812 572.408 29.442 572.408 30.688V30.814H569.272C569.342 29.624 569.916 28.812 570.924 28.812ZM574.416 34.034L574.43 35.098C576.096 35.098 576.488 34.524 576.6 33.558C576.684 32.9 576.782 30.772 576.88 29.036H578.896V35H580.058V28H575.844C575.76 29.848 575.69 32.004 575.578 33.124C575.48 34.076 574.92 34.034 574.416 34.034ZM583.088 28H581.94V35H584.32C586.476 35 586.966 33.558 586.966 32.76C586.966 31.752 586.462 31.052 585.734 30.786C585.23 30.604 584.894 30.59 583.942 30.59H583.088V28ZM585.748 32.76C585.748 33.628 585.076 34.006 584.222 34.006H583.088V31.514H584.292C585.216 31.514 585.748 31.948 585.748 32.76ZM593.475 32.312L592.313 32.298C592.383 33.782 591.613 34.202 590.955 34.202C589.891 34.202 589.247 33.292 589.247 31.5C589.247 29.806 589.849 28.826 590.927 28.826C591.767 28.826 592.299 29.414 592.285 30.604L593.461 30.618C593.545 28.882 592.509 27.86 590.927 27.86C588.827 27.86 587.973 29.596 587.973 31.556C587.973 33.642 588.827 35.14 590.927 35.14C592.593 35.14 593.503 33.978 593.475 32.312ZM596.009 35V31.906H596.653C597.353 31.906 597.605 32.284 597.815 32.914C598.081 33.726 598.291 34.622 598.585 35H599.985C599.677 34.65 599.509 34.272 599.313 33.782C599.131 33.32 598.963 32.774 598.865 32.522C598.627 31.892 598.319 31.626 597.605 31.5V31.374C598.207 31.248 598.557 31.01 598.837 30.45C599.005 30.114 599.131 29.736 599.327 29.162C599.453 28.798 599.649 28.28 599.929 28H598.585C598.263 28.434 598.039 29.47 597.759 30.198C597.535 30.786 597.255 31.038 596.653 31.038H596.009V28H594.819V35H596.009ZM605.239 29.386L605.351 29.414C605.197 30.114 605.127 31.08 605.113 32.088L605.099 35H606.261V28H605.099L603.335 31.108C602.551 32.48 602.383 33.138 602.117 33.726L601.991 33.67C602.173 33.026 602.229 31.682 602.229 30.688V28H601.067V35H602.271L603.951 32.046C604.805 30.534 604.973 29.988 605.239 29.386ZM612.307 29.386L612.419 29.414C612.265 30.114 612.195 31.08 612.181 32.088L612.167 35H613.329V28H612.167L610.403 31.108C609.619 32.48 609.451 33.138 609.185 33.726L609.059 33.67C609.241 33.026 609.297 31.682 609.297 30.688V28H608.135V35H609.339L611.019 32.046C611.873 30.534 612.041 29.988 612.307 29.386ZM608.975 26.334V27.104C609.577 27.244 610.193 27.314 610.795 27.314C611.397 27.314 611.999 27.244 612.615 27.104V26.334C611.999 26.474 611.397 26.544 610.795 26.544C610.193 26.544 609.577 26.474 608.975 26.334ZM619.06 35V31.906H619.704C620.404 31.906 620.656 32.284 620.866 32.914C621.132 33.726 621.342 34.622 621.636 35H623.036C622.728 34.65 622.56 34.272 622.364 33.782C622.182 33.32 622.014 32.774 621.916 32.522C621.678 31.892 621.37 31.626 620.656 31.5V31.374C621.258 31.248 621.608 31.01 621.888 30.45C622.056 30.114 622.182 29.736 622.378 29.162C622.504 28.798 622.7 28.28 622.98 28H621.636C621.314 28.434 621.09 29.47 620.81 30.198C620.586 30.786 620.306 31.038 619.704 31.038H619.06V28H617.87V35H619.06ZM627.324 35.14C627.632 35.14 627.968 35.084 628.332 34.902C628.962 34.58 629.522 33.908 629.774 32.942C629.886 32.508 629.956 32.032 629.956 31.5C629.956 30.968 629.886 30.492 629.774 30.058C629.48 28.91 628.668 27.93 627.324 27.93C626.162 27.93 625.518 28.546 625.238 29.624L625.112 29.61C625.196 29.106 625.322 28.462 625.322 28.112V28H624.118V37.492H625.322V34.958C625.322 34.608 625.196 33.964 625.112 33.46L625.238 33.446C625.518 34.524 626.162 35.14 627.324 35.14ZM627.03 34.146C626.036 34.146 625.378 33.166 625.378 31.5C625.378 29.862 626.036 28.854 627.03 28.854C628.01 28.854 628.766 29.862 628.766 31.5C628.766 33.166 628.01 34.146 627.03 34.146ZM636.598 32.676L635.436 32.662C635.436 33.782 634.736 34.174 634.008 34.174C633.028 34.174 632.258 33.418 632.244 31.57H636.514C636.556 31.318 636.57 31.052 636.57 30.814C636.57 29.204 635.744 27.86 633.966 27.86C631.978 27.86 631.026 29.484 631.026 31.556C631.026 33.544 631.908 35.14 633.938 35.14C635.548 35.14 636.556 34.216 636.598 32.676ZM633.91 28.812C634.834 28.812 635.394 29.442 635.394 30.688V30.814H632.258C632.328 29.624 632.902 28.812 633.91 28.812ZM643.044 34.062V28H638.816C638.774 29.806 638.718 31.85 638.606 32.424C638.41 33.446 638.102 34.062 637.43 34.062H637.304V36.876H638.312V35H643.002V36.876H644.01V34.062H643.044ZM638.662 34.062V33.964C639.194 33.656 639.502 33.068 639.614 32.158C639.67 31.696 639.74 30.464 639.796 29.092H641.882V34.062H638.662ZM649.276 29.386L649.388 29.414C649.234 30.114 649.164 31.08 649.15 32.088L649.136 35H650.298V28H649.136L647.372 31.108C646.588 32.48 646.42 33.138 646.154 33.726L646.028 33.67C646.21 33.026 646.266 31.682 646.266 30.688V28H645.104V35H646.308L647.988 32.046C648.842 30.534 649.01 29.988 649.276 29.386ZM654.832 35V29.064H657.072V28H651.388V29.064H653.628V35H654.832Z" fill="black" fill-opacity="0.8"/>
<path d="M38.231 82.984H30.479V94H31.975V84.31H36.735V94H38.231V82.984ZM44.574 94.17C44.948 94.17 45.356 94.102 45.798 93.881C46.563 93.49 47.243 92.674 47.549 91.501C47.685 90.974 47.77 90.396 47.77 89.75C47.77 89.104 47.685 88.526 47.549 87.999C47.192 86.605 46.206 85.415 44.574 85.415C43.163 85.415 42.381 86.163 42.041 87.472L41.888 87.455C41.99 86.843 42.143 86.061 42.143 85.636V85.5H40.681V97.026H42.143V93.949C42.143 93.524 41.99 92.742 41.888 92.13L42.041 92.113C42.381 93.422 43.163 94.17 44.574 94.17ZM44.217 92.963C43.01 92.963 42.211 91.773 42.211 89.75C42.211 87.761 43.01 86.537 44.217 86.537C45.407 86.537 46.325 87.761 46.325 89.75C46.325 91.773 45.407 92.963 44.217 92.963ZM52.6738 94.17C54.9348 94.17 56.2778 92.572 56.2778 89.75C56.2778 86.928 54.9348 85.33 52.6738 85.33C50.4128 85.33 49.0698 86.928 49.0698 89.75C49.0698 92.572 50.4128 94.17 52.6738 94.17ZM52.6738 92.997C51.5008 92.997 50.6338 91.943 50.6338 89.75C50.6338 87.591 51.5008 86.486 52.6738 86.486C53.8298 86.486 54.7138 87.591 54.7138 89.75C54.7138 91.943 53.8298 92.997 52.6738 92.997ZM57.8968 85.5V94H64.0848V96.448H65.2238V92.861H64.2378V85.5H62.8268V92.861H59.3078V85.5H57.8968ZM73.035 91.178L71.624 91.161C71.624 92.521 70.774 92.997 69.89 92.997C68.7 92.997 67.765 92.079 67.748 89.835H72.933C72.984 89.529 73.001 89.206 73.001 88.917C73.001 86.962 71.998 85.33 69.839 85.33C67.425 85.33 66.269 87.302 66.269 89.818C66.269 92.232 67.34 94.17 69.805 94.17C71.76 94.17 72.984 93.048 73.035 91.178ZM69.771 86.486C70.893 86.486 71.573 87.251 71.573 88.764V88.917H67.765C67.85 87.472 68.547 86.486 69.771 86.486ZM76.2256 94V90.311H79.7956V94H81.2406V85.5H79.7956V89.002H76.2256V85.5H74.7806V94H76.2256ZM86.743 94V86.792H89.463V85.5H82.561V86.792H85.281V94H86.743ZM92.2295 94V90.311H95.7995V94H97.2445V85.5H95.7995V89.002H92.2295V85.5H90.7845V94H92.2295ZM99.4489 88.016H100.826C100.656 87.081 101.217 86.452 102.322 86.452C103.359 86.452 103.903 87.047 103.903 88.288V88.611C101.812 88.798 99.0239 88.951 99.0239 91.756C99.0239 92.963 99.7719 94.17 101.523 94.17C102.968 94.17 103.665 93.354 104.005 92.317H104.158C104.056 92.895 103.886 93.643 103.886 93.864V94H105.331V88.39C105.331 86.469 104.6 85.33 102.475 85.33C100.452 85.33 99.3469 86.435 99.4489 88.016ZM102.05 93.082C101.098 93.082 100.418 92.453 100.418 91.535C100.418 90.43 101.064 89.631 103.903 89.427C103.937 89.937 103.937 90.464 103.903 90.974C103.818 92.181 103.104 93.082 102.05 93.082ZM108.537 88.084C108.537 87.03 109.285 86.622 110.407 86.622H111.869V89.614H110.594C109.387 89.614 108.537 89.087 108.537 88.084ZM106.769 94H108.486C108.724 93.303 108.894 92.419 109.081 91.807C109.353 90.906 109.693 90.821 110.56 90.821H111.869V94H113.263V85.5H110.781C109.625 85.5 109.166 85.517 108.571 85.755C107.721 86.095 107.109 86.86 107.109 88.016C107.109 89.019 107.653 90.09 109.421 90.073V90.311C108.469 90.362 107.959 90.804 107.653 91.637C107.381 92.385 107.075 93.694 106.769 94ZM124.963 90.736L123.552 90.719C123.637 92.521 122.702 93.031 121.903 93.031C120.611 93.031 119.829 91.926 119.829 89.75C119.829 87.693 120.56 86.503 121.869 86.503C122.889 86.503 123.535 87.217 123.518 88.662L124.946 88.679C125.048 86.571 123.79 85.33 121.869 85.33C119.319 85.33 118.282 87.438 118.282 89.818C118.282 92.351 119.319 94.17 121.869 94.17C123.892 94.17 124.997 92.759 124.963 90.736ZM129.824 94V86.792H132.544V85.5H125.642V86.792H128.362V94H129.824ZM133.648 88.016H135.025C134.855 87.081 135.416 86.452 136.521 86.452C137.558 86.452 138.102 87.047 138.102 88.288V88.611C136.011 88.798 133.223 88.951 133.223 91.756C133.223 92.963 133.971 94.17 135.722 94.17C137.167 94.17 137.864 93.354 138.204 92.317H138.357C138.255 92.895 138.085 93.643 138.085 93.864V94H139.53V88.39C139.53 86.469 138.799 85.33 136.674 85.33C134.651 85.33 133.546 86.435 133.648 88.016ZM136.249 93.082C135.297 93.082 134.617 92.453 134.617 91.535C134.617 90.43 135.263 89.631 138.102 89.427C138.136 89.937 138.136 90.464 138.102 90.974C138.017 92.181 137.303 93.082 136.249 93.082ZM142.005 94H143.399H145.286C145.898 94 146.374 93.966 146.833 93.813C147.904 93.473 148.465 92.657 148.465 91.62C148.465 90.804 147.938 89.767 146.391 89.665V89.546C147.615 89.274 148.142 88.373 148.142 87.608C148.142 86.078 146.952 85.5 145.66 85.5H143.399H142.005V94ZM143.399 92.878V90.226H145.456C146.238 90.226 147.037 90.6 147.037 91.535C147.037 92.47 146.357 92.878 145.405 92.878H143.399ZM143.399 89.155V86.588H145.354C146.085 86.588 146.731 86.945 146.731 87.812C146.731 88.696 145.983 89.155 145.15 89.155H143.399ZM151.763 94V90.243H152.545C153.395 90.243 153.701 90.702 153.956 91.467C154.279 92.453 154.534 93.541 154.891 94H156.591C156.217 93.575 156.013 93.116 155.775 92.521C155.554 91.96 155.35 91.297 155.231 90.991C154.942 90.226 154.568 89.903 153.701 89.75V89.597C154.432 89.444 154.857 89.155 155.197 88.475C155.401 88.067 155.554 87.608 155.792 86.911C155.945 86.469 156.183 85.84 156.523 85.5H154.891C154.5 86.027 154.228 87.285 153.888 88.169C153.616 88.883 153.276 89.189 152.545 89.189H151.763V85.5H150.318V94H151.763ZM157.671 88.016H159.048C158.878 87.081 159.439 86.452 160.544 86.452C161.581 86.452 162.125 87.047 162.125 88.288V88.611C160.034 88.798 157.246 88.951 157.246 91.756C157.246 92.963 157.994 94.17 159.745 94.17C161.19 94.17 161.887 93.354 162.227 92.317H162.38C162.278 92.895 162.108 93.643 162.108 93.864V94H163.553V88.39C163.553 86.469 162.822 85.33 160.697 85.33C158.674 85.33 157.569 86.435 157.671 88.016ZM160.272 93.082C159.32 93.082 158.64 92.453 158.64 91.535C158.64 90.43 159.286 89.631 162.125 89.427C162.159 89.937 162.159 90.464 162.125 90.974C162.04 92.181 161.326 93.082 160.272 93.082Z" fill="black"/>
<path d="M261.25 94.17C263.511 94.17 264.854 92.572 264.854 89.75C264.854 86.928 263.511 85.33 261.25 85.33C258.989 85.33 257.646 86.928 257.646 89.75C257.646 92.572 258.989 94.17 261.25 94.17ZM261.25 92.997C260.077 92.997 259.21 91.943 259.21 89.75C259.21 87.591 260.077 86.486 261.25 86.486C262.406 86.486 263.29 87.591 263.29 89.75C263.29 91.943 262.406 92.997 261.25 92.997ZM269.703 94V86.792H272.423V85.5H265.521V86.792H268.241V94H269.703ZM281.844 88.373V88.22C282.949 87.761 283.714 87.098 283.714 85.687C283.714 83.8 282.201 82.78 280.263 82.78C278.325 82.78 276.812 83.8 276.812 85.687C276.812 87.098 277.577 87.761 278.682 88.22V88.373C277.441 88.781 276.591 89.75 276.591 91.195C276.591 93.167 278.291 94.17 280.212 94.17C282.065 94.17 283.935 93.167 283.935 91.195C283.935 89.75 283.085 88.781 281.844 88.373ZM280.263 84.004C281.232 84.004 282.218 84.548 282.218 85.874C282.218 87.2 281.215 87.71 280.501 87.727H280.025C279.311 87.727 278.308 87.2 278.308 85.874C278.308 84.548 279.294 84.004 280.263 84.004ZM280.297 92.946C279.209 92.946 278.138 92.402 278.138 91.008C278.138 89.597 279.277 89.002 279.94 89.002H280.586C281.249 89.002 282.388 89.597 282.388 91.008C282.388 92.402 281.317 92.946 280.297 92.946ZM286.936 91.637C286.409 91.637 285.95 92.079 285.95 92.861C285.95 93.694 286.392 94.119 286.919 94.119C286.919 94.493 286.494 95.445 286.154 95.921L286.715 96.074C287.174 95.649 287.905 94.187 287.905 92.963C287.905 91.977 287.446 91.637 286.936 91.637ZM293.016 90.192C294.121 90.192 295.005 89.716 295.549 88.645L295.685 88.662C295.668 90.379 295.158 92.946 293.237 92.946C292.421 92.946 291.843 92.436 291.877 91.535H290.347C290.211 93.099 291.316 94.204 293.101 94.204C295.872 94.204 297.028 91.62 297.028 88.033C297.028 84.293 295.566 82.899 293.475 82.899C291.605 82.899 289.99 84.157 289.99 86.673C289.99 89.172 291.622 90.192 293.016 90.192ZM293.441 84.174C294.546 84.174 295.413 85.143 295.413 86.588C295.413 88.186 294.563 89.053 293.424 89.053C292.404 89.053 291.503 88.339 291.503 86.571C291.503 84.888 292.404 84.174 293.441 84.174ZM309.335 82.984L303.045 94H304.218L310.508 82.984H309.335ZM304.252 87.778C304.558 87.778 304.864 87.727 305.187 87.608C305.748 87.387 306.241 86.928 306.462 86.282C306.564 85.993 306.615 85.653 306.615 85.296C306.615 84.939 306.564 84.616 306.462 84.327C306.241 83.664 305.748 83.205 305.187 82.984C304.864 82.865 304.558 82.831 304.252 82.831C303.946 82.831 303.623 82.882 303.3 83.018C302.739 83.222 302.28 83.664 302.025 84.327C301.923 84.616 301.872 84.939 301.872 85.296C301.872 85.653 301.923 85.993 302.025 86.282C302.246 86.928 302.739 87.387 303.3 87.608C303.623 87.727 303.929 87.778 304.252 87.778ZM304.252 86.894C303.572 86.894 303.062 86.384 303.062 85.296C303.062 84.242 303.572 83.698 304.252 83.698C304.915 83.698 305.425 84.242 305.425 85.296C305.425 86.384 304.915 86.894 304.252 86.894ZM309.352 94.136C309.658 94.136 309.964 94.085 310.287 93.966C310.848 93.762 311.341 93.286 311.562 92.64C311.664 92.351 311.715 92.011 311.715 91.654C311.715 91.297 311.664 90.974 311.562 90.685C311.324 90.022 310.848 89.546 310.287 89.342C309.964 89.223 309.658 89.189 309.352 89.189C309.046 89.189 308.723 89.24 308.4 89.376C307.856 89.614 307.363 90.022 307.125 90.685C307.023 90.974 306.972 91.297 306.972 91.654C306.972 92.011 307.023 92.351 307.125 92.64C307.346 93.286 307.839 93.762 308.4 93.966C308.723 94.085 309.029 94.136 309.352 94.136ZM309.352 93.252C308.672 93.252 308.162 92.742 308.162 91.654C308.162 90.6 308.672 90.056 309.352 90.056C310.015 90.056 310.525 90.6 310.525 91.654C310.525 92.742 310.015 93.252 309.352 93.252Z" fill="black"/>
<path d="M516.25 94.17C518.511 94.17 519.854 92.572 519.854 89.75C519.854 86.928 518.511 85.33 516.25 85.33C513.989 85.33 512.646 86.928 512.646 89.75C512.646 92.572 513.989 94.17 516.25 94.17ZM516.25 92.997C515.077 92.997 514.21 91.943 514.21 89.75C514.21 87.591 515.077 86.486 516.25 86.486C517.406 86.486 518.29 87.591 518.29 89.75C518.29 91.943 517.406 92.997 516.25 92.997ZM524.703 94V86.792H527.423V85.5H520.521V86.792H523.241V94H524.703ZM536.844 88.373V88.22C537.949 87.761 538.714 87.098 538.714 85.687C538.714 83.8 537.201 82.78 535.263 82.78C533.325 82.78 531.812 83.8 531.812 85.687C531.812 87.098 532.577 87.761 533.682 88.22V88.373C532.441 88.781 531.591 89.75 531.591 91.195C531.591 93.167 533.291 94.17 535.212 94.17C537.065 94.17 538.935 93.167 538.935 91.195C538.935 89.75 538.085 88.781 536.844 88.373ZM535.263 84.004C536.232 84.004 537.218 84.548 537.218 85.874C537.218 87.2 536.215 87.71 535.501 87.727H535.025C534.311 87.727 533.308 87.2 533.308 85.874C533.308 84.548 534.294 84.004 535.263 84.004ZM535.297 92.946C534.209 92.946 533.138 92.402 533.138 91.008C533.138 89.597 534.277 89.002 534.94 89.002H535.586C536.249 89.002 537.388 89.597 537.388 91.008C537.388 92.402 536.317 92.946 535.297 92.946ZM541.936 91.637C541.409 91.637 540.95 92.079 540.95 92.861C540.95 93.694 541.392 94.119 541.919 94.119C541.919 94.493 541.494 95.445 541.154 95.921L541.715 96.074C542.174 95.649 542.905 94.187 542.905 92.963C542.905 91.977 542.446 91.637 541.936 91.637ZM548.016 90.192C549.121 90.192 550.005 89.716 550.549 88.645L550.685 88.662C550.668 90.379 550.158 92.946 548.237 92.946C547.421 92.946 546.843 92.436 546.877 91.535H545.347C545.211 93.099 546.316 94.204 548.101 94.204C550.872 94.204 552.028 91.62 552.028 88.033C552.028 84.293 550.566 82.899 548.475 82.899C546.605 82.899 544.99 84.157 544.99 86.673C544.99 89.172 546.622 90.192 548.016 90.192ZM548.441 84.174C549.546 84.174 550.413 85.143 550.413 86.588C550.413 88.186 549.563 89.053 548.424 89.053C547.404 89.053 546.503 88.339 546.503 86.571C546.503 84.888 547.404 84.174 548.441 84.174ZM564.335 82.984L558.045 94H559.218L565.508 82.984H564.335ZM559.252 87.778C559.558 87.778 559.864 87.727 560.187 87.608C560.748 87.387 561.241 86.928 561.462 86.282C561.564 85.993 561.615 85.653 561.615 85.296C561.615 84.939 561.564 84.616 561.462 84.327C561.241 83.664 560.748 83.205 560.187 82.984C559.864 82.865 559.558 82.831 559.252 82.831C558.946 82.831 558.623 82.882 558.3 83.018C557.739 83.222 557.28 83.664 557.025 84.327C556.923 84.616 556.872 84.939 556.872 85.296C556.872 85.653 556.923 85.993 557.025 86.282C557.246 86.928 557.739 87.387 558.3 87.608C558.623 87.727 558.929 87.778 559.252 87.778ZM559.252 86.894C558.572 86.894 558.062 86.384 558.062 85.296C558.062 84.242 558.572 83.698 559.252 83.698C559.915 83.698 560.425 84.242 560.425 85.296C560.425 86.384 559.915 86.894 559.252 86.894ZM564.352 94.136C564.658 94.136 564.964 94.085 565.287 93.966C565.848 93.762 566.341 93.286 566.562 92.64C566.664 92.351 566.715 92.011 566.715 91.654C566.715 91.297 566.664 90.974 566.562 90.685C566.324 90.022 565.848 89.546 565.287 89.342C564.964 89.223 564.658 89.189 564.352 89.189C564.046 89.189 563.723 89.24 563.4 89.376C562.856 89.614 562.363 90.022 562.125 90.685C562.023 90.974 561.972 91.297 561.972 91.654C561.972 92.011 562.023 92.351 562.125 92.64C562.346 93.286 562.839 93.762 563.4 93.966C563.723 94.085 564.029 94.136 564.352 94.136ZM564.352 93.252C563.672 93.252 563.162 92.742 563.162 91.654C563.162 90.6 563.672 90.056 564.352 90.056C565.015 90.056 565.525 90.6 565.525 91.654C565.525 92.742 565.015 93.252 564.352 93.252Z" fill="black"/>
<path d="M41.665 156L40.492 144.984H38.554L35.715 154.436L32.774 144.984H30.819L29.68 156H31.108L31.703 150.067C31.839 148.758 31.805 147.517 31.72 146.65H31.924C31.992 147.143 32.162 148.146 32.553 149.353L34.746 156H36.446L38.605 149.353C38.979 148.18 39.166 147.194 39.234 146.65H39.438C39.37 147.551 39.387 148.775 39.506 150.067L40.067 156H41.665ZM43.4187 150.016H44.7957C44.6257 149.081 45.1867 148.452 46.2917 148.452C47.3287 148.452 47.8727 149.047 47.8727 150.288V150.611C45.7817 150.798 42.9937 150.951 42.9937 153.756C42.9937 154.963 43.7417 156.17 45.4927 156.17C46.9377 156.17 47.6347 155.354 47.9747 154.317H48.1277C48.0257 154.895 47.8557 155.643 47.8557 155.864V156H49.3007V150.39C49.3007 148.469 48.5697 147.33 46.4447 147.33C44.4217 147.33 43.3167 148.435 43.4187 150.016ZM46.0197 155.082C45.0677 155.082 44.3877 154.453 44.3877 153.535C44.3877 152.43 45.0337 151.631 47.8727 151.427C47.9067 151.937 47.9067 152.464 47.8727 152.974C47.7877 154.181 47.0737 155.082 46.0197 155.082ZM53.0166 156V152.243H53.7986C54.6486 152.243 54.9546 152.702 55.2096 153.467C55.5326 154.453 55.7876 155.541 56.1446 156H57.8446C57.4706 155.575 57.2666 155.116 57.0286 154.521C56.8076 153.96 56.6036 153.297 56.4846 152.991C56.1956 152.226 55.8216 151.903 54.9546 151.75V151.597C55.6856 151.444 56.1106 151.155 56.4506 150.475C56.6546 150.067 56.8076 149.608 57.0456 148.911C57.1986 148.469 57.4366 147.84 57.7766 147.5H56.1446C55.7536 148.027 55.4816 149.285 55.1416 150.169C54.8696 150.883 54.5296 151.189 53.7986 151.189H53.0166V147.5H51.5716V156H53.0166ZM65.1805 152.736L63.7695 152.719C63.8545 154.521 62.9195 155.031 62.1205 155.031C60.8285 155.031 60.0465 153.926 60.0465 151.75C60.0465 149.693 60.7775 148.503 62.0865 148.503C63.1065 148.503 63.7525 149.217 63.7355 150.662L65.1635 150.679C65.2655 148.571 64.0075 147.33 62.0865 147.33C59.5365 147.33 58.4995 149.438 58.4995 151.818C58.4995 154.351 59.5365 156.17 62.0865 156.17C64.1095 156.17 65.2145 154.759 65.1805 152.736ZM71.8779 149.183L72.0139 149.217C71.8269 150.067 71.7419 151.24 71.7249 152.464L71.7079 156H73.1189V147.5H71.7079L69.5659 151.274C68.6139 152.94 68.4099 153.739 68.0869 154.453L67.9339 154.385C68.1549 153.603 68.2229 151.971 68.2229 150.764V147.5H66.8119V156H68.2739L70.3139 152.413C71.3509 150.577 71.5549 149.914 71.8779 149.183ZM84.1499 147.5H81.9909L80.5459 152.09C80.2569 153.008 79.9679 154.164 79.7979 154.912H79.7809C79.5599 153.807 79.2029 152.668 79.0159 152.039L77.6729 147.5H75.5649L75.1739 156H76.4829L76.6359 150.798C76.6529 150.203 76.6529 149.608 76.6019 148.707H76.7719C76.9419 149.591 77.1119 150.135 77.3839 151.036L78.8119 155.932H80.5969L81.9229 151.614C82.3479 150.203 82.5689 149.523 82.6879 148.707H82.8579C82.8749 149.54 82.8409 150.271 82.8579 150.934L83.0449 156H84.4899L84.1499 147.5ZM86.4831 150.016H87.8601C87.6901 149.081 88.2511 148.452 89.3561 148.452C90.3931 148.452 90.9371 149.047 90.9371 150.288V150.611C88.8461 150.798 86.0581 150.951 86.0581 153.756C86.0581 154.963 86.8061 156.17 88.5571 156.17C90.0021 156.17 90.6991 155.354 91.0391 154.317H91.1921C91.0901 154.895 90.9201 155.643 90.9201 155.864V156H92.3651V150.39C92.3651 148.469 91.6341 147.33 89.5091 147.33C87.4861 147.33 86.3811 148.435 86.4831 150.016ZM89.0841 155.082C88.1321 155.082 87.4521 154.453 87.4521 153.535C87.4521 152.43 88.0981 151.631 90.9371 151.427C90.9711 151.937 90.9711 152.464 90.9371 152.974C90.8521 154.181 90.1381 155.082 89.0841 155.082ZM93.7011 154.827L93.7181 156.119C95.7411 156.119 96.2171 155.422 96.3531 154.249C96.4551 153.45 96.5741 150.866 96.6931 148.758H99.1411V156H100.552V147.5H95.4351C95.3331 149.744 95.2481 152.362 95.1121 153.722C94.9931 154.878 94.3131 154.827 93.7011 154.827ZM104.231 147.5H102.837V156H105.727C108.345 156 108.94 154.249 108.94 153.28C108.94 152.056 108.328 151.206 107.444 150.883C106.832 150.662 106.424 150.645 105.268 150.645H104.231V147.5ZM107.461 153.28C107.461 154.334 106.645 154.793 105.608 154.793H104.231V151.767H105.693C106.815 151.767 107.461 152.294 107.461 153.28ZM112.102 156V152.311H115.672V156H117.117V147.5H115.672V151.002H112.102V147.5H110.657V156H112.102ZM119.321 150.016H120.698C120.528 149.081 121.089 148.452 122.194 148.452C123.231 148.452 123.775 149.047 123.775 150.288V150.611C121.684 150.798 118.896 150.951 118.896 153.756C118.896 154.963 119.644 156.17 121.395 156.17C122.84 156.17 123.537 155.354 123.877 154.317H124.03C123.928 154.895 123.758 155.643 123.758 155.864V156H125.203V150.39C125.203 148.469 124.472 147.33 122.347 147.33C120.324 147.33 119.219 148.435 119.321 150.016ZM121.922 155.082C120.97 155.082 120.29 154.453 120.29 153.535C120.29 152.43 120.936 151.631 123.775 151.427C123.809 151.937 123.809 152.464 123.775 152.974C123.69 154.181 122.976 155.082 121.922 155.082ZM128.409 150.084C128.409 149.03 129.157 148.622 130.279 148.622H131.741V151.614H130.466C129.259 151.614 128.409 151.087 128.409 150.084ZM126.641 156H128.358C128.596 155.303 128.766 154.419 128.953 153.807C129.225 152.906 129.565 152.821 130.432 152.821H131.741V156H133.135V147.5H130.653C129.497 147.5 129.038 147.517 128.443 147.755C127.593 148.095 126.981 148.86 126.981 150.016C126.981 151.019 127.525 152.09 129.293 152.073V152.311C128.341 152.362 127.831 152.804 127.525 153.637C127.253 154.385 126.947 155.694 126.641 156ZM144.835 152.736L143.424 152.719C143.509 154.521 142.574 155.031 141.775 155.031C140.483 155.031 139.701 153.926 139.701 151.75C139.701 149.693 140.432 148.503 141.741 148.503C142.761 148.503 143.407 149.217 143.39 150.662L144.818 150.679C144.92 148.571 143.662 147.33 141.741 147.33C139.191 147.33 138.154 149.438 138.154 151.818C138.154 154.351 139.191 156.17 141.741 156.17C143.764 156.17 144.869 154.759 144.835 152.736ZM152.436 147.5H150.923L149.784 151.444C149.308 153.076 149.087 154.181 149.036 154.47H148.917C148.815 153.892 148.747 153.433 148.169 151.597L146.894 147.5H145.364L148.169 155.847L147.217 158.975H148.645L149.614 155.813L152.436 147.5ZM162.26 147.5H160.101L158.656 152.09C158.367 153.008 158.078 154.164 157.908 154.912H157.891C157.67 153.807 157.313 152.668 157.126 152.039L155.783 147.5H153.675L153.284 156H154.593L154.746 150.798C154.763 150.203 154.763 149.608 154.712 148.707H154.882C155.052 149.591 155.222 150.135 155.494 151.036L156.922 155.932H158.707L160.033 151.614C160.458 150.203 160.679 149.523 160.798 148.707H160.968C160.985 149.54 160.951 150.271 160.968 150.934L161.155 156H162.6L162.26 147.5ZM173.416 147.5H171.257L169.812 152.09C169.523 153.008 169.234 154.164 169.064 154.912H169.047C168.826 153.807 168.469 152.668 168.282 152.039L166.939 147.5H164.831L164.44 156H165.749L165.902 150.798C165.919 150.203 165.919 149.608 165.868 148.707H166.038C166.208 149.591 166.378 150.135 166.65 151.036L168.078 155.932H169.863L171.189 151.614C171.614 150.203 171.835 149.523 171.954 148.707H172.124C172.141 149.54 172.107 150.271 172.124 150.934L172.311 156H173.756L173.416 147.5ZM175.75 150.016H177.127C176.957 149.081 177.518 148.452 178.623 148.452C179.66 148.452 180.204 149.047 180.204 150.288V150.611C178.113 150.798 175.325 150.951 175.325 153.756C175.325 154.963 176.073 156.17 177.824 156.17C179.269 156.17 179.966 155.354 180.306 154.317H180.459C180.357 154.895 180.187 155.643 180.187 155.864V156H181.632V150.39C181.632 148.469 180.901 147.33 178.776 147.33C176.753 147.33 175.648 148.435 175.75 150.016ZM178.351 155.082C177.399 155.082 176.719 154.453 176.719 153.535C176.719 152.43 177.365 151.631 180.204 151.427C180.238 151.937 180.238 152.464 180.204 152.974C180.119 154.181 179.405 155.082 178.351 155.082Z" fill="black"/>
<path d="M264.055 154.861V147.5H258.921C258.87 149.693 258.802 152.175 258.666 152.872C258.428 154.113 258.054 154.861 257.238 154.861H257.085V158.278H258.309V156H264.004V158.278H265.228V154.861H264.055ZM258.734 154.861V154.742C259.38 154.368 259.754 153.654 259.89 152.549C259.958 151.988 260.043 150.492 260.111 148.826H262.644V154.861H258.734ZM269.667 156.17C271.928 156.17 273.271 154.572 273.271 151.75C273.271 148.928 271.928 147.33 269.667 147.33C267.406 147.33 266.063 148.928 266.063 151.75C266.063 154.572 267.406 156.17 269.667 156.17ZM269.667 154.997C268.494 154.997 267.627 153.943 267.627 151.75C267.627 149.591 268.494 148.486 269.667 148.486C270.823 148.486 271.707 149.591 271.707 151.75C271.707 153.943 270.823 154.997 269.667 154.997ZM278.531 154.674V156H285.178V154.674H282.611V144.984H281.438C281.064 145.97 280.095 146.786 278.667 146.871V148.282C279.687 148.282 280.622 147.67 281.064 146.684L281.132 146.701V154.674H278.531ZM288.842 149.982L288.689 149.863C288.825 149.098 288.893 148.503 288.944 147.908L289.08 146.276H293.092V144.984H287.839L287.363 150.883L288.808 151.172C289.063 150.577 289.59 150.118 290.355 150.118C291.256 150.118 292.242 150.798 292.242 152.498C292.242 154.232 291.375 154.98 290.27 154.997C289.165 155.014 288.4 154.334 288.672 152.838H287.176C286.7 154.997 288.094 156.204 290.151 156.204C292.123 156.204 293.755 155.014 293.755 152.447C293.755 149.982 292.327 148.945 290.916 148.945C289.981 148.945 289.42 149.217 288.842 149.982ZM302.255 156.187C304.448 156.187 305.791 153.994 305.757 150.509C305.774 147.024 304.431 144.831 302.272 144.831C300.079 144.831 298.719 147.024 298.736 150.509C298.719 153.994 300.079 156.187 302.255 156.187ZM302.238 154.929C301.014 154.929 300.249 153.297 300.249 150.509C300.249 147.755 301.014 146.106 302.238 146.106C303.462 146.106 304.227 147.755 304.227 150.509C304.244 153.297 303.462 154.929 302.238 154.929ZM311.087 156.187C313.28 156.187 314.623 153.994 314.589 150.509C314.606 147.024 313.263 144.831 311.104 144.831C308.911 144.831 307.551 147.024 307.568 150.509C307.551 153.994 308.911 156.187 311.087 156.187ZM311.07 154.929C309.846 154.929 309.081 153.297 309.081 150.509C309.081 147.755 309.846 146.106 311.07 146.106C312.294 146.106 313.059 147.755 313.059 150.509C313.076 153.297 312.294 154.929 311.07 154.929ZM319.919 156.187C322.112 156.187 323.455 153.994 323.421 150.509C323.438 147.024 322.095 144.831 319.936 144.831C317.743 144.831 316.383 147.024 316.4 150.509C316.383 153.994 317.743 156.187 319.919 156.187ZM319.902 154.929C318.678 154.929 317.913 153.297 317.913 150.509C317.913 147.755 318.678 146.106 319.902 146.106C321.126 146.106 321.891 147.755 321.891 150.509C321.908 153.297 321.126 154.929 319.902 154.929ZM331.988 156.187C334.181 156.187 335.524 153.994 335.49 150.509C335.507 147.024 334.164 144.831 332.005 144.831C329.812 144.831 328.452 147.024 328.469 150.509C328.452 153.994 329.812 156.187 331.988 156.187ZM331.971 154.929C330.747 154.929 329.982 153.297 329.982 150.509C329.982 147.755 330.747 146.106 331.971 146.106C333.195 146.106 333.96 147.755 333.96 150.509C333.977 153.297 333.195 154.929 331.971 154.929ZM340.82 156.187C343.013 156.187 344.356 153.994 344.322 150.509C344.339 147.024 342.996 144.831 340.837 144.831C338.644 144.831 337.284 147.024 337.301 150.509C337.284 153.994 338.644 156.187 340.82 156.187ZM340.803 154.929C339.579 154.929 338.814 153.297 338.814 150.509C338.814 147.755 339.579 146.106 340.803 146.106C342.027 146.106 342.792 147.755 342.792 150.509C342.809 153.297 342.027 154.929 340.803 154.929ZM349.652 156.187C351.845 156.187 353.188 153.994 353.154 150.509C353.171 147.024 351.828 144.831 349.669 144.831C347.476 144.831 346.116 147.024 346.133 150.509C346.116 153.994 347.476 156.187 349.652 156.187ZM349.635 154.929C348.411 154.929 347.646 153.297 347.646 150.509C347.646 147.755 348.411 146.106 349.635 146.106C350.859 146.106 351.624 147.755 351.624 150.509C351.641 153.297 350.859 154.929 349.635 154.929ZM362.554 156.17C362.928 156.17 363.336 156.102 363.778 155.881C364.543 155.49 365.223 154.674 365.529 153.501C365.665 152.974 365.75 152.396 365.75 151.75C365.75 151.104 365.665 150.526 365.529 149.999C365.172 148.605 364.186 147.415 362.554 147.415C361.143 147.415 360.361 148.163 360.021 149.472L359.868 149.455C359.97 148.843 360.123 148.061 360.123 147.636V147.5H358.661V159.026H360.123V155.949C360.123 155.524 359.97 154.742 359.868 154.13L360.021 154.113C360.361 155.422 361.143 156.17 362.554 156.17ZM362.197 154.963C360.99 154.963 360.191 153.773 360.191 151.75C360.191 149.761 360.99 148.537 362.197 148.537C363.387 148.537 364.305 149.761 364.305 151.75C364.305 153.773 363.387 154.963 362.197 154.963ZM373.347 147.5H371.834L370.695 151.444C370.219 153.076 369.998 154.181 369.947 154.47H369.828C369.726 153.892 369.658 153.433 369.08 151.597L367.805 147.5H366.275L369.08 155.847L368.128 158.975H369.556L370.525 155.813L373.347 147.5ZM381.263 149.812C380.906 148.452 379.852 147.5 378.305 147.5C377.013 147.5 375.789 148.282 375.517 150.084H375.262C375.194 147.925 376.18 146.633 377.999 146.055C379.342 145.63 380.039 145.528 380.6 144.984L380.447 143.624C379.529 144.219 378.73 144.321 377.285 144.882C374.276 146.072 374.395 148.809 374.293 150.798C374.293 153.467 374.684 155.082 376.231 155.847C376.809 156.136 377.421 156.17 377.897 156.17C378.373 156.17 378.849 156.102 379.325 155.881C380.175 155.49 380.923 154.674 381.263 153.501C381.416 152.974 381.501 152.396 381.501 151.75C381.501 151.104 381.45 150.492 381.263 149.812ZM377.914 154.997C376.707 154.997 375.857 153.943 375.857 151.733C375.857 149.591 376.724 148.486 377.897 148.486C379.053 148.486 379.937 149.591 379.937 151.75C379.937 153.943 379.036 154.997 377.914 154.997ZM382.347 154.827L382.364 156.119C384.387 156.119 384.863 155.422 384.999 154.249C385.101 153.45 385.22 150.866 385.339 148.758H387.787V156H389.198V147.5H384.081C383.979 149.744 383.894 152.362 383.758 153.722C383.639 154.878 382.959 154.827 382.347 154.827ZM397.59 153.178L396.179 153.161C396.179 154.521 395.329 154.997 394.445 154.997C393.255 154.997 392.32 154.079 392.303 151.835H397.488C397.539 151.529 397.556 151.206 397.556 150.917C397.556 148.962 396.553 147.33 394.394 147.33C391.98 147.33 390.824 149.302 390.824 151.818C390.824 154.232 391.895 156.17 394.36 156.17C396.315 156.17 397.539 155.048 397.59 153.178ZM394.326 148.486C395.448 148.486 396.128 149.251 396.128 150.764V150.917H392.32C392.405 149.472 393.102 148.486 394.326 148.486ZM404.401 149.183L404.537 149.217C404.35 150.067 404.265 151.24 404.248 152.464L404.231 156H405.642V147.5H404.231L402.089 151.274C401.137 152.94 400.933 153.739 400.61 154.453L400.457 154.385C400.678 153.603 400.746 151.971 400.746 150.764V147.5H399.335V156H400.797L402.837 152.413C403.874 150.577 404.078 149.914 404.401 149.183ZM400.355 145.477V146.412C401.086 146.582 401.834 146.667 402.565 146.667C403.296 146.667 404.027 146.582 404.775 146.412V145.477C404.027 145.647 403.296 145.732 402.565 145.732C401.834 145.732 401.086 145.647 400.355 145.477Z" fill="black"/>
<path d="M519.055 154.861V147.5H513.921C513.87 149.693 513.802 152.175 513.666 152.872C513.428 154.113 513.054 154.861 512.238 154.861H512.085V158.278H513.309V156H519.004V158.278H520.228V154.861H519.055ZM513.734 154.861V154.742C514.38 154.368 514.754 153.654 514.89 152.549C514.958 151.988 515.043 150.492 515.111 148.826H517.644V154.861H513.734ZM524.667 156.17C526.928 156.17 528.271 154.572 528.271 151.75C528.271 148.928 526.928 147.33 524.667 147.33C522.406 147.33 521.063 148.928 521.063 151.75C521.063 154.572 522.406 156.17 524.667 156.17ZM524.667 154.997C523.494 154.997 522.627 153.943 522.627 151.75C522.627 149.591 523.494 148.486 524.667 148.486C525.823 148.486 526.707 149.591 526.707 151.75C526.707 153.943 525.823 154.997 524.667 154.997ZM534.483 154.691V154.606C536.591 153.756 539.906 151.359 539.906 148.214C539.906 145.902 538.495 144.78 536.54 144.78C534.704 144.78 533.225 145.885 533.225 147.721C533.225 148.078 533.293 148.367 533.412 148.639H534.84C534.772 148.316 534.738 148.044 534.738 147.772C534.738 146.548 535.486 146.14 536.455 146.14C537.492 146.14 538.325 146.718 538.325 148.35C538.325 150.458 536.54 152.821 533.48 154.385V156H539.855V154.691H534.483ZM548.423 156.187C550.616 156.187 551.959 153.994 551.925 150.509C551.942 147.024 550.599 144.831 548.44 144.831C546.247 144.831 544.887 147.024 544.904 150.509C544.887 153.994 546.247 156.187 548.423 156.187ZM548.406 154.929C547.182 154.929 546.417 153.297 546.417 150.509C546.417 147.755 547.182 146.106 548.406 146.106C549.63 146.106 550.395 147.755 550.395 150.509C550.412 153.297 549.63 154.929 548.406 154.929ZM557.255 156.187C559.448 156.187 560.791 153.994 560.757 150.509C560.774 147.024 559.431 144.831 557.272 144.831C555.079 144.831 553.719 147.024 553.736 150.509C553.719 153.994 555.079 156.187 557.255 156.187ZM557.238 154.929C556.014 154.929 555.249 153.297 555.249 150.509C555.249 147.755 556.014 146.106 557.238 146.106C558.462 146.106 559.227 147.755 559.227 150.509C559.244 153.297 558.462 154.929 557.238 154.929ZM566.087 156.187C568.28 156.187 569.623 153.994 569.589 150.509C569.606 147.024 568.263 144.831 566.104 144.831C563.911 144.831 562.551 147.024 562.568 150.509C562.551 153.994 563.911 156.187 566.087 156.187ZM566.07 154.929C564.846 154.929 564.081 153.297 564.081 150.509C564.081 147.755 564.846 146.106 566.07 146.106C567.294 146.106 568.059 147.755 568.059 150.509C568.076 153.297 567.294 154.929 566.07 154.929ZM578.156 156.187C580.349 156.187 581.692 153.994 581.658 150.509C581.675 147.024 580.332 144.831 578.173 144.831C575.98 144.831 574.62 147.024 574.637 150.509C574.62 153.994 575.98 156.187 578.156 156.187ZM578.139 154.929C576.915 154.929 576.15 153.297 576.15 150.509C576.15 147.755 576.915 146.106 578.139 146.106C579.363 146.106 580.128 147.755 580.128 150.509C580.145 153.297 579.363 154.929 578.139 154.929ZM586.988 156.187C589.181 156.187 590.524 153.994 590.49 150.509C590.507 147.024 589.164 144.831 587.005 144.831C584.812 144.831 583.452 147.024 583.469 150.509C583.452 153.994 584.812 156.187 586.988 156.187ZM586.971 154.929C585.747 154.929 584.982 153.297 584.982 150.509C584.982 147.755 585.747 146.106 586.971 146.106C588.195 146.106 588.96 147.755 588.96 150.509C588.977 153.297 588.195 154.929 586.971 154.929ZM595.82 156.187C598.013 156.187 599.356 153.994 599.322 150.509C599.339 147.024 597.996 144.831 595.837 144.831C593.644 144.831 592.284 147.024 592.301 150.509C592.284 153.994 593.644 156.187 595.82 156.187ZM595.803 154.929C594.579 154.929 593.814 153.297 593.814 150.509C593.814 147.755 594.579 146.106 595.803 146.106C597.027 146.106 597.792 147.755 597.792 150.509C597.809 153.297 597.027 154.929 595.803 154.929ZM608.722 156.17C609.096 156.17 609.504 156.102 609.946 155.881C610.711 155.49 611.391 154.674 611.697 153.501C611.833 152.974 611.918 152.396 611.918 151.75C611.918 151.104 611.833 150.526 611.697 149.999C611.34 148.605 610.354 147.415 608.722 147.415C607.311 147.415 606.529 148.163 606.189 149.472L606.036 149.455C606.138 148.843 606.291 148.061 606.291 147.636V147.5H604.829V159.026H606.291V155.949C606.291 155.524 606.138 154.742 606.036 154.13L606.189 154.113C606.529 155.422 607.311 156.17 608.722 156.17ZM608.365 154.963C607.158 154.963 606.359 153.773 606.359 151.75C606.359 149.761 607.158 148.537 608.365 148.537C609.555 148.537 610.473 149.761 610.473 151.75C610.473 153.773 609.555 154.963 608.365 154.963ZM619.515 147.5H618.002L616.863 151.444C616.387 153.076 616.166 154.181 616.115 154.47H615.996C615.894 153.892 615.826 153.433 615.248 151.597L613.973 147.5H612.443L615.248 155.847L614.296 158.975H615.724L616.693 155.813L619.515 147.5ZM627.431 149.812C627.074 148.452 626.02 147.5 624.473 147.5C623.181 147.5 621.957 148.282 621.685 150.084H621.43C621.362 147.925 622.348 146.633 624.167 146.055C625.51 145.63 626.207 145.528 626.768 144.984L626.615 143.624C625.697 144.219 624.898 144.321 623.453 144.882C620.444 146.072 620.563 148.809 620.461 150.798C620.461 153.467 620.852 155.082 622.399 155.847C622.977 156.136 623.589 156.17 624.065 156.17C624.541 156.17 625.017 156.102 625.493 155.881C626.343 155.49 627.091 154.674 627.431 153.501C627.584 152.974 627.669 152.396 627.669 151.75C627.669 151.104 627.618 150.492 627.431 149.812ZM624.082 154.997C622.875 154.997 622.025 153.943 622.025 151.733C622.025 149.591 622.892 148.486 624.065 148.486C625.221 148.486 626.105 149.591 626.105 151.75C626.105 153.943 625.204 154.997 624.082 154.997ZM628.515 154.827L628.532 156.119C630.555 156.119 631.031 155.422 631.167 154.249C631.269 153.45 631.388 150.866 631.507 148.758H633.955V156H635.366V147.5H630.249C630.147 149.744 630.062 152.362 629.926 153.722C629.807 154.878 629.127 154.827 628.515 154.827ZM643.758 153.178L642.347 153.161C642.347 154.521 641.497 154.997 640.613 154.997C639.423 154.997 638.488 154.079 638.471 151.835H643.656C643.707 151.529 643.724 151.206 643.724 150.917C643.724 148.962 642.721 147.33 640.562 147.33C638.148 147.33 636.992 149.302 636.992 151.818C636.992 154.232 638.063 156.17 640.528 156.17C642.483 156.17 643.707 155.048 643.758 153.178ZM640.494 148.486C641.616 148.486 642.296 149.251 642.296 150.764V150.917H638.488C638.573 149.472 639.27 148.486 640.494 148.486ZM650.569 149.183L650.705 149.217C650.518 150.067 650.433 151.24 650.416 152.464L650.399 156H651.81V147.5H650.399L648.257 151.274C647.305 152.94 647.101 153.739 646.778 154.453L646.625 154.385C646.846 153.603 646.914 151.971 646.914 150.764V147.5H645.503V156H646.965L649.005 152.413C650.042 150.577 650.246 149.914 650.569 149.183ZM646.523 145.477V146.412C647.254 146.582 648.002 146.667 648.733 146.667C649.464 146.667 650.195 146.582 650.943 146.412V145.477C650.195 145.647 649.464 145.732 648.733 145.732C648.002 145.732 647.254 145.647 646.523 145.477Z" fill="black"/>
<path d="M30.037 214.925H31.533C31.397 213.565 32.128 213.055 33.386 213.055C34.78 213.055 35.307 213.854 35.307 214.908C35.307 216.098 34.627 216.727 33.624 216.727H32.451V218.172H33.675C34.78 218.172 35.647 218.784 35.647 220.042C35.647 221.317 34.814 221.929 33.59 221.929C32.298 221.929 31.227 221.521 31.482 220.025H29.969C29.731 222.201 31.057 223.153 33.386 223.153C35.664 223.153 37.194 222.184 37.194 220.076C37.194 218.75 36.531 217.764 35.324 217.424V217.186C36.259 216.778 36.871 215.894 36.871 214.789C36.871 212.715 35.426 211.797 33.318 211.814C31.363 211.831 29.867 212.885 30.037 214.925ZM39.3347 217.016H40.7117C40.5417 216.081 41.1027 215.452 42.2077 215.452C43.2447 215.452 43.7887 216.047 43.7887 217.288V217.611C41.6977 217.798 38.9097 217.951 38.9097 220.756C38.9097 221.963 39.6577 223.17 41.4087 223.17C42.8537 223.17 43.5507 222.354 43.8907 221.317H44.0437C43.9417 221.895 43.7717 222.643 43.7717 222.864V223H45.2167V217.39C45.2167 215.469 44.4857 214.33 42.3607 214.33C40.3377 214.33 39.2327 215.435 39.3347 217.016ZM41.9357 222.082C40.9837 222.082 40.3037 221.453 40.3037 220.535C40.3037 219.43 40.9497 218.631 43.7887 218.427C43.8227 218.937 43.8227 219.464 43.7887 219.974C43.7037 221.181 42.9897 222.082 41.9357 222.082ZM46.5526 221.827L46.5696 223.119C48.5926 223.119 49.0686 222.422 49.2046 221.249C49.3066 220.45 49.4256 217.866 49.5446 215.758H51.9926V223H53.4036V214.5H48.2866C48.1846 216.744 48.0996 219.362 47.9636 220.722C47.8446 221.878 47.1646 221.827 46.5526 221.827ZM58.6338 223.17C60.8948 223.17 62.2378 221.572 62.2378 218.75C62.2378 215.928 60.8948 214.33 58.6338 214.33C56.3728 214.33 55.0298 215.928 55.0298 218.75C55.0298 221.572 56.3728 223.17 58.6338 223.17ZM58.6338 221.997C57.4608 221.997 56.5938 220.943 56.5938 218.75C56.5938 216.591 57.4608 215.486 58.6338 215.486C59.7898 215.486 60.6738 216.591 60.6738 218.75C60.6738 220.943 59.7898 221.997 58.6338 221.997ZM65.2678 223V215.826H68.8208V214.5H63.8568V223H65.2678Z" fill="black"/>
<path d="M38.163 286.447H36.701C36.616 288.096 35.681 288.878 34.508 288.878C32.638 288.878 31.414 287.314 31.414 284.509C31.414 281.738 32.587 280.157 34.304 280.157C35.647 280.157 36.582 281.024 36.65 282.639H38.163C38.248 280.395 36.752 278.831 34.321 278.831C31.397 278.831 29.816 281.228 29.816 284.509C29.816 287.841 31.346 290.187 34.355 290.187C34.95 290.187 35.528 290.102 36.157 289.813C37.211 289.32 38.078 288.181 38.163 286.447ZM43.8933 290.17C44.2673 290.17 44.6753 290.102 45.1173 289.881C45.8823 289.49 46.5623 288.674 46.8683 287.501C47.0043 286.974 47.0893 286.396 47.0893 285.75C47.0893 285.104 47.0043 284.526 46.8683 283.999C46.5113 282.605 45.5253 281.415 43.8933 281.415C42.4823 281.415 41.7003 282.163 41.3603 283.472L41.2073 283.455C41.3093 282.843 41.4623 282.061 41.4623 281.636V281.5H40.0003V293.026H41.4623V289.949C41.4623 289.524 41.3093 288.742 41.2073 288.13L41.3603 288.113C41.7003 289.422 42.4823 290.17 43.8933 290.17ZM43.5363 288.963C42.3293 288.963 41.5303 287.773 41.5303 285.75C41.5303 283.761 42.3293 282.537 43.5363 282.537C44.7263 282.537 45.6443 283.761 45.6443 285.75C45.6443 287.773 44.7263 288.963 43.5363 288.963ZM51.9932 290.17C54.2542 290.17 55.5972 288.572 55.5972 285.75C55.5972 282.928 54.2542 281.33 51.9932 281.33C49.7322 281.33 48.3892 282.928 48.3892 285.75C48.3892 288.572 49.7322 290.17 51.9932 290.17ZM51.9932 288.997C50.8202 288.997 49.9532 287.943 49.9532 285.75C49.9532 283.591 50.8202 282.486 51.9932 282.486C53.1492 282.486 54.0332 283.591 54.0332 285.75C54.0332 287.943 53.1492 288.997 51.9932 288.997ZM58.6611 290V286.243H59.4431C60.2931 286.243 60.5991 286.702 60.8541 287.467C61.1771 288.453 61.4321 289.541 61.7891 290H63.4891C63.1151 289.575 62.9111 289.116 62.6731 288.521C62.4521 287.96 62.2481 287.297 62.1291 286.991C61.8401 286.226 61.4661 285.903 60.5991 285.75V285.597C61.3301 285.444 61.7551 285.155 62.0951 284.475C62.2991 284.067 62.4521 283.608 62.6901 282.911C62.8431 282.469 63.0811 281.84 63.4211 281.5H61.7891C61.3981 282.027 61.1261 283.285 60.7861 284.169C60.5141 284.883 60.1741 285.189 59.4431 285.189H58.6611V281.5H57.2161V290H58.6611ZM69.4854 290V286.243H70.2674C71.1174 286.243 71.4234 286.702 71.6784 287.467C72.0014 288.453 72.2564 289.541 72.6134 290H74.3134C73.9394 289.575 73.7354 289.116 73.4974 288.521C73.2764 287.96 73.0724 287.297 72.9534 286.991C72.6644 286.226 72.2904 285.903 71.4234 285.75V285.597C72.1544 285.444 72.5794 285.155 72.9194 284.475C73.1234 284.067 73.2764 283.608 73.5144 282.911C73.6674 282.469 73.9054 281.84 74.2454 281.5H72.6134C72.2224 282.027 71.9504 283.285 71.6104 284.169C71.3384 284.883 70.9984 285.189 70.2674 285.189H69.4854V281.5H68.0404V290H69.4854ZM79.5203 290.17C79.8943 290.17 80.3023 290.102 80.7443 289.881C81.5093 289.49 82.1893 288.674 82.4953 287.501C82.6313 286.974 82.7163 286.396 82.7163 285.75C82.7163 285.104 82.6313 284.526 82.4953 283.999C82.1383 282.605 81.1523 281.415 79.5203 281.415C78.1093 281.415 77.3273 282.163 76.9873 283.472L76.8343 283.455C76.9363 282.843 77.0893 282.061 77.0893 281.636V281.5H75.6273V293.026H77.0893V289.949C77.0893 289.524 76.9363 288.742 76.8343 288.13L76.9873 288.113C77.3273 289.422 78.1093 290.17 79.5203 290.17ZM79.1633 288.963C77.9563 288.963 77.1573 287.773 77.1573 285.75C77.1573 283.761 77.9563 282.537 79.1633 282.537C80.3533 282.537 81.2713 283.761 81.2713 285.75C81.2713 287.773 80.3533 288.963 79.1633 288.963ZM90.7821 287.178L89.3711 287.161C89.3711 288.521 88.5211 288.997 87.6371 288.997C86.4471 288.997 85.5121 288.079 85.4951 285.835H90.6801C90.7311 285.529 90.7481 285.206 90.7481 284.917C90.7481 282.962 89.7451 281.33 87.5861 281.33C85.1721 281.33 84.0161 283.302 84.0161 285.818C84.0161 288.232 85.0871 290.17 87.5521 290.17C89.5071 290.17 90.7311 289.048 90.7821 287.178ZM87.5181 282.486C88.6401 282.486 89.3201 283.251 89.3201 284.764V284.917H85.5121C85.5971 283.472 86.2941 282.486 87.5181 282.486ZM98.6097 288.861V281.5H93.4757C93.4247 283.693 93.3567 286.175 93.2207 286.872C92.9827 288.113 92.6087 288.861 91.7927 288.861H91.6397V292.278H92.8637V290H98.5587V292.278H99.7827V288.861H98.6097ZM93.2887 288.861V288.742C93.9347 288.368 94.3087 287.654 94.4447 286.549C94.5127 285.988 94.5977 284.492 94.6657 282.826H97.1987V288.861H93.2887ZM106.177 283.183L106.313 283.217C106.126 284.067 106.041 285.24 106.024 286.464L106.007 290H107.418V281.5H106.007L103.865 285.274C102.913 286.94 102.709 287.739 102.386 288.453L102.233 288.385C102.454 287.603 102.522 285.971 102.522 284.764V281.5H101.111V290H102.573L104.613 286.413C105.65 284.577 105.854 283.914 106.177 283.183ZM112.924 290V282.792H115.644V281.5H108.742V282.792H111.462V290H112.924ZM116.748 284.016H118.125C117.955 283.081 118.516 282.452 119.621 282.452C120.658 282.452 121.202 283.047 121.202 284.288V284.611C119.111 284.798 116.323 284.951 116.323 287.756C116.323 288.963 117.071 290.17 118.822 290.17C120.267 290.17 120.964 289.354 121.304 288.317H121.457C121.355 288.895 121.185 289.643 121.185 289.864V290H122.63V284.39C122.63 282.469 121.899 281.33 119.774 281.33C117.751 281.33 116.646 282.435 116.748 284.016ZM119.349 289.082C118.397 289.082 117.717 288.453 117.717 287.535C117.717 286.43 118.363 285.631 121.202 285.427C121.236 285.937 121.236 286.464 121.202 286.974C121.117 288.181 120.403 289.082 119.349 289.082Z" fill="black"/>
<path d="M38.01 353.674V343.984H31.941C31.873 346.704 31.788 349.118 31.669 350.393C31.482 352.433 31.125 353.589 29.544 353.674H29.459V357.414H30.819V355H37.925V357.414H39.285V353.674H38.01ZM31.448 353.776V353.623C32.74 353.011 32.978 351.6 33.114 349.968C33.165 349.237 33.267 347.571 33.335 345.395H36.514V353.776H31.448ZM43.958 355.17C46.219 355.17 47.562 353.572 47.562 350.75C47.562 347.928 46.219 346.33 43.958 346.33C41.697 346.33 40.354 347.928 40.354 350.75C40.354 353.572 41.697 355.17 43.958 355.17ZM43.958 353.997C42.785 353.997 41.918 352.943 41.918 350.75C41.918 348.591 42.785 347.486 43.958 347.486C45.114 347.486 45.998 348.591 45.998 350.75C45.998 352.943 45.114 353.997 43.958 353.997ZM50.626 355V351.243H51.408C52.258 351.243 52.564 351.702 52.819 352.467C53.142 353.453 53.397 354.541 53.754 355H55.454C55.08 354.575 54.876 354.116 54.638 353.521C54.417 352.96 54.213 352.297 54.094 351.991C53.805 351.226 53.431 350.903 52.564 350.75V350.597C53.295 350.444 53.72 350.155 54.06 349.475C54.264 349.067 54.417 348.608 54.655 347.911C54.808 347.469 55.046 346.84 55.386 346.5H53.754C53.363 347.027 53.091 348.285 52.751 349.169C52.479 349.883 52.139 350.189 51.408 350.189H50.626V346.5H49.181V355H50.626ZM62.8369 346.5H61.3239L60.1849 350.444C59.7089 352.076 59.4879 353.181 59.4369 353.47H59.3179C59.2159 352.892 59.1479 352.433 58.5699 350.597L57.2949 346.5H55.7649L58.5699 354.847L57.6179 357.975H59.0459L60.0149 354.813L62.8369 346.5ZM72.6616 346.5H70.5026L69.0576 351.09C68.7686 352.008 68.4796 353.164 68.3096 353.912H68.2926C68.0716 352.807 67.7146 351.668 67.5276 351.039L66.1846 346.5H64.0766L63.6856 355H64.9946L65.1476 349.798C65.1646 349.203 65.1646 348.608 65.1136 347.707H65.2836C65.4536 348.591 65.6236 349.135 65.8956 350.036L67.3236 354.932H69.1086L70.4346 350.614C70.8596 349.203 71.0806 348.523 71.1996 347.707H71.3696C71.3866 348.54 71.3526 349.271 71.3696 349.934L71.5566 355H73.0016L72.6616 346.5ZM81.3358 352.178L79.9248 352.161C79.9248 353.521 79.0748 353.997 78.1908 353.997C77.0008 353.997 76.0658 353.079 76.0488 350.835H81.2338C81.2848 350.529 81.3018 350.206 81.3018 349.917C81.3018 347.962 80.2988 346.33 78.1398 346.33C75.7258 346.33 74.5698 348.302 74.5698 350.818C74.5698 353.232 75.6408 355.17 78.1058 355.17C80.0608 355.17 81.2848 354.048 81.3358 352.178ZM78.0718 347.486C79.1938 347.486 79.8738 348.251 79.8738 349.764V349.917H76.0658C76.1508 348.472 76.8478 347.486 78.0718 347.486ZM84.5264 355V351.311H88.0964V355H89.5414V346.5H88.0964V350.002H84.5264V346.5H83.0814V355H84.5264ZM95.0438 355V347.792H97.7638V346.5H90.8618V347.792H93.5818V355H95.0438ZM100.479 346.5H99.0853V355H101.975C104.593 355 105.188 353.249 105.188 352.28C105.188 351.056 104.576 350.206 103.692 349.883C103.08 349.662 102.672 349.645 101.516 349.645H100.479V346.5ZM107.806 355V346.5H106.361V355H107.806ZM103.709 352.28C103.709 353.334 102.893 353.793 101.856 353.793H100.479V350.767H101.941C103.063 350.767 103.709 351.294 103.709 352.28Z" fill="black"/>
<path d="M259.584 223V219.243H260.366C261.216 219.243 261.522 219.702 261.777 220.467C262.1 221.453 262.355 222.541 262.712 223H264.412C264.038 222.575 263.834 222.116 263.596 221.521C263.375 220.96 263.171 220.297 263.052 219.991C262.763 219.226 262.389 218.903 261.522 218.75V218.597C262.253 218.444 262.678 218.155 263.018 217.475C263.222 217.067 263.375 216.608 263.613 215.911C263.766 215.469 264.004 214.84 264.344 214.5H262.712C262.321 215.027 262.049 216.285 261.709 217.169C261.437 217.883 261.097 218.189 260.366 218.189H259.584V214.5H258.139V223H259.584ZM265.93 223H267.324H269.211C269.823 223 270.299 222.966 270.758 222.813C271.829 222.473 272.39 221.657 272.39 220.62C272.39 219.804 271.863 218.767 270.316 218.665V218.546C271.54 218.274 272.067 217.373 272.067 216.608C272.067 215.078 270.877 214.5 269.585 214.5H267.324H265.93V223ZM267.324 221.878V219.226H269.381C270.163 219.226 270.962 219.6 270.962 220.535C270.962 221.47 270.282 221.878 269.33 221.878H267.324ZM267.324 218.155V215.588H269.279C270.01 215.588 270.656 215.945 270.656 216.812C270.656 217.696 269.908 218.155 269.075 218.155H267.324ZM274.175 217.016H275.552C275.382 216.081 275.943 215.452 277.048 215.452C278.085 215.452 278.629 216.047 278.629 217.288V217.611C276.538 217.798 273.75 217.951 273.75 220.756C273.75 221.963 274.498 223.17 276.249 223.17C277.694 223.17 278.391 222.354 278.731 221.317H278.884C278.782 221.895 278.612 222.643 278.612 222.864V223H280.057V217.39C280.057 215.469 279.326 214.33 277.201 214.33C275.178 214.33 274.073 215.435 274.175 217.016ZM276.776 222.082C275.824 222.082 275.144 221.453 275.144 220.535C275.144 219.43 275.79 218.631 278.629 218.427C278.663 218.937 278.663 219.464 278.629 219.974C278.544 221.181 277.83 222.082 276.776 222.082ZM286.22 223.17C286.594 223.17 287.002 223.102 287.444 222.881C288.209 222.49 288.889 221.674 289.195 220.501C289.331 219.974 289.416 219.396 289.416 218.75C289.416 218.104 289.331 217.526 289.195 216.999C288.838 215.605 287.852 214.415 286.22 214.415C284.809 214.415 284.027 215.163 283.687 216.472L283.534 216.455C283.636 215.843 283.789 215.061 283.789 214.636V214.5H282.327V226.026H283.789V222.949C283.789 222.524 283.636 221.742 283.534 221.13L283.687 221.113C284.027 222.422 284.809 223.17 286.22 223.17ZM285.863 221.963C284.656 221.963 283.857 220.773 283.857 218.75C283.857 216.761 284.656 215.537 285.863 215.537C287.053 215.537 287.971 216.761 287.971 218.75C287.971 220.773 287.053 221.963 285.863 221.963ZM294.273 223V215.792H296.993V214.5H290.091V215.792H292.811V223H294.273ZM303.381 216.183L303.517 216.217C303.33 217.067 303.245 218.24 303.228 219.464L303.211 223H304.622V214.5H303.211L301.069 218.274C300.117 219.94 299.913 220.739 299.59 221.453L299.437 221.385C299.658 220.603 299.726 218.971 299.726 217.764V214.5H298.315V223H299.777L301.817 219.413C302.854 217.577 303.058 216.914 303.381 216.183ZM310.791 223.17C311.165 223.17 311.573 223.102 312.015 222.881C312.78 222.49 313.46 221.674 313.766 220.501C313.902 219.974 313.987 219.396 313.987 218.75C313.987 218.104 313.902 217.526 313.766 216.999C313.409 215.605 312.423 214.415 310.791 214.415C309.38 214.415 308.598 215.163 308.258 216.472L308.105 216.455C308.207 215.843 308.36 215.061 308.36 214.636V214.5H306.898V226.026H308.36V222.949C308.36 222.524 308.207 221.742 308.105 221.13L308.258 221.113C308.598 222.422 309.38 223.17 310.791 223.17ZM310.434 221.963C309.227 221.963 308.428 220.773 308.428 218.75C308.428 216.761 309.227 215.537 310.434 215.537C311.624 215.537 312.542 216.761 312.542 218.75C312.542 220.773 311.624 221.963 310.434 221.963ZM315.712 217.016H317.089C316.919 216.081 317.48 215.452 318.585 215.452C319.622 215.452 320.166 216.047 320.166 217.288V217.611C318.075 217.798 315.287 217.951 315.287 220.756C315.287 221.963 316.035 223.17 317.786 223.17C319.231 223.17 319.928 222.354 320.268 221.317H320.421C320.319 221.895 320.149 222.643 320.149 222.864V223H321.594V217.39C321.594 215.469 320.863 214.33 318.738 214.33C316.715 214.33 315.61 215.435 315.712 217.016ZM318.313 222.082C317.361 222.082 316.681 221.453 316.681 220.535C316.681 219.43 317.327 218.631 320.166 218.427C320.2 218.937 320.2 219.464 320.166 219.974C320.081 221.181 319.367 222.082 318.313 222.082ZM332.168 216.183L332.304 216.217C332.117 217.067 332.032 218.24 332.015 219.464L331.998 223H333.409V214.5H331.998L329.856 218.274C328.904 219.94 328.7 220.739 328.377 221.453L328.224 221.385C328.445 220.603 328.513 218.971 328.513 217.764V214.5H327.102V223H328.564L330.604 219.413C331.641 217.577 331.845 216.914 332.168 216.183ZM334.75 221.827L334.767 223.119C336.79 223.119 337.266 222.422 337.402 221.249C337.504 220.45 337.623 217.866 337.742 215.758H340.19V223H341.601V214.5H336.484C336.382 216.744 336.297 219.362 336.161 220.722C336.042 221.878 335.362 221.827 334.75 221.827ZM348.952 216.183L349.088 216.217C348.901 217.067 348.816 218.24 348.799 219.464L348.782 223H350.193V214.5H348.782L346.64 218.274C345.688 219.94 345.484 220.739 345.161 221.453L345.008 221.385C345.229 220.603 345.297 218.971 345.297 217.764V214.5H343.886V223H345.348L347.388 219.413C348.425 217.577 348.629 216.914 348.952 216.183ZM361.622 221.861V214.5H356.488C356.437 216.693 356.369 219.175 356.233 219.872C355.995 221.113 355.621 221.861 354.805 221.861H354.652V225.278H355.876V223H361.571V225.278H362.795V221.861H361.622ZM356.301 221.861V221.742C356.947 221.368 357.321 220.654 357.457 219.549C357.525 218.988 357.61 217.492 357.678 215.826H360.211V221.861H356.301ZM367.234 223.17C369.495 223.17 370.838 221.572 370.838 218.75C370.838 215.928 369.495 214.33 367.234 214.33C364.973 214.33 363.63 215.928 363.63 218.75C363.63 221.572 364.973 223.17 367.234 223.17ZM367.234 221.997C366.061 221.997 365.194 220.943 365.194 218.75C365.194 216.591 366.061 215.486 367.234 215.486C368.39 215.486 369.274 216.591 369.274 218.75C369.274 220.943 368.39 221.997 367.234 221.997ZM381.378 214.5H379.219L377.774 219.09C377.485 220.008 377.196 221.164 377.026 221.912H377.009C376.788 220.807 376.431 219.668 376.244 219.039L374.901 214.5H372.793L372.402 223H373.711L373.864 217.798C373.881 217.203 373.881 216.608 373.83 215.707H374C374.17 216.591 374.34 217.135 374.612 218.036L376.04 222.932H377.825L379.151 218.614C379.576 217.203 379.797 216.523 379.916 215.707H380.086C380.103 216.54 380.069 217.271 380.086 217.934L380.273 223H381.718L381.378 214.5Z" fill="black"/>
<path d="M264.055 288.861V281.5H258.921C258.87 283.693 258.802 286.175 258.666 286.872C258.428 288.113 258.054 288.861 257.238 288.861H257.085V292.278H258.309V290H264.004V292.278H265.228V288.861H264.055ZM258.734 288.861V288.742C259.38 288.368 259.754 287.654 259.89 286.549C259.958 285.988 260.043 284.492 260.111 282.826H262.644V288.861H258.734ZM269.667 290.17C271.928 290.17 273.271 288.572 273.271 285.75C273.271 282.928 271.928 281.33 269.667 281.33C267.406 281.33 266.063 282.928 266.063 285.75C266.063 288.572 267.406 290.17 269.667 290.17ZM269.667 288.997C268.494 288.997 267.627 287.943 267.627 285.75C267.627 283.591 268.494 282.486 269.667 282.486C270.823 282.486 271.707 283.591 271.707 285.75C271.707 287.943 270.823 288.997 269.667 288.997ZM278.531 288.674V290H285.178V288.674H282.611V278.984H281.438C281.064 279.97 280.095 280.786 278.667 280.871V282.282C279.687 282.282 280.622 281.67 281.064 280.684L281.132 280.701V288.674H278.531ZM288.842 283.982L288.689 283.863C288.825 283.098 288.893 282.503 288.944 281.908L289.08 280.276H293.092V278.984H287.839L287.363 284.883L288.808 285.172C289.063 284.577 289.59 284.118 290.355 284.118C291.256 284.118 292.242 284.798 292.242 286.498C292.242 288.232 291.375 288.98 290.27 288.997C289.165 289.014 288.4 288.334 288.672 286.838H287.176C286.7 288.997 288.094 290.204 290.151 290.204C292.123 290.204 293.755 289.014 293.755 286.447C293.755 283.982 292.327 282.945 290.916 282.945C289.981 282.945 289.42 283.217 288.842 283.982ZM298.26 288.827L298.277 290.119C300.3 290.119 300.776 289.422 300.912 288.249C301.014 287.45 301.133 284.866 301.252 282.758H303.7V290H305.111V281.5H299.994C299.892 283.744 299.807 286.362 299.671 287.722C299.552 288.878 298.872 288.827 298.26 288.827ZM313.503 287.178L312.092 287.161C312.092 288.521 311.242 288.997 310.358 288.997C309.168 288.997 308.233 288.079 308.216 285.835H313.401C313.452 285.529 313.469 285.206 313.469 284.917C313.469 282.962 312.466 281.33 310.307 281.33C307.893 281.33 306.737 283.302 306.737 285.818C306.737 288.232 307.808 290.17 310.273 290.17C312.228 290.17 313.452 289.048 313.503 287.178ZM310.239 282.486C311.361 282.486 312.041 283.251 312.041 284.764V284.917H308.233C308.318 283.472 309.015 282.486 310.239 282.486ZM318.478 290V282.792H321.198V281.5H314.296V282.792H317.016V290H318.478Z" fill="black"/>
<path d="M259.584 355V347.673H262.899V355H264.344V346.5H258.139V355H259.584ZM266.554 349.016H267.931C267.761 348.081 268.322 347.452 269.427 347.452C270.464 347.452 271.008 348.047 271.008 349.288V349.611C268.917 349.798 266.129 349.951 266.129 352.756C266.129 353.963 266.877 355.17 268.628 355.17C270.073 355.17 270.77 354.354 271.11 353.317H271.263C271.161 353.895 270.991 354.643 270.991 354.864V355H272.436V349.39C272.436 347.469 271.705 346.33 269.58 346.33C267.557 346.33 266.452 347.435 266.554 349.016ZM269.155 354.082C268.203 354.082 267.523 353.453 267.523 352.535C267.523 351.43 268.169 350.631 271.008 350.427C271.042 350.937 271.042 351.464 271.008 351.974C270.923 353.181 270.209 354.082 269.155 354.082ZM280.895 351.736L279.484 351.719C279.569 353.521 278.634 354.031 277.835 354.031C276.543 354.031 275.761 352.926 275.761 350.75C275.761 348.693 276.492 347.503 277.801 347.503C278.821 347.503 279.467 348.217 279.45 349.662L280.878 349.679C280.98 347.571 279.722 346.33 277.801 346.33C275.251 346.33 274.214 348.438 274.214 350.818C274.214 353.351 275.251 355.17 277.801 355.17C279.824 355.17 280.929 353.759 280.895 351.736ZM283.972 355V347.673H287.287V355H288.732V346.5H282.527V355H283.972ZM293.955 355.17C296.216 355.17 297.559 353.572 297.559 350.75C297.559 347.928 296.216 346.33 293.955 346.33C291.694 346.33 290.351 347.928 290.351 350.75C290.351 353.572 291.694 355.17 293.955 355.17ZM293.955 353.997C292.782 353.997 291.915 352.943 291.915 350.75C291.915 348.591 292.782 347.486 293.955 347.486C295.111 347.486 295.995 348.591 295.995 350.75C295.995 352.943 295.111 353.997 293.955 353.997ZM303.071 355.17C303.445 355.17 303.853 355.102 304.295 354.881C305.06 354.49 305.74 353.674 306.046 352.501C306.182 351.974 306.267 351.396 306.267 350.75C306.267 350.104 306.182 349.526 306.046 348.999C305.689 347.605 304.703 346.415 303.071 346.415C301.66 346.415 300.878 347.163 300.538 348.472L300.385 348.455C300.487 347.843 300.64 347.061 300.64 346.636V346.5H299.178V358.026H300.64V354.949C300.64 354.524 300.487 353.742 300.385 353.13L300.538 353.113C300.878 354.422 301.66 355.17 303.071 355.17ZM302.714 353.963C301.507 353.963 300.708 352.773 300.708 350.75C300.708 348.761 301.507 347.537 302.714 347.537C303.904 347.537 304.822 348.761 304.822 350.75C304.822 352.773 303.904 353.963 302.714 353.963ZM311.124 355V347.792H313.844V346.5H306.942V347.792H309.662V355H311.124ZM323.469 348.183L323.605 348.217C323.418 349.067 323.333 350.24 323.316 351.464L323.299 355H324.71V346.5H323.299L321.157 350.274C320.205 351.94 320.001 352.739 319.678 353.453L319.525 353.385C319.746 352.603 319.814 350.971 319.814 349.764V346.5H318.403V355H319.865L321.905 351.413C322.942 349.577 323.146 348.914 323.469 348.183ZM338.247 351.447H336.785C336.7 353.096 335.765 353.878 334.592 353.878C332.722 353.878 331.498 352.314 331.498 349.509C331.498 346.738 332.671 345.157 334.388 345.157C335.731 345.157 336.666 346.024 336.734 347.639H338.247C338.332 345.395 336.836 343.831 334.405 343.831C331.481 343.831 329.9 346.228 329.9 349.509C329.9 352.841 331.43 355.187 334.439 355.187C335.034 355.187 335.612 355.102 336.241 354.813C337.295 354.32 338.162 353.181 338.247 351.447ZM346.804 343.984V348.829H341.721V343.984H340.225V355H341.721V350.24H346.804V355H348.3V343.984H346.804ZM352.489 353.742C352.693 352.552 352.744 351.43 352.744 350.325V343.984H351.265V355H353.22L356.603 348.37C357.283 347.027 357.691 346.126 358.014 345.089L358.15 345.123C357.827 346.602 357.827 347.707 357.827 348.438V355H359.306V343.984H357.368L354.189 350.24C353.339 351.906 353.186 352.314 352.625 353.776L352.489 353.742ZM361.014 353.878L361.201 355.153C363.887 355.119 364.329 354.167 364.448 352.195C364.482 351.311 364.635 348.132 364.737 345.48H367.882V355H369.395V343.984H363.326C363.19 346.891 363.122 350.461 362.952 352.569C362.85 353.776 362.051 353.861 361.014 353.878ZM380.033 351.447H378.571C378.486 353.096 377.551 353.878 376.378 353.878C374.508 353.878 373.284 352.314 373.284 349.509C373.284 346.738 374.457 345.157 376.174 345.157C377.517 345.157 378.452 346.024 378.52 347.639H380.033C380.118 345.395 378.622 343.831 376.191 343.831C373.267 343.831 371.686 346.228 371.686 349.509C371.686 352.841 373.216 355.187 376.225 355.187C376.82 355.187 377.398 355.102 378.027 354.813C379.081 354.32 379.948 353.181 380.033 351.447Z" fill="black"/>
<path d="M514.584 223V219.311H518.154V223H519.599V214.5H518.154V218.002H514.584V214.5H513.139V223H514.584ZM527.978 220.178L526.567 220.161C526.567 221.521 525.717 221.997 524.833 221.997C523.643 221.997 522.708 221.079 522.691 218.835H527.876C527.927 218.529 527.944 218.206 527.944 217.917C527.944 215.962 526.941 214.33 524.782 214.33C522.368 214.33 521.212 216.302 521.212 218.818C521.212 221.232 522.283 223.17 524.748 223.17C526.703 223.17 527.927 222.048 527.978 220.178ZM524.714 215.486C525.836 215.486 526.516 216.251 526.516 217.764V217.917H522.708C522.793 216.472 523.49 215.486 524.714 215.486ZM532.954 223V215.792H535.674V214.5H528.772V215.792H531.492V223H532.954Z" fill="black"/>
<path d="M519.055 288.861V281.5H513.921C513.87 283.693 513.802 286.175 513.666 286.872C513.428 288.113 513.054 288.861 512.238 288.861H512.085V292.278H513.309V290H519.004V292.278H520.228V288.861H519.055ZM513.734 288.861V288.742C514.38 288.368 514.754 287.654 514.89 286.549C514.958 285.988 515.043 284.492 515.111 282.826H517.644V288.861H513.734ZM524.667 290.17C526.928 290.17 528.271 288.572 528.271 285.75C528.271 282.928 526.928 281.33 524.667 281.33C522.406 281.33 521.063 282.928 521.063 285.75C521.063 288.572 522.406 290.17 524.667 290.17ZM524.667 288.997C523.494 288.997 522.627 287.943 522.627 285.75C522.627 283.591 523.494 282.486 524.667 282.486C525.823 282.486 526.707 283.591 526.707 285.75C526.707 287.943 525.823 288.997 524.667 288.997ZM533.497 282.435H534.976C534.925 282.18 534.908 281.942 534.908 281.721C534.908 280.497 535.673 280.021 536.642 280.021C537.645 280.021 538.444 280.463 538.444 281.806C538.444 283.115 537.526 283.625 537.05 283.625H535.928V285.104H537.05C537.526 285.104 538.444 285.682 538.444 287.042C538.444 288.385 537.628 288.963 536.625 288.963C535.588 288.963 534.772 288.504 534.772 287.28C534.772 287.076 534.789 286.872 534.823 286.651H533.31C533.276 286.889 533.259 287.11 533.259 287.314C533.259 289.235 534.398 290.187 536.523 290.187C538.41 290.187 539.974 289.303 539.974 287.195C539.974 285.852 539.294 284.9 538.121 284.424V284.237C539.26 283.812 539.974 283.013 539.974 281.67C539.974 279.664 538.58 278.797 536.761 278.797C534.84 278.797 533.429 279.766 533.429 281.687C533.429 281.908 533.446 282.163 533.497 282.435ZM544.428 288.827L544.445 290.119C546.468 290.119 546.944 289.422 547.08 288.249C547.182 287.45 547.301 284.866 547.42 282.758H549.868V290H551.279V281.5H546.162C546.06 283.744 545.975 286.362 545.839 287.722C545.72 288.878 545.04 288.827 544.428 288.827ZM559.671 287.178L558.26 287.161C558.26 288.521 557.41 288.997 556.526 288.997C555.336 288.997 554.401 288.079 554.384 285.835H559.569C559.62 285.529 559.637 285.206 559.637 284.917C559.637 282.962 558.634 281.33 556.475 281.33C554.061 281.33 552.905 283.302 552.905 285.818C552.905 288.232 553.976 290.17 556.441 290.17C558.396 290.17 559.62 289.048 559.671 287.178ZM556.407 282.486C557.529 282.486 558.209 283.251 558.209 284.764V284.917H554.401C554.486 283.472 555.183 282.486 556.407 282.486ZM564.646 290V282.792H567.366V281.5H560.464V282.792H563.184V290H564.646Z" fill="black"/>
<path d="M514.584 355V347.673H517.899V355H519.344V346.5H513.139V355H514.584ZM521.554 349.016H522.931C522.761 348.081 523.322 347.452 524.427 347.452C525.464 347.452 526.008 348.047 526.008 349.288V349.611C523.917 349.798 521.129 349.951 521.129 352.756C521.129 353.963 521.877 355.17 523.628 355.17C525.073 355.17 525.77 354.354 526.11 353.317H526.263C526.161 353.895 525.991 354.643 525.991 354.864V355H527.436V349.39C527.436 347.469 526.705 346.33 524.58 346.33C522.557 346.33 521.452 347.435 521.554 349.016ZM524.155 354.082C523.203 354.082 522.523 353.453 522.523 352.535C522.523 351.43 523.169 350.631 526.008 350.427C526.042 350.937 526.042 351.464 526.008 351.974C525.923 353.181 525.209 354.082 524.155 354.082ZM535.895 351.736L534.484 351.719C534.569 353.521 533.634 354.031 532.835 354.031C531.543 354.031 530.761 352.926 530.761 350.75C530.761 348.693 531.492 347.503 532.801 347.503C533.821 347.503 534.467 348.217 534.45 349.662L535.878 349.679C535.98 347.571 534.722 346.33 532.801 346.33C530.251 346.33 529.214 348.438 529.214 350.818C529.214 353.351 530.251 355.17 532.801 355.17C534.824 355.17 535.929 353.759 535.895 351.736ZM538.972 355V347.673H542.287V355H543.732V346.5H537.527V355H538.972ZM548.955 355.17C551.216 355.17 552.559 353.572 552.559 350.75C552.559 347.928 551.216 346.33 548.955 346.33C546.694 346.33 545.351 347.928 545.351 350.75C545.351 353.572 546.694 355.17 548.955 355.17ZM548.955 353.997C547.782 353.997 546.915 352.943 546.915 350.75C546.915 348.591 547.782 347.486 548.955 347.486C550.111 347.486 550.995 348.591 550.995 350.75C550.995 352.943 550.111 353.997 548.955 353.997ZM558.071 355.17C558.445 355.17 558.853 355.102 559.295 354.881C560.06 354.49 560.74 353.674 561.046 352.501C561.182 351.974 561.267 351.396 561.267 350.75C561.267 350.104 561.182 349.526 561.046 348.999C560.689 347.605 559.703 346.415 558.071 346.415C556.66 346.415 555.878 347.163 555.538 348.472L555.385 348.455C555.487 347.843 555.64 347.061 555.64 346.636V346.5H554.178V358.026H555.64V354.949C555.64 354.524 555.487 353.742 555.385 353.13L555.538 353.113C555.878 354.422 556.66 355.17 558.071 355.17ZM557.714 353.963C556.507 353.963 555.708 352.773 555.708 350.75C555.708 348.761 556.507 347.537 557.714 347.537C558.904 347.537 559.822 348.761 559.822 350.75C559.822 352.773 558.904 353.963 557.714 353.963ZM566.124 355V347.792H568.844V346.5H561.942V347.792H564.662V355H566.124Z" fill="black"/>
<line x1="29" y1="57.5" x2="655" y2="57.4999" stroke="black" stroke-opacity="0.08"/>
<line x1="29" y1="118.5" x2="655" y2="118.5" stroke="black" stroke-opacity="0.08"/>
<line x1="29" y1="183.5" x2="655" y2="183.5" stroke="black" stroke-opacity="0.08"/>
<line x1="29" y1="250.5" x2="655" y2="250.5" stroke="black" stroke-opacity="0.08"/>
<line x1="29" y1="315.5" x2="655" y2="315.5" stroke="black" stroke-opacity="0.08"/>
<rect x="1" y="1" width="687" height="399" rx="14" stroke="white" stroke-width="2"/>
</svg>
