<svg width="689" height="259" viewBox="0 0 689 259" fill="none" xmlns="http://www.w3.org/2000/svg">
<rect x="1" y="1" width="687" height="257" rx="14" fill="white" fill-opacity="0.5"/>
<path d="M259.45 35V30.996H260.654C261.774 30.996 261.998 31.486 262.264 32.298C262.614 33.348 262.866 34.51 263.174 35H264.644C264.028 33.992 263.608 32.41 263.37 31.766C263.062 30.912 262.684 30.604 261.788 30.464V30.324C262.642 30.198 263.034 29.862 263.356 29.064C263.58 28.49 263.902 27.272 264.602 25.928H263.202C262.866 26.488 262.572 27.832 262.236 28.77C261.956 29.54 261.648 29.862 260.71 29.862H259.45V25.928H258.218V35H259.45ZM268.992 35.14C269.3 35.14 269.636 35.084 270 34.902C270.63 34.58 271.19 33.908 271.442 32.942C271.554 32.508 271.624 32.032 271.624 31.5C271.624 30.968 271.554 30.492 271.442 30.058C271.148 28.91 270.336 27.93 268.992 27.93C267.83 27.93 267.186 28.546 266.906 29.624L266.78 29.61C266.864 29.106 266.99 28.462 266.99 28.112V28H265.786V37.492H266.99V34.958C266.99 34.608 266.864 33.964 266.78 33.46L266.906 33.446C267.186 34.524 267.83 35.14 268.992 35.14ZM268.698 34.146C267.704 34.146 267.046 33.166 267.046 31.5C267.046 29.862 267.704 28.854 268.698 28.854C269.678 28.854 270.434 29.862 270.434 31.5C270.434 33.166 269.678 34.146 268.698 34.146ZM278.266 32.676L277.104 32.662C277.104 33.782 276.404 34.174 275.676 34.174C274.696 34.174 273.926 33.418 273.912 31.57H278.182C278.224 31.318 278.238 31.052 278.238 30.814C278.238 29.204 277.412 27.86 275.634 27.86C273.646 27.86 272.694 29.484 272.694 31.556C272.694 33.544 273.576 35.14 275.606 35.14C277.216 35.14 278.224 34.216 278.266 32.676ZM275.578 28.812C276.502 28.812 277.062 29.442 277.062 30.688V30.814H273.926C273.996 29.624 274.57 28.812 275.578 28.812ZM284.712 34.062V28H280.484C280.442 29.806 280.386 31.85 280.274 32.424C280.078 33.446 279.77 34.062 279.098 34.062H278.972V36.876H279.98V35H284.67V36.876H285.678V34.062H284.712ZM280.33 34.062V33.964C280.862 33.656 281.17 33.068 281.282 32.158C281.338 31.696 281.408 30.464 281.464 29.092H283.55V34.062H280.33ZM290.944 29.386L291.056 29.414C290.902 30.114 290.832 31.08 290.818 32.088L290.804 35H291.966V28H290.804L289.04 31.108C288.256 32.48 288.088 33.138 287.822 33.726L287.696 33.67C287.878 33.026 287.934 31.682 287.934 30.688V28H286.772V35H287.976L289.656 32.046C290.51 30.534 290.678 29.988 290.944 29.386ZM296.5 35V29.064H298.74V28H293.056V29.064H295.296V35H296.5ZM303.685 35V28.966H306.415V35H307.605V28H302.495V35H303.685ZM311.906 35.14C313.768 35.14 314.874 33.824 314.874 31.5C314.874 29.176 313.768 27.86 311.906 27.86C310.044 27.86 308.938 29.176 308.938 31.5C308.938 33.824 310.044 35.14 311.906 35.14ZM311.906 34.174C310.94 34.174 310.226 33.306 310.226 31.5C310.226 29.722 310.94 28.812 311.906 28.812C312.858 28.812 313.586 29.722 313.586 31.5C313.586 33.306 312.858 34.174 311.906 34.174ZM321.216 34.062V28H316.988C316.946 29.806 316.89 31.85 316.778 32.424C316.582 33.446 316.274 34.062 315.602 34.062H315.476V36.876H316.484V35H321.174V36.876H322.182V34.062H321.216ZM316.834 34.062V33.964C317.366 33.656 317.674 33.068 317.786 32.158C317.842 31.696 317.912 30.464 317.968 29.092H320.054V34.062H316.834ZM326.614 33.012H325.522C325.382 34.482 326.25 35.14 328.07 35.126C329.596 35.112 330.8 34.566 330.8 33.04C330.8 32.298 330.226 31.472 329.218 31.458V31.262C330.03 31.178 330.52 30.534 330.52 29.75C330.52 28.42 329.414 27.846 328.014 27.86C326.586 27.874 325.452 28.462 325.564 30.142H326.656C326.544 28.98 327.146 28.714 328 28.714C328.938 28.714 329.386 29.064 329.386 29.848C329.386 30.562 328.938 30.94 328.21 30.94H327.062V31.934H328.308C329.12 31.934 329.596 32.312 329.596 33.11C329.596 33.852 329.064 34.244 328.154 34.258C327.314 34.272 326.502 33.978 326.614 33.012ZM332.134 30.072H333.268C333.128 29.302 333.59 28.784 334.5 28.784C335.354 28.784 335.802 29.274 335.802 30.296V30.562C334.08 30.716 331.784 30.842 331.784 33.152C331.784 34.146 332.4 35.14 333.842 35.14C335.032 35.14 335.606 34.468 335.886 33.614H336.012C335.928 34.09 335.788 34.706 335.788 34.888V35H336.978V30.38C336.978 28.798 336.376 27.86 334.626 27.86C332.96 27.86 332.05 28.77 332.134 30.072ZM334.276 34.244C333.492 34.244 332.932 33.726 332.932 32.97C332.932 32.06 333.464 31.402 335.802 31.234C335.83 31.654 335.83 32.088 335.802 32.508C335.732 33.502 335.144 34.244 334.276 34.244ZM338.078 34.034L338.092 35.098C339.758 35.098 340.15 34.524 340.262 33.558C340.346 32.9 340.444 30.772 340.542 29.036H342.558V35H343.72V28H339.506C339.422 29.848 339.352 32.004 339.24 33.124C339.142 34.076 338.582 34.034 338.078 34.034ZM348.027 35.14C349.889 35.14 350.995 33.824 350.995 31.5C350.995 29.176 349.889 27.86 348.027 27.86C346.165 27.86 345.059 29.176 345.059 31.5C345.059 33.824 346.165 35.14 348.027 35.14ZM348.027 34.174C347.061 34.174 346.347 33.306 346.347 31.5C346.347 29.722 347.061 28.812 348.027 28.812C348.979 28.812 349.707 29.722 349.707 31.5C349.707 33.306 348.979 34.174 348.027 34.174ZM353.491 35V29.092H356.417V28H352.329V35H353.491ZM361.298 35V31.962H364.238V35H365.428V28H364.238V30.884H361.298V28H360.108V35H361.298ZM372.329 32.676L371.167 32.662C371.167 33.782 370.467 34.174 369.739 34.174C368.759 34.174 367.989 33.418 367.975 31.57H372.245C372.287 31.318 372.301 31.052 372.301 30.814C372.301 29.204 371.475 27.86 369.697 27.86C367.709 27.86 366.757 29.484 366.757 31.556C366.757 33.544 367.639 35.14 369.669 35.14C371.279 35.14 372.287 34.216 372.329 32.676ZM369.641 28.812C370.565 28.812 371.125 29.442 371.125 30.688V30.814H367.989C368.059 29.624 368.633 28.812 369.641 28.812ZM378.775 34.062V28H374.547C374.505 29.806 374.449 31.85 374.337 32.424C374.141 33.446 373.833 34.062 373.161 34.062H373.035V36.876H374.043V35H378.733V36.876H379.741V34.062H378.775ZM374.393 34.062V33.964C374.925 33.656 375.233 33.068 375.345 32.158C375.401 31.696 375.471 30.464 375.527 29.092H377.613V34.062H374.393ZM381.002 35H382.15H383.704C384.208 35 384.6 34.972 384.978 34.846C385.86 34.566 386.322 33.894 386.322 33.04C386.322 32.368 385.888 31.514 384.614 31.43V31.332C385.622 31.108 386.056 30.366 386.056 29.736C386.056 28.476 385.076 28 384.012 28H382.15H381.002V35ZM382.15 34.076V31.892H383.844C384.488 31.892 385.146 32.2 385.146 32.97C385.146 33.74 384.586 34.076 383.802 34.076H382.15ZM382.15 31.01V28.896H383.76C384.362 28.896 384.894 29.19 384.894 29.904C384.894 30.632 384.278 31.01 383.592 31.01H382.15ZM392.02 29.386L392.132 29.414C391.978 30.114 391.908 31.08 391.894 32.088L391.88 35H393.042V28H391.88L390.116 31.108C389.332 32.48 389.164 33.138 388.898 33.726L388.772 33.67C388.954 33.026 389.01 31.682 389.01 30.688V28H387.848V35H389.052L390.732 32.046C391.586 30.534 391.754 29.988 392.02 29.386ZM395.379 28H394.035C394.245 28.266 394.357 28.532 394.455 28.77C394.763 29.498 394.945 30.128 395.127 30.52C395.351 31.038 395.617 31.22 396.107 31.318V31.5C395.603 31.612 395.309 31.892 395.099 32.438C394.959 32.83 394.749 33.488 394.469 34.146C394.343 34.44 394.203 34.734 393.965 35H395.379C395.631 34.622 395.855 33.726 396.121 32.914C396.331 32.284 396.583 31.906 397.283 31.906H397.801V35H398.963V31.906H399.481C400.181 31.906 400.433 32.284 400.643 32.914C400.909 33.726 401.133 34.622 401.385 35H402.785C402.547 34.748 402.449 34.496 402.323 34.202C402.029 33.53 401.819 32.844 401.665 32.438C401.455 31.892 401.161 31.612 400.657 31.5V31.318C401.147 31.22 401.413 31.038 401.637 30.52C401.791 30.184 401.959 29.666 402.183 29.064C402.323 28.728 402.449 28.378 402.715 28H401.385C401.105 28.434 400.867 29.47 400.587 30.198C400.363 30.786 400.083 31.038 399.481 31.038H398.963V28H397.801V31.038H397.185C396.653 31.024 396.387 30.758 396.177 30.198C395.897 29.47 395.659 28.434 395.379 28ZM407.893 29.386L408.005 29.414C407.851 30.114 407.781 31.08 407.767 32.088L407.753 35H408.915V28H407.753L405.989 31.108C405.205 32.48 405.037 33.138 404.771 33.726L404.645 33.67C404.827 33.026 404.883 31.682 404.883 30.688V28H403.721V35H404.925L406.605 32.046C407.459 30.534 407.627 29.988 407.893 29.386ZM418 28H416.222L415.032 31.78C414.794 32.536 414.556 33.488 414.416 34.104H414.402C414.22 33.194 413.926 32.256 413.772 31.738L412.666 28H410.93L410.608 35H411.686L411.812 30.716C411.826 30.226 411.826 29.736 411.784 28.994H411.924C412.064 29.722 412.204 30.17 412.428 30.912L413.604 34.944H415.074L416.166 31.388C416.516 30.226 416.698 29.666 416.796 28.994H416.936C416.95 29.68 416.922 30.282 416.936 30.828L417.09 35H418.28L418 28ZM422.539 35.14C424.401 35.14 425.507 33.824 425.507 31.5C425.507 29.176 424.401 27.86 422.539 27.86C420.677 27.86 419.571 29.176 419.571 31.5C419.571 33.824 420.677 35.14 422.539 35.14ZM422.539 34.174C421.573 34.174 420.859 33.306 420.859 31.5C420.859 29.722 421.573 28.812 422.539 28.812C423.491 28.812 424.219 29.722 424.219 31.5C424.219 33.306 423.491 34.174 422.539 34.174ZM432.073 32.312L430.911 32.298C430.981 33.782 430.211 34.202 429.553 34.202C428.489 34.202 427.845 33.292 427.845 31.5C427.845 29.806 428.447 28.826 429.525 28.826C430.365 28.826 430.897 29.414 430.883 30.604L432.059 30.618C432.143 28.882 431.107 27.86 429.525 27.86C427.425 27.86 426.571 29.596 426.571 31.556C426.571 33.642 427.425 35.14 429.525 35.14C431.191 35.14 432.101 33.978 432.073 32.312ZM436.077 35V29.064H438.317V28H432.633V29.064H434.873V35H436.077ZM443.577 29.386L443.689 29.414C443.535 30.114 443.465 31.08 443.451 32.088L443.437 35H444.599V28H443.437L441.673 31.108C440.889 32.48 440.721 33.138 440.455 33.726L440.329 33.67C440.511 33.026 440.567 31.682 440.567 30.688V28H439.405V35H440.609L442.289 32.046C443.143 30.534 443.311 29.988 443.577 29.386Z" fill="black" fill-opacity="0.8"/>
<path d="M519.602 25.928H513.218V35H514.45V27.02H518.37V35H519.602V25.928ZM524.182 35.14C526.044 35.14 527.15 33.824 527.15 31.5C527.15 29.176 526.044 27.86 524.182 27.86C522.32 27.86 521.214 29.176 521.214 31.5C521.214 33.824 522.32 35.14 524.182 35.14ZM524.182 34.174C523.216 34.174 522.502 33.306 522.502 31.5C522.502 29.722 523.216 28.812 524.182 28.812C525.134 28.812 525.862 29.722 525.862 31.5C525.862 33.306 525.134 34.174 524.182 34.174ZM531.143 35V29.064H533.383V28H527.699V29.064H529.939V35H531.143ZM537.677 35.14C537.985 35.14 538.321 35.084 538.685 34.902C539.315 34.58 539.875 33.908 540.127 32.942C540.239 32.508 540.309 32.032 540.309 31.5C540.309 30.968 540.239 30.492 540.127 30.058C539.833 28.91 539.021 27.93 537.677 27.93C536.515 27.93 535.871 28.546 535.591 29.624L535.465 29.61C535.549 29.106 535.675 28.462 535.675 28.112V28H534.471V37.492H535.675V34.958C535.675 34.608 535.549 33.964 535.465 33.46L535.591 33.446C535.871 34.524 536.515 35.14 537.677 35.14ZM537.383 34.146C536.389 34.146 535.731 33.166 535.731 31.5C535.731 29.862 536.389 28.854 537.383 28.854C538.363 28.854 539.119 29.862 539.119 31.5C539.119 33.166 538.363 34.146 537.383 34.146ZM546.952 32.676L545.79 32.662C545.79 33.782 545.09 34.174 544.362 34.174C543.382 34.174 542.612 33.418 542.598 31.57H546.868C546.91 31.318 546.924 31.052 546.924 30.814C546.924 29.204 546.098 27.86 544.32 27.86C542.332 27.86 541.38 29.484 541.38 31.556C541.38 33.544 542.262 35.14 544.292 35.14C545.902 35.14 546.91 34.216 546.952 32.676ZM544.264 28.812C545.188 28.812 545.748 29.442 545.748 30.688V30.814H542.612C542.682 29.624 543.256 28.812 544.264 28.812ZM554 29.904C553.706 28.784 552.838 28 551.564 28C550.5 28 549.492 28.644 549.268 30.128H549.058C549.002 28.35 549.814 27.286 551.312 26.81C552.418 26.46 552.992 26.376 553.454 25.928L553.328 24.808C552.572 25.298 551.914 25.382 550.724 25.844C548.246 26.824 548.344 29.078 548.26 30.716C548.26 32.914 548.582 34.244 549.856 34.874C550.332 35.112 550.836 35.14 551.228 35.14C551.62 35.14 552.012 35.084 552.404 34.902C553.104 34.58 553.72 33.908 554 32.942C554.126 32.508 554.196 32.032 554.196 31.5C554.196 30.968 554.154 30.464 554 29.904ZM551.242 34.174C550.248 34.174 549.548 33.306 549.548 31.486C549.548 29.722 550.262 28.812 551.228 28.812C552.18 28.812 552.908 29.722 552.908 31.5C552.908 33.306 552.166 34.174 551.242 34.174ZM559.698 29.386L559.81 29.414C559.656 30.114 559.586 31.08 559.572 32.088L559.558 35H560.72V28H559.558L557.794 31.108C557.01 32.48 556.842 33.138 556.576 33.726L556.45 33.67C556.632 33.026 556.688 31.682 556.688 30.688V28H555.526V35H556.73L558.41 32.046C559.264 30.534 559.432 29.988 559.698 29.386ZM565.254 35V29.064H567.494V28H561.81V29.064H564.05V35H565.254ZM573.612 32.676L572.45 32.662C572.45 33.782 571.75 34.174 571.022 34.174C570.042 34.174 569.272 33.418 569.258 31.57H573.528C573.57 31.318 573.584 31.052 573.584 30.814C573.584 29.204 572.758 27.86 570.98 27.86C568.992 27.86 568.04 29.484 568.04 31.556C568.04 33.544 568.922 35.14 570.952 35.14C572.562 35.14 573.57 34.216 573.612 32.676ZM570.924 28.812C571.848 28.812 572.408 29.442 572.408 30.688V30.814H569.272C569.342 29.624 569.916 28.812 570.924 28.812ZM574.416 34.034L574.43 35.098C576.096 35.098 576.488 34.524 576.6 33.558C576.684 32.9 576.782 30.772 576.88 29.036H578.896V35H580.058V28H575.844C575.76 29.848 575.69 32.004 575.578 33.124C575.48 34.076 574.92 34.034 574.416 34.034ZM583.088 28H581.94V35H584.32C586.476 35 586.966 33.558 586.966 32.76C586.966 31.752 586.462 31.052 585.734 30.786C585.23 30.604 584.894 30.59 583.942 30.59H583.088V28ZM585.748 32.76C585.748 33.628 585.076 34.006 584.222 34.006H583.088V31.514H584.292C585.216 31.514 585.748 31.948 585.748 32.76ZM593.475 32.312L592.313 32.298C592.383 33.782 591.613 34.202 590.955 34.202C589.891 34.202 589.247 33.292 589.247 31.5C589.247 29.806 589.849 28.826 590.927 28.826C591.767 28.826 592.299 29.414 592.285 30.604L593.461 30.618C593.545 28.882 592.509 27.86 590.927 27.86C588.827 27.86 587.973 29.596 587.973 31.556C587.973 33.642 588.827 35.14 590.927 35.14C592.593 35.14 593.503 33.978 593.475 32.312ZM596.009 35V31.906H596.653C597.353 31.906 597.605 32.284 597.815 32.914C598.081 33.726 598.291 34.622 598.585 35H599.985C599.677 34.65 599.509 34.272 599.313 33.782C599.131 33.32 598.963 32.774 598.865 32.522C598.627 31.892 598.319 31.626 597.605 31.5V31.374C598.207 31.248 598.557 31.01 598.837 30.45C599.005 30.114 599.131 29.736 599.327 29.162C599.453 28.798 599.649 28.28 599.929 28H598.585C598.263 28.434 598.039 29.47 597.759 30.198C597.535 30.786 597.255 31.038 596.653 31.038H596.009V28H594.819V35H596.009ZM605.239 29.386L605.351 29.414C605.197 30.114 605.127 31.08 605.113 32.088L605.099 35H606.261V28H605.099L603.335 31.108C602.551 32.48 602.383 33.138 602.117 33.726L601.991 33.67C602.173 33.026 602.229 31.682 602.229 30.688V28H601.067V35H602.271L603.951 32.046C604.805 30.534 604.973 29.988 605.239 29.386ZM612.307 29.386L612.419 29.414C612.265 30.114 612.195 31.08 612.181 32.088L612.167 35H613.329V28H612.167L610.403 31.108C609.619 32.48 609.451 33.138 609.185 33.726L609.059 33.67C609.241 33.026 609.297 31.682 609.297 30.688V28H608.135V35H609.339L611.019 32.046C611.873 30.534 612.041 29.988 612.307 29.386ZM608.975 26.334V27.104C609.577 27.244 610.193 27.314 610.795 27.314C611.397 27.314 611.999 27.244 612.615 27.104V26.334C611.999 26.474 611.397 26.544 610.795 26.544C610.193 26.544 609.577 26.474 608.975 26.334ZM619.06 35V31.906H619.704C620.404 31.906 620.656 32.284 620.866 32.914C621.132 33.726 621.342 34.622 621.636 35H623.036C622.728 34.65 622.56 34.272 622.364 33.782C622.182 33.32 622.014 32.774 621.916 32.522C621.678 31.892 621.37 31.626 620.656 31.5V31.374C621.258 31.248 621.608 31.01 621.888 30.45C622.056 30.114 622.182 29.736 622.378 29.162C622.504 28.798 622.7 28.28 622.98 28H621.636C621.314 28.434 621.09 29.47 620.81 30.198C620.586 30.786 620.306 31.038 619.704 31.038H619.06V28H617.87V35H619.06ZM627.324 35.14C627.632 35.14 627.968 35.084 628.332 34.902C628.962 34.58 629.522 33.908 629.774 32.942C629.886 32.508 629.956 32.032 629.956 31.5C629.956 30.968 629.886 30.492 629.774 30.058C629.48 28.91 628.668 27.93 627.324 27.93C626.162 27.93 625.518 28.546 625.238 29.624L625.112 29.61C625.196 29.106 625.322 28.462 625.322 28.112V28H624.118V37.492H625.322V34.958C625.322 34.608 625.196 33.964 625.112 33.46L625.238 33.446C625.518 34.524 626.162 35.14 627.324 35.14ZM627.03 34.146C626.036 34.146 625.378 33.166 625.378 31.5C625.378 29.862 626.036 28.854 627.03 28.854C628.01 28.854 628.766 29.862 628.766 31.5C628.766 33.166 628.01 34.146 627.03 34.146ZM636.598 32.676L635.436 32.662C635.436 33.782 634.736 34.174 634.008 34.174C633.028 34.174 632.258 33.418 632.244 31.57H636.514C636.556 31.318 636.57 31.052 636.57 30.814C636.57 29.204 635.744 27.86 633.966 27.86C631.978 27.86 631.026 29.484 631.026 31.556C631.026 33.544 631.908 35.14 633.938 35.14C635.548 35.14 636.556 34.216 636.598 32.676ZM633.91 28.812C634.834 28.812 635.394 29.442 635.394 30.688V30.814H632.258C632.328 29.624 632.902 28.812 633.91 28.812ZM643.044 34.062V28H638.816C638.774 29.806 638.718 31.85 638.606 32.424C638.41 33.446 638.102 34.062 637.43 34.062H637.304V36.876H638.312V35H643.002V36.876H644.01V34.062H643.044ZM638.662 34.062V33.964C639.194 33.656 639.502 33.068 639.614 32.158C639.67 31.696 639.74 30.464 639.796 29.092H641.882V34.062H638.662ZM649.276 29.386L649.388 29.414C649.234 30.114 649.164 31.08 649.15 32.088L649.136 35H650.298V28H649.136L647.372 31.108C646.588 32.48 646.42 33.138 646.154 33.726L646.028 33.67C646.21 33.026 646.266 31.682 646.266 30.688V28H645.104V35H646.308L647.988 32.046C648.842 30.534 649.01 29.988 649.276 29.386ZM654.832 35V29.064H657.072V28H651.388V29.064H653.628V35H654.832Z" fill="black" fill-opacity="0.8"/>
<path d="M38.231 82.984H30.479V94H31.975V84.31H36.735V94H38.231V82.984ZM44.574 94.17C44.948 94.17 45.356 94.102 45.798 93.881C46.563 93.49 47.243 92.674 47.549 91.501C47.685 90.974 47.77 90.396 47.77 89.75C47.77 89.104 47.685 88.526 47.549 87.999C47.192 86.605 46.206 85.415 44.574 85.415C43.163 85.415 42.381 86.163 42.041 87.472L41.888 87.455C41.99 86.843 42.143 86.061 42.143 85.636V85.5H40.681V97.026H42.143V93.949C42.143 93.524 41.99 92.742 41.888 92.13L42.041 92.113C42.381 93.422 43.163 94.17 44.574 94.17ZM44.217 92.963C43.01 92.963 42.211 91.773 42.211 89.75C42.211 87.761 43.01 86.537 44.217 86.537C45.407 86.537 46.325 87.761 46.325 89.75C46.325 91.773 45.407 92.963 44.217 92.963ZM52.6738 94.17C54.9348 94.17 56.2778 92.572 56.2778 89.75C56.2778 86.928 54.9348 85.33 52.6738 85.33C50.4128 85.33 49.0698 86.928 49.0698 89.75C49.0698 92.572 50.4128 94.17 52.6738 94.17ZM52.6738 92.997C51.5008 92.997 50.6338 91.943 50.6338 89.75C50.6338 87.591 51.5008 86.486 52.6738 86.486C53.8298 86.486 54.7138 87.591 54.7138 89.75C54.7138 91.943 53.8298 92.997 52.6738 92.997ZM57.8968 85.5V94H64.0848V96.448H65.2238V92.861H64.2378V85.5H62.8268V92.861H59.3078V85.5H57.8968ZM73.035 91.178L71.624 91.161C71.624 92.521 70.774 92.997 69.89 92.997C68.7 92.997 67.765 92.079 67.748 89.835H72.933C72.984 89.529 73.001 89.206 73.001 88.917C73.001 86.962 71.998 85.33 69.839 85.33C67.425 85.33 66.269 87.302 66.269 89.818C66.269 92.232 67.34 94.17 69.805 94.17C71.76 94.17 72.984 93.048 73.035 91.178ZM69.771 86.486C70.893 86.486 71.573 87.251 71.573 88.764V88.917H67.765C67.85 87.472 68.547 86.486 69.771 86.486ZM76.2256 94V90.311H79.7956V94H81.2406V85.5H79.7956V89.002H76.2256V85.5H74.7806V94H76.2256ZM86.743 94V86.792H89.463V85.5H82.561V86.792H85.281V94H86.743ZM92.2295 94V90.311H95.7995V94H97.2445V85.5H95.7995V89.002H92.2295V85.5H90.7845V94H92.2295ZM99.4489 88.016H100.826C100.656 87.081 101.217 86.452 102.322 86.452C103.359 86.452 103.903 87.047 103.903 88.288V88.611C101.812 88.798 99.0239 88.951 99.0239 91.756C99.0239 92.963 99.7719 94.17 101.523 94.17C102.968 94.17 103.665 93.354 104.005 92.317H104.158C104.056 92.895 103.886 93.643 103.886 93.864V94H105.331V88.39C105.331 86.469 104.6 85.33 102.475 85.33C100.452 85.33 99.3469 86.435 99.4489 88.016ZM102.05 93.082C101.098 93.082 100.418 92.453 100.418 91.535C100.418 90.43 101.064 89.631 103.903 89.427C103.937 89.937 103.937 90.464 103.903 90.974C103.818 92.181 103.104 93.082 102.05 93.082ZM108.537 88.084C108.537 87.03 109.285 86.622 110.407 86.622H111.869V89.614H110.594C109.387 89.614 108.537 89.087 108.537 88.084ZM106.769 94H108.486C108.724 93.303 108.894 92.419 109.081 91.807C109.353 90.906 109.693 90.821 110.56 90.821H111.869V94H113.263V85.5H110.781C109.625 85.5 109.166 85.517 108.571 85.755C107.721 86.095 107.109 86.86 107.109 88.016C107.109 89.019 107.653 90.09 109.421 90.073V90.311C108.469 90.362 107.959 90.804 107.653 91.637C107.381 92.385 107.075 93.694 106.769 94ZM124.963 90.736L123.552 90.719C123.637 92.521 122.702 93.031 121.903 93.031C120.611 93.031 119.829 91.926 119.829 89.75C119.829 87.693 120.56 86.503 121.869 86.503C122.889 86.503 123.535 87.217 123.518 88.662L124.946 88.679C125.048 86.571 123.79 85.33 121.869 85.33C119.319 85.33 118.282 87.438 118.282 89.818C118.282 92.351 119.319 94.17 121.869 94.17C123.892 94.17 124.997 92.759 124.963 90.736ZM129.824 94V86.792H132.544V85.5H125.642V86.792H128.362V94H129.824ZM133.648 88.016H135.025C134.855 87.081 135.416 86.452 136.521 86.452C137.558 86.452 138.102 87.047 138.102 88.288V88.611C136.011 88.798 133.223 88.951 133.223 91.756C133.223 92.963 133.971 94.17 135.722 94.17C137.167 94.17 137.864 93.354 138.204 92.317H138.357C138.255 92.895 138.085 93.643 138.085 93.864V94H139.53V88.39C139.53 86.469 138.799 85.33 136.674 85.33C134.651 85.33 133.546 86.435 133.648 88.016ZM136.249 93.082C135.297 93.082 134.617 92.453 134.617 91.535C134.617 90.43 135.263 89.631 138.102 89.427C138.136 89.937 138.136 90.464 138.102 90.974C138.017 92.181 137.303 93.082 136.249 93.082ZM142.005 94H143.399H145.286C145.898 94 146.374 93.966 146.833 93.813C147.904 93.473 148.465 92.657 148.465 91.62C148.465 90.804 147.938 89.767 146.391 89.665V89.546C147.615 89.274 148.142 88.373 148.142 87.608C148.142 86.078 146.952 85.5 145.66 85.5H143.399H142.005V94ZM143.399 92.878V90.226H145.456C146.238 90.226 147.037 90.6 147.037 91.535C147.037 92.47 146.357 92.878 145.405 92.878H143.399ZM143.399 89.155V86.588H145.354C146.085 86.588 146.731 86.945 146.731 87.812C146.731 88.696 145.983 89.155 145.15 89.155H143.399ZM151.763 94V90.243H152.545C153.395 90.243 153.701 90.702 153.956 91.467C154.279 92.453 154.534 93.541 154.891 94H156.591C156.217 93.575 156.013 93.116 155.775 92.521C155.554 91.96 155.35 91.297 155.231 90.991C154.942 90.226 154.568 89.903 153.701 89.75V89.597C154.432 89.444 154.857 89.155 155.197 88.475C155.401 88.067 155.554 87.608 155.792 86.911C155.945 86.469 156.183 85.84 156.523 85.5H154.891C154.5 86.027 154.228 87.285 153.888 88.169C153.616 88.883 153.276 89.189 152.545 89.189H151.763V85.5H150.318V94H151.763ZM157.671 88.016H159.048C158.878 87.081 159.439 86.452 160.544 86.452C161.581 86.452 162.125 87.047 162.125 88.288V88.611C160.034 88.798 157.246 88.951 157.246 91.756C157.246 92.963 157.994 94.17 159.745 94.17C161.19 94.17 161.887 93.354 162.227 92.317H162.38C162.278 92.895 162.108 93.643 162.108 93.864V94H163.553V88.39C163.553 86.469 162.822 85.33 160.697 85.33C158.674 85.33 157.569 86.435 157.671 88.016ZM160.272 93.082C159.32 93.082 158.64 92.453 158.64 91.535C158.64 90.43 159.286 89.631 162.125 89.427C162.159 89.937 162.159 90.464 162.125 90.974C162.04 92.181 161.326 93.082 160.272 93.082Z" fill="black"/>
<path d="M262.389 94.187C262.984 94.187 263.579 94.102 264.208 93.813C265.296 93.303 266.231 92.283 266.639 90.77C266.826 90.09 266.945 89.342 266.945 88.509C266.945 87.71 266.843 86.928 266.639 86.248C266.197 84.752 265.279 83.698 264.225 83.188C263.596 82.882 263.001 82.831 262.423 82.831C261.794 82.831 261.182 82.95 260.57 83.222C259.465 83.715 258.581 84.735 258.122 86.248C257.918 86.928 257.816 87.71 257.816 88.509C257.816 89.342 257.918 90.09 258.122 90.77C258.564 92.266 259.465 93.32 260.502 93.796C261.165 94.102 261.743 94.187 262.389 94.187ZM262.372 92.861C260.621 92.861 259.431 91.246 259.431 88.509C259.431 85.806 260.621 84.174 262.372 84.174C264.089 84.174 265.296 85.806 265.313 88.509C265.33 91.246 264.089 92.861 262.372 92.861ZM272.127 94V86.792H274.847V85.5H267.945V86.792H270.665V94H272.127ZM283.095 86.843C281.99 86.843 281.106 87.319 280.562 88.39L280.426 88.373C280.443 86.656 280.953 84.089 282.874 84.089C283.69 84.089 284.268 84.599 284.234 85.5H285.764C285.9 83.936 284.795 82.831 283.01 82.831C280.239 82.831 279.083 85.415 279.083 89.002C279.083 92.742 280.545 94.136 282.636 94.136C284.506 94.136 286.121 92.878 286.121 90.362C286.121 87.863 284.489 86.843 283.095 86.843ZM282.67 92.861C281.565 92.861 280.698 91.892 280.698 90.447C280.698 88.849 281.548 87.982 282.687 87.982C283.707 87.982 284.608 88.696 284.608 90.464C284.608 92.147 283.707 92.861 282.67 92.861ZM289.36 91.637C288.833 91.637 288.374 92.079 288.374 92.861C288.374 93.694 288.816 94.119 289.343 94.119C289.343 94.493 288.918 95.445 288.578 95.921L289.139 96.074C289.598 95.649 290.329 94.187 290.329 92.963C290.329 91.977 289.87 91.637 289.36 91.637ZM295.44 90.192C296.545 90.192 297.429 89.716 297.973 88.645L298.109 88.662C298.092 90.379 297.582 92.946 295.661 92.946C294.845 92.946 294.267 92.436 294.301 91.535H292.771C292.635 93.099 293.74 94.204 295.525 94.204C298.296 94.204 299.452 91.62 299.452 88.033C299.452 84.293 297.99 82.899 295.899 82.899C294.029 82.899 292.414 84.157 292.414 86.673C292.414 89.172 294.046 90.192 295.44 90.192ZM295.865 84.174C296.97 84.174 297.837 85.143 297.837 86.588C297.837 88.186 296.987 89.053 295.848 89.053C294.828 89.053 293.927 88.339 293.927 86.571C293.927 84.888 294.828 84.174 295.865 84.174ZM311.759 82.984L305.469 94H306.642L312.932 82.984H311.759ZM306.676 87.778C306.982 87.778 307.288 87.727 307.611 87.608C308.172 87.387 308.665 86.928 308.886 86.282C308.988 85.993 309.039 85.653 309.039 85.296C309.039 84.939 308.988 84.616 308.886 84.327C308.665 83.664 308.172 83.205 307.611 82.984C307.288 82.865 306.982 82.831 306.676 82.831C306.37 82.831 306.047 82.882 305.724 83.018C305.163 83.222 304.704 83.664 304.449 84.327C304.347 84.616 304.296 84.939 304.296 85.296C304.296 85.653 304.347 85.993 304.449 86.282C304.67 86.928 305.163 87.387 305.724 87.608C306.047 87.727 306.353 87.778 306.676 87.778ZM306.676 86.894C305.996 86.894 305.486 86.384 305.486 85.296C305.486 84.242 305.996 83.698 306.676 83.698C307.339 83.698 307.849 84.242 307.849 85.296C307.849 86.384 307.339 86.894 306.676 86.894ZM311.776 94.136C312.082 94.136 312.388 94.085 312.711 93.966C313.272 93.762 313.765 93.286 313.986 92.64C314.088 92.351 314.139 92.011 314.139 91.654C314.139 91.297 314.088 90.974 313.986 90.685C313.748 90.022 313.272 89.546 312.711 89.342C312.388 89.223 312.082 89.189 311.776 89.189C311.47 89.189 311.147 89.24 310.824 89.376C310.28 89.614 309.787 90.022 309.549 90.685C309.447 90.974 309.396 91.297 309.396 91.654C309.396 92.011 309.447 92.351 309.549 92.64C309.77 93.286 310.263 93.762 310.824 93.966C311.147 94.085 311.453 94.136 311.776 94.136ZM311.776 93.252C311.096 93.252 310.586 92.742 310.586 91.654C310.586 90.6 311.096 90.056 311.776 90.056C312.439 90.056 312.949 90.6 312.949 91.654C312.949 92.742 312.439 93.252 311.776 93.252Z" fill="black"/>
<path d="M517.389 94.187C517.984 94.187 518.579 94.102 519.208 93.813C520.296 93.303 521.231 92.283 521.639 90.77C521.826 90.09 521.945 89.342 521.945 88.509C521.945 87.71 521.843 86.928 521.639 86.248C521.197 84.752 520.279 83.698 519.225 83.188C518.596 82.882 518.001 82.831 517.423 82.831C516.794 82.831 516.182 82.95 515.57 83.222C514.465 83.715 513.581 84.735 513.122 86.248C512.918 86.928 512.816 87.71 512.816 88.509C512.816 89.342 512.918 90.09 513.122 90.77C513.564 92.266 514.465 93.32 515.502 93.796C516.165 94.102 516.743 94.187 517.389 94.187ZM517.372 92.861C515.621 92.861 514.431 91.246 514.431 88.509C514.431 85.806 515.621 84.174 517.372 84.174C519.089 84.174 520.296 85.806 520.313 88.509C520.33 91.246 519.089 92.861 517.372 92.861ZM527.127 94V86.792H529.847V85.5H522.945V86.792H525.665V94H527.127ZM539.268 88.373V88.22C540.373 87.761 541.138 87.098 541.138 85.687C541.138 83.8 539.625 82.78 537.687 82.78C535.749 82.78 534.236 83.8 534.236 85.687C534.236 87.098 535.001 87.761 536.106 88.22V88.373C534.865 88.781 534.015 89.75 534.015 91.195C534.015 93.167 535.715 94.17 537.636 94.17C539.489 94.17 541.359 93.167 541.359 91.195C541.359 89.75 540.509 88.781 539.268 88.373ZM537.687 84.004C538.656 84.004 539.642 84.548 539.642 85.874C539.642 87.2 538.639 87.71 537.925 87.727H537.449C536.735 87.727 535.732 87.2 535.732 85.874C535.732 84.548 536.718 84.004 537.687 84.004ZM537.721 92.946C536.633 92.946 535.562 92.402 535.562 91.008C535.562 89.597 536.701 89.002 537.364 89.002H538.01C538.673 89.002 539.812 89.597 539.812 91.008C539.812 92.402 538.741 92.946 537.721 92.946ZM544.36 91.637C543.833 91.637 543.374 92.079 543.374 92.861C543.374 93.694 543.816 94.119 544.343 94.119C544.343 94.493 543.918 95.445 543.578 95.921L544.139 96.074C544.598 95.649 545.329 94.187 545.329 92.963C545.329 91.977 544.87 91.637 544.36 91.637ZM550.44 90.192C551.545 90.192 552.429 89.716 552.973 88.645L553.109 88.662C553.092 90.379 552.582 92.946 550.661 92.946C549.845 92.946 549.267 92.436 549.301 91.535H547.771C547.635 93.099 548.74 94.204 550.525 94.204C553.296 94.204 554.452 91.62 554.452 88.033C554.452 84.293 552.99 82.899 550.899 82.899C549.029 82.899 547.414 84.157 547.414 86.673C547.414 89.172 549.046 90.192 550.44 90.192ZM550.865 84.174C551.97 84.174 552.837 85.143 552.837 86.588C552.837 88.186 551.987 89.053 550.848 89.053C549.828 89.053 548.927 88.339 548.927 86.571C548.927 84.888 549.828 84.174 550.865 84.174ZM566.759 82.984L560.469 94H561.642L567.932 82.984H566.759ZM561.676 87.778C561.982 87.778 562.288 87.727 562.611 87.608C563.172 87.387 563.665 86.928 563.886 86.282C563.988 85.993 564.039 85.653 564.039 85.296C564.039 84.939 563.988 84.616 563.886 84.327C563.665 83.664 563.172 83.205 562.611 82.984C562.288 82.865 561.982 82.831 561.676 82.831C561.37 82.831 561.047 82.882 560.724 83.018C560.163 83.222 559.704 83.664 559.449 84.327C559.347 84.616 559.296 84.939 559.296 85.296C559.296 85.653 559.347 85.993 559.449 86.282C559.67 86.928 560.163 87.387 560.724 87.608C561.047 87.727 561.353 87.778 561.676 87.778ZM561.676 86.894C560.996 86.894 560.486 86.384 560.486 85.296C560.486 84.242 560.996 83.698 561.676 83.698C562.339 83.698 562.849 84.242 562.849 85.296C562.849 86.384 562.339 86.894 561.676 86.894ZM566.776 94.136C567.082 94.136 567.388 94.085 567.711 93.966C568.272 93.762 568.765 93.286 568.986 92.64C569.088 92.351 569.139 92.011 569.139 91.654C569.139 91.297 569.088 90.974 568.986 90.685C568.748 90.022 568.272 89.546 567.711 89.342C567.388 89.223 567.082 89.189 566.776 89.189C566.47 89.189 566.147 89.24 565.824 89.376C565.28 89.614 564.787 90.022 564.549 90.685C564.447 90.974 564.396 91.297 564.396 91.654C564.396 92.011 564.447 92.351 564.549 92.64C564.77 93.286 565.263 93.762 565.824 93.966C566.147 94.085 566.453 94.136 566.776 94.136ZM566.776 93.252C566.096 93.252 565.586 92.742 565.586 91.654C565.586 90.6 566.096 90.056 566.776 90.056C567.439 90.056 567.949 90.6 567.949 91.654C567.949 92.742 567.439 93.252 566.776 93.252Z" fill="black"/>
<path d="M41.665 156L40.492 144.984H38.554L35.715 154.436L32.774 144.984H30.819L29.68 156H31.108L31.703 150.067C31.839 148.758 31.805 147.517 31.72 146.65H31.924C31.992 147.143 32.162 148.146 32.553 149.353L34.746 156H36.446L38.605 149.353C38.979 148.18 39.166 147.194 39.234 146.65H39.438C39.37 147.551 39.387 148.775 39.506 150.067L40.067 156H41.665ZM43.4187 150.016H44.7957C44.6257 149.081 45.1867 148.452 46.2917 148.452C47.3287 148.452 47.8727 149.047 47.8727 150.288V150.611C45.7817 150.798 42.9937 150.951 42.9937 153.756C42.9937 154.963 43.7417 156.17 45.4927 156.17C46.9377 156.17 47.6347 155.354 47.9747 154.317H48.1277C48.0257 154.895 47.8557 155.643 47.8557 155.864V156H49.3007V150.39C49.3007 148.469 48.5697 147.33 46.4447 147.33C44.4217 147.33 43.3167 148.435 43.4187 150.016ZM46.0197 155.082C45.0677 155.082 44.3877 154.453 44.3877 153.535C44.3877 152.43 45.0337 151.631 47.8727 151.427C47.9067 151.937 47.9067 152.464 47.8727 152.974C47.7877 154.181 47.0737 155.082 46.0197 155.082ZM53.0166 156V152.243H53.7986C54.6486 152.243 54.9546 152.702 55.2096 153.467C55.5326 154.453 55.7876 155.541 56.1446 156H57.8446C57.4706 155.575 57.2666 155.116 57.0286 154.521C56.8076 153.96 56.6036 153.297 56.4846 152.991C56.1956 152.226 55.8216 151.903 54.9546 151.75V151.597C55.6856 151.444 56.1106 151.155 56.4506 150.475C56.6546 150.067 56.8076 149.608 57.0456 148.911C57.1986 148.469 57.4366 147.84 57.7766 147.5H56.1446C55.7536 148.027 55.4816 149.285 55.1416 150.169C54.8696 150.883 54.5296 151.189 53.7986 151.189H53.0166V147.5H51.5716V156H53.0166ZM65.1805 152.736L63.7695 152.719C63.8545 154.521 62.9195 155.031 62.1205 155.031C60.8285 155.031 60.0465 153.926 60.0465 151.75C60.0465 149.693 60.7775 148.503 62.0865 148.503C63.1065 148.503 63.7525 149.217 63.7355 150.662L65.1635 150.679C65.2655 148.571 64.0075 147.33 62.0865 147.33C59.5365 147.33 58.4995 149.438 58.4995 151.818C58.4995 154.351 59.5365 156.17 62.0865 156.17C64.1095 156.17 65.2145 154.759 65.1805 152.736ZM71.8779 149.183L72.0139 149.217C71.8269 150.067 71.7419 151.24 71.7249 152.464L71.7079 156H73.1189V147.5H71.7079L69.5659 151.274C68.6139 152.94 68.4099 153.739 68.0869 154.453L67.9339 154.385C68.1549 153.603 68.2229 151.971 68.2229 150.764V147.5H66.8119V156H68.2739L70.3139 152.413C71.3509 150.577 71.5549 149.914 71.8779 149.183ZM84.1499 147.5H81.9909L80.5459 152.09C80.2569 153.008 79.9679 154.164 79.7979 154.912H79.7809C79.5599 153.807 79.2029 152.668 79.0159 152.039L77.6729 147.5H75.5649L75.1739 156H76.4829L76.6359 150.798C76.6529 150.203 76.6529 149.608 76.6019 148.707H76.7719C76.9419 149.591 77.1119 150.135 77.3839 151.036L78.8119 155.932H80.5969L81.9229 151.614C82.3479 150.203 82.5689 149.523 82.6879 148.707H82.8579C82.8749 149.54 82.8409 150.271 82.8579 150.934L83.0449 156H84.4899L84.1499 147.5ZM86.4831 150.016H87.8601C87.6901 149.081 88.2511 148.452 89.3561 148.452C90.3931 148.452 90.9371 149.047 90.9371 150.288V150.611C88.8461 150.798 86.0581 150.951 86.0581 153.756C86.0581 154.963 86.8061 156.17 88.5571 156.17C90.0021 156.17 90.6991 155.354 91.0391 154.317H91.1921C91.0901 154.895 90.9201 155.643 90.9201 155.864V156H92.3651V150.39C92.3651 148.469 91.6341 147.33 89.5091 147.33C87.4861 147.33 86.3811 148.435 86.4831 150.016ZM89.0841 155.082C88.1321 155.082 87.4521 154.453 87.4521 153.535C87.4521 152.43 88.0981 151.631 90.9371 151.427C90.9711 151.937 90.9711 152.464 90.9371 152.974C90.8521 154.181 90.1381 155.082 89.0841 155.082ZM93.7011 154.827L93.7181 156.119C95.7411 156.119 96.2171 155.422 96.3531 154.249C96.4551 153.45 96.5741 150.866 96.6931 148.758H99.1411V156H100.552V147.5H95.4351C95.3331 149.744 95.2481 152.362 95.1121 153.722C94.9931 154.878 94.3131 154.827 93.7011 154.827ZM104.231 147.5H102.837V156H105.727C108.345 156 108.94 154.249 108.94 153.28C108.94 152.056 108.328 151.206 107.444 150.883C106.832 150.662 106.424 150.645 105.268 150.645H104.231V147.5ZM107.461 153.28C107.461 154.334 106.645 154.793 105.608 154.793H104.231V151.767H105.693C106.815 151.767 107.461 152.294 107.461 153.28ZM112.102 156V152.311H115.672V156H117.117V147.5H115.672V151.002H112.102V147.5H110.657V156H112.102ZM119.321 150.016H120.698C120.528 149.081 121.089 148.452 122.194 148.452C123.231 148.452 123.775 149.047 123.775 150.288V150.611C121.684 150.798 118.896 150.951 118.896 153.756C118.896 154.963 119.644 156.17 121.395 156.17C122.84 156.17 123.537 155.354 123.877 154.317H124.03C123.928 154.895 123.758 155.643 123.758 155.864V156H125.203V150.39C125.203 148.469 124.472 147.33 122.347 147.33C120.324 147.33 119.219 148.435 119.321 150.016ZM121.922 155.082C120.97 155.082 120.29 154.453 120.29 153.535C120.29 152.43 120.936 151.631 123.775 151.427C123.809 151.937 123.809 152.464 123.775 152.974C123.69 154.181 122.976 155.082 121.922 155.082ZM128.409 150.084C128.409 149.03 129.157 148.622 130.279 148.622H131.741V151.614H130.466C129.259 151.614 128.409 151.087 128.409 150.084ZM126.641 156H128.358C128.596 155.303 128.766 154.419 128.953 153.807C129.225 152.906 129.565 152.821 130.432 152.821H131.741V156H133.135V147.5H130.653C129.497 147.5 129.038 147.517 128.443 147.755C127.593 148.095 126.981 148.86 126.981 150.016C126.981 151.019 127.525 152.09 129.293 152.073V152.311C128.341 152.362 127.831 152.804 127.525 153.637C127.253 154.385 126.947 155.694 126.641 156ZM144.835 152.736L143.424 152.719C143.509 154.521 142.574 155.031 141.775 155.031C140.483 155.031 139.701 153.926 139.701 151.75C139.701 149.693 140.432 148.503 141.741 148.503C142.761 148.503 143.407 149.217 143.39 150.662L144.818 150.679C144.92 148.571 143.662 147.33 141.741 147.33C139.191 147.33 138.154 149.438 138.154 151.818C138.154 154.351 139.191 156.17 141.741 156.17C143.764 156.17 144.869 154.759 144.835 152.736ZM152.436 147.5H150.923L149.784 151.444C149.308 153.076 149.087 154.181 149.036 154.47H148.917C148.815 153.892 148.747 153.433 148.169 151.597L146.894 147.5H145.364L148.169 155.847L147.217 158.975H148.645L149.614 155.813L152.436 147.5ZM162.26 147.5H160.101L158.656 152.09C158.367 153.008 158.078 154.164 157.908 154.912H157.891C157.67 153.807 157.313 152.668 157.126 152.039L155.783 147.5H153.675L153.284 156H154.593L154.746 150.798C154.763 150.203 154.763 149.608 154.712 148.707H154.882C155.052 149.591 155.222 150.135 155.494 151.036L156.922 155.932H158.707L160.033 151.614C160.458 150.203 160.679 149.523 160.798 148.707H160.968C160.985 149.54 160.951 150.271 160.968 150.934L161.155 156H162.6L162.26 147.5ZM173.416 147.5H171.257L169.812 152.09C169.523 153.008 169.234 154.164 169.064 154.912H169.047C168.826 153.807 168.469 152.668 168.282 152.039L166.939 147.5H164.831L164.44 156H165.749L165.902 150.798C165.919 150.203 165.919 149.608 165.868 148.707H166.038C166.208 149.591 166.378 150.135 166.65 151.036L168.078 155.932H169.863L171.189 151.614C171.614 150.203 171.835 149.523 171.954 148.707H172.124C172.141 149.54 172.107 150.271 172.124 150.934L172.311 156H173.756L173.416 147.5ZM175.75 150.016H177.127C176.957 149.081 177.518 148.452 178.623 148.452C179.66 148.452 180.204 149.047 180.204 150.288V150.611C178.113 150.798 175.325 150.951 175.325 153.756C175.325 154.963 176.073 156.17 177.824 156.17C179.269 156.17 179.966 155.354 180.306 154.317H180.459C180.357 154.895 180.187 155.643 180.187 155.864V156H181.632V150.39C181.632 148.469 180.901 147.33 178.776 147.33C176.753 147.33 175.648 148.435 175.75 150.016ZM178.351 155.082C177.399 155.082 176.719 154.453 176.719 153.535C176.719 152.43 177.365 151.631 180.204 151.427C180.238 151.937 180.238 152.464 180.204 152.974C180.119 154.181 179.405 155.082 178.351 155.082Z" fill="black"/>
<path d="M258.377 154.674V156H265.024V154.674H262.457V144.984H261.284C260.91 145.97 259.941 146.786 258.513 146.871V148.282C259.533 148.282 260.468 147.67 260.91 146.684L260.978 146.701V154.674H258.377ZM268.688 149.982L268.535 149.863C268.671 149.098 268.739 148.503 268.79 147.908L268.926 146.276H272.938V144.984H267.685L267.209 150.883L268.654 151.172C268.909 150.577 269.436 150.118 270.201 150.118C271.102 150.118 272.088 150.798 272.088 152.498C272.088 154.232 271.221 154.98 270.116 154.997C269.011 155.014 268.246 154.334 268.518 152.838H267.022C266.546 154.997 267.94 156.204 269.997 156.204C271.969 156.204 273.601 155.014 273.601 152.447C273.601 149.982 272.173 148.945 270.762 148.945C269.827 148.945 269.266 149.217 268.688 149.982ZM282.1 156.187C284.293 156.187 285.636 153.994 285.602 150.509C285.619 147.024 284.276 144.831 282.117 144.831C279.924 144.831 278.564 147.024 278.581 150.509C278.564 153.994 279.924 156.187 282.1 156.187ZM282.083 154.929C280.859 154.929 280.094 153.297 280.094 150.509C280.094 147.755 280.859 146.106 282.083 146.106C283.307 146.106 284.072 147.755 284.072 150.509C284.089 153.297 283.307 154.929 282.083 154.929ZM290.932 156.187C293.125 156.187 294.468 153.994 294.434 150.509C294.451 147.024 293.108 144.831 290.949 144.831C288.756 144.831 287.396 147.024 287.413 150.509C287.396 153.994 288.756 156.187 290.932 156.187ZM290.915 154.929C289.691 154.929 288.926 153.297 288.926 150.509C288.926 147.755 289.691 146.106 290.915 146.106C292.139 146.106 292.904 147.755 292.904 150.509C292.921 153.297 292.139 154.929 290.915 154.929ZM299.764 156.187C301.957 156.187 303.3 153.994 303.266 150.509C303.283 147.024 301.94 144.831 299.781 144.831C297.588 144.831 296.228 147.024 296.245 150.509C296.228 153.994 297.588 156.187 299.764 156.187ZM299.747 154.929C298.523 154.929 297.758 153.297 297.758 150.509C297.758 147.755 298.523 146.106 299.747 146.106C300.971 146.106 301.736 147.755 301.736 150.509C301.753 153.297 300.971 154.929 299.747 154.929ZM311.834 156.187C314.027 156.187 315.37 153.994 315.336 150.509C315.353 147.024 314.01 144.831 311.851 144.831C309.658 144.831 308.298 147.024 308.315 150.509C308.298 153.994 309.658 156.187 311.834 156.187ZM311.817 154.929C310.593 154.929 309.828 153.297 309.828 150.509C309.828 147.755 310.593 146.106 311.817 146.106C313.041 146.106 313.806 147.755 313.806 150.509C313.823 153.297 313.041 154.929 311.817 154.929ZM320.666 156.187C322.859 156.187 324.202 153.994 324.168 150.509C324.185 147.024 322.842 144.831 320.683 144.831C318.49 144.831 317.13 147.024 317.147 150.509C317.13 153.994 318.49 156.187 320.666 156.187ZM320.649 154.929C319.425 154.929 318.66 153.297 318.66 150.509C318.66 147.755 319.425 146.106 320.649 146.106C321.873 146.106 322.638 147.755 322.638 150.509C322.655 153.297 321.873 154.929 320.649 154.929ZM329.498 156.187C331.691 156.187 333.034 153.994 333 150.509C333.017 147.024 331.674 144.831 329.515 144.831C327.322 144.831 325.962 147.024 325.979 150.509C325.962 153.994 327.322 156.187 329.498 156.187ZM329.481 154.929C328.257 154.929 327.492 153.297 327.492 150.509C327.492 147.755 328.257 146.106 329.481 146.106C330.705 146.106 331.47 147.755 331.47 150.509C331.487 153.297 330.705 154.929 329.481 154.929ZM342.4 156.17C342.774 156.17 343.182 156.102 343.624 155.881C344.389 155.49 345.069 154.674 345.375 153.501C345.511 152.974 345.596 152.396 345.596 151.75C345.596 151.104 345.511 150.526 345.375 149.999C345.018 148.605 344.032 147.415 342.4 147.415C340.989 147.415 340.207 148.163 339.867 149.472L339.714 149.455C339.816 148.843 339.969 148.061 339.969 147.636V147.5H338.507V159.026H339.969V155.949C339.969 155.524 339.816 154.742 339.714 154.13L339.867 154.113C340.207 155.422 340.989 156.17 342.4 156.17ZM342.043 154.963C340.836 154.963 340.037 153.773 340.037 151.75C340.037 149.761 340.836 148.537 342.043 148.537C343.233 148.537 344.151 149.761 344.151 151.75C344.151 153.773 343.233 154.963 342.043 154.963ZM353.192 147.5H351.679L350.54 151.444C350.064 153.076 349.843 154.181 349.792 154.47H349.673C349.571 153.892 349.503 153.433 348.925 151.597L347.65 147.5H346.12L348.925 155.847L347.973 158.975H349.401L350.37 155.813L353.192 147.5ZM361.108 149.812C360.751 148.452 359.697 147.5 358.15 147.5C356.858 147.5 355.634 148.282 355.362 150.084H355.107C355.039 147.925 356.025 146.633 357.844 146.055C359.187 145.63 359.884 145.528 360.445 144.984L360.292 143.624C359.374 144.219 358.575 144.321 357.13 144.882C354.121 146.072 354.24 148.809 354.138 150.798C354.138 153.467 354.529 155.082 356.076 155.847C356.654 156.136 357.266 156.17 357.742 156.17C358.218 156.17 358.694 156.102 359.17 155.881C360.02 155.49 360.768 154.674 361.108 153.501C361.261 152.974 361.346 152.396 361.346 151.75C361.346 151.104 361.295 150.492 361.108 149.812ZM357.759 154.997C356.552 154.997 355.702 153.943 355.702 151.733C355.702 149.591 356.569 148.486 357.742 148.486C358.898 148.486 359.782 149.591 359.782 151.75C359.782 153.943 358.881 154.997 357.759 154.997ZM362.192 154.827L362.209 156.119C364.232 156.119 364.708 155.422 364.844 154.249C364.946 153.45 365.065 150.866 365.184 148.758H367.632V156H369.043V147.5H363.926C363.824 149.744 363.739 152.362 363.603 153.722C363.484 154.878 362.804 154.827 362.192 154.827ZM377.435 153.178L376.024 153.161C376.024 154.521 375.174 154.997 374.29 154.997C373.1 154.997 372.165 154.079 372.148 151.835H377.333C377.384 151.529 377.401 151.206 377.401 150.917C377.401 148.962 376.398 147.33 374.239 147.33C371.825 147.33 370.669 149.302 370.669 151.818C370.669 154.232 371.74 156.17 374.205 156.17C376.16 156.17 377.384 155.048 377.435 153.178ZM374.171 148.486C375.293 148.486 375.973 149.251 375.973 150.764V150.917H372.165C372.25 149.472 372.947 148.486 374.171 148.486ZM384.247 149.183L384.383 149.217C384.196 150.067 384.111 151.24 384.094 152.464L384.077 156H385.488V147.5H384.077L381.935 151.274C380.983 152.94 380.779 153.739 380.456 154.453L380.303 154.385C380.524 153.603 380.592 151.971 380.592 150.764V147.5H379.181V156H380.643L382.683 152.413C383.72 150.577 383.924 149.914 384.247 149.183ZM380.201 145.477V146.412C380.932 146.582 381.68 146.667 382.411 146.667C383.142 146.667 383.873 146.582 384.621 146.412V145.477C383.873 145.647 383.142 145.732 382.411 145.732C381.68 145.732 380.932 145.647 380.201 145.477Z" fill="black"/>
<path d="M519.055 154.861V147.5H513.921C513.87 149.693 513.802 152.175 513.666 152.872C513.428 154.113 513.054 154.861 512.238 154.861H512.085V158.278H513.309V156H519.004V158.278H520.228V154.861H519.055ZM513.734 154.861V154.742C514.38 154.368 514.754 153.654 514.89 152.549C514.958 151.988 515.043 150.492 515.111 148.826H517.644V154.861H513.734ZM524.667 156.17C526.928 156.17 528.271 154.572 528.271 151.75C528.271 148.928 526.928 147.33 524.667 147.33C522.406 147.33 521.063 148.928 521.063 151.75C521.063 154.572 522.406 156.17 524.667 156.17ZM524.667 154.997C523.494 154.997 522.627 153.943 522.627 151.75C522.627 149.591 523.494 148.486 524.667 148.486C525.823 148.486 526.707 149.591 526.707 151.75C526.707 153.943 525.823 154.997 524.667 154.997ZM534.483 154.691V154.606C536.591 153.756 539.906 151.359 539.906 148.214C539.906 145.902 538.495 144.78 536.54 144.78C534.704 144.78 533.225 145.885 533.225 147.721C533.225 148.078 533.293 148.367 533.412 148.639H534.84C534.772 148.316 534.738 148.044 534.738 147.772C534.738 146.548 535.486 146.14 536.455 146.14C537.492 146.14 538.325 146.718 538.325 148.35C538.325 150.458 536.54 152.821 533.48 154.385V156H539.855V154.691H534.483ZM548.423 156.187C550.616 156.187 551.959 153.994 551.925 150.509C551.942 147.024 550.599 144.831 548.44 144.831C546.247 144.831 544.887 147.024 544.904 150.509C544.887 153.994 546.247 156.187 548.423 156.187ZM548.406 154.929C547.182 154.929 546.417 153.297 546.417 150.509C546.417 147.755 547.182 146.106 548.406 146.106C549.63 146.106 550.395 147.755 550.395 150.509C550.412 153.297 549.63 154.929 548.406 154.929ZM557.255 156.187C559.448 156.187 560.791 153.994 560.757 150.509C560.774 147.024 559.431 144.831 557.272 144.831C555.079 144.831 553.719 147.024 553.736 150.509C553.719 153.994 555.079 156.187 557.255 156.187ZM557.238 154.929C556.014 154.929 555.249 153.297 555.249 150.509C555.249 147.755 556.014 146.106 557.238 146.106C558.462 146.106 559.227 147.755 559.227 150.509C559.244 153.297 558.462 154.929 557.238 154.929ZM566.087 156.187C568.28 156.187 569.623 153.994 569.589 150.509C569.606 147.024 568.263 144.831 566.104 144.831C563.911 144.831 562.551 147.024 562.568 150.509C562.551 153.994 563.911 156.187 566.087 156.187ZM566.07 154.929C564.846 154.929 564.081 153.297 564.081 150.509C564.081 147.755 564.846 146.106 566.07 146.106C567.294 146.106 568.059 147.755 568.059 150.509C568.076 153.297 567.294 154.929 566.07 154.929ZM578.156 156.187C580.349 156.187 581.692 153.994 581.658 150.509C581.675 147.024 580.332 144.831 578.173 144.831C575.98 144.831 574.62 147.024 574.637 150.509C574.62 153.994 575.98 156.187 578.156 156.187ZM578.139 154.929C576.915 154.929 576.15 153.297 576.15 150.509C576.15 147.755 576.915 146.106 578.139 146.106C579.363 146.106 580.128 147.755 580.128 150.509C580.145 153.297 579.363 154.929 578.139 154.929ZM586.988 156.187C589.181 156.187 590.524 153.994 590.49 150.509C590.507 147.024 589.164 144.831 587.005 144.831C584.812 144.831 583.452 147.024 583.469 150.509C583.452 153.994 584.812 156.187 586.988 156.187ZM586.971 154.929C585.747 154.929 584.982 153.297 584.982 150.509C584.982 147.755 585.747 146.106 586.971 146.106C588.195 146.106 588.96 147.755 588.96 150.509C588.977 153.297 588.195 154.929 586.971 154.929ZM595.82 156.187C598.013 156.187 599.356 153.994 599.322 150.509C599.339 147.024 597.996 144.831 595.837 144.831C593.644 144.831 592.284 147.024 592.301 150.509C592.284 153.994 593.644 156.187 595.82 156.187ZM595.803 154.929C594.579 154.929 593.814 153.297 593.814 150.509C593.814 147.755 594.579 146.106 595.803 146.106C597.027 146.106 597.792 147.755 597.792 150.509C597.809 153.297 597.027 154.929 595.803 154.929ZM608.722 156.17C609.096 156.17 609.504 156.102 609.946 155.881C610.711 155.49 611.391 154.674 611.697 153.501C611.833 152.974 611.918 152.396 611.918 151.75C611.918 151.104 611.833 150.526 611.697 149.999C611.34 148.605 610.354 147.415 608.722 147.415C607.311 147.415 606.529 148.163 606.189 149.472L606.036 149.455C606.138 148.843 606.291 148.061 606.291 147.636V147.5H604.829V159.026H606.291V155.949C606.291 155.524 606.138 154.742 606.036 154.13L606.189 154.113C606.529 155.422 607.311 156.17 608.722 156.17ZM608.365 154.963C607.158 154.963 606.359 153.773 606.359 151.75C606.359 149.761 607.158 148.537 608.365 148.537C609.555 148.537 610.473 149.761 610.473 151.75C610.473 153.773 609.555 154.963 608.365 154.963ZM619.515 147.5H618.002L616.863 151.444C616.387 153.076 616.166 154.181 616.115 154.47H615.996C615.894 153.892 615.826 153.433 615.248 151.597L613.973 147.5H612.443L615.248 155.847L614.296 158.975H615.724L616.693 155.813L619.515 147.5ZM627.431 149.812C627.074 148.452 626.02 147.5 624.473 147.5C623.181 147.5 621.957 148.282 621.685 150.084H621.43C621.362 147.925 622.348 146.633 624.167 146.055C625.51 145.63 626.207 145.528 626.768 144.984L626.615 143.624C625.697 144.219 624.898 144.321 623.453 144.882C620.444 146.072 620.563 148.809 620.461 150.798C620.461 153.467 620.852 155.082 622.399 155.847C622.977 156.136 623.589 156.17 624.065 156.17C624.541 156.17 625.017 156.102 625.493 155.881C626.343 155.49 627.091 154.674 627.431 153.501C627.584 152.974 627.669 152.396 627.669 151.75C627.669 151.104 627.618 150.492 627.431 149.812ZM624.082 154.997C622.875 154.997 622.025 153.943 622.025 151.733C622.025 149.591 622.892 148.486 624.065 148.486C625.221 148.486 626.105 149.591 626.105 151.75C626.105 153.943 625.204 154.997 624.082 154.997ZM628.515 154.827L628.532 156.119C630.555 156.119 631.031 155.422 631.167 154.249C631.269 153.45 631.388 150.866 631.507 148.758H633.955V156H635.366V147.5H630.249C630.147 149.744 630.062 152.362 629.926 153.722C629.807 154.878 629.127 154.827 628.515 154.827ZM643.758 153.178L642.347 153.161C642.347 154.521 641.497 154.997 640.613 154.997C639.423 154.997 638.488 154.079 638.471 151.835H643.656C643.707 151.529 643.724 151.206 643.724 150.917C643.724 148.962 642.721 147.33 640.562 147.33C638.148 147.33 636.992 149.302 636.992 151.818C636.992 154.232 638.063 156.17 640.528 156.17C642.483 156.17 643.707 155.048 643.758 153.178ZM640.494 148.486C641.616 148.486 642.296 149.251 642.296 150.764V150.917H638.488C638.573 149.472 639.27 148.486 640.494 148.486ZM650.569 149.183L650.705 149.217C650.518 150.067 650.433 151.24 650.416 152.464L650.399 156H651.81V147.5H650.399L648.257 151.274C647.305 152.94 647.101 153.739 646.778 154.453L646.625 154.385C646.846 153.603 646.914 151.971 646.914 150.764V147.5H645.503V156H646.965L649.005 152.413C650.042 150.577 650.246 149.914 650.569 149.183ZM646.523 145.477V146.412C647.254 146.582 648.002 146.667 648.733 146.667C649.464 146.667 650.195 146.582 650.943 146.412V145.477C650.195 145.647 649.464 145.732 648.733 145.732C648.002 145.732 647.254 145.647 646.523 145.477Z" fill="black"/>
<path d="M30.037 214.925H31.533C31.397 213.565 32.128 213.055 33.386 213.055C34.78 213.055 35.307 213.854 35.307 214.908C35.307 216.098 34.627 216.727 33.624 216.727H32.451V218.172H33.675C34.78 218.172 35.647 218.784 35.647 220.042C35.647 221.317 34.814 221.929 33.59 221.929C32.298 221.929 31.227 221.521 31.482 220.025H29.969C29.731 222.201 31.057 223.153 33.386 223.153C35.664 223.153 37.194 222.184 37.194 220.076C37.194 218.75 36.531 217.764 35.324 217.424V217.186C36.259 216.778 36.871 215.894 36.871 214.789C36.871 212.715 35.426 211.797 33.318 211.814C31.363 211.831 29.867 212.885 30.037 214.925ZM39.3347 217.016H40.7117C40.5417 216.081 41.1027 215.452 42.2077 215.452C43.2447 215.452 43.7887 216.047 43.7887 217.288V217.611C41.6977 217.798 38.9097 217.951 38.9097 220.756C38.9097 221.963 39.6577 223.17 41.4087 223.17C42.8537 223.17 43.5507 222.354 43.8907 221.317H44.0437C43.9417 221.895 43.7717 222.643 43.7717 222.864V223H45.2167V217.39C45.2167 215.469 44.4857 214.33 42.3607 214.33C40.3377 214.33 39.2327 215.435 39.3347 217.016ZM41.9357 222.082C40.9837 222.082 40.3037 221.453 40.3037 220.535C40.3037 219.43 40.9497 218.631 43.7887 218.427C43.8227 218.937 43.8227 219.464 43.7887 219.974C43.7037 221.181 42.9897 222.082 41.9357 222.082ZM46.5526 221.827L46.5696 223.119C48.5926 223.119 49.0686 222.422 49.2046 221.249C49.3066 220.45 49.4256 217.866 49.5446 215.758H51.9926V223H53.4036V214.5H48.2866C48.1846 216.744 48.0996 219.362 47.9636 220.722C47.8446 221.878 47.1646 221.827 46.5526 221.827ZM58.6338 223.17C60.8948 223.17 62.2378 221.572 62.2378 218.75C62.2378 215.928 60.8948 214.33 58.6338 214.33C56.3728 214.33 55.0298 215.928 55.0298 218.75C55.0298 221.572 56.3728 223.17 58.6338 223.17ZM58.6338 221.997C57.4608 221.997 56.5938 220.943 56.5938 218.75C56.5938 216.591 57.4608 215.486 58.6338 215.486C59.7898 215.486 60.6738 216.591 60.6738 218.75C60.6738 220.943 59.7898 221.997 58.6338 221.997ZM65.2678 223V215.826H68.8208V214.5H63.8568V223H65.2678Z" fill="black"/>
<path d="M259.975 223V218.138H261.437C262.797 218.138 263.069 218.733 263.392 219.719C263.817 220.994 264.123 222.405 264.497 223H266.282C265.534 221.776 265.024 219.855 264.735 219.073C264.361 218.036 263.902 217.662 262.814 217.492V217.322C263.851 217.169 264.327 216.761 264.718 215.792C264.99 215.095 265.381 213.616 266.231 211.984H264.531C264.123 212.664 263.766 214.296 263.358 215.435C263.018 216.37 262.644 216.761 261.505 216.761H259.975V211.984H258.479V223H259.975ZM267.872 223H269.266H271.153C271.765 223 272.241 222.966 272.7 222.813C273.771 222.473 274.332 221.657 274.332 220.62C274.332 219.804 273.805 218.767 272.258 218.665V218.546C273.482 218.274 274.009 217.373 274.009 216.608C274.009 215.078 272.819 214.5 271.527 214.5H269.266H267.872V223ZM269.266 221.878V219.226H271.323C272.105 219.226 272.904 219.6 272.904 220.535C272.904 221.47 272.224 221.878 271.272 221.878H269.266ZM269.266 218.155V215.588H271.221C271.952 215.588 272.598 215.945 272.598 216.812C272.598 217.696 271.85 218.155 271.017 218.155H269.266ZM276.117 217.016H277.494C277.324 216.081 277.885 215.452 278.99 215.452C280.027 215.452 280.571 216.047 280.571 217.288V217.611C278.48 217.798 275.692 217.951 275.692 220.756C275.692 221.963 276.44 223.17 278.191 223.17C279.636 223.17 280.333 222.354 280.673 221.317H280.826C280.724 221.895 280.554 222.643 280.554 222.864V223H281.999V217.39C281.999 215.469 281.268 214.33 279.143 214.33C277.12 214.33 276.015 215.435 276.117 217.016ZM278.718 222.082C277.766 222.082 277.086 221.453 277.086 220.535C277.086 219.43 277.732 218.631 280.571 218.427C280.605 218.937 280.605 219.464 280.571 219.974C280.486 221.181 279.772 222.082 278.718 222.082ZM288.163 223.17C288.537 223.17 288.945 223.102 289.387 222.881C290.152 222.49 290.832 221.674 291.138 220.501C291.274 219.974 291.359 219.396 291.359 218.75C291.359 218.104 291.274 217.526 291.138 216.999C290.781 215.605 289.795 214.415 288.163 214.415C286.752 214.415 285.97 215.163 285.63 216.472L285.477 216.455C285.579 215.843 285.732 215.061 285.732 214.636V214.5H284.27V226.026H285.732V222.949C285.732 222.524 285.579 221.742 285.477 221.13L285.63 221.113C285.97 222.422 286.752 223.17 288.163 223.17ZM287.806 221.963C286.599 221.963 285.8 220.773 285.8 218.75C285.8 216.761 286.599 215.537 287.806 215.537C288.996 215.537 289.914 216.761 289.914 218.75C289.914 220.773 288.996 221.963 287.806 221.963ZM296.216 223V215.792H298.936V214.5H292.034V215.792H294.754V223H296.216ZM305.323 216.183L305.459 216.217C305.272 217.067 305.187 218.24 305.17 219.464L305.153 223H306.564V214.5H305.153L303.011 218.274C302.059 219.94 301.855 220.739 301.532 221.453L301.379 221.385C301.6 220.603 301.668 218.971 301.668 217.764V214.5H300.257V223H301.719L303.759 219.413C304.796 217.577 305 216.914 305.323 216.183ZM312.733 223.17C313.107 223.17 313.515 223.102 313.957 222.881C314.722 222.49 315.402 221.674 315.708 220.501C315.844 219.974 315.929 219.396 315.929 218.75C315.929 218.104 315.844 217.526 315.708 216.999C315.351 215.605 314.365 214.415 312.733 214.415C311.322 214.415 310.54 215.163 310.2 216.472L310.047 216.455C310.149 215.843 310.302 215.061 310.302 214.636V214.5H308.84V226.026H310.302V222.949C310.302 222.524 310.149 221.742 310.047 221.13L310.2 221.113C310.54 222.422 311.322 223.17 312.733 223.17ZM312.376 221.963C311.169 221.963 310.37 220.773 310.37 218.75C310.37 216.761 311.169 215.537 312.376 215.537C313.566 215.537 314.484 216.761 314.484 218.75C314.484 220.773 313.566 221.963 312.376 221.963ZM317.654 217.016H319.031C318.861 216.081 319.422 215.452 320.527 215.452C321.564 215.452 322.108 216.047 322.108 217.288V217.611C320.017 217.798 317.229 217.951 317.229 220.756C317.229 221.963 317.977 223.17 319.728 223.17C321.173 223.17 321.87 222.354 322.21 221.317H322.363C322.261 221.895 322.091 222.643 322.091 222.864V223H323.536V217.39C323.536 215.469 322.805 214.33 320.68 214.33C318.657 214.33 317.552 215.435 317.654 217.016ZM320.255 222.082C319.303 222.082 318.623 221.453 318.623 220.535C318.623 219.43 319.269 218.631 322.108 218.427C322.142 218.937 322.142 219.464 322.108 219.974C322.023 221.181 321.309 222.082 320.255 222.082ZM334.11 216.183L334.246 216.217C334.059 217.067 333.974 218.24 333.957 219.464L333.94 223H335.351V214.5H333.94L331.798 218.274C330.846 219.94 330.642 220.739 330.319 221.453L330.166 221.385C330.387 220.603 330.455 218.971 330.455 217.764V214.5H329.044V223H330.506L332.546 219.413C333.583 217.577 333.787 216.914 334.11 216.183ZM336.692 221.827L336.709 223.119C338.732 223.119 339.208 222.422 339.344 221.249C339.446 220.45 339.565 217.866 339.684 215.758H342.132V223H343.543V214.5H338.426C338.324 216.744 338.239 219.362 338.103 220.722C337.984 221.878 337.304 221.827 336.692 221.827ZM350.894 216.183L351.03 216.217C350.843 217.067 350.758 218.24 350.741 219.464L350.724 223H352.135V214.5H350.724L348.582 218.274C347.63 219.94 347.426 220.739 347.103 221.453L346.95 221.385C347.171 220.603 347.239 218.971 347.239 217.764V214.5H345.828V223H347.29L349.33 219.413C350.367 217.577 350.571 216.914 350.894 216.183ZM363.565 221.861V214.5H358.431C358.38 216.693 358.312 219.175 358.176 219.872C357.938 221.113 357.564 221.861 356.748 221.861H356.595V225.278H357.819V223H363.514V225.278H364.738V221.861H363.565ZM358.244 221.861V221.742C358.89 221.368 359.264 220.654 359.4 219.549C359.468 218.988 359.553 217.492 359.621 215.826H362.154V221.861H358.244ZM369.177 223.17C371.438 223.17 372.781 221.572 372.781 218.75C372.781 215.928 371.438 214.33 369.177 214.33C366.916 214.33 365.573 215.928 365.573 218.75C365.573 221.572 366.916 223.17 369.177 223.17ZM369.177 221.997C368.004 221.997 367.137 220.943 367.137 218.75C367.137 216.591 368.004 215.486 369.177 215.486C370.333 215.486 371.217 216.591 371.217 218.75C371.217 220.943 370.333 221.997 369.177 221.997ZM383.321 214.5H381.162L379.717 219.09C379.428 220.008 379.139 221.164 378.969 221.912H378.952C378.731 220.807 378.374 219.668 378.187 219.039L376.844 214.5H374.736L374.345 223H375.654L375.807 217.798C375.824 217.203 375.824 216.608 375.773 215.707H375.943C376.113 216.591 376.283 217.135 376.555 218.036L377.983 222.932H379.768L381.094 218.614C381.519 217.203 381.74 216.523 381.859 215.707H382.029C382.046 216.54 382.012 217.271 382.029 217.934L382.216 223H383.661L383.321 214.5Z" fill="black"/>
<path d="M520.058 211.984V216.829H514.975V211.984H513.479V223H514.975V218.24H520.058V223H521.554V211.984H520.058ZM530.286 220.178L528.875 220.161C528.875 221.521 528.025 221.997 527.141 221.997C525.951 221.997 525.016 221.079 524.999 218.835H530.184C530.235 218.529 530.252 218.206 530.252 217.917C530.252 215.962 529.249 214.33 527.09 214.33C524.676 214.33 523.52 216.302 523.52 218.818C523.52 221.232 524.591 223.17 527.056 223.17C529.011 223.17 530.235 222.048 530.286 220.178ZM527.022 215.486C528.144 215.486 528.824 216.251 528.824 217.764V217.917H525.016C525.101 216.472 525.798 215.486 527.022 215.486ZM535.262 223V215.792H537.982V214.5H531.08V215.792H533.8V223H535.262Z" fill="black"/>
<line x1="29" y1="57.5" x2="655" y2="57.4999" stroke="black" stroke-opacity="0.08"/>
<line x1="29" y1="118.5" x2="655" y2="118.5" stroke="black" stroke-opacity="0.08"/>
<line x1="29" y1="183.5" x2="655" y2="183.5" stroke="black" stroke-opacity="0.08"/>
<rect x="1" y="1" width="687" height="257" rx="14" stroke="white" stroke-width="2"/>
</svg>
