<svg width="323" height="342" viewBox="0 0 323 342" fill="none" xmlns="http://www.w3.org/2000/svg">
<rect x="1" y="1" width="321" height="340" rx="14" fill="white" fill-opacity="0.5"/>
<path d="M128.28 30H129.22L127.28 23.52H126.14L124.18 30H125.07L125.5 28.51H127.85L128.28 30ZM126.64 24.29H126.74C126.81 24.63 126.83 24.94 127.06 25.74L127.62 27.71H125.73L126.26 25.9C126.44 25.3 126.58 24.68 126.64 24.29ZM130.19 30H131.01H132.12C132.48 30 132.76 29.98 133.03 29.89C133.66 29.69 133.99 29.21 133.99 28.6C133.99 28.12 133.68 27.51 132.77 27.45V27.38C133.49 27.22 133.8 26.69 133.8 26.24C133.8 25.34 133.1 25 132.34 25H131.01H130.19V30ZM131.01 29.34V27.78H132.22C132.68 27.78 133.15 28 133.15 28.55C133.15 29.1 132.75 29.34 132.19 29.34H131.01ZM131.01 27.15V25.64H132.16C132.59 25.64 132.97 25.85 132.97 26.36C132.97 26.88 132.53 27.15 132.04 27.15H131.01ZM136.98 30V25.76H138.58V25H134.52V25.76H136.12V30H136.98ZM141.09 30.1C142.42 30.1 143.21 29.16 143.21 27.5C143.21 25.84 142.42 24.9 141.09 24.9C139.76 24.9 138.97 25.84 138.97 27.5C138.97 29.16 139.76 30.1 141.09 30.1ZM141.09 29.41C140.4 29.41 139.89 28.79 139.89 27.5C139.89 26.23 140.4 25.58 141.09 25.58C141.77 25.58 142.29 26.23 142.29 27.5C142.29 28.79 141.77 29.41 141.09 29.41ZM145.012 30V27.79H145.472C145.972 27.79 146.152 28.06 146.302 28.51C146.492 29.09 146.642 29.73 146.852 30H147.852C147.632 29.75 147.512 29.48 147.372 29.13C147.242 28.8 147.122 28.41 147.052 28.23C146.882 27.78 146.662 27.59 146.152 27.5V27.41C146.582 27.32 146.832 27.15 147.032 26.75C147.152 26.51 147.242 26.24 147.382 25.83C147.472 25.57 147.612 25.2 147.812 25H146.852C146.622 25.31 146.462 26.05 146.262 26.57C146.102 26.99 145.902 27.17 145.472 27.17H145.012V25H144.162V30H145.012ZM150.915 30.1C151.135 30.1 151.375 30.06 151.635 29.93C152.085 29.7 152.485 29.22 152.665 28.53C152.745 28.22 152.795 27.88 152.795 27.5C152.795 27.12 152.745 26.78 152.665 26.47C152.455 25.65 151.875 24.95 150.915 24.95C150.085 24.95 149.625 25.39 149.425 26.16L149.335 26.15C149.395 25.79 149.485 25.33 149.485 25.08V25H148.625V31.78H149.485V29.97C149.485 29.72 149.395 29.26 149.335 28.9L149.425 28.89C149.625 29.66 150.085 30.1 150.915 30.1ZM150.705 29.39C149.995 29.39 149.525 28.69 149.525 27.5C149.525 26.33 149.995 25.61 150.705 25.61C151.405 25.61 151.945 26.33 151.945 27.5C151.945 28.69 151.405 29.39 150.705 29.39ZM157.54 28.34L156.71 28.33C156.71 29.13 156.21 29.41 155.69 29.41C154.99 29.41 154.44 28.87 154.43 27.55H157.48C157.51 27.37 157.52 27.18 157.52 27.01C157.52 25.86 156.93 24.9 155.66 24.9C154.24 24.9 153.56 26.06 153.56 27.54C153.56 28.96 154.19 30.1 155.64 30.1C156.79 30.1 157.51 29.44 157.54 28.34ZM155.62 25.58C156.28 25.58 156.68 26.03 156.68 26.92V27.01H154.44C154.49 26.16 154.9 25.58 155.62 25.58ZM162.144 29.33V25H159.124C159.094 26.29 159.054 27.75 158.974 28.16C158.834 28.89 158.614 29.33 158.134 29.33H158.044V31.34H158.764V30H162.114V31.34H162.834V29.33H162.144ZM159.014 29.33V29.26C159.394 29.04 159.614 28.62 159.694 27.97C159.734 27.64 159.784 26.76 159.824 25.78H161.314V29.33H159.014ZM166.595 25.99L166.675 26.01C166.565 26.51 166.515 27.2 166.505 27.92L166.495 30H167.325V25H166.495L165.235 27.22C164.675 28.2 164.555 28.67 164.365 29.09L164.275 29.05C164.405 28.59 164.445 27.63 164.445 26.92V25H163.615V30H164.475L165.675 27.89C166.285 26.81 166.405 26.42 166.595 25.99ZM170.564 30V25.76H172.164V25H168.104V25.76H169.704V30H170.564Z" fill="black" fill-opacity="0.8"/>
<path d="M23.43 69.52H18.87V76H19.75V70.3H22.55V76H23.43V69.52ZM27.1612 76.1C27.3812 76.1 27.6212 76.06 27.8812 75.93C28.3312 75.7 28.7312 75.22 28.9112 74.53C28.9912 74.22 29.0412 73.88 29.0412 73.5C29.0412 73.12 28.9912 72.78 28.9112 72.47C28.7012 71.65 28.1212 70.95 27.1612 70.95C26.3312 70.95 25.8712 71.39 25.6712 72.16L25.5812 72.15C25.6412 71.79 25.7312 71.33 25.7312 71.08V71H24.8712V77.78H25.7312V75.97C25.7312 75.72 25.6412 75.26 25.5812 74.9L25.6712 74.89C25.8712 75.66 26.3312 76.1 27.1612 76.1ZM26.9512 75.39C26.2412 75.39 25.7712 74.69 25.7712 73.5C25.7712 72.33 26.2412 71.61 26.9512 71.61C27.6512 71.61 28.1912 72.33 28.1912 73.5C28.1912 74.69 27.6512 75.39 26.9512 75.39ZM31.9258 76.1C33.2558 76.1 34.0458 75.16 34.0458 73.5C34.0458 71.84 33.2558 70.9 31.9258 70.9C30.5958 70.9 29.8058 71.84 29.8058 73.5C29.8058 75.16 30.5958 76.1 31.9258 76.1ZM31.9258 75.41C31.2358 75.41 30.7258 74.79 30.7258 73.5C30.7258 72.23 31.2358 71.58 31.9258 71.58C32.6058 71.58 33.1258 72.23 33.1258 73.5C33.1258 74.79 32.6058 75.41 31.9258 75.41ZM34.9981 71V76H38.6381V77.44H39.3081V75.33H38.7281V71H37.8981V75.33H35.8281V71H34.9981ZM43.903 74.34L43.073 74.33C43.073 75.13 42.573 75.41 42.053 75.41C41.353 75.41 40.803 74.87 40.793 73.55H43.843C43.873 73.37 43.883 73.18 43.883 73.01C43.883 71.86 43.293 70.9 42.023 70.9C40.603 70.9 39.923 72.06 39.923 73.54C39.923 74.96 40.553 76.1 42.003 76.1C43.153 76.1 43.873 75.44 43.903 74.34ZM41.983 71.58C42.643 71.58 43.043 72.03 43.043 72.92V73.01H40.803C40.853 72.16 41.263 71.58 41.983 71.58ZM45.7798 76V73.83H47.8798V76H48.7298V71H47.8798V73.06H45.7798V71H44.9298V76H45.7798ZM51.9665 76V71.76H53.5665V71H49.5065V71.76H51.1065V76H51.9665ZM55.1938 76V73.83H57.2938V76H58.1438V71H57.2938V73.06H55.1938V71H54.3438V76H55.1938ZM59.4405 72.48H60.2505C60.1505 71.93 60.4805 71.56 61.1305 71.56C61.7405 71.56 62.0605 71.91 62.0605 72.64V72.83C60.8305 72.94 59.1905 73.03 59.1905 74.68C59.1905 75.39 59.6305 76.1 60.6605 76.1C61.5105 76.1 61.9205 75.62 62.1205 75.01H62.2105C62.1505 75.35 62.0505 75.79 62.0505 75.92V76H62.9005V72.7C62.9005 71.57 62.4705 70.9 61.2205 70.9C60.0305 70.9 59.3805 71.55 59.4405 72.48ZM60.9705 75.46C60.4105 75.46 60.0105 75.09 60.0105 74.55C60.0105 73.9 60.3905 73.43 62.0605 73.31C62.0805 73.61 62.0805 73.92 62.0605 74.22C62.0105 74.93 61.5905 75.46 60.9705 75.46ZM64.7864 72.52C64.7864 71.9 65.2264 71.66 65.8864 71.66H66.7464V73.42H65.9964C65.2864 73.42 64.7864 73.11 64.7864 72.52ZM63.7464 76H64.7564C64.8964 75.59 64.9964 75.07 65.1064 74.71C65.2664 74.18 65.4664 74.13 65.9764 74.13H66.7464V76H67.5664V71H66.1064C65.4264 71 65.1564 71.01 64.8064 71.15C64.3064 71.35 63.9464 71.8 63.9464 72.48C63.9464 73.07 64.2664 73.7 65.3064 73.69V73.83C64.7464 73.86 64.4464 74.12 64.2664 74.61C64.1064 75.05 63.9264 75.82 63.7464 76ZM22.31 89.08L21.48 89.07C21.53 90.13 20.98 90.43 20.51 90.43C19.75 90.43 19.29 89.78 19.29 88.5C19.29 87.29 19.72 86.59 20.49 86.59C21.09 86.59 21.47 87.01 21.46 87.86L22.3 87.87C22.36 86.63 21.62 85.9 20.49 85.9C18.99 85.9 18.38 87.14 18.38 88.54C18.38 90.03 18.99 91.1 20.49 91.1C21.68 91.1 22.33 90.27 22.31 89.08ZM25.1696 91V86.76H26.7696V86H22.7096V86.76H24.3096V91H25.1696ZM27.4191 87.48H28.2291C28.1291 86.93 28.4591 86.56 29.1091 86.56C29.7191 86.56 30.0391 86.91 30.0391 87.64V87.83C28.8091 87.94 27.1691 88.03 27.1691 89.68C27.1691 90.39 27.6091 91.1 28.6391 91.1C29.4891 91.1 29.8991 90.62 30.0991 90.01H30.1891C30.1291 90.35 30.0291 90.79 30.0291 90.92V91H30.8791V87.7C30.8791 86.57 30.4491 85.9 29.1991 85.9C28.0091 85.9 27.3591 86.55 27.4191 87.48ZM28.9491 90.46C28.3891 90.46 27.9891 90.09 27.9891 89.55C27.9891 88.9 28.3691 88.43 30.0391 88.31C30.0591 88.61 30.0591 88.92 30.0391 89.22C29.9891 89.93 29.5691 90.46 28.9491 90.46ZM32.3349 91H33.1549H34.2649C34.6249 91 34.9049 90.98 35.1749 90.89C35.8049 90.69 36.1349 90.21 36.1349 89.6C36.1349 89.12 35.8249 88.51 34.9149 88.45V88.38C35.6349 88.22 35.9449 87.69 35.9449 87.24C35.9449 86.34 35.2449 86 34.4849 86H33.1549H32.3349V91ZM33.1549 90.34V88.78H34.3649C34.8249 88.78 35.2949 89 35.2949 89.55C35.2949 90.1 34.8949 90.34 34.3349 90.34H33.1549ZM33.1549 88.15V86.64H34.3049C34.7349 86.64 35.1149 86.85 35.1149 87.36C35.1149 87.88 34.6749 88.15 34.1849 88.15H33.1549ZM38.0747 91V88.79H38.5347C39.0347 88.79 39.2147 89.06 39.3647 89.51C39.5547 90.09 39.7047 90.73 39.9147 91H40.9147C40.6947 90.75 40.5747 90.48 40.4347 90.13C40.3047 89.8 40.1847 89.41 40.1147 89.23C39.9447 88.78 39.7247 88.59 39.2147 88.5V88.41C39.6447 88.32 39.8947 88.15 40.0947 87.75C40.2147 87.51 40.3047 87.24 40.4447 86.83C40.5347 86.57 40.6747 86.2 40.8747 86H39.9147C39.6847 86.31 39.5247 87.05 39.3247 87.57C39.1647 87.99 38.9647 88.17 38.5347 88.17H38.0747V86H37.2247V91H38.0747ZM41.5499 87.48H42.3599C42.2599 86.93 42.5899 86.56 43.2399 86.56C43.8499 86.56 44.1699 86.91 44.1699 87.64V87.83C42.9399 87.94 41.2999 88.03 41.2999 89.68C41.2999 90.39 41.7399 91.1 42.7699 91.1C43.6199 91.1 44.0299 90.62 44.2299 90.01H44.3199C44.2599 90.35 44.1599 90.79 44.1599 90.92V91H45.0099V87.7C45.0099 86.57 44.5799 85.9 43.3299 85.9C42.1399 85.9 41.4899 86.55 41.5499 87.48ZM43.0799 90.46C42.5199 90.46 42.1199 90.09 42.1199 89.55C42.1199 88.9 42.4999 88.43 44.1699 88.31C44.1899 88.61 44.1899 88.92 44.1699 89.22C44.1199 89.93 43.6999 90.46 43.0799 90.46Z" fill="black" fill-opacity="0.8"/>
<path d="M127.804 85.132C128.224 85.132 128.644 85.072 129.088 84.868C129.856 84.508 130.516 83.788 130.804 82.72C130.936 82.24 131.02 81.712 131.02 81.124C131.02 80.56 130.948 80.008 130.804 79.528C130.492 78.472 129.844 77.728 129.1 77.368C128.656 77.152 128.236 77.116 127.828 77.116C127.384 77.116 126.952 77.2 126.52 77.392C125.74 77.74 125.116 78.46 124.792 79.528C124.648 80.008 124.576 80.56 124.576 81.124C124.576 81.712 124.648 82.24 124.792 82.72C125.104 83.776 125.74 84.52 126.472 84.856C126.94 85.072 127.348 85.132 127.804 85.132ZM127.792 84.196C126.556 84.196 125.716 83.056 125.716 81.124C125.716 79.216 126.556 78.064 127.792 78.064C129.004 78.064 129.856 79.216 129.868 81.124C129.88 83.056 129.004 84.196 127.792 84.196ZM134.678 85V79.912H136.598V79H131.726V79.912H133.646V85H134.678ZM142.42 79.948C141.64 79.948 141.016 80.284 140.632 81.04L140.536 81.028C140.548 79.816 140.908 78.004 142.264 78.004C142.84 78.004 143.248 78.364 143.224 79H144.304C144.4 77.896 143.62 77.116 142.36 77.116C140.404 77.116 139.588 78.94 139.588 81.472C139.588 84.112 140.62 85.096 142.096 85.096C143.416 85.096 144.556 84.208 144.556 82.432C144.556 80.668 143.404 79.948 142.42 79.948ZM142.12 84.196C141.34 84.196 140.728 83.512 140.728 82.492C140.728 81.364 141.328 80.752 142.132 80.752C142.852 80.752 143.488 81.256 143.488 82.504C143.488 83.692 142.852 84.196 142.12 84.196ZM146.842 83.332C146.47 83.332 146.146 83.644 146.146 84.196C146.146 84.784 146.458 85.084 146.83 85.084C146.83 85.348 146.53 86.02 146.29 86.356L146.686 86.464C147.01 86.164 147.526 85.132 147.526 84.268C147.526 83.572 147.202 83.332 146.842 83.332ZM151.134 82.312C151.914 82.312 152.538 81.976 152.922 81.22L153.018 81.232C153.006 82.444 152.646 84.256 151.29 84.256C150.714 84.256 150.306 83.896 150.33 83.26H149.25C149.154 84.364 149.934 85.144 151.194 85.144C153.15 85.144 153.966 83.32 153.966 80.788C153.966 78.148 152.934 77.164 151.458 77.164C150.138 77.164 148.998 78.052 148.998 79.828C148.998 81.592 150.15 82.312 151.134 82.312ZM151.434 78.064C152.214 78.064 152.826 78.748 152.826 79.768C152.826 80.896 152.226 81.508 151.422 81.508C150.702 81.508 150.066 81.004 150.066 79.756C150.066 78.568 150.702 78.064 151.434 78.064ZM162.653 77.224L158.213 85H159.041L163.481 77.224H162.653ZM159.065 80.608C159.281 80.608 159.497 80.572 159.725 80.488C160.121 80.332 160.469 80.008 160.625 79.552C160.697 79.348 160.733 79.108 160.733 78.856C160.733 78.604 160.697 78.376 160.625 78.172C160.469 77.704 160.121 77.38 159.725 77.224C159.497 77.14 159.281 77.116 159.065 77.116C158.849 77.116 158.621 77.152 158.393 77.248C157.997 77.392 157.673 77.704 157.493 78.172C157.421 78.376 157.385 78.604 157.385 78.856C157.385 79.108 157.421 79.348 157.493 79.552C157.649 80.008 157.997 80.332 158.393 80.488C158.621 80.572 158.837 80.608 159.065 80.608ZM159.065 79.984C158.585 79.984 158.225 79.624 158.225 78.856C158.225 78.112 158.585 77.728 159.065 77.728C159.533 77.728 159.893 78.112 159.893 78.856C159.893 79.624 159.533 79.984 159.065 79.984ZM162.665 85.096C162.881 85.096 163.097 85.06 163.325 84.976C163.721 84.832 164.069 84.496 164.225 84.04C164.297 83.836 164.333 83.596 164.333 83.344C164.333 83.092 164.297 82.864 164.225 82.66C164.057 82.192 163.721 81.856 163.325 81.712C163.097 81.628 162.881 81.604 162.665 81.604C162.449 81.604 162.221 81.64 161.993 81.736C161.609 81.904 161.261 82.192 161.093 82.66C161.021 82.864 160.985 83.092 160.985 83.344C160.985 83.596 161.021 83.836 161.093 84.04C161.249 84.496 161.597 84.832 161.993 84.976C162.221 85.06 162.437 85.096 162.665 85.096ZM162.665 84.472C162.185 84.472 161.825 84.112 161.825 83.344C161.825 82.6 162.185 82.216 162.665 82.216C163.133 82.216 163.493 82.6 163.493 83.344C163.493 84.112 163.133 84.472 162.665 84.472Z" fill="black" fill-opacity="0.8"/>
<path d="M124.948 148.66H125.992C125.956 148.48 125.944 148.312 125.944 148.156C125.944 147.292 126.484 146.956 127.168 146.956C127.876 146.956 128.44 147.268 128.44 148.216C128.44 149.14 127.792 149.5 127.456 149.5H126.664V150.544H127.456C127.792 150.544 128.44 150.952 128.44 151.912C128.44 152.86 127.864 153.268 127.156 153.268C126.424 153.268 125.848 152.944 125.848 152.08C125.848 151.936 125.86 151.792 125.884 151.636H124.816C124.792 151.804 124.78 151.96 124.78 152.104C124.78 153.46 125.584 154.132 127.084 154.132C128.416 154.132 129.52 153.508 129.52 152.02C129.52 151.072 129.04 150.4 128.212 150.064V149.932C129.016 149.632 129.52 149.068 129.52 148.12C129.52 146.704 128.536 146.092 127.252 146.092C125.896 146.092 124.9 146.776 124.9 148.132C124.9 148.288 124.912 148.468 124.948 148.66ZM135.484 154.132C137.032 154.132 137.98 152.584 137.956 150.124C137.968 147.664 137.02 146.116 135.496 146.116C133.948 146.116 132.988 147.664 133 150.124C132.988 152.584 133.948 154.132 135.484 154.132ZM135.472 153.244C134.608 153.244 134.068 152.092 134.068 150.124C134.068 148.18 134.608 147.016 135.472 147.016C136.336 147.016 136.876 148.18 136.876 150.124C136.888 152.092 136.336 153.244 135.472 153.244ZM141.718 154.132C143.266 154.132 144.214 152.584 144.19 150.124C144.202 147.664 143.254 146.116 141.73 146.116C140.182 146.116 139.222 147.664 139.234 150.124C139.222 152.584 140.182 154.132 141.718 154.132ZM141.706 153.244C140.842 153.244 140.302 152.092 140.302 150.124C140.302 148.18 140.842 147.016 141.706 147.016C142.57 147.016 143.11 148.18 143.11 150.124C143.122 152.092 142.57 153.244 141.706 153.244ZM147.952 154.132C149.5 154.132 150.448 152.584 150.424 150.124C150.436 147.664 149.488 146.116 147.964 146.116C146.416 146.116 145.456 147.664 145.468 150.124C145.456 152.584 146.416 154.132 147.952 154.132ZM147.94 153.244C147.076 153.244 146.536 152.092 146.536 150.124C146.536 148.18 147.076 147.016 147.94 147.016C148.804 147.016 149.344 148.18 149.344 150.124C149.356 152.092 148.804 153.244 147.94 153.244ZM156.472 154.132C158.02 154.132 158.968 152.584 158.944 150.124C158.956 147.664 158.008 146.116 156.484 146.116C154.936 146.116 153.976 147.664 153.988 150.124C153.976 152.584 154.936 154.132 156.472 154.132ZM156.46 153.244C155.596 153.244 155.056 152.092 155.056 150.124C155.056 148.18 155.596 147.016 156.46 147.016C157.324 147.016 157.864 148.18 157.864 150.124C157.876 152.092 157.324 153.244 156.46 153.244ZM162.706 154.132C164.254 154.132 165.202 152.584 165.178 150.124C165.19 147.664 164.242 146.116 162.718 146.116C161.17 146.116 160.21 147.664 160.222 150.124C160.21 152.584 161.17 154.132 162.706 154.132ZM162.694 153.244C161.83 153.244 161.29 152.092 161.29 150.124C161.29 148.18 161.83 147.016 162.694 147.016C163.558 147.016 164.098 148.18 164.098 150.124C164.11 152.092 163.558 153.244 162.694 153.244ZM168.941 154.132C170.489 154.132 171.437 152.584 171.413 150.124C171.425 147.664 170.477 146.116 168.953 146.116C167.405 146.116 166.445 147.664 166.457 150.124C166.445 152.584 167.405 154.132 168.941 154.132ZM168.929 153.244C168.065 153.244 167.525 152.092 167.525 150.124C167.525 148.18 168.065 147.016 168.929 147.016C169.793 147.016 170.333 148.18 170.333 150.124C170.345 152.092 169.793 153.244 168.929 153.244ZM178.84 151.756H176.824V151.264H177.016C177.628 151.264 179.092 151.264 179.824 150.196C180.088 149.812 180.256 149.392 180.256 148.804C180.256 147.376 179.344 146.752 178.624 146.572C178.084 146.44 177.628 146.44 177.34 146.44H175.792V150.448H174.88V151.252H175.708V151.264H175.792V151.756H174.88V152.512H175.792V154H176.824V152.512H178.84V151.756ZM177.232 147.316C177.724 147.316 177.964 147.328 178.252 147.436C178.816 147.652 179.152 148.156 179.152 148.828C179.152 149.536 178.816 150.052 178.276 150.292C178 150.412 177.652 150.448 177.28 150.448H176.824V147.316H177.232Z" fill="black" fill-opacity="0.8"/>
<path d="M126.016 228.752L125.908 228.668C126.004 228.128 126.052 227.708 126.088 227.288L126.184 226.136H129.016V225.224H125.308L124.972 229.388L125.992 229.592C126.172 229.172 126.544 228.848 127.084 228.848C127.72 228.848 128.416 229.328 128.416 230.528C128.416 231.752 127.804 232.28 127.024 232.292C126.244 232.304 125.704 231.824 125.896 230.768H124.84C124.504 232.292 125.488 233.144 126.94 233.144C128.332 233.144 129.484 232.304 129.484 230.492C129.484 228.752 128.476 228.02 127.48 228.02C126.82 228.02 126.424 228.212 126.016 228.752ZM132.664 232.172L132.676 233.084C134.104 233.084 134.44 232.592 134.536 231.764C134.608 231.2 134.692 229.376 134.776 227.888H136.504V233H137.5V227H133.888C133.816 228.584 133.756 230.432 133.66 231.392C133.576 232.208 133.096 232.172 132.664 232.172ZM143.423 231.008L142.427 230.996C142.427 231.956 141.827 232.292 141.203 232.292C140.363 232.292 139.703 231.644 139.691 230.06H143.351C143.387 229.844 143.399 229.616 143.399 229.412C143.399 228.032 142.691 226.88 141.167 226.88C139.463 226.88 138.647 228.272 138.647 230.048C138.647 231.752 139.403 233.12 141.143 233.12C142.523 233.12 143.387 232.328 143.423 231.008ZM141.119 227.696C141.911 227.696 142.391 228.236 142.391 229.304V229.412H139.703C139.763 228.392 140.255 227.696 141.119 227.696ZM146.936 233V227.912H148.856V227H143.984V227.912H145.904V233H146.936Z" fill="black" fill-opacity="0.8"/>
<path d="M126.1 291V287.568H127.132C128.092 287.568 128.284 287.988 128.512 288.684C128.812 289.584 129.028 290.58 129.292 291H130.552C130.024 290.136 129.664 288.78 129.46 288.228C129.196 287.496 128.872 287.232 128.104 287.112V286.992C128.836 286.884 129.172 286.596 129.448 285.912C129.64 285.42 129.916 284.376 130.516 283.224H129.316C129.028 283.704 128.776 284.856 128.488 285.66C128.248 286.32 127.984 286.596 127.18 286.596H126.1V283.224H125.044V291H126.1ZM135.979 285H134.911L134.107 287.784C133.771 288.936 133.615 289.716 133.579 289.92H133.495C133.423 289.512 133.375 289.188 132.967 287.892L132.067 285H130.987L132.967 290.892L132.295 293.1H133.303L133.987 290.868L135.979 285ZM137.777 291V285.828H140.117V291H141.137V285H136.757V291H137.777ZM142.085 290.172L142.097 291.084C143.525 291.084 143.861 290.592 143.957 289.764C144.029 289.2 144.113 287.376 144.197 285.888H145.925V291H146.921V285H143.309C143.237 286.584 143.177 288.432 143.081 289.392C142.997 290.208 142.517 290.172 142.085 290.172ZM152.845 289.008L151.849 288.996C151.849 289.956 151.249 290.292 150.625 290.292C149.785 290.292 149.125 289.644 149.113 288.06H152.773C152.809 287.844 152.821 287.616 152.821 287.412C152.821 286.032 152.113 284.88 150.589 284.88C148.885 284.88 148.069 286.272 148.069 288.048C148.069 289.752 148.825 291.12 150.565 291.12C151.945 291.12 152.809 290.328 152.845 289.008ZM150.541 285.696C151.333 285.696 151.813 286.236 151.813 287.304V287.412H149.125C149.185 286.392 149.677 285.696 150.541 285.696ZM155.097 291V288.396H157.617V291H158.637V285H157.617V287.472H155.097V285H154.077V291H155.097ZM161.262 291V288.396H163.782V291H164.802V285H163.782V287.472H161.262V285H160.242V291H161.262ZM167.39 285H166.406V291H168.446C170.294 291 170.714 289.764 170.714 289.08C170.714 288.216 170.282 287.616 169.658 287.388C169.226 287.232 168.938 287.22 168.122 287.22H167.39V285ZM172.562 291V285H171.542V291H172.562ZM169.67 289.08C169.67 289.824 169.094 290.148 168.362 290.148H167.39V288.012H168.422C169.214 288.012 169.67 288.384 169.67 289.08ZM177.751 286.188L177.847 286.212C177.715 286.812 177.655 287.64 177.643 288.504L177.631 291H178.627V285H177.631L176.119 287.664C175.447 288.84 175.303 289.404 175.075 289.908L174.967 289.86C175.123 289.308 175.171 288.156 175.171 287.304V285H174.175V291H175.207L176.647 288.468C177.379 287.172 177.523 286.704 177.751 286.188ZM174.895 283.572V284.232C175.411 284.352 175.939 284.412 176.455 284.412C176.971 284.412 177.487 284.352 178.015 284.232V283.572C177.487 283.692 176.971 283.752 176.455 283.752C175.939 283.752 175.411 283.692 174.895 283.572ZM124.756 304.776H125.728C125.608 304.116 126.004 303.672 126.784 303.672C127.516 303.672 127.9 304.092 127.9 304.968V305.196C126.424 305.328 124.456 305.436 124.456 307.416C124.456 308.268 124.984 309.12 126.22 309.12C127.24 309.12 127.732 308.544 127.972 307.812H128.08C128.008 308.22 127.888 308.748 127.888 308.904V309H128.908V305.04C128.908 303.684 128.392 302.88 126.892 302.88C125.464 302.88 124.684 303.66 124.756 304.776ZM126.592 308.352C125.92 308.352 125.44 307.908 125.44 307.26C125.44 306.48 125.896 305.916 127.9 305.772C127.924 306.132 127.924 306.504 127.9 306.864C127.84 307.716 127.336 308.352 126.592 308.352ZM130.655 309H131.639H132.971C133.403 309 133.739 308.976 134.063 308.868C134.819 308.628 135.215 308.052 135.215 307.32C135.215 306.744 134.843 306.012 133.751 305.94V305.856C134.615 305.664 134.987 305.028 134.987 304.488C134.987 303.408 134.147 303 133.235 303H131.639H130.655V309ZM131.639 308.208V306.336H133.091C133.643 306.336 134.207 306.6 134.207 307.26C134.207 307.92 133.727 308.208 133.055 308.208H131.639ZM131.639 305.58V303.768H133.019C133.535 303.768 133.991 304.02 133.991 304.632C133.991 305.256 133.463 305.58 132.875 305.58H131.639ZM138.803 309V303.912H140.723V303H135.851V303.912H137.771V309H138.803ZM143.734 309.12C145.33 309.12 146.278 307.992 146.278 306C146.278 304.008 145.33 302.88 143.734 302.88C142.138 302.88 141.19 304.008 141.19 306C141.19 307.992 142.138 309.12 143.734 309.12ZM143.734 308.292C142.906 308.292 142.294 307.548 142.294 306C142.294 304.476 142.906 303.696 143.734 303.696C144.55 303.696 145.174 304.476 145.174 306C145.174 307.548 144.55 308.292 143.734 308.292ZM153.718 303H152.194L151.174 306.24C150.97 306.888 150.766 307.704 150.646 308.232H150.634C150.478 307.452 150.226 306.648 150.094 306.204L149.146 303H147.658L147.382 309H148.306L148.414 305.328C148.426 304.908 148.426 304.488 148.39 303.852H148.51C148.63 304.476 148.75 304.86 148.942 305.496L149.95 308.952H151.21L152.146 305.904C152.446 304.908 152.602 304.428 152.686 303.852H152.806C152.818 304.44 152.794 304.956 152.806 305.424L152.938 309H153.958L153.718 303ZM157.609 309.12C159.205 309.12 160.153 307.992 160.153 306C160.153 304.008 159.205 302.88 157.609 302.88C156.013 302.88 155.065 304.008 155.065 306C155.065 307.992 156.013 309.12 157.609 309.12ZM157.609 308.292C156.781 308.292 156.169 307.548 156.169 306C156.169 304.476 156.781 303.696 157.609 303.696C158.425 303.696 159.049 304.476 159.049 306C159.049 307.548 158.425 308.292 157.609 308.292ZM166.105 304.632C165.853 303.672 165.109 303 164.017 303C163.105 303 162.241 303.552 162.049 304.824H161.869C161.821 303.3 162.517 302.388 163.801 301.98C164.749 301.68 165.241 301.608 165.637 301.224L165.529 300.264C164.881 300.684 164.317 300.756 163.297 301.152C161.173 301.992 161.257 303.924 161.185 305.328C161.185 307.212 161.461 308.352 162.553 308.892C162.961 309.096 163.393 309.12 163.729 309.12C164.065 309.12 164.401 309.072 164.737 308.916C165.337 308.64 165.865 308.064 166.105 307.236C166.213 306.864 166.273 306.456 166.273 306C166.273 305.544 166.237 305.112 166.105 304.632ZM163.741 308.292C162.889 308.292 162.289 307.548 162.289 305.988C162.289 304.476 162.901 303.696 163.729 303.696C164.545 303.696 165.169 304.476 165.169 306C165.169 307.548 164.533 308.292 163.741 308.292ZM170.989 304.188L171.085 304.212C170.953 304.812 170.893 305.64 170.881 306.504L170.869 309H171.865V303H170.869L169.357 305.664C168.685 306.84 168.541 307.404 168.313 307.908L168.205 307.86C168.361 307.308 168.409 306.156 168.409 305.304V303H167.413V309H168.445L169.885 306.468C170.617 305.172 170.761 304.704 170.989 304.188ZM172.812 308.172L172.824 309.084C174.252 309.084 174.588 308.592 174.684 307.764C174.756 307.2 174.84 305.376 174.924 303.888H176.652V309H177.648V303H174.036C173.964 304.584 173.904 306.432 173.808 307.392C173.724 308.208 173.244 308.172 172.812 308.172ZM180.245 303H179.261V309H181.301C183.149 309 183.569 307.764 183.569 307.08C183.569 306.216 183.137 305.616 182.513 305.388C182.081 305.232 181.793 305.22 180.977 305.22H180.245V303ZM182.525 307.08C182.525 307.824 181.949 308.148 181.217 308.148H180.245V306.012H181.277C182.069 306.012 182.525 306.384 182.525 307.08Z" fill="black" fill-opacity="0.8"/>
<path d="M226.644 153.076V153.016C228.132 152.416 230.472 150.724 230.472 148.504C230.472 146.872 229.476 146.08 228.096 146.08C226.8 146.08 225.756 146.86 225.756 148.156C225.756 148.408 225.804 148.612 225.888 148.804H226.896C226.848 148.576 226.824 148.384 226.824 148.192C226.824 147.328 227.352 147.04 228.036 147.04C228.768 147.04 229.356 147.448 229.356 148.6C229.356 150.088 228.096 151.756 225.936 152.86V154H230.436V153.076H226.644ZM236.484 154.132C238.032 154.132 238.98 152.584 238.956 150.124C238.968 147.664 238.02 146.116 236.496 146.116C234.948 146.116 233.988 147.664 234 150.124C233.988 152.584 234.948 154.132 236.484 154.132ZM236.472 153.244C235.608 153.244 235.068 152.092 235.068 150.124C235.068 148.18 235.608 147.016 236.472 147.016C237.336 147.016 237.876 148.18 237.876 150.124C237.888 152.092 237.336 153.244 236.472 153.244ZM242.718 154.132C244.266 154.132 245.214 152.584 245.19 150.124C245.202 147.664 244.254 146.116 242.73 146.116C241.182 146.116 240.222 147.664 240.234 150.124C240.222 152.584 241.182 154.132 242.718 154.132ZM242.706 153.244C241.842 153.244 241.302 152.092 241.302 150.124C241.302 148.18 241.842 147.016 242.706 147.016C243.57 147.016 244.11 148.18 244.11 150.124C244.122 152.092 243.57 153.244 242.706 153.244ZM248.952 154.132C250.5 154.132 251.448 152.584 251.424 150.124C251.436 147.664 250.488 146.116 248.964 146.116C247.416 146.116 246.456 147.664 246.468 150.124C246.456 152.584 247.416 154.132 248.952 154.132ZM248.94 153.244C248.076 153.244 247.536 152.092 247.536 150.124C247.536 148.18 248.076 147.016 248.94 147.016C249.804 147.016 250.344 148.18 250.344 150.124C250.356 152.092 249.804 153.244 248.94 153.244ZM257.472 154.132C259.02 154.132 259.968 152.584 259.944 150.124C259.956 147.664 259.008 146.116 257.484 146.116C255.936 146.116 254.976 147.664 254.988 150.124C254.976 152.584 255.936 154.132 257.472 154.132ZM257.46 153.244C256.596 153.244 256.056 152.092 256.056 150.124C256.056 148.18 256.596 147.016 257.46 147.016C258.324 147.016 258.864 148.18 258.864 150.124C258.876 152.092 258.324 153.244 257.46 153.244ZM263.706 154.132C265.254 154.132 266.202 152.584 266.178 150.124C266.19 147.664 265.242 146.116 263.718 146.116C262.17 146.116 261.21 147.664 261.222 150.124C261.21 152.584 262.17 154.132 263.706 154.132ZM263.694 153.244C262.83 153.244 262.29 152.092 262.29 150.124C262.29 148.18 262.83 147.016 263.694 147.016C264.558 147.016 265.098 148.18 265.098 150.124C265.11 152.092 264.558 153.244 263.694 153.244ZM269.941 154.132C271.489 154.132 272.437 152.584 272.413 150.124C272.425 147.664 271.477 146.116 269.953 146.116C268.405 146.116 267.445 147.664 267.457 150.124C267.445 152.584 268.405 154.132 269.941 154.132ZM269.929 153.244C269.065 153.244 268.525 152.092 268.525 150.124C268.525 148.18 269.065 147.016 269.929 147.016C270.793 147.016 271.333 148.18 271.333 150.124C271.345 152.092 270.793 153.244 269.929 153.244ZM279.84 151.756H277.824V151.264H278.016C278.628 151.264 280.092 151.264 280.824 150.196C281.088 149.812 281.256 149.392 281.256 148.804C281.256 147.376 280.344 146.752 279.624 146.572C279.084 146.44 278.628 146.44 278.34 146.44H276.792V150.448H275.88V151.252H276.708V151.264H276.792V151.756H275.88V152.512H276.792V154H277.824V152.512H279.84V151.756ZM278.232 147.316C278.724 147.316 278.964 147.328 279.252 147.436C279.816 147.652 280.152 148.156 280.152 148.828C280.152 149.536 279.816 150.052 279.276 150.292C279 150.412 278.652 150.448 278.28 150.448H277.824V147.316H278.232Z" fill="black" fill-opacity="0.8"/>
<line x1="18" y1="50.5" x2="305" y2="50.5" stroke="black" stroke-opacity="0.08"/>
<line x1="18" y1="116.5" x2="305" y2="116.5" stroke="black" stroke-opacity="0.08"/>
<line x1="18" y1="190.5" x2="305" y2="190.5" stroke="black" stroke-opacity="0.08"/>
<line x1="18" y1="262.5" x2="305" y2="262.5" stroke="black" stroke-opacity="0.08"/>
<path d="M225.948 227.66H226.992C226.956 227.48 226.944 227.312 226.944 227.156C226.944 226.292 227.484 225.956 228.168 225.956C228.876 225.956 229.44 226.268 229.44 227.216C229.44 228.14 228.792 228.5 228.456 228.5H227.664V229.544H228.456C228.792 229.544 229.44 229.952 229.44 230.912C229.44 231.86 228.864 232.268 228.156 232.268C227.424 232.268 226.848 231.944 226.848 231.08C226.848 230.936 226.86 230.792 226.884 230.636H225.816C225.792 230.804 225.78 230.96 225.78 231.104C225.78 232.46 226.584 233.132 228.084 233.132C229.416 233.132 230.52 232.508 230.52 231.02C230.52 230.072 230.04 229.4 229.212 229.064V228.932C230.016 228.632 230.52 228.068 230.52 227.12C230.52 225.704 229.536 225.092 228.252 225.092C226.896 225.092 225.9 225.776 225.9 227.132C225.9 227.288 225.912 227.468 225.948 227.66ZM235.32 233V227.936H237.828V227H234.324V233H235.32ZM240.785 233.12C242.381 233.12 243.329 231.992 243.329 230C243.329 228.008 242.381 226.88 240.785 226.88C239.189 226.88 238.241 228.008 238.241 230C238.241 231.992 239.189 233.12 240.785 233.12ZM240.785 232.292C239.957 232.292 239.345 231.548 239.345 230C239.345 228.476 239.957 227.696 240.785 227.696C241.601 227.696 242.225 228.476 242.225 230C242.225 231.548 241.601 232.292 240.785 232.292ZM248.765 232.196V227H245.141C245.105 228.548 245.057 230.3 244.961 230.792C244.793 231.668 244.529 232.196 243.953 232.196H243.845V234.608H244.709V233H248.729V234.608H249.593V232.196H248.765ZM245.009 232.196V232.112C245.465 231.848 245.729 231.344 245.825 230.564C245.873 230.168 245.933 229.112 245.981 227.936H247.769V232.196H245.009ZM250.483 228.776H251.455C251.335 228.116 251.731 227.672 252.511 227.672C253.243 227.672 253.627 228.092 253.627 228.968V229.196C252.151 229.328 250.183 229.436 250.183 231.416C250.183 232.268 250.711 233.12 251.947 233.12C252.967 233.12 253.459 232.544 253.699 231.812H253.807C253.735 232.22 253.615 232.748 253.615 232.904V233H254.635V229.04C254.635 227.684 254.119 226.88 252.619 226.88C251.191 226.88 250.411 227.66 250.483 228.776ZM252.319 232.352C251.647 232.352 251.167 231.908 251.167 231.26C251.167 230.48 251.623 229.916 253.627 229.772C253.651 230.132 253.651 230.504 253.627 230.864C253.567 231.716 253.063 232.352 252.319 232.352Z" fill="black" fill-opacity="0.8"/>
<path d="M230.688 292.224V295.644H227.1V292.224H226.044V300H227.1V296.64H230.688V300H231.744V292.224H230.688ZM237.908 298.008L236.912 297.996C236.912 298.956 236.312 299.292 235.688 299.292C234.848 299.292 234.188 298.644 234.176 297.06H237.836C237.872 296.844 237.884 296.616 237.884 296.412C237.884 295.032 237.176 293.88 235.652 293.88C233.948 293.88 233.132 295.272 233.132 297.048C233.132 298.752 233.888 300.12 235.628 300.12C237.008 300.12 237.872 299.328 237.908 298.008ZM235.604 294.696C236.396 294.696 236.876 295.236 236.876 296.304V296.412H234.188C234.248 295.392 234.74 294.696 235.604 294.696ZM241.42 300V294.912H243.34V294H238.468V294.912H240.388V300H241.42Z" fill="black" fill-opacity="0.8"/>
<path d="M228.804 85.132C229.224 85.132 229.644 85.072 230.088 84.868C230.856 84.508 231.516 83.788 231.804 82.72C231.936 82.24 232.02 81.712 232.02 81.124C232.02 80.56 231.948 80.008 231.804 79.528C231.492 78.472 230.844 77.728 230.1 77.368C229.656 77.152 229.236 77.116 228.828 77.116C228.384 77.116 227.952 77.2 227.52 77.392C226.74 77.74 226.116 78.46 225.792 79.528C225.648 80.008 225.576 80.56 225.576 81.124C225.576 81.712 225.648 82.24 225.792 82.72C226.104 83.776 226.74 84.52 227.472 84.856C227.94 85.072 228.348 85.132 228.804 85.132ZM228.792 84.196C227.556 84.196 226.716 83.056 226.716 81.124C226.716 79.216 227.556 78.064 228.792 78.064C230.004 78.064 230.856 79.216 230.868 81.124C230.88 83.056 230.004 84.196 228.792 84.196ZM235.678 85V79.912H237.598V79H232.726V79.912H234.646V85H235.678ZM244.248 81.028V80.92C245.028 80.596 245.568 80.128 245.568 79.132C245.568 77.8 244.5 77.08 243.132 77.08C241.764 77.08 240.696 77.8 240.696 79.132C240.696 80.128 241.236 80.596 242.016 80.92V81.028C241.14 81.316 240.54 82 240.54 83.02C240.54 84.412 241.74 85.12 243.096 85.12C244.404 85.12 245.724 84.412 245.724 83.02C245.724 82 245.124 81.316 244.248 81.028ZM243.132 77.944C243.816 77.944 244.512 78.328 244.512 79.264C244.512 80.2 243.804 80.56 243.3 80.572H242.964C242.46 80.572 241.752 80.2 241.752 79.264C241.752 78.328 242.448 77.944 243.132 77.944ZM243.156 84.256C242.388 84.256 241.632 83.872 241.632 82.888C241.632 81.892 242.436 81.472 242.904 81.472H243.36C243.828 81.472 244.632 81.892 244.632 82.888C244.632 83.872 243.876 84.256 243.156 84.256ZM247.842 83.332C247.47 83.332 247.146 83.644 247.146 84.196C247.146 84.784 247.458 85.084 247.83 85.084C247.83 85.348 247.53 86.02 247.29 86.356L247.686 86.464C248.01 86.164 248.526 85.132 248.526 84.268C248.526 83.572 248.202 83.332 247.842 83.332ZM252.134 82.312C252.914 82.312 253.538 81.976 253.922 81.22L254.018 81.232C254.006 82.444 253.646 84.256 252.29 84.256C251.714 84.256 251.306 83.896 251.33 83.26H250.25C250.154 84.364 250.934 85.144 252.194 85.144C254.15 85.144 254.966 83.32 254.966 80.788C254.966 78.148 253.934 77.164 252.458 77.164C251.138 77.164 249.998 78.052 249.998 79.828C249.998 81.592 251.15 82.312 252.134 82.312ZM252.434 78.064C253.214 78.064 253.826 78.748 253.826 79.768C253.826 80.896 253.226 81.508 252.422 81.508C251.702 81.508 251.066 81.004 251.066 79.756C251.066 78.568 251.702 78.064 252.434 78.064ZM263.653 77.224L259.213 85H260.041L264.481 77.224H263.653ZM260.065 80.608C260.281 80.608 260.497 80.572 260.725 80.488C261.121 80.332 261.469 80.008 261.625 79.552C261.697 79.348 261.733 79.108 261.733 78.856C261.733 78.604 261.697 78.376 261.625 78.172C261.469 77.704 261.121 77.38 260.725 77.224C260.497 77.14 260.281 77.116 260.065 77.116C259.849 77.116 259.621 77.152 259.393 77.248C258.997 77.392 258.673 77.704 258.493 78.172C258.421 78.376 258.385 78.604 258.385 78.856C258.385 79.108 258.421 79.348 258.493 79.552C258.649 80.008 258.997 80.332 259.393 80.488C259.621 80.572 259.837 80.608 260.065 80.608ZM260.065 79.984C259.585 79.984 259.225 79.624 259.225 78.856C259.225 78.112 259.585 77.728 260.065 77.728C260.533 77.728 260.893 78.112 260.893 78.856C260.893 79.624 260.533 79.984 260.065 79.984ZM263.665 85.096C263.881 85.096 264.097 85.06 264.325 84.976C264.721 84.832 265.069 84.496 265.225 84.04C265.297 83.836 265.333 83.596 265.333 83.344C265.333 83.092 265.297 82.864 265.225 82.66C265.057 82.192 264.721 81.856 264.325 81.712C264.097 81.628 263.881 81.604 263.665 81.604C263.449 81.604 263.221 81.64 262.993 81.736C262.609 81.904 262.261 82.192 262.093 82.66C262.021 82.864 261.985 83.092 261.985 83.344C261.985 83.596 262.021 83.836 262.093 84.04C262.249 84.496 262.597 84.832 262.993 84.976C263.221 85.06 263.437 85.096 263.665 85.096ZM263.665 84.472C263.185 84.472 262.825 84.112 262.825 83.344C262.825 82.6 263.185 82.216 263.665 82.216C264.133 82.216 264.493 82.6 264.493 83.344C264.493 84.112 264.133 84.472 263.665 84.472Z" fill="black" fill-opacity="0.8"/>
<path d="M25.45 150L24.76 143.52H23.62L21.95 149.08L20.22 143.52H19.07L18.4 150H19.24L19.59 146.51C19.67 145.74 19.65 145.01 19.6 144.5H19.72C19.76 144.79 19.86 145.38 20.09 146.09L21.38 150H22.38L23.65 146.09C23.87 145.4 23.98 144.82 24.02 144.5H24.14C24.1 145.03 24.11 145.75 24.18 146.51L24.51 150H25.45ZM26.4816 146.48H27.2916C27.1916 145.93 27.5216 145.56 28.1716 145.56C28.7816 145.56 29.1016 145.91 29.1016 146.64V146.83C27.8716 146.94 26.2316 147.03 26.2316 148.68C26.2316 149.39 26.6716 150.1 27.7016 150.1C28.5516 150.1 28.9616 149.62 29.1616 149.01H29.2516C29.1916 149.35 29.0916 149.79 29.0916 149.92V150H29.9416V146.7C29.9416 145.57 29.5116 144.9 28.2616 144.9C27.0716 144.9 26.4216 145.55 26.4816 146.48ZM28.0116 149.46C27.4516 149.46 27.0516 149.09 27.0516 148.55C27.0516 147.9 27.4316 147.43 29.1016 147.31C29.1216 147.61 29.1216 147.92 29.1016 148.22C29.0516 148.93 28.6316 149.46 28.0116 149.46ZM32.1274 150V147.79H32.5874C33.0874 147.79 33.2674 148.06 33.4174 148.51C33.6074 149.09 33.7574 149.73 33.9674 150H34.9674C34.7474 149.75 34.6274 149.48 34.4874 149.13C34.3574 148.8 34.2374 148.41 34.1674 148.23C33.9974 147.78 33.7774 147.59 33.2674 147.5V147.41C33.6974 147.32 33.9474 147.15 34.1474 146.75C34.2674 146.51 34.3574 146.24 34.4974 145.83C34.5874 145.57 34.7274 145.2 34.9274 145H33.9674C33.7374 145.31 33.5774 146.05 33.3774 146.57C33.2174 146.99 33.0174 147.17 32.5874 147.17H32.1274V145H31.2774V150H32.1274ZM39.2827 148.08L38.4527 148.07C38.5027 149.13 37.9527 149.43 37.4827 149.43C36.7227 149.43 36.2627 148.78 36.2627 147.5C36.2627 146.29 36.6927 145.59 37.4627 145.59C38.0627 145.59 38.4427 146.01 38.4327 146.86L39.2727 146.87C39.3327 145.63 38.5927 144.9 37.4627 144.9C35.9627 144.9 35.3527 146.14 35.3527 147.54C35.3527 149.03 35.9627 150.1 37.4627 150.1C38.6527 150.1 39.3027 149.27 39.2827 148.08ZM43.2223 145.99L43.3023 146.01C43.1923 146.51 43.1423 147.2 43.1323 147.92L43.1223 150H43.9523V145H43.1223L41.8623 147.22C41.3023 148.2 41.1823 148.67 40.9923 149.09L40.9023 149.05C41.0323 148.59 41.0723 147.63 41.0723 146.92V145H40.2423V150H41.1023L42.3023 147.89C42.9123 146.81 43.0323 146.42 43.2223 145.99ZM50.4411 145H49.1711L48.3211 147.7C48.1511 148.24 47.9811 148.92 47.8811 149.36H47.8711C47.7411 148.71 47.5311 148.04 47.4211 147.67L46.6311 145H45.3911L45.1611 150H45.9311L46.0211 146.94C46.0311 146.59 46.0311 146.24 46.0011 145.71H46.1011C46.2011 146.23 46.3011 146.55 46.4611 147.08L47.3011 149.96H48.3511L49.1311 147.42C49.3811 146.59 49.5111 146.19 49.5811 145.71H49.6811C49.6911 146.2 49.6711 146.63 49.6811 147.02L49.7911 150H50.6411L50.4411 145ZM51.8136 146.48H52.6236C52.5236 145.93 52.8536 145.56 53.5036 145.56C54.1136 145.56 54.4336 145.91 54.4336 146.64V146.83C53.2036 146.94 51.5636 147.03 51.5636 148.68C51.5636 149.39 52.0036 150.1 53.0336 150.1C53.8836 150.1 54.2936 149.62 54.4936 149.01H54.5836C54.5236 149.35 54.4236 149.79 54.4236 149.92V150H55.2736V146.7C55.2736 145.57 54.8436 144.9 53.5936 144.9C52.4036 144.9 51.7536 145.55 51.8136 146.48ZM53.3436 149.46C52.7836 149.46 52.3836 149.09 52.3836 148.55C52.3836 147.9 52.7636 147.43 54.4336 147.31C54.4536 147.61 54.4536 147.92 54.4336 148.22C54.3836 148.93 53.9636 149.46 53.3436 149.46ZM56.0595 149.31L56.0695 150.07C57.2595 150.07 57.5395 149.66 57.6195 148.97C57.6795 148.5 57.7495 146.98 57.8195 145.74H59.2595V150H60.0895V145H57.0795C57.0195 146.32 56.9695 147.86 56.8895 148.66C56.8195 149.34 56.4195 149.31 56.0595 149.31ZM62.2537 145H61.4337V150H63.1337C64.6737 150 65.0237 148.97 65.0237 148.4C65.0237 147.68 64.6637 147.18 64.1437 146.99C63.7837 146.86 63.5437 146.85 62.8637 146.85H62.2537V145ZM64.1537 148.4C64.1537 149.02 63.6737 149.29 63.0637 149.29H62.2537V147.51H63.1137C63.7737 147.51 64.1537 147.82 64.1537 148.4ZM66.8833 150V147.83H68.9833V150H69.8333V145H68.9833V147.06H66.8833V145H66.0333V150H66.8833ZM71.13 146.48H71.94C71.84 145.93 72.17 145.56 72.82 145.56C73.43 145.56 73.75 145.91 73.75 146.64V146.83C72.52 146.94 70.88 147.03 70.88 148.68C70.88 149.39 71.32 150.1 72.35 150.1C73.2 150.1 73.61 149.62 73.81 149.01H73.9C73.84 149.35 73.74 149.79 73.74 149.92V150H74.59V146.7C74.59 145.57 74.16 144.9 72.91 144.9C71.72 144.9 71.07 145.55 71.13 146.48ZM72.66 149.46C72.1 149.46 71.7 149.09 71.7 148.55C71.7 147.9 72.08 147.43 73.75 147.31C73.77 147.61 73.77 147.92 73.75 148.22C73.7 148.93 73.28 149.46 72.66 149.46ZM76.4759 146.52C76.4759 145.9 76.9159 145.66 77.5759 145.66H78.4359V147.42H77.6859C76.9759 147.42 76.4759 147.11 76.4759 146.52ZM75.4359 150H76.4459C76.5859 149.59 76.6859 149.07 76.7959 148.71C76.9559 148.18 77.1559 148.13 77.6659 148.13H78.4359V150H79.2559V145H77.7959C77.1159 145 76.8459 145.01 76.4959 145.15C75.9959 145.35 75.6359 145.8 75.6359 146.48C75.6359 147.07 75.9559 147.7 76.9959 147.69V147.83C76.4359 147.86 76.1359 148.12 75.9559 148.61C75.7959 149.05 75.6159 149.82 75.4359 150ZM22.31 163.08L21.48 163.07C21.53 164.13 20.98 164.43 20.51 164.43C19.75 164.43 19.29 163.78 19.29 162.5C19.29 161.29 19.72 160.59 20.49 160.59C21.09 160.59 21.47 161.01 21.46 161.86L22.3 161.87C22.36 160.63 21.62 159.9 20.49 159.9C18.99 159.9 18.38 161.14 18.38 162.54C18.38 164.03 18.99 165.1 20.49 165.1C21.68 165.1 22.33 164.27 22.31 163.08ZM26.781 160H25.891L25.221 162.32C24.941 163.28 24.811 163.93 24.781 164.1H24.711C24.651 163.76 24.611 163.49 24.271 162.41L23.521 160H22.621L24.271 164.91L23.711 166.75H24.551L25.121 164.89L26.781 160ZM32.5602 160H31.2902L30.4402 162.7C30.2702 163.24 30.1002 163.92 30.0002 164.36H29.9902C29.8602 163.71 29.6502 163.04 29.5402 162.67L28.7502 160H27.5102L27.2802 165H28.0502L28.1402 161.94C28.1502 161.59 28.1502 161.24 28.1202 160.71H28.2202C28.3202 161.23 28.4202 161.55 28.5802 162.08L29.4202 164.96H30.4702L31.2502 162.42C31.5002 161.59 31.6302 161.19 31.7002 160.71H31.8002C31.8102 161.2 31.7902 161.63 31.8002 162.02L31.9102 165H32.7602L32.5602 160ZM39.1227 160H37.8527L37.0027 162.7C36.8327 163.24 36.6627 163.92 36.5627 164.36H36.5527C36.4227 163.71 36.2127 163.04 36.1027 162.67L35.3127 160H34.0727L33.8427 165H34.6127L34.7027 161.94C34.7127 161.59 34.7127 161.24 34.6827 160.71H34.7827C34.8827 161.23 34.9827 161.55 35.1427 162.08L35.9827 164.96H37.0327L37.8127 162.42C38.0627 161.59 38.1927 161.19 38.2627 160.71H38.3627C38.3727 161.2 38.3527 161.63 38.3627 162.02L38.4727 165H39.3227L39.1227 160ZM40.4952 161.48H41.3052C41.2052 160.93 41.5352 160.56 42.1852 160.56C42.7952 160.56 43.1152 160.91 43.1152 161.64V161.83C41.8852 161.94 40.2452 162.03 40.2452 163.68C40.2452 164.39 40.6852 165.1 41.7152 165.1C42.5652 165.1 42.9752 164.62 43.1752 164.01H43.2652C43.2052 164.35 43.1052 164.79 43.1052 164.92V165H43.9552V161.7C43.9552 160.57 43.5252 159.9 42.2752 159.9C41.0852 159.9 40.4352 160.55 40.4952 161.48ZM42.0252 164.46C41.4652 164.46 41.0652 164.09 41.0652 163.55C41.0652 162.9 41.4452 162.43 43.1152 162.31C43.1352 162.61 43.1352 162.92 43.1152 163.22C43.0652 163.93 42.6452 164.46 42.0252 164.46Z" fill="black" fill-opacity="0.8"/>
<path d="M25.45 224L24.76 217.52H23.62L21.95 223.08L20.22 217.52H19.07L18.4 224H19.24L19.59 220.51C19.67 219.74 19.65 219.01 19.6 218.5H19.72C19.76 218.79 19.86 219.38 20.09 220.09L21.38 224H22.38L23.65 220.09C23.87 219.4 23.98 218.82 24.02 218.5H24.14C24.1 219.03 24.11 219.75 24.18 220.51L24.51 224H25.45ZM26.4816 220.48H27.2916C27.1916 219.93 27.5216 219.56 28.1716 219.56C28.7816 219.56 29.1016 219.91 29.1016 220.64V220.83C27.8716 220.94 26.2316 221.03 26.2316 222.68C26.2316 223.39 26.6716 224.1 27.7016 224.1C28.5516 224.1 28.9616 223.62 29.1616 223.01H29.2516C29.1916 223.35 29.0916 223.79 29.0916 223.92V224H29.9416V220.7C29.9416 219.57 29.5116 218.9 28.2616 218.9C27.0716 218.9 26.4216 219.55 26.4816 220.48ZM28.0116 223.46C27.4516 223.46 27.0516 223.09 27.0516 222.55C27.0516 221.9 27.4316 221.43 29.1016 221.31C29.1216 221.61 29.1216 221.92 29.1016 222.22C29.0516 222.93 28.6316 223.46 28.0116 223.46ZM32.1274 224V221.79H32.5874C33.0874 221.79 33.2674 222.06 33.4174 222.51C33.6074 223.09 33.7574 223.73 33.9674 224H34.9674C34.7474 223.75 34.6274 223.48 34.4874 223.13C34.3574 222.8 34.2374 222.41 34.1674 222.23C33.9974 221.78 33.7774 221.59 33.2674 221.5V221.41C33.6974 221.32 33.9474 221.15 34.1474 220.75C34.2674 220.51 34.3574 220.24 34.4974 219.83C34.5874 219.57 34.7274 219.2 34.9274 219H33.9674C33.7374 219.31 33.5774 220.05 33.3774 220.57C33.2174 220.99 33.0174 221.17 32.5874 221.17H32.1274V219H31.2774V224H32.1274ZM39.2827 222.08L38.4527 222.07C38.5027 223.13 37.9527 223.43 37.4827 223.43C36.7227 223.43 36.2627 222.78 36.2627 221.5C36.2627 220.29 36.6927 219.59 37.4627 219.59C38.0627 219.59 38.4427 220.01 38.4327 220.86L39.2727 220.87C39.3327 219.63 38.5927 218.9 37.4627 218.9C35.9627 218.9 35.3527 220.14 35.3527 221.54C35.3527 223.03 35.9627 224.1 37.4627 224.1C38.6527 224.1 39.3027 223.27 39.2827 222.08ZM43.2223 219.99L43.3023 220.01C43.1923 220.51 43.1423 221.2 43.1323 221.92L43.1223 224H43.9523V219H43.1223L41.8623 221.22C41.3023 222.2 41.1823 222.67 40.9923 223.09L40.9023 223.05C41.0323 222.59 41.0723 221.63 41.0723 220.92V219H40.2423V224H41.1023L42.3023 221.89C42.9123 220.81 43.0323 220.42 43.2223 219.99ZM50.4411 219H49.1711L48.3211 221.7C48.1511 222.24 47.9811 222.92 47.8811 223.36H47.8711C47.7411 222.71 47.5311 222.04 47.4211 221.67L46.6311 219H45.3911L45.1611 224H45.9311L46.0211 220.94C46.0311 220.59 46.0311 220.24 46.0011 219.71H46.1011C46.2011 220.23 46.3011 220.55 46.4611 221.08L47.3011 223.96H48.3511L49.1311 221.42C49.3811 220.59 49.5111 220.19 49.5811 219.71H49.6811C49.6911 220.2 49.6711 220.63 49.6811 221.02L49.7911 224H50.6411L50.4411 219ZM51.8136 220.48H52.6236C52.5236 219.93 52.8536 219.56 53.5036 219.56C54.1136 219.56 54.4336 219.91 54.4336 220.64V220.83C53.2036 220.94 51.5636 221.03 51.5636 222.68C51.5636 223.39 52.0036 224.1 53.0336 224.1C53.8836 224.1 54.2936 223.62 54.4936 223.01H54.5836C54.5236 223.35 54.4236 223.79 54.4236 223.92V224H55.2736V220.7C55.2736 219.57 54.8436 218.9 53.5936 218.9C52.4036 218.9 51.7536 219.55 51.8136 220.48ZM53.3436 223.46C52.7836 223.46 52.3836 223.09 52.3836 222.55C52.3836 221.9 52.7636 221.43 54.4336 221.31C54.4536 221.61 54.4536 221.92 54.4336 222.22C54.3836 222.93 53.9636 223.46 53.3436 223.46ZM56.0595 223.31L56.0695 224.07C57.2595 224.07 57.5395 223.66 57.6195 222.97C57.6795 222.5 57.7495 220.98 57.8195 219.74H59.2595V224H60.0895V219H57.0795C57.0195 220.32 56.9695 221.86 56.8895 222.66C56.8195 223.34 56.4195 223.31 56.0595 223.31ZM62.2537 219H61.4337V224H63.1337C64.6737 224 65.0237 222.97 65.0237 222.4C65.0237 221.68 64.6637 221.18 64.1437 220.99C63.7837 220.86 63.5437 220.85 62.8637 220.85H62.2537V219ZM64.1537 222.4C64.1537 223.02 63.6737 223.29 63.0637 223.29H62.2537V221.51H63.1137C63.7737 221.51 64.1537 221.82 64.1537 222.4ZM66.8833 224V221.83H68.9833V224H69.8333V219H68.9833V221.06H66.8833V219H66.0333V224H66.8833ZM71.99 219H71.17V224H72.87C74.41 224 74.76 222.97 74.76 222.4C74.76 221.68 74.4 221.18 73.88 220.99C73.52 220.86 73.28 220.85 72.6 220.85H71.99V219ZM76.3 224V219H75.45V224H76.3ZM73.89 222.4C73.89 223.02 73.41 223.29 72.8 223.29H71.99V221.51H72.85C73.51 221.51 73.89 221.82 73.89 222.4ZM80.6246 219.99L80.7046 220.01C80.5946 220.51 80.5446 221.2 80.5346 221.92L80.5246 224H81.3546V219H80.5246L79.2646 221.22C78.7046 222.2 78.5846 222.67 78.3946 223.09L78.3046 223.05C78.4346 222.59 78.4746 221.63 78.4746 220.92V219H77.6446V224H78.5046L79.7046 221.89C80.3146 220.81 80.4346 220.42 80.6246 219.99ZM78.2446 217.81V218.36C78.6746 218.46 79.1146 218.51 79.5446 218.51C79.9746 218.51 80.4046 218.46 80.8446 218.36V217.81C80.4046 217.91 79.9746 217.96 79.5446 217.96C79.1146 217.96 78.6746 217.91 78.2446 217.81ZM22.31 237.08L21.48 237.07C21.53 238.13 20.98 238.43 20.51 238.43C19.75 238.43 19.29 237.78 19.29 236.5C19.29 235.29 19.72 234.59 20.49 234.59C21.09 234.59 21.47 235.01 21.46 235.86L22.3 235.87C22.36 234.63 21.62 233.9 20.49 233.9C18.99 233.9 18.38 235.14 18.38 236.54C18.38 238.03 18.99 239.1 20.49 239.1C21.68 239.1 22.33 238.27 22.31 237.08ZM25.5596 239.1C25.7796 239.1 26.0196 239.06 26.2796 238.93C26.7296 238.7 27.1296 238.22 27.3096 237.53C27.3896 237.22 27.4396 236.88 27.4396 236.5C27.4396 236.12 27.3896 235.78 27.3096 235.47C27.0996 234.65 26.5196 233.95 25.5596 233.95C24.7296 233.95 24.2696 234.39 24.0696 235.16L23.9796 235.15C24.0396 234.79 24.1296 234.33 24.1296 234.08V234H23.2696V240.78H24.1296V238.97C24.1296 238.72 24.0396 238.26 23.9796 237.9L24.0696 237.89C24.2696 238.66 24.7296 239.1 25.5596 239.1ZM25.3496 238.39C24.6396 238.39 24.1696 237.69 24.1696 236.5C24.1696 235.33 24.6396 234.61 25.3496 234.61C26.0496 234.61 26.5896 235.33 26.5896 236.5C26.5896 237.69 26.0496 238.39 25.3496 238.39ZM30.3242 239.1C31.6542 239.1 32.4442 238.16 32.4442 236.5C32.4442 234.84 31.6542 233.9 30.3242 233.9C28.9942 233.9 28.2042 234.84 28.2042 236.5C28.2042 238.16 28.9942 239.1 30.3242 239.1ZM30.3242 238.41C29.6342 238.41 29.1242 237.79 29.1242 236.5C29.1242 235.23 29.6342 234.58 30.3242 234.58C31.0042 234.58 31.5242 235.23 31.5242 236.5C31.5242 237.79 31.0042 238.41 30.3242 238.41ZM34.2466 239V236.79H34.7066C35.2066 236.79 35.3866 237.06 35.5366 237.51C35.7266 238.09 35.8766 238.73 36.0866 239H37.0866C36.8666 238.75 36.7466 238.48 36.6066 238.13C36.4766 237.8 36.3566 237.41 36.2866 237.23C36.1166 236.78 35.8966 236.59 35.3866 236.5V236.41C35.8166 236.32 36.0666 236.15 36.2666 235.75C36.3866 235.51 36.4766 235.24 36.6166 234.83C36.7066 234.57 36.8466 234.2 37.0466 234H36.0866C35.8566 234.31 35.6966 235.05 35.4966 235.57C35.3366 235.99 35.1366 236.17 34.7066 236.17H34.2466V234H33.3966V239H34.2466Z" fill="black" fill-opacity="0.8"/>
<path d="M18.61 293.25H19.49C19.41 292.45 19.84 292.15 20.58 292.15C21.4 292.15 21.71 292.62 21.71 293.24C21.71 293.94 21.31 294.31 20.72 294.31H20.03V295.16H20.75C21.4 295.16 21.91 295.52 21.91 296.26C21.91 297.01 21.42 297.37 20.7 297.37C19.94 297.37 19.31 297.13 19.46 296.25H18.57C18.43 297.53 19.21 298.09 20.58 298.09C21.92 298.09 22.82 297.52 22.82 296.28C22.82 295.5 22.43 294.92 21.72 294.72V294.58C22.27 294.34 22.63 293.82 22.63 293.17C22.63 291.95 21.78 291.41 20.54 291.42C19.39 291.43 18.51 292.05 18.61 293.25ZM24.0792 294.48H24.8892C24.7892 293.93 25.1192 293.56 25.7692 293.56C26.3792 293.56 26.6992 293.91 26.6992 294.64V294.83C25.4692 294.94 23.8292 295.03 23.8292 296.68C23.8292 297.39 24.2692 298.1 25.2992 298.1C26.1492 298.1 26.5592 297.62 26.7592 297.01H26.8492C26.7892 297.35 26.6892 297.79 26.6892 297.92V298H27.5392V294.7C27.5392 293.57 27.1092 292.9 25.8592 292.9C24.6692 292.9 24.0192 293.55 24.0792 294.48ZM25.6092 297.46C25.0492 297.46 24.6492 297.09 24.6492 296.55C24.6492 295.9 25.0292 295.43 26.6992 295.31C26.7192 295.61 26.7192 295.92 26.6992 296.22C26.6492 296.93 26.2292 297.46 25.6092 297.46ZM28.3251 297.31L28.3351 298.07C29.5251 298.07 29.8051 297.66 29.8851 296.97C29.9451 296.5 30.0151 294.98 30.0851 293.74H31.5251V298H32.3551V293H29.3451C29.2851 294.32 29.2351 295.86 29.1551 296.66C29.0851 297.34 28.6851 297.31 28.3251 297.31ZM35.4316 298.1C36.7616 298.1 37.5516 297.16 37.5516 295.5C37.5516 293.84 36.7616 292.9 35.4316 292.9C34.1016 292.9 33.3116 293.84 33.3116 295.5C33.3116 297.16 34.1016 298.1 35.4316 298.1ZM35.4316 297.41C34.7416 297.41 34.2316 296.79 34.2316 295.5C34.2316 294.23 34.7416 293.58 35.4316 293.58C36.1116 293.58 36.6316 294.23 36.6316 295.5C36.6316 296.79 36.1116 297.41 35.4316 297.41ZM39.334 298V293.78H41.424V293H38.504V298H39.334Z" fill="black" fill-opacity="0.8"/>
<path d="M226.75 30V27.14H227.61C228.41 27.14 228.57 27.49 228.76 28.07C229.01 28.82 229.19 29.65 229.41 30H230.46C230.02 29.28 229.72 28.15 229.55 27.69C229.33 27.08 229.06 26.86 228.42 26.76V26.66C229.03 26.57 229.31 26.33 229.54 25.76C229.7 25.35 229.93 24.48 230.43 23.52H229.43C229.19 23.92 228.98 24.88 228.74 25.55C228.54 26.1 228.32 26.33 227.65 26.33H226.75V23.52H225.87V30H226.75ZM233.565 30.1C233.785 30.1 234.025 30.06 234.285 29.93C234.735 29.7 235.135 29.22 235.315 28.53C235.395 28.22 235.445 27.88 235.445 27.5C235.445 27.12 235.395 26.78 235.315 26.47C235.105 25.65 234.525 24.95 233.565 24.95C232.735 24.95 232.275 25.39 232.075 26.16L231.985 26.15C232.045 25.79 232.135 25.33 232.135 25.08V25H231.275V31.78H232.135V29.97C232.135 29.72 232.045 29.26 231.985 28.9L232.075 28.89C232.275 29.66 232.735 30.1 233.565 30.1ZM233.355 29.39C232.645 29.39 232.175 28.69 232.175 27.5C232.175 26.33 232.645 25.61 233.355 25.61C234.055 25.61 234.595 26.33 234.595 27.5C234.595 28.69 234.055 29.39 233.355 29.39ZM240.19 28.34L239.36 28.33C239.36 29.13 238.86 29.41 238.34 29.41C237.64 29.41 237.09 28.87 237.08 27.55H240.13C240.16 27.37 240.17 27.18 240.17 27.01C240.17 25.86 239.58 24.9 238.31 24.9C236.89 24.9 236.21 26.06 236.21 27.54C236.21 28.96 236.84 30.1 238.29 30.1C239.44 30.1 240.16 29.44 240.19 28.34ZM238.27 25.58C238.93 25.58 239.33 26.03 239.33 26.92V27.01H237.09C237.14 26.16 237.55 25.58 238.27 25.58ZM244.795 29.33V25H241.775C241.745 26.29 241.705 27.75 241.625 28.16C241.485 28.89 241.265 29.33 240.785 29.33H240.695V31.34H241.415V30H244.765V31.34H245.485V29.33H244.795ZM241.665 29.33V29.26C242.045 29.04 242.265 28.62 242.345 27.97C242.385 27.64 242.435 26.76 242.475 25.78H243.965V29.33H241.665ZM249.246 25.99L249.326 26.01C249.216 26.51 249.166 27.2 249.156 27.92L249.146 30H249.976V25H249.146L247.886 27.22C247.326 28.2 247.206 28.67 247.016 29.09L246.926 29.05C247.056 28.59 247.096 27.63 247.096 26.92V25H246.266V30H247.126L248.326 27.89C248.936 26.81 249.056 26.42 249.246 25.99ZM253.215 30V25.76H254.815V25H250.755V25.76H252.355V30H253.215ZM258.346 30V27.83H260.446V30H261.296V25H260.446V27.06H258.346V25H257.496V30H258.346ZM262.593 26.48H263.403C263.303 25.93 263.633 25.56 264.283 25.56C264.893 25.56 265.213 25.91 265.213 26.64V26.83C263.983 26.94 262.343 27.03 262.343 28.68C262.343 29.39 262.783 30.1 263.813 30.1C264.663 30.1 265.073 29.62 265.273 29.01H265.363C265.303 29.35 265.203 29.79 265.203 29.92V30H266.053V26.7C266.053 25.57 265.623 24.9 264.373 24.9C263.183 24.9 262.533 25.55 262.593 26.48ZM264.123 29.46C263.563 29.46 263.163 29.09 263.163 28.55C263.163 27.9 263.543 27.43 265.213 27.31C265.233 27.61 265.233 27.92 265.213 28.22C265.163 28.93 264.743 29.46 264.123 29.46ZM266.839 29.31L266.849 30.07C268.039 30.07 268.319 29.66 268.399 28.97C268.459 28.5 268.529 26.98 268.599 25.74H270.039V30H270.869V25H267.859C267.799 26.32 267.749 27.86 267.669 28.66C267.599 29.34 267.199 29.31 266.839 29.31ZM275.193 25.99L275.273 26.01C275.163 26.51 275.113 27.2 275.103 27.92L275.093 30H275.923V25H275.093L273.833 27.22C273.273 28.2 273.153 28.67 272.963 29.09L272.873 29.05C273.003 28.59 273.043 27.63 273.043 26.92V25H272.213V30H273.073L274.273 27.89C274.883 26.81 275.003 26.42 275.193 25.99ZM279.622 25V27.38C279.352 27.49 279.012 27.54 278.682 27.54C278.182 27.53 277.732 27.35 277.732 26.71V25H276.882V26.85C276.882 28 277.612 28.18 278.382 28.18C278.722 28.18 279.282 28.1 279.622 27.93V30H280.472V25H279.622ZM282.663 30V27.83H284.763V30H285.613V25H284.763V27.06H282.663V25H281.813V30H282.663ZM287.769 25H286.949V30H288.649C290.189 30 290.539 28.97 290.539 28.4C290.539 27.68 290.179 27.18 289.659 26.99C289.299 26.86 289.059 26.85 288.379 26.85H287.769V25ZM292.079 30V25H291.229V30H292.079ZM289.669 28.4C289.669 29.02 289.189 29.29 288.579 29.29H287.769V27.51H288.629C289.289 27.51 289.669 27.82 289.669 28.4ZM298.574 25H297.304L296.454 27.7C296.284 28.24 296.114 28.92 296.014 29.36H296.004C295.874 28.71 295.664 28.04 295.554 27.67L294.764 25H293.524L293.294 30H294.064L294.154 26.94C294.164 26.59 294.164 26.24 294.134 25.71H294.234C294.334 26.23 294.434 26.55 294.594 27.08L295.434 29.96H296.484L297.264 27.42C297.514 26.59 297.644 26.19 297.714 25.71H297.814C297.824 26.2 297.804 26.63 297.814 27.02L297.924 30H298.774L298.574 25ZM302.966 25.99L303.046 26.01C302.936 26.51 302.886 27.2 302.876 27.92L302.866 30H303.696V25H302.866L301.606 27.22C301.046 28.2 300.926 28.67 300.736 29.09L300.646 29.05C300.776 28.59 300.816 27.63 300.816 26.92V25H299.986V30H300.846L302.046 27.89C302.656 26.81 302.776 26.42 302.966 25.99Z" fill="black" fill-opacity="0.8"/>
<rect x="1" y="1" width="321" height="340" rx="14" stroke="white" stroke-width="2"/>
</svg>
