<svg width="689" height="318" viewBox="0 0 689 318" fill="none" xmlns="http://www.w3.org/2000/svg">
<rect x="1" y="1" width="687" height="316" rx="14" fill="white" fill-opacity="0.5"/>
<path d="M277.992 35H279.308L276.592 25.928H274.996L272.252 35H273.498L274.1 32.914H277.39L277.992 35ZM275.696 27.006H275.836C275.934 27.482 275.962 27.916 276.284 29.036L277.068 31.794H274.422L275.164 29.26C275.416 28.42 275.612 27.552 275.696 27.006ZM280.667 35H281.815H283.369C283.873 35 284.265 34.972 284.643 34.846C285.525 34.566 285.987 33.894 285.987 33.04C285.987 32.368 285.553 31.514 284.279 31.43V31.332C285.287 31.108 285.721 30.366 285.721 29.736C285.721 28.476 284.741 28 283.677 28H281.815H280.667V35ZM281.815 34.076V31.892H283.509C284.153 31.892 284.811 32.2 284.811 32.97C284.811 33.74 284.251 34.076 283.467 34.076H281.815ZM281.815 31.01V28.896H283.425C284.027 28.896 284.559 29.19 284.559 29.904C284.559 30.632 283.943 31.01 283.257 31.01H281.815ZM290.172 35V29.064H292.412V28H286.728V29.064H288.968V35H290.172ZM295.926 35.14C297.788 35.14 298.894 33.824 298.894 31.5C298.894 29.176 297.788 27.86 295.926 27.86C294.064 27.86 292.958 29.176 292.958 31.5C292.958 33.824 294.064 35.14 295.926 35.14ZM295.926 34.174C294.96 34.174 294.246 33.306 294.246 31.5C294.246 29.722 294.96 28.812 295.926 28.812C296.878 28.812 297.606 29.722 297.606 31.5C297.606 33.306 296.878 34.174 295.926 34.174ZM301.417 35V31.906H302.061C302.761 31.906 303.013 32.284 303.223 32.914C303.489 33.726 303.699 34.622 303.993 35H305.393C305.085 34.65 304.917 34.272 304.721 33.782C304.539 33.32 304.371 32.774 304.273 32.522C304.035 31.892 303.727 31.626 303.013 31.5V31.374C303.615 31.248 303.965 31.01 304.245 30.45C304.413 30.114 304.539 29.736 304.735 29.162C304.861 28.798 305.057 28.28 305.337 28H303.993C303.671 28.434 303.447 29.47 303.167 30.198C302.943 30.786 302.663 31.038 302.061 31.038H301.417V28H300.227V35H301.417ZM309.681 35.14C309.989 35.14 310.325 35.084 310.689 34.902C311.319 34.58 311.879 33.908 312.131 32.942C312.243 32.508 312.313 32.032 312.313 31.5C312.313 30.968 312.243 30.492 312.131 30.058C311.837 28.91 311.025 27.93 309.681 27.93C308.519 27.93 307.875 28.546 307.595 29.624L307.469 29.61C307.553 29.106 307.679 28.462 307.679 28.112V28H306.475V37.492H307.679V34.958C307.679 34.608 307.553 33.964 307.469 33.46L307.595 33.446C307.875 34.524 308.519 35.14 309.681 35.14ZM309.387 34.146C308.393 34.146 307.735 33.166 307.735 31.5C307.735 29.862 308.393 28.854 309.387 28.854C310.367 28.854 311.123 29.862 311.123 31.5C311.123 33.166 310.367 34.146 309.387 34.146ZM318.956 32.676L317.794 32.662C317.794 33.782 317.094 34.174 316.366 34.174C315.386 34.174 314.616 33.418 314.602 31.57H318.872C318.914 31.318 318.928 31.052 318.928 30.814C318.928 29.204 318.102 27.86 316.324 27.86C314.336 27.86 313.384 29.484 313.384 31.556C313.384 33.544 314.266 35.14 316.296 35.14C317.906 35.14 318.914 34.216 318.956 32.676ZM316.268 28.812C317.192 28.812 317.752 29.442 317.752 30.688V30.814H314.616C314.686 29.624 315.26 28.812 316.268 28.812ZM325.402 34.062V28H321.174C321.132 29.806 321.076 31.85 320.964 32.424C320.768 33.446 320.46 34.062 319.788 34.062H319.662V36.876H320.67V35H325.36V36.876H326.368V34.062H325.402ZM321.02 34.062V33.964C321.552 33.656 321.86 33.068 321.972 32.158C322.028 31.696 322.098 30.464 322.154 29.092H324.24V34.062H321.02ZM331.633 29.386L331.745 29.414C331.591 30.114 331.521 31.08 331.507 32.088L331.493 35H332.655V28H331.493L329.729 31.108C328.945 32.48 328.777 33.138 328.511 33.726L328.385 33.67C328.567 33.026 328.623 31.682 328.623 30.688V28H327.461V35H328.665L330.345 32.046C331.199 30.534 331.367 29.988 331.633 29.386ZM337.19 35V29.064H339.43V28H333.746V29.064H335.986V35H337.19Z" fill="black" fill-opacity="0.8"/>
<path d="M529.45 35V30.996H530.654C531.774 30.996 531.998 31.486 532.264 32.298C532.614 33.348 532.866 34.51 533.174 35H534.644C534.028 33.992 533.608 32.41 533.37 31.766C533.062 30.912 532.684 30.604 531.788 30.464V30.324C532.642 30.198 533.034 29.862 533.356 29.064C533.58 28.49 533.902 27.272 534.602 25.928H533.202C532.866 26.488 532.572 27.832 532.236 28.77C531.956 29.54 531.648 29.862 530.71 29.862H529.45V25.928H528.218V35H529.45ZM538.992 35.14C539.3 35.14 539.636 35.084 540 34.902C540.63 34.58 541.19 33.908 541.442 32.942C541.554 32.508 541.624 32.032 541.624 31.5C541.624 30.968 541.554 30.492 541.442 30.058C541.148 28.91 540.336 27.93 538.992 27.93C537.83 27.93 537.186 28.546 536.906 29.624L536.78 29.61C536.864 29.106 536.99 28.462 536.99 28.112V28H535.786V37.492H536.99V34.958C536.99 34.608 536.864 33.964 536.78 33.46L536.906 33.446C537.186 34.524 537.83 35.14 538.992 35.14ZM538.698 34.146C537.704 34.146 537.046 33.166 537.046 31.5C537.046 29.862 537.704 28.854 538.698 28.854C539.678 28.854 540.434 29.862 540.434 31.5C540.434 33.166 539.678 34.146 538.698 34.146ZM548.266 32.676L547.104 32.662C547.104 33.782 546.404 34.174 545.676 34.174C544.696 34.174 543.926 33.418 543.912 31.57H548.182C548.224 31.318 548.238 31.052 548.238 30.814C548.238 29.204 547.412 27.86 545.634 27.86C543.646 27.86 542.694 29.484 542.694 31.556C542.694 33.544 543.576 35.14 545.606 35.14C547.216 35.14 548.224 34.216 548.266 32.676ZM545.578 28.812C546.502 28.812 547.062 29.442 547.062 30.688V30.814H543.926C543.996 29.624 544.57 28.812 545.578 28.812ZM554.712 34.062V28H550.484C550.442 29.806 550.386 31.85 550.274 32.424C550.078 33.446 549.77 34.062 549.098 34.062H548.972V36.876H549.98V35H554.67V36.876H555.678V34.062H554.712ZM550.33 34.062V33.964C550.862 33.656 551.17 33.068 551.282 32.158C551.338 31.696 551.408 30.464 551.464 29.092H553.55V34.062H550.33ZM560.944 29.386L561.056 29.414C560.902 30.114 560.832 31.08 560.818 32.088L560.804 35H561.966V28H560.804L559.04 31.108C558.256 32.48 558.088 33.138 557.822 33.726L557.696 33.67C557.878 33.026 557.934 31.682 557.934 30.688V28H556.772V35H557.976L559.656 32.046C560.51 30.534 560.678 29.988 560.944 29.386ZM566.5 35V29.064H568.74V28H563.056V29.064H565.296V35H566.5ZM573.685 35V31.962H576.625V35H577.815V28H576.625V30.884H573.685V28H572.495V35H573.685ZM579.63 30.072H580.764C580.624 29.302 581.086 28.784 581.996 28.784C582.85 28.784 583.298 29.274 583.298 30.296V30.562C581.576 30.716 579.28 30.842 579.28 33.152C579.28 34.146 579.896 35.14 581.338 35.14C582.528 35.14 583.102 34.468 583.382 33.614H583.508C583.424 34.09 583.284 34.706 583.284 34.888V35H584.474V30.38C584.474 28.798 583.872 27.86 582.122 27.86C580.456 27.86 579.546 28.77 579.63 30.072ZM581.772 34.244C580.988 34.244 580.428 33.726 580.428 32.97C580.428 32.06 580.96 31.402 583.298 31.234C583.326 31.654 583.326 32.088 583.298 32.508C583.228 33.502 582.64 34.244 581.772 34.244ZM585.574 34.034L585.588 35.098C587.254 35.098 587.646 34.524 587.758 33.558C587.842 32.9 587.94 30.772 588.038 29.036H590.054V35H591.216V28H587.002C586.918 29.848 586.848 32.004 586.736 33.124C586.638 34.076 586.078 34.034 585.574 34.034ZM597.27 29.386L597.382 29.414C597.228 30.114 597.158 31.08 597.144 32.088L597.13 35H598.292V28H597.13L595.366 31.108C594.582 32.48 594.414 33.138 594.148 33.726L594.022 33.67C594.204 33.026 594.26 31.682 594.26 30.688V28H593.098V35H594.302L595.982 32.046C596.836 30.534 597.004 29.988 597.27 29.386ZM603.471 28V31.332C603.093 31.486 602.617 31.556 602.155 31.556C601.455 31.542 600.825 31.29 600.825 30.394V28H599.635V30.59C599.635 32.2 600.657 32.452 601.735 32.452C602.211 32.452 602.995 32.34 603.471 32.102V35H604.661V28H603.471ZM607.728 35V31.962H610.668V35H611.858V28H610.668V30.884H607.728V28H606.538V35H607.728ZM614.877 28H613.729V35H616.109C618.265 35 618.755 33.558 618.755 32.76C618.755 31.752 618.251 31.052 617.523 30.786C617.019 30.604 616.683 30.59 615.731 30.59H614.877V28ZM620.911 35V28H619.721V35H620.911ZM617.537 32.76C617.537 33.628 616.865 34.006 616.011 34.006H614.877V31.514H616.081C617.005 31.514 617.537 31.948 617.537 32.76ZM630.003 28H628.225L627.035 31.78C626.797 32.536 626.559 33.488 626.419 34.104H626.405C626.223 33.194 625.929 32.256 625.775 31.738L624.669 28H622.933L622.611 35H623.689L623.815 30.716C623.829 30.226 623.829 29.736 623.787 28.994H623.927C624.067 29.722 624.207 30.17 624.431 30.912L625.607 34.944H627.077L628.169 31.388C628.519 30.226 628.701 29.666 628.799 28.994H628.939C628.953 29.68 628.925 30.282 628.939 30.828L629.093 35H630.283L630.003 28ZM636.153 29.386L636.265 29.414C636.111 30.114 636.041 31.08 636.027 32.088L636.013 35H637.175V28H636.013L634.249 31.108C633.465 32.48 633.297 33.138 633.031 33.726L632.905 33.67C633.087 33.026 633.143 31.682 633.143 30.688V28H631.981V35H633.185L634.865 32.046C635.719 30.534 635.887 29.988 636.153 29.386Z" fill="black" fill-opacity="0.8"/>
<path d="M38.231 82.984H30.479V94H31.975V84.31H36.735V94H38.231V82.984ZM44.574 94.17C44.948 94.17 45.356 94.102 45.798 93.881C46.563 93.49 47.243 92.674 47.549 91.501C47.685 90.974 47.77 90.396 47.77 89.75C47.77 89.104 47.685 88.526 47.549 87.999C47.192 86.605 46.206 85.415 44.574 85.415C43.163 85.415 42.381 86.163 42.041 87.472L41.888 87.455C41.99 86.843 42.143 86.061 42.143 85.636V85.5H40.681V97.026H42.143V93.949C42.143 93.524 41.99 92.742 41.888 92.13L42.041 92.113C42.381 93.422 43.163 94.17 44.574 94.17ZM44.217 92.963C43.01 92.963 42.211 91.773 42.211 89.75C42.211 87.761 43.01 86.537 44.217 86.537C45.407 86.537 46.325 87.761 46.325 89.75C46.325 91.773 45.407 92.963 44.217 92.963ZM52.6738 94.17C54.9348 94.17 56.2778 92.572 56.2778 89.75C56.2778 86.928 54.9348 85.33 52.6738 85.33C50.4128 85.33 49.0698 86.928 49.0698 89.75C49.0698 92.572 50.4128 94.17 52.6738 94.17ZM52.6738 92.997C51.5008 92.997 50.6338 91.943 50.6338 89.75C50.6338 87.591 51.5008 86.486 52.6738 86.486C53.8298 86.486 54.7138 87.591 54.7138 89.75C54.7138 91.943 53.8298 92.997 52.6738 92.997ZM57.8968 85.5V94H64.0848V96.448H65.2238V92.861H64.2378V85.5H62.8268V92.861H59.3078V85.5H57.8968ZM73.035 91.178L71.624 91.161C71.624 92.521 70.774 92.997 69.89 92.997C68.7 92.997 67.765 92.079 67.748 89.835H72.933C72.984 89.529 73.001 89.206 73.001 88.917C73.001 86.962 71.998 85.33 69.839 85.33C67.425 85.33 66.269 87.302 66.269 89.818C66.269 92.232 67.34 94.17 69.805 94.17C71.76 94.17 72.984 93.048 73.035 91.178ZM69.771 86.486C70.893 86.486 71.573 87.251 71.573 88.764V88.917H67.765C67.85 87.472 68.547 86.486 69.771 86.486ZM76.2256 94V90.311H79.7956V94H81.2406V85.5H79.7956V89.002H76.2256V85.5H74.7806V94H76.2256ZM86.743 94V86.792H89.463V85.5H82.561V86.792H85.281V94H86.743ZM92.2295 94V90.311H95.7995V94H97.2445V85.5H95.7995V89.002H92.2295V85.5H90.7845V94H92.2295ZM99.4489 88.016H100.826C100.656 87.081 101.217 86.452 102.322 86.452C103.359 86.452 103.903 87.047 103.903 88.288V88.611C101.812 88.798 99.0239 88.951 99.0239 91.756C99.0239 92.963 99.7719 94.17 101.523 94.17C102.968 94.17 103.665 93.354 104.005 92.317H104.158C104.056 92.895 103.886 93.643 103.886 93.864V94H105.331V88.39C105.331 86.469 104.6 85.33 102.475 85.33C100.452 85.33 99.3469 86.435 99.4489 88.016ZM102.05 93.082C101.098 93.082 100.418 92.453 100.418 91.535C100.418 90.43 101.064 89.631 103.903 89.427C103.937 89.937 103.937 90.464 103.903 90.974C103.818 92.181 103.104 93.082 102.05 93.082ZM108.537 88.084C108.537 87.03 109.285 86.622 110.407 86.622H111.869V89.614H110.594C109.387 89.614 108.537 89.087 108.537 88.084ZM106.769 94H108.486C108.724 93.303 108.894 92.419 109.081 91.807C109.353 90.906 109.693 90.821 110.56 90.821H111.869V94H113.263V85.5H110.781C109.625 85.5 109.166 85.517 108.571 85.755C107.721 86.095 107.109 86.86 107.109 88.016C107.109 89.019 107.653 90.09 109.421 90.073V90.311C108.469 90.362 107.959 90.804 107.653 91.637C107.381 92.385 107.075 93.694 106.769 94ZM124.963 90.736L123.552 90.719C123.637 92.521 122.702 93.031 121.903 93.031C120.611 93.031 119.829 91.926 119.829 89.75C119.829 87.693 120.56 86.503 121.869 86.503C122.889 86.503 123.535 87.217 123.518 88.662L124.946 88.679C125.048 86.571 123.79 85.33 121.869 85.33C119.319 85.33 118.282 87.438 118.282 89.818C118.282 92.351 119.319 94.17 121.869 94.17C123.892 94.17 124.997 92.759 124.963 90.736ZM129.824 94V86.792H132.544V85.5H125.642V86.792H128.362V94H129.824ZM133.648 88.016H135.025C134.855 87.081 135.416 86.452 136.521 86.452C137.558 86.452 138.102 87.047 138.102 88.288V88.611C136.011 88.798 133.223 88.951 133.223 91.756C133.223 92.963 133.971 94.17 135.722 94.17C137.167 94.17 137.864 93.354 138.204 92.317H138.357C138.255 92.895 138.085 93.643 138.085 93.864V94H139.53V88.39C139.53 86.469 138.799 85.33 136.674 85.33C134.651 85.33 133.546 86.435 133.648 88.016ZM136.249 93.082C135.297 93.082 134.617 92.453 134.617 91.535C134.617 90.43 135.263 89.631 138.102 89.427C138.136 89.937 138.136 90.464 138.102 90.974C138.017 92.181 137.303 93.082 136.249 93.082ZM142.005 94H143.399H145.286C145.898 94 146.374 93.966 146.833 93.813C147.904 93.473 148.465 92.657 148.465 91.62C148.465 90.804 147.938 89.767 146.391 89.665V89.546C147.615 89.274 148.142 88.373 148.142 87.608C148.142 86.078 146.952 85.5 145.66 85.5H143.399H142.005V94ZM143.399 92.878V90.226H145.456C146.238 90.226 147.037 90.6 147.037 91.535C147.037 92.47 146.357 92.878 145.405 92.878H143.399ZM143.399 89.155V86.588H145.354C146.085 86.588 146.731 86.945 146.731 87.812C146.731 88.696 145.983 89.155 145.15 89.155H143.399ZM151.763 94V90.243H152.545C153.395 90.243 153.701 90.702 153.956 91.467C154.279 92.453 154.534 93.541 154.891 94H156.591C156.217 93.575 156.013 93.116 155.775 92.521C155.554 91.96 155.35 91.297 155.231 90.991C154.942 90.226 154.568 89.903 153.701 89.75V89.597C154.432 89.444 154.857 89.155 155.197 88.475C155.401 88.067 155.554 87.608 155.792 86.911C155.945 86.469 156.183 85.84 156.523 85.5H154.891C154.5 86.027 154.228 87.285 153.888 88.169C153.616 88.883 153.276 89.189 152.545 89.189H151.763V85.5H150.318V94H151.763ZM157.671 88.016H159.048C158.878 87.081 159.439 86.452 160.544 86.452C161.581 86.452 162.125 87.047 162.125 88.288V88.611C160.034 88.798 157.246 88.951 157.246 91.756C157.246 92.963 157.994 94.17 159.745 94.17C161.19 94.17 161.887 93.354 162.227 92.317H162.38C162.278 92.895 162.108 93.643 162.108 93.864V94H163.553V88.39C163.553 86.469 162.822 85.33 160.697 85.33C158.674 85.33 157.569 86.435 157.671 88.016ZM160.272 93.082C159.32 93.082 158.64 92.453 158.64 91.535C158.64 90.43 159.286 89.631 162.125 89.427C162.159 89.937 162.159 90.464 162.125 90.974C162.04 92.181 161.326 93.082 160.272 93.082Z" fill="black"/>
<path d="M277.389 94.187C277.984 94.187 278.579 94.102 279.208 93.813C280.296 93.303 281.231 92.283 281.639 90.77C281.826 90.09 281.945 89.342 281.945 88.509C281.945 87.71 281.843 86.928 281.639 86.248C281.197 84.752 280.279 83.698 279.225 83.188C278.596 82.882 278.001 82.831 277.423 82.831C276.794 82.831 276.182 82.95 275.57 83.222C274.465 83.715 273.581 84.735 273.122 86.248C272.918 86.928 272.816 87.71 272.816 88.509C272.816 89.342 272.918 90.09 273.122 90.77C273.564 92.266 274.465 93.32 275.502 93.796C276.165 94.102 276.743 94.187 277.389 94.187ZM277.372 92.861C275.621 92.861 274.431 91.246 274.431 88.509C274.431 85.806 275.621 84.174 277.372 84.174C279.089 84.174 280.296 85.806 280.313 88.509C280.33 91.246 279.089 92.861 277.372 92.861ZM287.127 94V86.792H289.847V85.5H282.945V86.792H285.665V94H287.127ZM298.095 86.843C296.99 86.843 296.106 87.319 295.562 88.39L295.426 88.373C295.443 86.656 295.953 84.089 297.874 84.089C298.69 84.089 299.268 84.599 299.234 85.5H300.764C300.9 83.936 299.795 82.831 298.01 82.831C295.239 82.831 294.083 85.415 294.083 89.002C294.083 92.742 295.545 94.136 297.636 94.136C299.506 94.136 301.121 92.878 301.121 90.362C301.121 87.863 299.489 86.843 298.095 86.843ZM297.67 92.861C296.565 92.861 295.698 91.892 295.698 90.447C295.698 88.849 296.548 87.982 297.687 87.982C298.707 87.982 299.608 88.696 299.608 90.464C299.608 92.147 298.707 92.861 297.67 92.861ZM304.36 91.637C303.833 91.637 303.374 92.079 303.374 92.861C303.374 93.694 303.816 94.119 304.343 94.119C304.343 94.493 303.918 95.445 303.578 95.921L304.139 96.074C304.598 95.649 305.329 94.187 305.329 92.963C305.329 91.977 304.87 91.637 304.36 91.637ZM310.44 90.192C311.545 90.192 312.429 89.716 312.973 88.645L313.109 88.662C313.092 90.379 312.582 92.946 310.661 92.946C309.845 92.946 309.267 92.436 309.301 91.535H307.771C307.635 93.099 308.74 94.204 310.525 94.204C313.296 94.204 314.452 91.62 314.452 88.033C314.452 84.293 312.99 82.899 310.899 82.899C309.029 82.899 307.414 84.157 307.414 86.673C307.414 89.172 309.046 90.192 310.44 90.192ZM310.865 84.174C311.97 84.174 312.837 85.143 312.837 86.588C312.837 88.186 311.987 89.053 310.848 89.053C309.828 89.053 308.927 88.339 308.927 86.571C308.927 84.888 309.828 84.174 310.865 84.174ZM326.759 82.984L320.469 94H321.642L327.932 82.984H326.759ZM321.676 87.778C321.982 87.778 322.288 87.727 322.611 87.608C323.172 87.387 323.665 86.928 323.886 86.282C323.988 85.993 324.039 85.653 324.039 85.296C324.039 84.939 323.988 84.616 323.886 84.327C323.665 83.664 323.172 83.205 322.611 82.984C322.288 82.865 321.982 82.831 321.676 82.831C321.37 82.831 321.047 82.882 320.724 83.018C320.163 83.222 319.704 83.664 319.449 84.327C319.347 84.616 319.296 84.939 319.296 85.296C319.296 85.653 319.347 85.993 319.449 86.282C319.67 86.928 320.163 87.387 320.724 87.608C321.047 87.727 321.353 87.778 321.676 87.778ZM321.676 86.894C320.996 86.894 320.486 86.384 320.486 85.296C320.486 84.242 320.996 83.698 321.676 83.698C322.339 83.698 322.849 84.242 322.849 85.296C322.849 86.384 322.339 86.894 321.676 86.894ZM326.776 94.136C327.082 94.136 327.388 94.085 327.711 93.966C328.272 93.762 328.765 93.286 328.986 92.64C329.088 92.351 329.139 92.011 329.139 91.654C329.139 91.297 329.088 90.974 328.986 90.685C328.748 90.022 328.272 89.546 327.711 89.342C327.388 89.223 327.082 89.189 326.776 89.189C326.47 89.189 326.147 89.24 325.824 89.376C325.28 89.614 324.787 90.022 324.549 90.685C324.447 90.974 324.396 91.297 324.396 91.654C324.396 92.011 324.447 92.351 324.549 92.64C324.77 93.286 325.263 93.762 325.824 93.966C326.147 94.085 326.453 94.136 326.776 94.136ZM326.776 93.252C326.096 93.252 325.586 92.742 325.586 91.654C325.586 90.6 326.096 90.056 326.776 90.056C327.439 90.056 327.949 90.6 327.949 91.654C327.949 92.742 327.439 93.252 326.776 93.252Z" fill="black"/>
<path d="M532.389 94.187C532.984 94.187 533.579 94.102 534.208 93.813C535.296 93.303 536.231 92.283 536.639 90.77C536.826 90.09 536.945 89.342 536.945 88.509C536.945 87.71 536.843 86.928 536.639 86.248C536.197 84.752 535.279 83.698 534.225 83.188C533.596 82.882 533.001 82.831 532.423 82.831C531.794 82.831 531.182 82.95 530.57 83.222C529.465 83.715 528.581 84.735 528.122 86.248C527.918 86.928 527.816 87.71 527.816 88.509C527.816 89.342 527.918 90.09 528.122 90.77C528.564 92.266 529.465 93.32 530.502 93.796C531.165 94.102 531.743 94.187 532.389 94.187ZM532.372 92.861C530.621 92.861 529.431 91.246 529.431 88.509C529.431 85.806 530.621 84.174 532.372 84.174C534.089 84.174 535.296 85.806 535.313 88.509C535.33 91.246 534.089 92.861 532.372 92.861ZM542.127 94V86.792H544.847V85.5H537.945V86.792H540.665V94H542.127ZM554.268 88.373V88.22C555.373 87.761 556.138 87.098 556.138 85.687C556.138 83.8 554.625 82.78 552.687 82.78C550.749 82.78 549.236 83.8 549.236 85.687C549.236 87.098 550.001 87.761 551.106 88.22V88.373C549.865 88.781 549.015 89.75 549.015 91.195C549.015 93.167 550.715 94.17 552.636 94.17C554.489 94.17 556.359 93.167 556.359 91.195C556.359 89.75 555.509 88.781 554.268 88.373ZM552.687 84.004C553.656 84.004 554.642 84.548 554.642 85.874C554.642 87.2 553.639 87.71 552.925 87.727H552.449C551.735 87.727 550.732 87.2 550.732 85.874C550.732 84.548 551.718 84.004 552.687 84.004ZM552.721 92.946C551.633 92.946 550.562 92.402 550.562 91.008C550.562 89.597 551.701 89.002 552.364 89.002H553.01C553.673 89.002 554.812 89.597 554.812 91.008C554.812 92.402 553.741 92.946 552.721 92.946ZM559.36 91.637C558.833 91.637 558.374 92.079 558.374 92.861C558.374 93.694 558.816 94.119 559.343 94.119C559.343 94.493 558.918 95.445 558.578 95.921L559.139 96.074C559.598 95.649 560.329 94.187 560.329 92.963C560.329 91.977 559.87 91.637 559.36 91.637ZM565.44 90.192C566.545 90.192 567.429 89.716 567.973 88.645L568.109 88.662C568.092 90.379 567.582 92.946 565.661 92.946C564.845 92.946 564.267 92.436 564.301 91.535H562.771C562.635 93.099 563.74 94.204 565.525 94.204C568.296 94.204 569.452 91.62 569.452 88.033C569.452 84.293 567.99 82.899 565.899 82.899C564.029 82.899 562.414 84.157 562.414 86.673C562.414 89.172 564.046 90.192 565.44 90.192ZM565.865 84.174C566.97 84.174 567.837 85.143 567.837 86.588C567.837 88.186 566.987 89.053 565.848 89.053C564.828 89.053 563.927 88.339 563.927 86.571C563.927 84.888 564.828 84.174 565.865 84.174ZM581.759 82.984L575.469 94H576.642L582.932 82.984H581.759ZM576.676 87.778C576.982 87.778 577.288 87.727 577.611 87.608C578.172 87.387 578.665 86.928 578.886 86.282C578.988 85.993 579.039 85.653 579.039 85.296C579.039 84.939 578.988 84.616 578.886 84.327C578.665 83.664 578.172 83.205 577.611 82.984C577.288 82.865 576.982 82.831 576.676 82.831C576.37 82.831 576.047 82.882 575.724 83.018C575.163 83.222 574.704 83.664 574.449 84.327C574.347 84.616 574.296 84.939 574.296 85.296C574.296 85.653 574.347 85.993 574.449 86.282C574.67 86.928 575.163 87.387 575.724 87.608C576.047 87.727 576.353 87.778 576.676 87.778ZM576.676 86.894C575.996 86.894 575.486 86.384 575.486 85.296C575.486 84.242 575.996 83.698 576.676 83.698C577.339 83.698 577.849 84.242 577.849 85.296C577.849 86.384 577.339 86.894 576.676 86.894ZM581.776 94.136C582.082 94.136 582.388 94.085 582.711 93.966C583.272 93.762 583.765 93.286 583.986 92.64C584.088 92.351 584.139 92.011 584.139 91.654C584.139 91.297 584.088 90.974 583.986 90.685C583.748 90.022 583.272 89.546 582.711 89.342C582.388 89.223 582.082 89.189 581.776 89.189C581.47 89.189 581.147 89.24 580.824 89.376C580.28 89.614 579.787 90.022 579.549 90.685C579.447 90.974 579.396 91.297 579.396 91.654C579.396 92.011 579.447 92.351 579.549 92.64C579.77 93.286 580.263 93.762 580.824 93.966C581.147 94.085 581.453 94.136 581.776 94.136ZM581.776 93.252C581.096 93.252 580.586 92.742 580.586 91.654C580.586 90.6 581.096 90.056 581.776 90.056C582.439 90.056 582.949 90.6 582.949 91.654C582.949 92.742 582.439 93.252 581.776 93.252Z" fill="black"/>
<path d="M41.665 156L40.492 144.984H38.554L35.715 154.436L32.774 144.984H30.819L29.68 156H31.108L31.703 150.067C31.839 148.758 31.805 147.517 31.72 146.65H31.924C31.992 147.143 32.162 148.146 32.553 149.353L34.746 156H36.446L38.605 149.353C38.979 148.18 39.166 147.194 39.234 146.65H39.438C39.37 147.551 39.387 148.775 39.506 150.067L40.067 156H41.665ZM43.4187 150.016H44.7957C44.6257 149.081 45.1867 148.452 46.2917 148.452C47.3287 148.452 47.8727 149.047 47.8727 150.288V150.611C45.7817 150.798 42.9937 150.951 42.9937 153.756C42.9937 154.963 43.7417 156.17 45.4927 156.17C46.9377 156.17 47.6347 155.354 47.9747 154.317H48.1277C48.0257 154.895 47.8557 155.643 47.8557 155.864V156H49.3007V150.39C49.3007 148.469 48.5697 147.33 46.4447 147.33C44.4217 147.33 43.3167 148.435 43.4187 150.016ZM46.0197 155.082C45.0677 155.082 44.3877 154.453 44.3877 153.535C44.3877 152.43 45.0337 151.631 47.8727 151.427C47.9067 151.937 47.9067 152.464 47.8727 152.974C47.7877 154.181 47.0737 155.082 46.0197 155.082ZM53.0166 156V152.243H53.7986C54.6486 152.243 54.9546 152.702 55.2096 153.467C55.5326 154.453 55.7876 155.541 56.1446 156H57.8446C57.4706 155.575 57.2666 155.116 57.0286 154.521C56.8076 153.96 56.6036 153.297 56.4846 152.991C56.1956 152.226 55.8216 151.903 54.9546 151.75V151.597C55.6856 151.444 56.1106 151.155 56.4506 150.475C56.6546 150.067 56.8076 149.608 57.0456 148.911C57.1986 148.469 57.4366 147.84 57.7766 147.5H56.1446C55.7536 148.027 55.4816 149.285 55.1416 150.169C54.8696 150.883 54.5296 151.189 53.7986 151.189H53.0166V147.5H51.5716V156H53.0166ZM65.1805 152.736L63.7695 152.719C63.8545 154.521 62.9195 155.031 62.1205 155.031C60.8285 155.031 60.0465 153.926 60.0465 151.75C60.0465 149.693 60.7775 148.503 62.0865 148.503C63.1065 148.503 63.7525 149.217 63.7355 150.662L65.1635 150.679C65.2655 148.571 64.0075 147.33 62.0865 147.33C59.5365 147.33 58.4995 149.438 58.4995 151.818C58.4995 154.351 59.5365 156.17 62.0865 156.17C64.1095 156.17 65.2145 154.759 65.1805 152.736ZM71.8779 149.183L72.0139 149.217C71.8269 150.067 71.7419 151.24 71.7249 152.464L71.7079 156H73.1189V147.5H71.7079L69.5659 151.274C68.6139 152.94 68.4099 153.739 68.0869 154.453L67.9339 154.385C68.1549 153.603 68.2229 151.971 68.2229 150.764V147.5H66.8119V156H68.2739L70.3139 152.413C71.3509 150.577 71.5549 149.914 71.8779 149.183ZM84.1499 147.5H81.9909L80.5459 152.09C80.2569 153.008 79.9679 154.164 79.7979 154.912H79.7809C79.5599 153.807 79.2029 152.668 79.0159 152.039L77.6729 147.5H75.5649L75.1739 156H76.4829L76.6359 150.798C76.6529 150.203 76.6529 149.608 76.6019 148.707H76.7719C76.9419 149.591 77.1119 150.135 77.3839 151.036L78.8119 155.932H80.5969L81.9229 151.614C82.3479 150.203 82.5689 149.523 82.6879 148.707H82.8579C82.8749 149.54 82.8409 150.271 82.8579 150.934L83.0449 156H84.4899L84.1499 147.5ZM86.4831 150.016H87.8601C87.6901 149.081 88.2511 148.452 89.3561 148.452C90.3931 148.452 90.9371 149.047 90.9371 150.288V150.611C88.8461 150.798 86.0581 150.951 86.0581 153.756C86.0581 154.963 86.8061 156.17 88.5571 156.17C90.0021 156.17 90.6991 155.354 91.0391 154.317H91.1921C91.0901 154.895 90.9201 155.643 90.9201 155.864V156H92.3651V150.39C92.3651 148.469 91.6341 147.33 89.5091 147.33C87.4861 147.33 86.3811 148.435 86.4831 150.016ZM89.0841 155.082C88.1321 155.082 87.4521 154.453 87.4521 153.535C87.4521 152.43 88.0981 151.631 90.9371 151.427C90.9711 151.937 90.9711 152.464 90.9371 152.974C90.8521 154.181 90.1381 155.082 89.0841 155.082ZM93.7011 154.827L93.7181 156.119C95.7411 156.119 96.2171 155.422 96.3531 154.249C96.4551 153.45 96.5741 150.866 96.6931 148.758H99.1411V156H100.552V147.5H95.4351C95.3331 149.744 95.2481 152.362 95.1121 153.722C94.9931 154.878 94.3131 154.827 93.7011 154.827ZM104.231 147.5H102.837V156H105.727C108.345 156 108.94 154.249 108.94 153.28C108.94 152.056 108.328 151.206 107.444 150.883C106.832 150.662 106.424 150.645 105.268 150.645H104.231V147.5ZM107.461 153.28C107.461 154.334 106.645 154.793 105.608 154.793H104.231V151.767H105.693C106.815 151.767 107.461 152.294 107.461 153.28ZM112.102 156V152.311H115.672V156H117.117V147.5H115.672V151.002H112.102V147.5H110.657V156H112.102ZM119.321 150.016H120.698C120.528 149.081 121.089 148.452 122.194 148.452C123.231 148.452 123.775 149.047 123.775 150.288V150.611C121.684 150.798 118.896 150.951 118.896 153.756C118.896 154.963 119.644 156.17 121.395 156.17C122.84 156.17 123.537 155.354 123.877 154.317H124.03C123.928 154.895 123.758 155.643 123.758 155.864V156H125.203V150.39C125.203 148.469 124.472 147.33 122.347 147.33C120.324 147.33 119.219 148.435 119.321 150.016ZM121.922 155.082C120.97 155.082 120.29 154.453 120.29 153.535C120.29 152.43 120.936 151.631 123.775 151.427C123.809 151.937 123.809 152.464 123.775 152.974C123.69 154.181 122.976 155.082 121.922 155.082ZM128.409 150.084C128.409 149.03 129.157 148.622 130.279 148.622H131.741V151.614H130.466C129.259 151.614 128.409 151.087 128.409 150.084ZM126.641 156H128.358C128.596 155.303 128.766 154.419 128.953 153.807C129.225 152.906 129.565 152.821 130.432 152.821H131.741V156H133.135V147.5H130.653C129.497 147.5 129.038 147.517 128.443 147.755C127.593 148.095 126.981 148.86 126.981 150.016C126.981 151.019 127.525 152.09 129.293 152.073V152.311C128.341 152.362 127.831 152.804 127.525 153.637C127.253 154.385 126.947 155.694 126.641 156ZM144.835 152.736L143.424 152.719C143.509 154.521 142.574 155.031 141.775 155.031C140.483 155.031 139.701 153.926 139.701 151.75C139.701 149.693 140.432 148.503 141.741 148.503C142.761 148.503 143.407 149.217 143.39 150.662L144.818 150.679C144.92 148.571 143.662 147.33 141.741 147.33C139.191 147.33 138.154 149.438 138.154 151.818C138.154 154.351 139.191 156.17 141.741 156.17C143.764 156.17 144.869 154.759 144.835 152.736ZM152.436 147.5H150.923L149.784 151.444C149.308 153.076 149.087 154.181 149.036 154.47H148.917C148.815 153.892 148.747 153.433 148.169 151.597L146.894 147.5H145.364L148.169 155.847L147.217 158.975H148.645L149.614 155.813L152.436 147.5ZM162.26 147.5H160.101L158.656 152.09C158.367 153.008 158.078 154.164 157.908 154.912H157.891C157.67 153.807 157.313 152.668 157.126 152.039L155.783 147.5H153.675L153.284 156H154.593L154.746 150.798C154.763 150.203 154.763 149.608 154.712 148.707H154.882C155.052 149.591 155.222 150.135 155.494 151.036L156.922 155.932H158.707L160.033 151.614C160.458 150.203 160.679 149.523 160.798 148.707H160.968C160.985 149.54 160.951 150.271 160.968 150.934L161.155 156H162.6L162.26 147.5ZM173.416 147.5H171.257L169.812 152.09C169.523 153.008 169.234 154.164 169.064 154.912H169.047C168.826 153.807 168.469 152.668 168.282 152.039L166.939 147.5H164.831L164.44 156H165.749L165.902 150.798C165.919 150.203 165.919 149.608 165.868 148.707H166.038C166.208 149.591 166.378 150.135 166.65 151.036L168.078 155.932H169.863L171.189 151.614C171.614 150.203 171.835 149.523 171.954 148.707H172.124C172.141 149.54 172.107 150.271 172.124 150.934L172.311 156H173.756L173.416 147.5ZM175.75 150.016H177.127C176.957 149.081 177.518 148.452 178.623 148.452C179.66 148.452 180.204 149.047 180.204 150.288V150.611C178.113 150.798 175.325 150.951 175.325 153.756C175.325 154.963 176.073 156.17 177.824 156.17C179.269 156.17 179.966 155.354 180.306 154.317H180.459C180.357 154.895 180.187 155.643 180.187 155.864V156H181.632V150.39C181.632 148.469 180.901 147.33 178.776 147.33C176.753 147.33 175.648 148.435 175.75 150.016ZM178.351 155.082C177.399 155.082 176.719 154.453 176.719 153.535C176.719 152.43 177.365 151.631 180.204 151.427C180.238 151.937 180.238 152.464 180.204 152.974C180.119 154.181 179.405 155.082 178.351 155.082Z" fill="black"/>
<path d="M273.343 148.435H274.822C274.771 148.18 274.754 147.942 274.754 147.721C274.754 146.497 275.519 146.021 276.488 146.021C277.491 146.021 278.29 146.463 278.29 147.806C278.29 149.115 277.372 149.625 276.896 149.625H275.774V151.104H276.896C277.372 151.104 278.29 151.682 278.29 153.042C278.29 154.385 277.474 154.963 276.471 154.963C275.434 154.963 274.618 154.504 274.618 153.28C274.618 153.076 274.635 152.872 274.669 152.651H273.156C273.122 152.889 273.105 153.11 273.105 153.314C273.105 155.235 274.244 156.187 276.369 156.187C278.256 156.187 279.82 155.303 279.82 153.195C279.82 151.852 279.14 150.9 277.967 150.424V150.237C279.106 149.812 279.82 149.013 279.82 147.67C279.82 145.664 278.426 144.797 276.607 144.797C274.686 144.797 273.275 145.766 273.275 147.687C273.275 147.908 273.292 148.163 273.343 148.435ZM288.268 156.187C290.461 156.187 291.804 153.994 291.77 150.509C291.787 147.024 290.444 144.831 288.285 144.831C286.092 144.831 284.732 147.024 284.749 150.509C284.732 153.994 286.092 156.187 288.268 156.187ZM288.251 154.929C287.027 154.929 286.262 153.297 286.262 150.509C286.262 147.755 287.027 146.106 288.251 146.106C289.475 146.106 290.24 147.755 290.24 150.509C290.257 153.297 289.475 154.929 288.251 154.929ZM297.1 156.187C299.293 156.187 300.636 153.994 300.602 150.509C300.619 147.024 299.276 144.831 297.117 144.831C294.924 144.831 293.564 147.024 293.581 150.509C293.564 153.994 294.924 156.187 297.1 156.187ZM297.083 154.929C295.859 154.929 295.094 153.297 295.094 150.509C295.094 147.755 295.859 146.106 297.083 146.106C298.307 146.106 299.072 147.755 299.072 150.509C299.089 153.297 298.307 154.929 297.083 154.929ZM305.932 156.187C308.125 156.187 309.468 153.994 309.434 150.509C309.451 147.024 308.108 144.831 305.949 144.831C303.756 144.831 302.396 147.024 302.413 150.509C302.396 153.994 303.756 156.187 305.932 156.187ZM305.915 154.929C304.691 154.929 303.926 153.297 303.926 150.509C303.926 147.755 304.691 146.106 305.915 146.106C307.139 146.106 307.904 147.755 307.904 150.509C307.921 153.297 307.139 154.929 305.915 154.929ZM318.002 156.187C320.195 156.187 321.538 153.994 321.504 150.509C321.521 147.024 320.178 144.831 318.019 144.831C315.826 144.831 314.466 147.024 314.483 150.509C314.466 153.994 315.826 156.187 318.002 156.187ZM317.985 154.929C316.761 154.929 315.996 153.297 315.996 150.509C315.996 147.755 316.761 146.106 317.985 146.106C319.209 146.106 319.974 147.755 319.974 150.509C319.991 153.297 319.209 154.929 317.985 154.929ZM326.834 156.187C329.027 156.187 330.37 153.994 330.336 150.509C330.353 147.024 329.01 144.831 326.851 144.831C324.658 144.831 323.298 147.024 323.315 150.509C323.298 153.994 324.658 156.187 326.834 156.187ZM326.817 154.929C325.593 154.929 324.828 153.297 324.828 150.509C324.828 147.755 325.593 146.106 326.817 146.106C328.041 146.106 328.806 147.755 328.806 150.509C328.823 153.297 328.041 154.929 326.817 154.929ZM335.666 156.187C337.859 156.187 339.202 153.994 339.168 150.509C339.185 147.024 337.842 144.831 335.683 144.831C333.49 144.831 332.13 147.024 332.147 150.509C332.13 153.994 333.49 156.187 335.666 156.187ZM335.649 154.929C334.425 154.929 333.66 153.297 333.66 150.509C333.66 147.755 334.425 146.106 335.649 146.106C336.873 146.106 337.638 147.755 337.638 150.509C337.655 153.297 336.873 154.929 335.649 154.929ZM348.568 156.17C348.942 156.17 349.35 156.102 349.792 155.881C350.557 155.49 351.237 154.674 351.543 153.501C351.679 152.974 351.764 152.396 351.764 151.75C351.764 151.104 351.679 150.526 351.543 149.999C351.186 148.605 350.2 147.415 348.568 147.415C347.157 147.415 346.375 148.163 346.035 149.472L345.882 149.455C345.984 148.843 346.137 148.061 346.137 147.636V147.5H344.675V159.026H346.137V155.949C346.137 155.524 345.984 154.742 345.882 154.13L346.035 154.113C346.375 155.422 347.157 156.17 348.568 156.17ZM348.211 154.963C347.004 154.963 346.205 153.773 346.205 151.75C346.205 149.761 347.004 148.537 348.211 148.537C349.401 148.537 350.319 149.761 350.319 151.75C350.319 153.773 349.401 154.963 348.211 154.963ZM359.36 147.5H357.847L356.708 151.444C356.232 153.076 356.011 154.181 355.96 154.47H355.841C355.739 153.892 355.671 153.433 355.093 151.597L353.818 147.5H352.288L355.093 155.847L354.141 158.975H355.569L356.538 155.813L359.36 147.5ZM367.276 149.812C366.919 148.452 365.865 147.5 364.318 147.5C363.026 147.5 361.802 148.282 361.53 150.084H361.275C361.207 147.925 362.193 146.633 364.012 146.055C365.355 145.63 366.052 145.528 366.613 144.984L366.46 143.624C365.542 144.219 364.743 144.321 363.298 144.882C360.289 146.072 360.408 148.809 360.306 150.798C360.306 153.467 360.697 155.082 362.244 155.847C362.822 156.136 363.434 156.17 363.91 156.17C364.386 156.17 364.862 156.102 365.338 155.881C366.188 155.49 366.936 154.674 367.276 153.501C367.429 152.974 367.514 152.396 367.514 151.75C367.514 151.104 367.463 150.492 367.276 149.812ZM363.927 154.997C362.72 154.997 361.87 153.943 361.87 151.733C361.87 149.591 362.737 148.486 363.91 148.486C365.066 148.486 365.95 149.591 365.95 151.75C365.95 153.943 365.049 154.997 363.927 154.997ZM368.36 154.827L368.377 156.119C370.4 156.119 370.876 155.422 371.012 154.249C371.114 153.45 371.233 150.866 371.352 148.758H373.8V156H375.211V147.5H370.094C369.992 149.744 369.907 152.362 369.771 153.722C369.652 154.878 368.972 154.827 368.36 154.827ZM383.603 153.178L382.192 153.161C382.192 154.521 381.342 154.997 380.458 154.997C379.268 154.997 378.333 154.079 378.316 151.835H383.501C383.552 151.529 383.569 151.206 383.569 150.917C383.569 148.962 382.566 147.33 380.407 147.33C377.993 147.33 376.837 149.302 376.837 151.818C376.837 154.232 377.908 156.17 380.373 156.17C382.328 156.17 383.552 155.048 383.603 153.178ZM380.339 148.486C381.461 148.486 382.141 149.251 382.141 150.764V150.917H378.333C378.418 149.472 379.115 148.486 380.339 148.486ZM390.415 149.183L390.551 149.217C390.364 150.067 390.279 151.24 390.262 152.464L390.245 156H391.656V147.5H390.245L388.103 151.274C387.151 152.94 386.947 153.739 386.624 154.453L386.471 154.385C386.692 153.603 386.76 151.971 386.76 150.764V147.5H385.349V156H386.811L388.851 152.413C389.888 150.577 390.092 149.914 390.415 149.183ZM386.369 145.477V146.412C387.1 146.582 387.848 146.667 388.579 146.667C389.31 146.667 390.041 146.582 390.789 146.412V145.477C390.041 145.647 389.31 145.732 388.579 145.732C387.848 145.732 387.1 145.647 386.369 145.477Z" fill="black"/>
<path d="M529.329 154.691V154.606C531.437 153.756 534.752 151.359 534.752 148.214C534.752 145.902 533.341 144.78 531.386 144.78C529.55 144.78 528.071 145.885 528.071 147.721C528.071 148.078 528.139 148.367 528.258 148.639H529.686C529.618 148.316 529.584 148.044 529.584 147.772C529.584 146.548 530.332 146.14 531.301 146.14C532.338 146.14 533.171 146.718 533.171 148.35C533.171 150.458 531.386 152.821 528.326 154.385V156H534.701V154.691H529.329ZM543.268 156.187C545.461 156.187 546.804 153.994 546.77 150.509C546.787 147.024 545.444 144.831 543.285 144.831C541.092 144.831 539.732 147.024 539.749 150.509C539.732 153.994 541.092 156.187 543.268 156.187ZM543.251 154.929C542.027 154.929 541.262 153.297 541.262 150.509C541.262 147.755 542.027 146.106 543.251 146.106C544.475 146.106 545.24 147.755 545.24 150.509C545.257 153.297 544.475 154.929 543.251 154.929ZM552.1 156.187C554.293 156.187 555.636 153.994 555.602 150.509C555.619 147.024 554.276 144.831 552.117 144.831C549.924 144.831 548.564 147.024 548.581 150.509C548.564 153.994 549.924 156.187 552.1 156.187ZM552.083 154.929C550.859 154.929 550.094 153.297 550.094 150.509C550.094 147.755 550.859 146.106 552.083 146.106C553.307 146.106 554.072 147.755 554.072 150.509C554.089 153.297 553.307 154.929 552.083 154.929ZM560.932 156.187C563.125 156.187 564.468 153.994 564.434 150.509C564.451 147.024 563.108 144.831 560.949 144.831C558.756 144.831 557.396 147.024 557.413 150.509C557.396 153.994 558.756 156.187 560.932 156.187ZM560.915 154.929C559.691 154.929 558.926 153.297 558.926 150.509C558.926 147.755 559.691 146.106 560.915 146.106C562.139 146.106 562.904 147.755 562.904 150.509C562.921 153.297 562.139 154.929 560.915 154.929ZM573.002 156.187C575.195 156.187 576.538 153.994 576.504 150.509C576.521 147.024 575.178 144.831 573.019 144.831C570.826 144.831 569.466 147.024 569.483 150.509C569.466 153.994 570.826 156.187 573.002 156.187ZM572.985 154.929C571.761 154.929 570.996 153.297 570.996 150.509C570.996 147.755 571.761 146.106 572.985 146.106C574.209 146.106 574.974 147.755 574.974 150.509C574.991 153.297 574.209 154.929 572.985 154.929ZM581.834 156.187C584.027 156.187 585.37 153.994 585.336 150.509C585.353 147.024 584.01 144.831 581.851 144.831C579.658 144.831 578.298 147.024 578.315 150.509C578.298 153.994 579.658 156.187 581.834 156.187ZM581.817 154.929C580.593 154.929 579.828 153.297 579.828 150.509C579.828 147.755 580.593 146.106 581.817 146.106C583.041 146.106 583.806 147.755 583.806 150.509C583.823 153.297 583.041 154.929 581.817 154.929ZM590.666 156.187C592.859 156.187 594.202 153.994 594.168 150.509C594.185 147.024 592.842 144.831 590.683 144.831C588.49 144.831 587.13 147.024 587.147 150.509C587.13 153.994 588.49 156.187 590.666 156.187ZM590.649 154.929C589.425 154.929 588.66 153.297 588.66 150.509C588.66 147.755 589.425 146.106 590.649 146.106C591.873 146.106 592.638 147.755 592.638 150.509C592.655 153.297 591.873 154.929 590.649 154.929ZM603.568 156.17C603.942 156.17 604.35 156.102 604.792 155.881C605.557 155.49 606.237 154.674 606.543 153.501C606.679 152.974 606.764 152.396 606.764 151.75C606.764 151.104 606.679 150.526 606.543 149.999C606.186 148.605 605.2 147.415 603.568 147.415C602.157 147.415 601.375 148.163 601.035 149.472L600.882 149.455C600.984 148.843 601.137 148.061 601.137 147.636V147.5H599.675V159.026H601.137V155.949C601.137 155.524 600.984 154.742 600.882 154.13L601.035 154.113C601.375 155.422 602.157 156.17 603.568 156.17ZM603.211 154.963C602.004 154.963 601.205 153.773 601.205 151.75C601.205 149.761 602.004 148.537 603.211 148.537C604.401 148.537 605.319 149.761 605.319 151.75C605.319 153.773 604.401 154.963 603.211 154.963ZM614.36 147.5H612.847L611.708 151.444C611.232 153.076 611.011 154.181 610.96 154.47H610.841C610.739 153.892 610.671 153.433 610.093 151.597L608.818 147.5H607.288L610.093 155.847L609.141 158.975H610.569L611.538 155.813L614.36 147.5ZM622.276 149.812C621.919 148.452 620.865 147.5 619.318 147.5C618.026 147.5 616.802 148.282 616.53 150.084H616.275C616.207 147.925 617.193 146.633 619.012 146.055C620.355 145.63 621.052 145.528 621.613 144.984L621.46 143.624C620.542 144.219 619.743 144.321 618.298 144.882C615.289 146.072 615.408 148.809 615.306 150.798C615.306 153.467 615.697 155.082 617.244 155.847C617.822 156.136 618.434 156.17 618.91 156.17C619.386 156.17 619.862 156.102 620.338 155.881C621.188 155.49 621.936 154.674 622.276 153.501C622.429 152.974 622.514 152.396 622.514 151.75C622.514 151.104 622.463 150.492 622.276 149.812ZM618.927 154.997C617.72 154.997 616.87 153.943 616.87 151.733C616.87 149.591 617.737 148.486 618.91 148.486C620.066 148.486 620.95 149.591 620.95 151.75C620.95 153.943 620.049 154.997 618.927 154.997ZM623.36 154.827L623.377 156.119C625.4 156.119 625.876 155.422 626.012 154.249C626.114 153.45 626.233 150.866 626.352 148.758H628.8V156H630.211V147.5H625.094C624.992 149.744 624.907 152.362 624.771 153.722C624.652 154.878 623.972 154.827 623.36 154.827ZM638.603 153.178L637.192 153.161C637.192 154.521 636.342 154.997 635.458 154.997C634.268 154.997 633.333 154.079 633.316 151.835H638.501C638.552 151.529 638.569 151.206 638.569 150.917C638.569 148.962 637.566 147.33 635.407 147.33C632.993 147.33 631.837 149.302 631.837 151.818C631.837 154.232 632.908 156.17 635.373 156.17C637.328 156.17 638.552 155.048 638.603 153.178ZM635.339 148.486C636.461 148.486 637.141 149.251 637.141 150.764V150.917H633.333C633.418 149.472 634.115 148.486 635.339 148.486ZM645.415 149.183L645.551 149.217C645.364 150.067 645.279 151.24 645.262 152.464L645.245 156H646.656V147.5H645.245L643.103 151.274C642.151 152.94 641.947 153.739 641.624 154.453L641.471 154.385C641.692 153.603 641.76 151.971 641.76 150.764V147.5H640.349V156H641.811L643.851 152.413C644.888 150.577 645.092 149.914 645.415 149.183ZM641.369 145.477V146.412C642.1 146.582 642.848 146.667 643.579 146.667C644.31 146.667 645.041 146.582 645.789 146.412V145.477C645.041 145.647 644.31 145.732 643.579 145.732C642.848 145.732 642.1 145.647 641.369 145.477Z" fill="black"/>
<path d="M41.665 218L40.492 206.984H38.554L35.715 216.436L32.774 206.984H30.819L29.68 218H31.108L31.703 212.067C31.839 210.758 31.805 209.517 31.72 208.65H31.924C31.992 209.143 32.162 210.146 32.553 211.353L34.746 218H36.446L38.605 211.353C38.979 210.18 39.166 209.194 39.234 208.65H39.438C39.37 209.551 39.387 210.775 39.506 212.067L40.067 218H41.665ZM43.4187 212.016H44.7957C44.6257 211.081 45.1867 210.452 46.2917 210.452C47.3287 210.452 47.8727 211.047 47.8727 212.288V212.611C45.7817 212.798 42.9937 212.951 42.9937 215.756C42.9937 216.963 43.7417 218.17 45.4927 218.17C46.9377 218.17 47.6347 217.354 47.9747 216.317H48.1277C48.0257 216.895 47.8557 217.643 47.8557 217.864V218H49.3007V212.39C49.3007 210.469 48.5697 209.33 46.4447 209.33C44.4217 209.33 43.3167 210.435 43.4187 212.016ZM46.0197 217.082C45.0677 217.082 44.3877 216.453 44.3877 215.535C44.3877 214.43 45.0337 213.631 47.8727 213.427C47.9067 213.937 47.9067 214.464 47.8727 214.974C47.7877 216.181 47.0737 217.082 46.0197 217.082ZM53.0166 218V214.243H53.7986C54.6486 214.243 54.9546 214.702 55.2096 215.467C55.5326 216.453 55.7876 217.541 56.1446 218H57.8446C57.4706 217.575 57.2666 217.116 57.0286 216.521C56.8076 215.96 56.6036 215.297 56.4846 214.991C56.1956 214.226 55.8216 213.903 54.9546 213.75V213.597C55.6856 213.444 56.1106 213.155 56.4506 212.475C56.6546 212.067 56.8076 211.608 57.0456 210.911C57.1986 210.469 57.4366 209.84 57.7766 209.5H56.1446C55.7536 210.027 55.4816 211.285 55.1416 212.169C54.8696 212.883 54.5296 213.189 53.7986 213.189H53.0166V209.5H51.5716V218H53.0166ZM65.1805 214.736L63.7695 214.719C63.8545 216.521 62.9195 217.031 62.1205 217.031C60.8285 217.031 60.0465 215.926 60.0465 213.75C60.0465 211.693 60.7775 210.503 62.0865 210.503C63.1065 210.503 63.7525 211.217 63.7355 212.662L65.1635 212.679C65.2655 210.571 64.0075 209.33 62.0865 209.33C59.5365 209.33 58.4995 211.438 58.4995 213.818C58.4995 216.351 59.5365 218.17 62.0865 218.17C64.1095 218.17 65.2145 216.759 65.1805 214.736ZM71.8779 211.183L72.0139 211.217C71.8269 212.067 71.7419 213.24 71.7249 214.464L71.7079 218H73.1189V209.5H71.7079L69.5659 213.274C68.6139 214.94 68.4099 215.739 68.0869 216.453L67.9339 216.385C68.1549 215.603 68.2229 213.971 68.2229 212.764V209.5H66.8119V218H68.2739L70.3139 214.413C71.3509 212.577 71.5549 211.914 71.8779 211.183ZM84.1499 209.5H81.9909L80.5459 214.09C80.2569 215.008 79.9679 216.164 79.7979 216.912H79.7809C79.5599 215.807 79.2029 214.668 79.0159 214.039L77.6729 209.5H75.5649L75.1739 218H76.4829L76.6359 212.798C76.6529 212.203 76.6529 211.608 76.6019 210.707H76.7719C76.9419 211.591 77.1119 212.135 77.3839 213.036L78.8119 217.932H80.5969L81.9229 213.614C82.3479 212.203 82.5689 211.523 82.6879 210.707H82.8579C82.8749 211.54 82.8409 212.271 82.8579 212.934L83.0449 218H84.4899L84.1499 209.5ZM86.4831 212.016H87.8601C87.6901 211.081 88.2511 210.452 89.3561 210.452C90.3931 210.452 90.9371 211.047 90.9371 212.288V212.611C88.8461 212.798 86.0581 212.951 86.0581 215.756C86.0581 216.963 86.8061 218.17 88.5571 218.17C90.0021 218.17 90.6991 217.354 91.0391 216.317H91.1921C91.0901 216.895 90.9201 217.643 90.9201 217.864V218H92.3651V212.39C92.3651 210.469 91.6341 209.33 89.5091 209.33C87.4861 209.33 86.3811 210.435 86.4831 212.016ZM89.0841 217.082C88.1321 217.082 87.4521 216.453 87.4521 215.535C87.4521 214.43 88.0981 213.631 90.9371 213.427C90.9711 213.937 90.9711 214.464 90.9371 214.974C90.8521 216.181 90.1381 217.082 89.0841 217.082ZM93.7011 216.827L93.7181 218.119C95.7411 218.119 96.2171 217.422 96.3531 216.249C96.4551 215.45 96.5741 212.866 96.6931 210.758H99.1411V218H100.552V209.5H95.4351C95.3331 211.744 95.2481 214.362 95.1121 215.722C94.9931 216.878 94.3131 216.827 93.7011 216.827ZM104.231 209.5H102.837V218H105.727C108.345 218 108.94 216.249 108.94 215.28C108.94 214.056 108.328 213.206 107.444 212.883C106.832 212.662 106.424 212.645 105.268 212.645H104.231V209.5ZM107.461 215.28C107.461 216.334 106.645 216.793 105.608 216.793H104.231V213.767H105.693C106.815 213.767 107.461 214.294 107.461 215.28ZM112.102 218V214.311H115.672V218H117.117V209.5H115.672V213.002H112.102V209.5H110.657V218H112.102ZM120.783 209.5H119.389V218H122.279C124.897 218 125.492 216.249 125.492 215.28C125.492 214.056 124.88 213.206 123.996 212.883C123.384 212.662 122.976 212.645 121.82 212.645H120.783V209.5ZM128.11 218V209.5H126.665V218H128.11ZM124.013 215.28C124.013 216.334 123.197 216.793 122.16 216.793H120.783V213.767H122.245C123.367 213.767 124.013 214.294 124.013 215.28ZM135.462 211.183L135.598 211.217C135.411 212.067 135.326 213.24 135.309 214.464L135.292 218H136.703V209.5H135.292L133.15 213.274C132.198 214.94 131.994 215.739 131.671 216.453L131.518 216.385C131.739 215.603 131.807 213.971 131.807 212.764V209.5H130.396V218H131.858L133.898 214.413C134.935 212.577 135.139 211.914 135.462 211.183ZM131.416 207.477V208.412C132.147 208.582 132.895 208.667 133.626 208.667C134.357 208.667 135.088 208.582 135.836 208.412V207.477C135.088 207.647 134.357 207.732 133.626 207.732C132.895 207.732 132.147 207.647 131.416 207.477ZM148.404 214.736L146.993 214.719C147.078 216.521 146.143 217.031 145.344 217.031C144.052 217.031 143.27 215.926 143.27 213.75C143.27 211.693 144.001 210.503 145.31 210.503C146.33 210.503 146.976 211.217 146.959 212.662L148.387 212.679C148.489 210.571 147.231 209.33 145.31 209.33C142.76 209.33 141.723 211.438 141.723 213.818C141.723 216.351 142.76 218.17 145.31 218.17C147.333 218.17 148.438 216.759 148.404 214.736ZM153.928 218.17C154.302 218.17 154.71 218.102 155.152 217.881C155.917 217.49 156.597 216.674 156.903 215.501C157.039 214.974 157.124 214.396 157.124 213.75C157.124 213.104 157.039 212.526 156.903 211.999C156.546 210.605 155.56 209.415 153.928 209.415C152.517 209.415 151.735 210.163 151.395 211.472L151.242 211.455C151.344 210.843 151.497 210.061 151.497 209.636V209.5H150.035V221.026H151.497V217.949C151.497 217.524 151.344 216.742 151.242 216.13L151.395 216.113C151.735 217.422 152.517 218.17 153.928 218.17ZM153.571 216.963C152.364 216.963 151.565 215.773 151.565 213.75C151.565 211.761 152.364 210.537 153.571 210.537C154.761 210.537 155.679 211.761 155.679 213.75C155.679 215.773 154.761 216.963 153.571 216.963ZM162.028 218.17C164.289 218.17 165.632 216.572 165.632 213.75C165.632 210.928 164.289 209.33 162.028 209.33C159.767 209.33 158.424 210.928 158.424 213.75C158.424 216.572 159.767 218.17 162.028 218.17ZM162.028 216.997C160.855 216.997 159.988 215.943 159.988 213.75C159.988 211.591 160.855 210.486 162.028 210.486C163.184 210.486 164.068 211.591 164.068 213.75C164.068 215.943 163.184 216.997 162.028 216.997ZM168.696 218V214.243H169.478C170.328 214.243 170.634 214.702 170.889 215.467C171.212 216.453 171.467 217.541 171.824 218H173.524C173.15 217.575 172.946 217.116 172.708 216.521C172.487 215.96 172.283 215.297 172.164 214.991C171.875 214.226 171.501 213.903 170.634 213.75V213.597C171.365 213.444 171.79 213.155 172.13 212.475C172.334 212.067 172.487 211.608 172.725 210.911C172.878 210.469 173.116 209.84 173.456 209.5H171.824C171.433 210.027 171.161 211.285 170.821 212.169C170.549 212.883 170.209 213.189 169.478 213.189H168.696V209.5H167.251V218H168.696Z" fill="black"/>
<path d="M274.856 211.982L274.703 211.863C274.839 211.098 274.907 210.503 274.958 209.908L275.094 208.276H279.106V206.984H273.853L273.377 212.883L274.822 213.172C275.077 212.577 275.604 212.118 276.369 212.118C277.27 212.118 278.256 212.798 278.256 214.498C278.256 216.232 277.389 216.98 276.284 216.997C275.179 217.014 274.414 216.334 274.686 214.838H273.19C272.714 216.997 274.108 218.204 276.165 218.204C278.137 218.204 279.769 217.014 279.769 214.447C279.769 211.982 278.341 210.945 276.93 210.945C275.995 210.945 275.434 211.217 274.856 211.982ZM284.273 216.827L284.29 218.119C286.313 218.119 286.789 217.422 286.925 216.249C287.027 215.45 287.146 212.866 287.265 210.758H289.713V218H291.124V209.5H286.007C285.905 211.744 285.82 214.362 285.684 215.722C285.565 216.878 284.885 216.827 284.273 216.827ZM299.516 215.178L298.105 215.161C298.105 216.521 297.255 216.997 296.371 216.997C295.181 216.997 294.246 216.079 294.229 213.835H299.414C299.465 213.529 299.482 213.206 299.482 212.917C299.482 210.962 298.479 209.33 296.32 209.33C293.906 209.33 292.75 211.302 292.75 213.818C292.75 216.232 293.821 218.17 296.286 218.17C298.241 218.17 299.465 217.048 299.516 215.178ZM296.252 210.486C297.374 210.486 298.054 211.251 298.054 212.764V212.917H294.246C294.331 211.472 295.028 210.486 296.252 210.486ZM304.492 218V210.792H307.212V209.5H300.31V210.792H303.03V218H304.492Z" fill="black"/>
<path d="M528.343 210.435H529.822C529.771 210.18 529.754 209.942 529.754 209.721C529.754 208.497 530.519 208.021 531.488 208.021C532.491 208.021 533.29 208.463 533.29 209.806C533.29 211.115 532.372 211.625 531.896 211.625H530.774V213.104H531.896C532.372 213.104 533.29 213.682 533.29 215.042C533.29 216.385 532.474 216.963 531.471 216.963C530.434 216.963 529.618 216.504 529.618 215.28C529.618 215.076 529.635 214.872 529.669 214.651H528.156C528.122 214.889 528.105 215.11 528.105 215.314C528.105 217.235 529.244 218.187 531.369 218.187C533.256 218.187 534.82 217.303 534.82 215.195C534.82 213.852 534.14 212.9 532.967 212.424V212.237C534.106 211.812 534.82 211.013 534.82 209.67C534.82 207.664 533.426 206.797 531.607 206.797C529.686 206.797 528.275 207.766 528.275 209.687C528.275 209.908 528.292 210.163 528.343 210.435ZM541.619 218V210.826H545.172V209.5H540.208V218H541.619ZM549.362 218.17C551.623 218.17 552.966 216.572 552.966 213.75C552.966 210.928 551.623 209.33 549.362 209.33C547.101 209.33 545.758 210.928 545.758 213.75C545.758 216.572 547.101 218.17 549.362 218.17ZM549.362 216.997C548.189 216.997 547.322 215.943 547.322 213.75C547.322 211.591 548.189 210.486 549.362 210.486C550.518 210.486 551.402 211.591 551.402 213.75C551.402 215.943 550.518 216.997 549.362 216.997ZM560.667 216.861V209.5H555.533C555.482 211.693 555.414 214.175 555.278 214.872C555.04 216.113 554.666 216.861 553.85 216.861H553.697V220.278H554.921V218H560.616V220.278H561.84V216.861H560.667ZM555.346 216.861V216.742C555.992 216.368 556.366 215.654 556.502 214.549C556.57 213.988 556.655 212.492 556.723 210.826H559.256V216.861H555.346ZM563.1 212.016H564.477C564.307 211.081 564.868 210.452 565.973 210.452C567.01 210.452 567.554 211.047 567.554 212.288V212.611C565.463 212.798 562.675 212.951 562.675 215.756C562.675 216.963 563.423 218.17 565.174 218.17C566.619 218.17 567.316 217.354 567.656 216.317H567.809C567.707 216.895 567.537 217.643 567.537 217.864V218H568.982V212.39C568.982 210.469 568.251 209.33 566.126 209.33C564.103 209.33 562.998 210.435 563.1 212.016ZM565.701 217.082C564.749 217.082 564.069 216.453 564.069 215.535C564.069 214.43 564.715 213.631 567.554 213.427C567.588 213.937 567.588 214.464 567.554 214.974C567.469 216.181 566.755 217.082 565.701 217.082Z" fill="black"/>
<path d="M30.037 271.925H31.533C31.397 270.565 32.128 270.055 33.386 270.055C34.78 270.055 35.307 270.854 35.307 271.908C35.307 273.098 34.627 273.727 33.624 273.727H32.451V275.172H33.675C34.78 275.172 35.647 275.784 35.647 277.042C35.647 278.317 34.814 278.929 33.59 278.929C32.298 278.929 31.227 278.521 31.482 277.025H29.969C29.731 279.201 31.057 280.153 33.386 280.153C35.664 280.153 37.194 279.184 37.194 277.076C37.194 275.75 36.531 274.764 35.324 274.424V274.186C36.259 273.778 36.871 272.894 36.871 271.789C36.871 269.715 35.426 268.797 33.318 268.814C31.363 268.831 29.867 269.885 30.037 271.925ZM39.3347 274.016H40.7117C40.5417 273.081 41.1027 272.452 42.2077 272.452C43.2447 272.452 43.7887 273.047 43.7887 274.288V274.611C41.6977 274.798 38.9097 274.951 38.9097 277.756C38.9097 278.963 39.6577 280.17 41.4087 280.17C42.8537 280.17 43.5507 279.354 43.8907 278.317H44.0437C43.9417 278.895 43.7717 279.643 43.7717 279.864V280H45.2167V274.39C45.2167 272.469 44.4857 271.33 42.3607 271.33C40.3377 271.33 39.2327 272.435 39.3347 274.016ZM41.9357 279.082C40.9837 279.082 40.3037 278.453 40.3037 277.535C40.3037 276.43 40.9497 275.631 43.7887 275.427C43.8227 275.937 43.8227 276.464 43.7887 276.974C43.7037 278.181 42.9897 279.082 41.9357 279.082ZM46.5526 278.827L46.5696 280.119C48.5926 280.119 49.0686 279.422 49.2046 278.249C49.3066 277.45 49.4256 274.866 49.5446 272.758H51.9926V280H53.4036V271.5H48.2866C48.1846 273.744 48.0996 276.362 47.9636 277.722C47.8446 278.878 47.1646 278.827 46.5526 278.827ZM58.6338 280.17C60.8948 280.17 62.2378 278.572 62.2378 275.75C62.2378 272.928 60.8948 271.33 58.6338 271.33C56.3728 271.33 55.0298 272.928 55.0298 275.75C55.0298 278.572 56.3728 280.17 58.6338 280.17ZM58.6338 278.997C57.4608 278.997 56.5938 277.943 56.5938 275.75C56.5938 273.591 57.4608 272.486 58.6338 272.486C59.7898 272.486 60.6738 273.591 60.6738 275.75C60.6738 277.943 59.7898 278.997 58.6338 278.997ZM65.2678 280V272.826H68.8208V271.5H63.8568V280H65.2678Z" fill="black"/>
<path d="M274.975 280V275.138H276.437C277.797 275.138 278.069 275.733 278.392 276.719C278.817 277.994 279.123 279.405 279.497 280H281.282C280.534 278.776 280.024 276.855 279.735 276.073C279.361 275.036 278.902 274.662 277.814 274.492V274.322C278.851 274.169 279.327 273.761 279.718 272.792C279.99 272.095 280.381 270.616 281.231 268.984H279.531C279.123 269.664 278.766 271.296 278.358 272.435C278.018 273.37 277.644 273.761 276.505 273.761H274.975V268.984H273.479V280H274.975ZM288.97 271.5H287.457L286.318 275.444C285.842 277.076 285.621 278.181 285.57 278.47H285.451C285.349 277.892 285.281 277.433 284.703 275.597L283.428 271.5H281.898L284.703 279.847L283.751 282.975H285.179L286.148 279.813L288.97 271.5ZM291.518 280V272.673H294.833V280H296.278V271.5H290.073V280H291.518ZM297.621 278.827L297.638 280.119C299.661 280.119 300.137 279.422 300.273 278.249C300.375 277.45 300.494 274.866 300.613 272.758H303.061V280H304.472V271.5H299.355C299.253 273.744 299.168 276.362 299.032 277.722C298.913 278.878 298.233 278.827 297.621 278.827ZM312.864 277.178L311.453 277.161C311.453 278.521 310.603 278.997 309.719 278.997C308.529 278.997 307.594 278.079 307.577 275.835H312.762C312.813 275.529 312.83 275.206 312.83 274.917C312.83 272.962 311.827 271.33 309.668 271.33C307.254 271.33 306.098 273.302 306.098 275.818C306.098 278.232 307.169 280.17 309.634 280.17C311.589 280.17 312.813 279.048 312.864 277.178ZM309.6 272.486C310.722 272.486 311.402 273.251 311.402 274.764V274.917H307.594C307.679 273.472 308.376 272.486 309.6 272.486ZM316.055 280V276.311H319.625V280H321.07V271.5H319.625V275.002H316.055V271.5H314.61V280H316.055ZM324.787 280V276.311H328.357V280H329.802V271.5H328.357V275.002H324.787V271.5H323.342V280H324.787ZM333.469 271.5H332.075V280H334.965C337.583 280 338.178 278.249 338.178 277.28C338.178 276.056 337.566 275.206 336.682 274.883C336.07 274.662 335.662 274.645 334.506 274.645H333.469V271.5ZM340.796 280V271.5H339.351V280H340.796ZM336.699 277.28C336.699 278.334 335.883 278.793 334.846 278.793H333.469V275.767H334.931C336.053 275.767 336.699 276.294 336.699 277.28ZM348.147 273.183L348.283 273.217C348.096 274.067 348.011 275.24 347.994 276.464L347.977 280H349.388V271.5H347.977L345.835 275.274C344.883 276.94 344.679 277.739 344.356 278.453L344.203 278.385C344.424 277.603 344.492 275.971 344.492 274.764V271.5H343.081V280H344.543L346.583 276.413C347.62 274.577 347.824 273.914 348.147 273.183ZM344.101 269.477V270.412C344.832 270.582 345.58 270.667 346.311 270.667C347.042 270.667 347.773 270.582 348.521 270.412V269.477C347.773 269.647 347.042 269.732 346.311 269.732C345.58 269.732 344.832 269.647 344.101 269.477ZM354.834 274.016H356.211C356.041 273.081 356.602 272.452 357.707 272.452C358.744 272.452 359.288 273.047 359.288 274.288V274.611C357.197 274.798 354.409 274.951 354.409 277.756C354.409 278.963 355.157 280.17 356.908 280.17C358.353 280.17 359.05 279.354 359.39 278.317H359.543C359.441 278.895 359.271 279.643 359.271 279.864V280H360.716V274.39C360.716 272.469 359.985 271.33 357.86 271.33C355.837 271.33 354.732 272.435 354.834 274.016ZM357.435 279.082C356.483 279.082 355.803 278.453 355.803 277.535C355.803 276.43 356.449 275.631 359.288 275.427C359.322 275.937 359.322 276.464 359.288 276.974C359.203 278.181 358.489 279.082 357.435 279.082ZM363.191 280H364.585H366.472C367.084 280 367.56 279.966 368.019 279.813C369.09 279.473 369.651 278.657 369.651 277.62C369.651 276.804 369.124 275.767 367.577 275.665V275.546C368.801 275.274 369.328 274.373 369.328 273.608C369.328 272.078 368.138 271.5 366.846 271.5H364.585H363.191V280ZM364.585 278.878V276.226H366.642C367.424 276.226 368.223 276.6 368.223 277.535C368.223 278.47 367.543 278.878 366.591 278.878H364.585ZM364.585 275.155V272.588H366.54C367.271 272.588 367.917 272.945 367.917 273.812C367.917 274.696 367.169 275.155 366.336 275.155H364.585ZM374.733 280V272.792H377.453V271.5H370.551V272.792H373.271V280H374.733ZM381.72 280.17C383.981 280.17 385.324 278.572 385.324 275.75C385.324 272.928 383.981 271.33 381.72 271.33C379.459 271.33 378.116 272.928 378.116 275.75C378.116 278.572 379.459 280.17 381.72 280.17ZM381.72 278.997C380.547 278.997 379.68 277.943 379.68 275.75C379.68 273.591 380.547 272.486 381.72 272.486C382.876 272.486 383.76 273.591 383.76 275.75C383.76 277.943 382.876 278.997 381.72 278.997ZM395.864 271.5H393.705L392.26 276.09C391.971 277.008 391.682 278.164 391.512 278.912H391.495C391.274 277.807 390.917 276.668 390.73 276.039L389.387 271.5H387.279L386.888 280H388.197L388.35 274.798C388.367 274.203 388.367 273.608 388.316 272.707H388.486C388.656 273.591 388.826 274.135 389.098 275.036L390.526 279.932H392.311L393.637 275.614C394.062 274.203 394.283 273.523 394.402 272.707H394.572C394.589 273.54 394.555 274.271 394.572 274.934L394.759 280H396.204L395.864 271.5ZM401.376 280.17C403.637 280.17 404.98 278.572 404.98 275.75C404.98 272.928 403.637 271.33 401.376 271.33C399.115 271.33 397.772 272.928 397.772 275.75C397.772 278.572 399.115 280.17 401.376 280.17ZM401.376 278.997C400.203 278.997 399.336 277.943 399.336 275.75C399.336 273.591 400.203 272.486 401.376 272.486C402.532 272.486 403.416 273.591 403.416 275.75C403.416 277.943 402.532 278.997 401.376 278.997ZM413.412 273.812C413.055 272.452 412.001 271.5 410.454 271.5C409.162 271.5 407.938 272.282 407.666 274.084H407.411C407.343 271.925 408.329 270.633 410.148 270.055C411.491 269.63 412.188 269.528 412.749 268.984L412.596 267.624C411.678 268.219 410.879 268.321 409.434 268.882C406.425 270.072 406.544 272.809 406.442 274.798C406.442 277.467 406.833 279.082 408.38 279.847C408.958 280.136 409.57 280.17 410.046 280.17C410.522 280.17 410.998 280.102 411.474 279.881C412.324 279.49 413.072 278.674 413.412 277.501C413.565 276.974 413.65 276.396 413.65 275.75C413.65 275.104 413.599 274.492 413.412 273.812ZM410.063 278.997C408.856 278.997 408.006 277.943 408.006 275.733C408.006 273.591 408.873 272.486 410.046 272.486C411.202 272.486 412.086 273.591 412.086 275.75C412.086 277.943 411.185 278.997 410.063 278.997ZM420.331 273.183L420.467 273.217C420.28 274.067 420.195 275.24 420.178 276.464L420.161 280H421.572V271.5H420.161L418.019 275.274C417.067 276.94 416.863 277.739 416.54 278.453L416.387 278.385C416.608 277.603 416.676 275.971 416.676 274.764V271.5H415.265V280H416.727L418.767 276.413C419.804 274.577 420.008 273.914 420.331 273.183ZM422.913 278.827L422.93 280.119C424.953 280.119 425.429 279.422 425.565 278.249C425.667 277.45 425.786 274.866 425.905 272.758H428.353V280H429.764V271.5H424.647C424.545 273.744 424.46 276.362 424.324 277.722C424.205 278.878 423.525 278.827 422.913 278.827ZM433.443 271.5H432.049V280H434.939C437.557 280 438.152 278.249 438.152 277.28C438.152 276.056 437.54 275.206 436.656 274.883C436.044 274.662 435.636 274.645 434.48 274.645H433.443V271.5ZM436.673 277.28C436.673 278.334 435.857 278.793 434.82 278.793H433.443V275.767H434.905C436.027 275.767 436.673 276.294 436.673 277.28Z" fill="black"/>
<path d="M535.058 268.984V273.829H529.975V268.984H528.479V280H529.975V275.24H535.058V280H536.554V268.984H535.058ZM545.286 277.178L543.875 277.161C543.875 278.521 543.025 278.997 542.141 278.997C540.951 278.997 540.016 278.079 539.999 275.835H545.184C545.235 275.529 545.252 275.206 545.252 274.917C545.252 272.962 544.249 271.33 542.09 271.33C539.676 271.33 538.52 273.302 538.52 275.818C538.52 278.232 539.591 280.17 542.056 280.17C544.011 280.17 545.235 279.048 545.286 277.178ZM542.022 272.486C543.144 272.486 543.824 273.251 543.824 274.764V274.917H540.016C540.101 273.472 540.798 272.486 542.022 272.486ZM550.262 280V272.792H552.982V271.5H546.08V272.792H548.8V280H550.262Z" fill="black"/>
<line x1="29" y1="57.5" x2="655" y2="57.4999" stroke="black" stroke-opacity="0.08"/>
<line x1="29" y1="118.5" x2="655" y2="118.5" stroke="black" stroke-opacity="0.08"/>
<line x1="29" y1="183.5" x2="655" y2="183.5" stroke="black" stroke-opacity="0.08"/>
<line x1="29" y1="244.5" x2="655" y2="244.5" stroke="black" stroke-opacity="0.08"/>
<rect x="1" y="1" width="687" height="316" rx="14" stroke="white" stroke-width="2"/>
</svg>
